<?xml version="1.0" encoding="UTF-8"?><svg xmlns="http://www.w3.org/2000/svg" xmlns:xlink="http://www.w3.org/1999/xlink" viewBox="0 0 918.88 967.1"><defs><style>.cls-1{fill:#297869;}.cls-2{fill:#fff;}.cls-3{fill:#b0adb0;}.cls-4{fill:#575548;}.cls-5{fill:#d32027;}.cls-6{fill:#33353b;}.cls-7{fill:#656569;}.cls-8{fill:none;stroke:#b0adb0;stroke-miterlimit:10;}.cls-9{fill:#79c143;}.cls-10{fill:url(#linear-gradient);}</style><linearGradient id="linear-gradient" x1="506.29" y1="737.95" x2="528.89" y2="737.95" gradientUnits="userSpaceOnUse"><stop offset="0" stop-color="#fff"/><stop offset="1" stop-color="#000"/></linearGradient></defs><g id="Body_Merge"><path class="cls-6" d="m56.99,402.06v17h-3.01v21.99h3.01v16.01h29.99v102h13.01v13h-16v45l65.01,65h93.01l7-2.98h30.94l5.01.96,6.98-2.98h7.03l2.02,2.02h7.99l16.99-3.03h15.98l26.04,3.99v12.98h0l5.98,27.99,6.03,32.06,1.99,7.99,5.06,11.02,6.94,16.96h2.97s4.96,4.01,4.96,4.01l12.13,15.07,7.94,8.95,2.07,5.06,4.9,9.91,5.06,6.02,9.96,9.96,6.98,5.06,10.04,11.98v39.98l2.9,5.02,4.04,6.98,3.94,4.96,5.97,4.04,7.18,5.06,9.98,7.99v3.91l-7.02,9.06v2.98l5.01,9.05v1.97h45.94v-1.96l8.09-7.03v-4.99l2.98-2.93,5.06-7.08,8.95-13.96,6.02-9,4.97-13.05h0v-33.99l25.02-31.02h4.96l33.03-34.01v-1.97l50-49.03v-105.07l24-12.94h90.83v-109.97h6v16h43l16.99-17v-24l-16.99-19h-43v15h-33.01v-6h15v-37h18v-54h-66.86v-54.99h-23.98v-36.02h24.02v-58.97h-12.94l-19.08-20.03v-.98h-1.99v-5.02h21.98v-47.98h-84.96v5.98h-6.01v-4.99h-84v-.99h-31.16l-17.87-.08v-72.93c-11.53-47.58-35.93-100.06-35.93-100.06l-6.08-3.94h-48.94s-33.22,70.58-37.06,104.01v73.03h-89.98v4.99h-5.98v-4.99H118v66.98h-62v35h6.99v2h-6.99v53h56v49h34v6h-16v18h-6v-6H56.99Zm199.99,163.99h48.02v5.01h-19.01v37.01h80.99v35.99h-19v-1.99h-58.98v1.99h-68.02v-30h-12.98v-48.02h48.99Zm199.97,42.03v-49.93l11.12-11.1h22.91v-21h2.99v21h97.01v90.99h37v62.04h-51l-17,12.99-5.99,2h-4.98l-17.03,11.98h-6.99l-20-5-3-5.01h-8.98l-24.04-11.99-3.99-6.99h-25.03v-66.03h-30.98v12.03h-17.98v-35.99h65.95Zm79.18-272.02h0s21.86,0,21.86,0h14v-24h13v29h-72.03v-5.01h23.17Zm78.84,434l-7.89,9h-12.08v7.94l-12.05,16.04-20.97,27.03h-1.99v7.01l-22.01,24.98-24.03,7.99-5.9-.03-8.08-9.94h-4.93s-8.06-7.02-8.06-7.02v-6.99l-18.03-20.01v-10.98l-15.51-13.9v-1.47l-32.44-31.65v-5.97s-2.01-1.99-2.01-1.99l-12.03-10.01v-6.01l6.07-27h4.94l-.02.02,82.05,35.93h11.02l20.97-4.96h28.99l44.04-25.99h3.94l5.97,11.02h3.03l6.02,9.99v8.87l-5.97,7.13-3.03,10.97Zm126.98-338.01h5.87v61.02h12v6h-11.82v48.01h-36.01v40.99h-91.99v-9.99h25.97v-74h-36.97v12.01h-43v-84l22.08-11.06h51.91v-39.94h35.84v20.98h-7.01v29.98h73.13Zm-111.34-218.98h8.38v-4.99h6.01v17.98h45.99v5.02h-1.99v.98l-20.02,20.03h-99.15l-3.99,3.99v5.95h-16.85v-47.96h6.02v-1h75.62Zm-342.66-4.05v5.01h92.01l46.11-57.97h36.81l46.11,58.01h21v6h-10v62h45.83v10.98h19.16v6.02h-27v18h-19.01v-16.99h-44.98v35.97h.99v5.01h-.99v37h36v14.97h-4.01v24.03h4.01v15.01h-25.01v48.94h25.01v23.02h-36.01v4.96h-2.99v-4.96h-62.94v79.03h-97.06v-12.01h-5v-5.01h21.99v-27.5h.02v-84.51h4.01v15.03h42.99l20.97-21.01v-19.99l-20.97-19.99h-42.99v14.99h-4.01v-5.86c-2.96-3.91-9.25-6.92-17.01-8.07v-.06h-.42c-2.1-.29-4.3-.46-6.58-.46s-4.48.16-6.58.46h-.42v.06c-7.76,1.15-14.04,4.16-17.01,8.07v8.88h-42.98v-66.03h-12v-1.99h12v-59.02h23.97v-41.98h-13.15v-43.03h14.16v-5.01h5.98Zm-200.97,73.05v-2h54.99v-66.05h103.85v6.04h-96.83v85h-55.04v-23h-6.97Zm43.01,150v5.99l12,12h36l12-12v-48h-18.01v-6h7l18.15-26.01h23.87v1.99h-12v52.02h12v25h-12v50.01h48v-36.04h42.99v5.03h-12.99v54.99h-30.01v30.02H123.99v-108.99h6Z"/></g><g id="Bombsite"><rect class="cls-4" x="165.99" y="238.08" width="84.94" height="66.98"/><rect class="cls-4" x="603.04" y="274.08" width="96.88" height="97.89"/><polyline class="cls-6" points="675.23 347.56 663.23 347.56 663.23 311.56 687.02 311.56 687.02 323.56 675.23 323.56 675.23 336.56"/><rect class="cls-6" x="585.24" y="321.51" width="49.04" height="15.05" transform="translate(1219.53 658.07) rotate(180)"/><rect class="cls-6" x="191.17" y="290.57" width="28.92" height="10.92" transform="translate(411.25 592.05) rotate(180)"/><rect class="cls-6" x="177.74" y="267.71" width="55.4" height="22.85" transform="translate(410.87 558.28) rotate(180)"/><rect class="cls-6" x="220.09" y="255.58" width="12.13" height="12.13" transform="translate(452.31 523.29) rotate(180)"/></g><g id="Lines"><rect class="cls-3" x="608.73" y="515.06" width="36.97" height="1.01"/><path class="cls-3" d="m644.98,516.06v5.96h-6.07v-5.96h6.07m1-1h-8.07v7.96h8.07v-7.96h0Z"/><path class="cls-3" d="m535.74,542.05v5.02h-41.76v-5.02h41.76m1-1h-43.76v7.02h43.76v-7.02h0Z"/><path class="cls-3" d="m433.84,504.99c2.65,0,4.8,2.15,4.8,4.8s-2.15,4.8-4.8,4.8-4.8-2.15-4.8-4.8,2.15-4.8,4.8-4.8m0-1c-3.2,0-5.8,2.6-5.8,5.8s2.6,5.8,5.8,5.8,5.8-2.6,5.8-5.8-2.6-5.8-5.8-5.8h0Z"/><path class="cls-3" d="m455.98,597.07v10.24h-9.12v-10.24h9.12m1-1h-11.12v12.24h11.12v-12.24h0Z"/><path class="cls-3" d="m444.9,603.5v3.81h-3.73v-3.81h3.73m1-1h-5.73v5.81h5.73v-5.81h0Z"/><path class="cls-3" d="m250.78,645.06v9.73h-9.97v-9.73h9.97m1-1h-11.97v11.73h11.97v-11.73h0Z"/><path class="cls-3" d="m167.26,597.16l10.19,10.19v14.42l-10.19,10.19h-14.42l-10.19-10.19v-14.42l10.19-10.19h14.42m.41-1h-15.25l-10.78,10.78v15.25l10.78,10.78h15.25l10.78-10.78v-15.25l-10.78-10.78h0Z"/><path class="cls-3" d="m257.01,393.09v14.92h-13.37v-14.92h13.37m1-1h-15.37v16.92h15.37v-16.92h0Z"/><path class="cls-3" d="m257.01,396.06v8.96h-10.27v-8.96h10.27m1-1h-12.27v10.96h12.27v-10.96h0Z"/><path class="cls-3" d="m256.06,349.06v8.07h-9.1v-8.07h9.1m1-1h-11.1v10.07h11.1v-10.07h0Z"/><rect class="cls-3" x="220.39" y="359.06" width="25.11" height=".98"/><rect class="cls-3" x="155.2" y="435.63" width="41.08" height=".98" transform="translate(-256.91 252.01) rotate(-45)"/><path class="cls-3" d="m222.7,473.05v14.03h-13.72v-14.03h13.72m1-1h-15.72v16.03h15.72v-16.03h0Z"/><path class="cls-3" d="m219.71,476.05v11.03h-10.74v-11.03h10.74m1-1h-12.74v13.03h12.74v-13.03h0Z"/><path class="cls-3" d="m346.72,464.05v8.99h-9.98v-8.99h9.98m1-1h-11.98v10.99h11.98v-10.99h0Z"/><path class="cls-3" d="m122.82,336.06v23.02h-10.84v-23.02h10.84m1-1h-12.84v25.02h12.84v-25.02h0Z"/><path class="cls-3" d="m159.82,293.95v10.12h-10v-10.12h10m1-1h-12v12.12h12v-12.12h0Z"/><path class="cls-3" d="m231.7,256.07v10.98h-10.98v-10.98h10.98m1-1h-12.98v12.98h12.98v-12.98h0Z"/><path class="cls-3" d="m232.71,268.07v21.97h-53.97v-21.97h53.97m1-1h-55.97v23.97h55.97v-23.97h0Z"/><path class="cls-3" d="m219.7,291.04v9.99h-28v-9.99h28m1-1h-30v11.99h30v-11.99h0Z"/><path class="cls-3" d="m686.73,676.06v3.96h-4.99v-3.96h4.99m1-1h-6.99v5.96h6.99v-5.96h0Z"/><path class="cls-3" d="m686.73,663.06v11h-11v-11h11m1-1h-13v13h13v-13h0Z"/><path class="cls-3" d="m802.81,583.06v.99h-47.99v-.99h47.99m1-1h-49.99v2.99h49.99v-2.99h0Z"/><path class="cls-3" d="m802.81,585.07v6h-11.98v-6h11.98m1-1h-13.98v8h13.98v-8h0Z"/><path class="cls-3" d="m722.69,548.07v10.97h-9.97v-10.97h9.97m1-1h-11.97v12.97h11.97v-12.97h0Z"/><path class="cls-3" d="m717.74,560.02v5h-5v-5h5m1-1h-7v7h7v-7h0Z"/><path class="cls-3" d="m565.74,433.06v28.99h-11.01v-28.99h11.01m1-1h-13.01v30.99h13.01v-30.99h0Z"/><path class="cls-3" d="m565.74,457.08v4.98h-11.01v-4.98h11.01m1-1h-13.01v6.98h13.01v-6.98h0Z"/><path class="cls-3" d="m564.73,342.29v22.75h-10.03v-22.75h10.03m1-1h-12.03v24.75h12.03v-24.75h0Z"/><path class="cls-3" d="m564.73,360.06v4.98h-10.03v-4.98h10.03m1-1h-12.03v6.98h12.03v-6.98h0Z"/><path class="cls-3" d="m633.7,322.06v14.03h-47.98v-14.03h47.98m1-1h-49.98v16.03h49.98v-16.03h0Z"/><rect class="cls-3" x="662.73" y="311.06" width="25.1" height="1"/><rect class="cls-3" x="686.83" y="311.56" width="1" height="12.5"/><rect class="cls-3" x="674.73" y="323.06" width="12.67" height="1"/><rect class="cls-3" x="674.82" y="323.56" width="1" height="23.84"/><rect class="cls-3" x="662.81" y="347.06" width="13" height="1"/><rect class="cls-3" x="662.81" y="311.92" width="1" height="35.64"/><path class="cls-3" d="m740.96,348.05v20h-6.15v-20h6.15m1-1h-8.15v22h8.15v-22h0Z"/><rect class="cls-3" x="675.03" y="400.05" width="6.79" height="2.01"/><rect class="cls-3" x="705.73" y="400.05" width="36.43" height="2.01"/><path class="cls-3" d="m740.96,388.06v11.1h-21.99v-11.1h21.99m1-1h-23.99v13.1h23.99v-13.1h0Z"/><rect class="cls-3" x="729.71" y="387.78" width="1.03" height="11.79"/><circle class="cls-8" cx="593.75" cy="634.97" r="2.65"/><rect class="cls-3" x="620" y="546.96" width="1" height="31.59"/><path class="cls-3" d="m638.75,382.31v8.72h-10.03v-8.72h10.03m1-1h-12.03v10.72h12.03v-10.72h0Z"/><rect class="cls-3" x="668.59" y="251.27" width="60.42" height="1.01"/><path class="cls-3" d="m463.72,5.06v9.98h-9.98V5.06h9.98m1-1h-11.98v11.98h11.98V4.06h0Z"/><rect class="cls-3" x="663.48" y="323.06" width="13" height="1"/><circle class="cls-8" cx="739.86" cy="287.07" r="2.65"/></g><g id="Outlines"><path class="cls-7" d="m463.95,1.05l6.08,3.94s24.4,52.48,35.93,100.06v72.93l17.87.08h31.16v.99h84v4.99h6.01v-5.98h84.96v47.98h-21.98v5.02h1.99v.98l19.08,20.03h12.94v58.97h-24.02v36.02h23.98v54.99h66.86v54h-18v37h-15v6h33.01v-15h43l16.99,19v24l-16.99,17h-43v-16h-6v109.97h-90.83l-24,12.94v105.07l-50,49.03v1.97l-33.03,34.01h-4.95l-25.02,31.02v33.99h0s-4.97,13.05-4.97,13.05l-6.02,9-8.95,13.96-5.06,7.08-2.98,2.93v4.99l-8.09,7.03v1.96h-45.94v-1.97l-5.01-9.05v-2.98l7.02-9.06v-3.91l-9.98-7.99-7.18-5.06-5.97-4.04-3.94-4.96-4.05-6.98-2.9-5.02v-39.98l-10.04-11.98-6.98-5.06-9.96-9.96-5.06-6.02-4.9-9.91-2.07-5.06-7.94-8.95-12.13-15.07-4.96-3.99h-2.97s-6.94-16.97-6.94-16.97l-5.06-11.02-1.99-7.99-6.03-32.06-5.98-27.99h0v-12.98l-26.04-3.99h-15.98l-16.99,3.03h-7.99l-2.02-2.02h-7.03l-6.98,2.98-5.01-.96h-30.94l-7,2.98h-93.01l-65.01-65v-45h16v-13h-13.01v-102h-29.99v-16.01h-3.01v-21.99h3.01v-17h67v6h6v-18h16v-6h-34v-49h-56v-53h6.99v-2h-6.99v-35h62v-66.98h163.97v4.99h5.98v-4.99h89.98v-73.03c3.84-33.42,37.06-104.01,37.06-104.01h48.94m-175.99,212.97v-5.01h-5.98v5.01h-14.16v43.03h13.15v41.98h-23.97v59.02h-12v1.99h12v66.03h42.98v-8.88c2.96-3.91,9.25-6.92,17.01-8.07v-.06h.42c2.1-.29,4.3-.46,6.58-.46s4.48.16,6.58.46h.42v.06c7.76,1.15,14.05,4.16,17.01,8.07v5.86h4.01v-14.99h42.99l20.97,19.99v19.99l-20.97,21.01h-42.99v-15.03h-4.01v84.51h-.02v27.5h-21.99v5.01h5v12.01h97.06v-79.03h62.94v4.96h2.99v-4.96h36.01v-23.02h-25.01v-48.94h25.01v-15.01h-4.01v-24.03h4.01v-14.97h-36v-37h.99v-5.01h-.99v-35.97h44.98v16.99h19.01v-18h27v-6.02h-19.16v-10.98h-45.83v-62h10v-6h-21l-46.11-58.01h-36.81l-46.11,57.97h-92.01m261.02,48h16.85v-5.95l3.99-3.99h99.15l20.02-20.03v-.98h1.99v-5.02h-45.99v-17.98h-6.01v4.99h-84v1h-6.02v47.96m-461.98,20.05h6.97v23h55.04v-85h96.83v-6.04h-103.85v66.05h-54.99v2m449.14,53.99h0s-23.17,0-23.17,0v5.01h72.03v-29h-13v24h-35.86m-364.14,54h18.01v48l-12,12h-36l-12-12v-5.99h-6v108.99h132.99v-30.02h30.01v-54.99h12.99v-5.03h-42.99v36.04h-48v-50.01h12v-25h-12v-52.02h12v-1.99h-23.87l-18.15,26.01h-7v6m394.01,126.01h43v-12.01h36.97v74h-25.97v9.99h91.99v-40.99h36.01v-48.01h11.82v-6h-12v-61.02h-79.01v-29.98h7.01v-20.98h-35.84v39.94h-51.91l-22.08,11.06v84m-174.99,127.99h17.98v-12.03h30.98v66.03h25.03l3.99,6.99,24.04,11.99h8.98l3,5.01,20,5h6.99l17.03-11.98h4.98l5.99-2,17-12.99h51v-62.04h-37v-90.99h-97.01v-21h-2.99v21h-22.91l-11.12,11.1v49.93h-65.95v35.99m-183.01-30h12.98v30h68.02v-1.99h58.98v1.99h19v-35.99h-80.99v-37.01h19.01v-5.01h-97.01v48.02m209.98,102.99h-4.94l-6.07,27v6.01l12.03,10.01,2,1.99v5.97s32.45,31.65,32.45,31.65v1.47l15.51,13.9v10.98l18.03,20.01v6.99l8.06,7.01h4.93s8.08,9.94,8.08,9.94l5.9.03,24.03-7.99,22.01-24.98v-7.01h1.99l20.97-27.03,12.05-16.04v-7.94h12.08l7.89-9,3.03-10.97,5.97-7.13v-8.87l-6.02-9.99h-3.03l-5.97-11.02h-3.94l-44.04,25.99h-28.99l-20.97,4.96h-11.02l-82.05-35.93.02-.02M464.26,0h-49.92l-.28.6c-.33.71-33.34,71.12-37.15,104.33v.06s0,.06,0,.06v71.98h-89.98v4.99h-3.88v-4.99H116.95v66.98h-62v92.1h56v49h34v3.9h-16v18h-3.9v-6H55.94v17h-3.01v24.09h3.01v16.01h29.99v102h13.01v10.9h-16v46.48l.31.31,65.01,65,.31.31h93.66l.2-.08,6.81-2.89h30.63l4.91.94.32.06.3-.13,6.78-2.9h6.38l1.71,1.71.31.31h8.52l.09-.02,16.9-3.02h15.8l25.07,3.85v13.09h.2s5.8,27.2,5.8,27.2l6.03,32.03v.03s.01.03.01.03l1.99,7.99.02.1.04.09,5.06,11.02,6.92,16.92.27.65h.7s2.6.01,2.6.01l4.58,3.69,12.06,14.98,7.85,8.85,2.01,4.89v.03s.03.03.03.03l4.9,9.91.06.11.08.1,5.06,6.02.03.03.03.03,9.96,9.96.06.06.07.05,6.87,4.98,9.72,11.59v39.88l.14.24,2.9,5.02,4.05,6.98.04.07.05.06,3.94,4.96.1.13.13.09,5.97,4.05,7.14,5.03,9.56,7.65v3.05l-6.8,8.78-.22.28v3.61l.13.24,4.87,8.81v2.75h48.04v-1.05s0-1.49,0-1.49l7.73-6.72.36-.31v-5.03l2.67-2.62.07-.06.05-.07,5.06-7.08.02-.02v-.02s8.96-13.95,8.96-13.95l6.01-8.98.07-.1.04-.11,4.97-13.05.07-.18v-33.81l24.47-30.34h4.9l.31-.32,33.03-34.01.3-.31v-1.96l49.68-48.72.31-.31v-104.88l23.21-12.52h91.61v-109.97h3.9v16h44.49l.31-.31,16.99-17,.31-.31v-24.83l-.27-.3-16.99-19-.31-.35h-44.52v15h-30.91v-3.9h15v-37h18v-56.1h-66.86v-54.99h-23.98v-33.92h24.02v-61.07h-13.54l-18.48-19.4v-1.61h-1.99v-2.92h21.98v-50.08h-87.06v5.98h-3.91v-4.99h-84v-.99h-32.21l-16.82-.07v-72.01l-.03-.12c-11.42-47.13-35.76-99.73-36-100.26l-.13-.27-.25-.16-6.08-3.94-.26-.17h0Zm-37.67,157.1h35.8l45.8,57.61.32.4h20.45v3.9h-10v64.1h45.83v10.98h19.16v3.92h-27v18h-16.91v-16.99h-47.08v38.07h.99v2.91h-.99v39.1h36v12.87h-4.01v26.13h4.01v12.91h-25.01v51.04h25.01v20.92h-36.01v4.96h-.89v-4.96h-65.04v79.03h-94.96v-12.01h-5v-2.91h21.99v-27.5l.02-1.05v-83.46h1.91v15.03h44.47l.31-.31,20.97-21.01.31-.31v-20.87l-.33-.31-20.97-19.99-.3-.29h-44.46v14.99h-1.91v-5.16l-.21-.28c-3.05-4.03-9.14-7.05-16.8-8.34v-.21h-1.4c-2.2-.3-4.44-.46-6.65-.46s-4.45.15-6.65.46h-1.4v.21c-7.65,1.29-13.74,4.3-16.79,8.33l-.21.28v8.18h-40.88v-124.94h23.97v-44.08h-13.15v-40.93h14.16v-5.01h3.88v5.01h93.56l.32-.4,45.8-57.57h0Zm213.46,52.02h3.91v17.98h45.99v2.92h-1.99v1.59l-19.41,19.41h-99.15l-.31.31-3.99,3.99-.31.31v5.34h-14.75v-45.86h6.02v-1h84v-4.99h0Zm-497.01,5.95h101.75v3.94h-96.83v85h-52.94v-22.9h48.02v-66.05h0Zm430.01,98.04h10.9v26.9h-69.93v-2.91h22.12s21.86,0,21.86,0h15.05v-24h0Zm-375.36,46h10.27v54h12v22.9h-12v52.11h50.1v-36.04h40.89v2.93h-12.99v54.99h-30.01v30.02H125.04v-106.89h3.9v5.38l.31.31,12,12,.31.31h36.87l.31-.31,12-12,.31-.31v-49.48h-18.01v-3.9h6.49l.31-.45,17.83-25.56h0Zm443.36,23.02h33.74v18.88h-7.01v32.08h79.01v61.02h12v3.9h-11.82v48.01h-36.01v40.99h-89.89v-7.89h25.97v-76.1h-39.07v12.01h-40.9v-82.3l21.28-10.65h52.71v-39.94h0Zm-149,144.97h.89v21h97.01v90.99h37v59.94h-50.31l-.28.22-16.86,12.89-5.66,1.89h-5.14l-.27.19-16.76,11.79h-6.52l-19.45-4.86-2.78-4.63-.31-.51h-9.33l-23.54-11.74-3.83-6.71-.3-.53h-24.59v-66.03h-33.08v12.03h-15.88v-33.89h65.95v-50.54l10.51-10.48h23.53v-21h0Zm-282.99,40h94.91v2.91h-19.01v39.11h80.99v33.89h-16.9v-1.99h-61.08v1.99h-65.92v-30h-12.98v-45.92h0Zm204.82,151.01h3.82l81.89,35.86.2.09h11.36l.12-.03,20.85-4.93h29.15l.25-.15,43.79-25.84h3.03l5.67,10.47.3.55h3.07l5.56,9.23v8.2l-5.72,6.84-.15.17-.06.22-2.97,10.74-7.42,8.46h-12.66v8.64l-11.84,15.76-20.64,26.61h-2.52v7.66l-21.56,24.47-23.6,7.84-5.23-.03-7.77-9.55-.31-.39h-.5s-4.54,0-4.54,0l-7.4-6.44v-6.92l-.27-.3-17.76-19.71v-11.05l-.35-.31-15.16-13.59v-1.44l-.32-.31-32.13-31.34v-5.52s0-.44,0-.44l-.31-.31-2-1.99-.03-.03-.04-.03-11.66-9.7v-5.41l5.86-26.07h0Z"/></g><g id="TP_Lines_test"><polygon class="cls-1" points="431.02 437.05 436.04 427.1 425.99 427.08 419.97 437.05 419.97 439.04 425.99 449.01 436.04 449 431.02 439.04 431.02 437.05"/><polygon class="cls-1" points="431.02 437.05 436.04 427.1 425.99 427.08 419.97 437.05 419.97 439.04 425.99 449.01 436.04 449 431.02 439.04 431.02 437.05"/><polygon class="cls-1" points="516.98 404.11 521.99 394.16 511.95 394.15 505.92 404.11 505.92 406.11 511.95 416.07 521.99 416.06 516.98 406.11 516.98 404.11"/><polygon class="cls-1" points="887.94 513.07 892.95 503.11 882.91 503.1 876.88 513.07 876.88 515.06 882.91 525.02 892.95 525.01 887.94 515.06 887.94 513.07"/><polygon class="cls-1" points="44.03 429.09 49.05 419.14 39 419.13 32.98 429.09 32.98 431.09 39 441.05 49.05 441.04 44.03 431.09 44.03 429.09"/><polygon class="cls-1" points="909.22 508.06 906.89 508.06 893.64 508.06 891.12 513.06 891.12 515.05 893.65 520.06 906.89 520.06 906.89 759.06 698.5 759.06 698.5 771.04 918.88 771.04 918.88 765.05 918.88 759.06 918.88 508.06 909.22 508.06"/><polygon class="cls-1" points="11.99 436.03 32.98 436.03 32.98 436.01 29.98 431.04 29.98 429.05 32.98 424.09 32.98 424.06 0 424.06 0 434.19 0 436.03 0 771.05 8.3 771.05 11.99 771.05 368.98 771.05 368.98 759.06 11.99 759.06 11.99 436.03"/><polygon class="cls-1" points="505.92 399.15 505.92 399.07 453.99 399.07 453.99 408.88 453.99 411.04 453.99 432.06 436.43 432.06 433.91 437.06 433.91 439.05 436.43 444.05 453.99 444.05 453.99 444.05 465.99 444.05 465.99 411.04 505.9 411.04 502.92 406.11 502.92 404.11 505.92 399.15"/></g><g id="Callouts_copy"><path class="cls-5" d="m471.87,899.76c0-.16.04-.37.13-.61l2.5-6.81c.27-.74.72-1.09,1.44-1.09s1.19.33,1.47,1.08l2.51,6.82c.09.25.12.42.12.61,0,.53-.4.9-.96.9s-.83-.25-1-.84l-.48-1.45h-3.31l-.48,1.43c-.18.61-.46.86-.97.86-.6,0-.97-.35-.97-.9Zm5.29-2.88l-1.21-3.75h-.04l-1.19,3.75h2.44Z"/><path class="cls-5" d="m481.09,895.13h-.36c-.44,0-.72-.27-.72-.7s.28-.7.72-.7h.36v-.76c0-.6.35-.96.93-.96s.93.37.93.96v.76h.65c.44,0,.71.27.71.7s-.27.7-.71.7h-.65v3.26c0,.48.17.69.57.72h.12c.46.06.71.25.71.69,0,.55-.53.83-1.31.83h-.06c-1.24,0-1.87-.62-1.87-1.82v-3.67Z"/><path class="cls-5" d="m485.72,895.13h-.36c-.44,0-.72-.27-.72-.7s.28-.7.72-.7h.36v-.76c0-.6.35-.96.93-.96s.93.37.93.96v.76h.65c.44,0,.71.27.71.7s-.27.7-.71.7h-.65v3.26c0,.48.17.69.57.72h.12c.46.06.71.25.71.69,0,.55-.53.83-1.31.83h-.06c-1.24,0-1.87-.62-1.87-1.82v-3.67Z"/><path class="cls-5" d="m489.51,898.59c0-1.24.95-1.96,2.65-2.06l1.71-.1v-.45c0-.63-.45-1-1.14-1-.57,0-.91.18-1.32.72-.2.23-.44.34-.74.34-.45,0-.78-.29-.78-.71,0-.15.03-.28.1-.42.32-.81,1.41-1.31,2.82-1.31,1.75,0,2.88.9,2.88,2.27v3.88c0,.62-.37.93-.9.93s-.85-.28-.89-.82v-.35h-.04c-.38.72-1.23,1.15-2.08,1.15-1.29,0-2.28-.84-2.28-2.06Zm4.37-.54v-.5l-1.44.09c-.69.05-1.08.36-1.08.84,0,.51.42.83,1.04.83.81,0,1.48-.53,1.48-1.26Z"/><path class="cls-5" d="m496.65,897.14c0-2.18,1.29-3.55,3.34-3.55,1.37,0,2.5.66,2.87,1.62.06.16.1.32.1.46,0,.46-.36.72-.79.72-.37,0-.59-.15-.78-.48-.34-.6-.75-.87-1.34-.87-.94,0-1.52.77-1.52,2.09s.58,2.1,1.5,2.1c.65,0,1.05-.32,1.33-.8.25-.39.45-.55.84-.55.43,0,.78.29.78.74,0,.15-.04.3-.12.48-.41.93-1.57,1.57-2.87,1.57-2.05,0-3.35-1.35-3.35-3.55Z"/><path class="cls-5" d="m504.02,899.71v-7.5c0-.63.39-.97.93-.97s.93.34.93.97v4.22h.03l2.46-2.47c.25-.26.46-.37.74-.37.48,0,.83.35.83.81,0,.28-.08.45-.35.7l-1.73,1.64,1.9,2.42c.2.27.26.44.26.68,0,.5-.36.84-.88.84-.39,0-.62-.14-.91-.58l-1.75-2.31-.59.55v1.38c0,.63-.38.96-.93.96s-.93-.33-.93-.96Z"/><path class="cls-5" d="m510.41,897.17c0-2.19,1.28-3.58,3.29-3.58s3.22,1.32,3.22,3.17c0,.51-.29.81-.81.81h-3.88v.08c0,1.01.61,1.67,1.55,1.67.68,0,1.12-.23,1.62-.82.2-.2.36-.27.6-.27.4,0,.72.25.72.68,0,.15-.04.3-.13.45-.45.84-1.5,1.33-2.82,1.33-2.13,0-3.38-1.31-3.38-3.52Zm4.73-.74c-.04-.89-.61-1.47-1.42-1.47s-1.4.6-1.47,1.47h2.89Z"/><path class="cls-5" d="m517.87,899.71v-5.18c0-.59.36-.93.89-.93s.88.34.88.93v.45h.04c.18-.84.74-1.35,1.42-1.35.25,0,.44.06.58.17.18.14.27.37.27.69,0,.29-.09.51-.27.67s-.44.23-.81.24c-.84.01-1.14.49-1.14,1.29v3.02c0,.62-.36.96-.93.96s-.93-.35-.93-.96Z"/><path class="cls-5" d="m525.21,898.94c-.06-.17-.1-.34-.1-.51,0-.51.35-.84.84-.84.39,0,.65.15.88.56.3.7,1.02,1.02,1.89,1.02,1.03,0,1.73-.49,1.73-1.17,0-.6-.43-.95-1.58-1.18l-.97-.19c-1.83-.36-2.72-1.24-2.72-2.6,0-1.68,1.46-2.79,3.5-2.79,1.68,0,2.94.71,3.35,1.9.04.13.07.26.07.42,0,.46-.33.77-.82.77-.43,0-.7-.17-.91-.57-.3-.69-.9-.98-1.68-.98-.95,0-1.57.44-1.57,1.12,0,.56.44.91,1.52,1.13l.96.2c1.94.39,2.78,1.17,2.78,2.56,0,1.79-1.4,2.92-3.69,2.92-1.89,0-3.1-.76-3.47-1.76Z"/><path class="cls-5" d="m533.38,902v-7.45c0-.62.38-.95.91-.95s.91.33.91.96v.37h.04c.37-.8,1.12-1.29,2.11-1.29,1.73,0,2.79,1.31,2.79,3.51s-1.05,3.51-2.76,3.51c-.99,0-1.75-.48-2.11-1.25h-.04v2.6c0,.63-.38.96-.93.96s-.93-.33-.93-.96Zm4.86-4.86c0-1.23-.58-2.03-1.51-2.03s-1.5.81-1.5,2.03.6,2.02,1.5,2.02,1.51-.78,1.51-2.02Z"/><path class="cls-5" d="m540.83,898.59c0-1.24.95-1.96,2.65-2.06l1.71-.1v-.45c0-.63-.45-1-1.14-1-.57,0-.91.18-1.32.72-.2.23-.44.34-.74.34-.45,0-.78-.29-.78-.71,0-.15.03-.28.1-.42.32-.81,1.41-1.31,2.82-1.31,1.75,0,2.88.9,2.88,2.27v3.88c0,.62-.37.93-.9.93s-.85-.28-.89-.82v-.35h-.04c-.38.72-1.23,1.15-2.08,1.15-1.29,0-2.28-.84-2.28-2.06Zm4.37-.54v-.5l-1.44.09c-.69.05-1.08.36-1.08.84,0,.51.42.83,1.04.83.81,0,1.48-.53,1.48-1.26Z"/><path class="cls-5" d="m549.29,899.7l-1.37-4.74c-.07-.24-.1-.39-.1-.57,0-.46.38-.79.89-.79.46,0,.76.28.87.79l1.01,4.4h.04l1.05-4.34c.12-.55.48-.85,1.05-.85s.91.3,1.03.85l1.06,4.34h.04l1.02-4.41c.1-.5.4-.77.86-.77.51,0,.88.32.88.79,0,.17-.03.32-.1.57l-1.37,4.75c-.19.67-.55.98-1.19.98-.68,0-1.04-.29-1.2-.98l-1.04-3.96h-.04l-1.03,3.97c-.16.67-.53.97-1.19.97s-.98-.3-1.17-.97Z"/><path class="cls-5" d="m558.45,899.71v-5.18c0-.58.34-.93.89-.93s.93.36.93.94v.38h.04c.36-.84,1.05-1.31,2.09-1.31,1.51,0,2.36.95,2.36,2.54v3.55c0,.63-.39.96-.93.96s-.93-.33-.93-.96v-3.17c0-.89-.42-1.4-1.25-1.4s-1.36.61-1.36,1.49v3.07c0,.63-.38.96-.93.96s-.93-.33-.93-.96Z"/><path class="cls-2" d="m141.15,589.13v-5.61c0-.48.27-.77.74-.77h3.3c.41,0,.67.23.67.61s-.27.61-.67.61h-2.56v1.88h2.32c.38,0,.63.22.63.58s-.24.59-.63.59h-2.32v2.1c0,.48-.27.77-.74.77s-.74-.28-.74-.77Z"/><path class="cls-2" d="m146.17,587.18c0-1.69,1.03-2.72,2.59-2.72s2.59,1.03,2.59,2.72-1.01,2.73-2.59,2.73-2.59-1.02-2.59-2.73Zm3.74,0c0-1.04-.45-1.64-1.14-1.64s-1.15.6-1.15,1.64.44,1.64,1.15,1.64,1.14-.59,1.14-1.64Z"/><path class="cls-2" d="m152.07,587.94v-2.73c0-.49.3-.75.71-.75s.71.26.71.75v2.44c0,.7.35,1.07.98,1.07s1.03-.45,1.03-1.15v-2.36c0-.49.3-.75.71-.75s.71.26.71.75v3.97c0,.47-.28.72-.69.72s-.69-.25-.69-.72v-.32h-.03c-.26.66-.78,1.04-1.57,1.04-1.13,0-1.88-.74-1.88-1.96Z"/><path class="cls-2" d="m157.85,589.16v-3.98c0-.44.26-.72.69-.72s.71.27.71.72v.29h.03c.28-.65.81-1.01,1.61-1.01,1.16,0,1.82.73,1.82,1.96v2.73c0,.49-.3.74-.71.74s-.71-.25-.71-.74v-2.44c0-.68-.32-1.07-.96-1.07s-1.04.47-1.04,1.15v2.36c0,.49-.29.74-.71.74s-.71-.25-.71-.74Z"/><path class="cls-2" d="m163.99,585.65h-.27c-.34,0-.55-.21-.55-.54s.21-.54.55-.54h.27v-.58c0-.46.27-.74.71-.74s.71.28.71.74v.58h.5c.34,0,.55.21.55.54s-.21.54-.55.54h-.5v2.5c0,.37.13.53.43.55h.09c.35.05.54.2.54.53,0,.42-.41.63-1.01.63h-.05c-.95,0-1.44-.47-1.44-1.4v-2.82Z"/><path class="cls-2" d="m166.91,588.3c0-.95.73-1.5,2.04-1.58l1.32-.08v-.35c0-.49-.34-.77-.88-.77-.43,0-.7.14-1.02.55-.16.18-.34.26-.57.26-.35,0-.6-.22-.6-.55,0-.11.02-.21.07-.32.24-.62,1.08-1.01,2.17-1.01,1.34,0,2.22.69,2.22,1.75v2.98c0,.47-.29.72-.69.72s-.65-.21-.68-.63v-.27h-.03c-.29.56-.95.88-1.6.88-1,0-1.75-.64-1.75-1.59Zm3.36-.42v-.38l-1.1.07c-.53.04-.83.28-.83.65,0,.39.32.63.8.63.62,0,1.14-.41,1.14-.97Z"/><path class="cls-2" d="m172.57,583.18c0-.42.33-.74.76-.74s.76.32.76.74-.33.74-.76.74-.76-.33-.76-.74Zm.05,5.98v-3.96c0-.46.27-.75.71-.75s.71.28.71.75v3.96c0,.46-.27.74-.71.74s-.71-.28-.71-.74Z"/><path class="cls-2" d="m174.99,589.16v-3.98c0-.44.26-.72.69-.72s.71.27.71.72v.29h.03c.28-.65.81-1.01,1.61-1.01,1.16,0,1.82.73,1.82,1.96v2.73c0,.49-.3.74-.71.74s-.71-.25-.71-.74v-2.44c0-.68-.32-1.07-.96-1.07s-1.04.47-1.04,1.15v2.36c0,.49-.29.74-.71.74s-.71-.25-.71-.74Z"/><path class="cls-2" d="m309.18,495.8v-5.6c0-.6.35-.95.95-.95.51,0,.8.21,1.01.76l1.75,4.33h.04l1.74-4.33c.21-.54.5-.76,1.02-.76.6,0,.95.35.95.95v5.6c0,.43-.24.69-.66.69s-.65-.25-.65-.69v-4.16h-.04l-1.74,4.26c-.13.31-.32.45-.63.45s-.52-.14-.64-.44l-1.74-4.27h-.04v4.16c0,.43-.24.69-.65.69s-.66-.25-.66-.69Z"/><path class="cls-2" d="m317.67,489.77c0-.42.33-.74.76-.74s.76.32.76.74-.33.74-.76.74-.76-.33-.76-.74Zm.05,5.98v-3.96c0-.46.27-.75.71-.75s.71.28.71.75v3.96c0,.46-.27.74-.71.74s-.71-.28-.71-.74Z"/><path class="cls-2" d="m319.9,493.77c0-1.66.83-2.69,2.14-2.69.76,0,1.34.4,1.6.98h.03v-2.07c0-.49.3-.75.71-.75s.71.26.71.75v5.79c0,.47-.29.72-.71.72s-.72-.24-.72-.72v-.3h-.02c-.23.59-.81,1.01-1.61,1.01-1.31,0-2.13-1.04-2.13-2.71Zm3.78,0c0-.95-.45-1.56-1.16-1.56s-1.16.6-1.16,1.56.44,1.55,1.16,1.55,1.16-.6,1.16-1.55Z"/><path class="cls-2" d="m226.28,441.38v-5.7c0-.49.27-.77.74-.77s.74.28.74.77v2.19h3.17v-2.19c0-.49.27-.77.74-.77s.74.28.74.77v5.7c0,.48-.27.77-.74.77s-.74-.28-.74-.77v-2.29h-3.17v2.29c0,.48-.27.77-.74.77s-.74-.28-.74-.77Z"/><path class="cls-2" d="m233.26,439.43c0-1.69,1.03-2.72,2.59-2.72s2.59,1.03,2.59,2.72-1.01,2.73-2.59,2.73-2.59-1.02-2.59-2.73Zm3.74,0c0-1.04-.45-1.64-1.14-1.64s-1.15.6-1.15,1.64.44,1.64,1.15,1.64,1.14-.59,1.14-1.64Z"/><path class="cls-2" d="m238.99,439.43c0-1.69,1.03-2.72,2.59-2.72s2.59,1.03,2.59,2.72-1.01,2.73-2.59,2.73-2.59-1.02-2.59-2.73Zm3.74,0c0-1.04-.45-1.64-1.14-1.64s-1.15.6-1.15,1.64.44,1.64,1.15,1.64,1.14-.59,1.14-1.64Z"/><path class="cls-2" d="m244.94,441.41v-5.77c0-.49.3-.75.71-.75s.71.26.71.75v3.25h.02l1.89-1.9c.19-.2.35-.28.57-.28.37,0,.63.27.63.62,0,.21-.06.35-.27.54l-1.33,1.26,1.46,1.86c.16.21.2.34.2.52,0,.38-.28.64-.68.64-.3,0-.47-.11-.7-.44l-1.34-1.78-.45.42v1.06c0,.49-.29.74-.71.74s-.71-.25-.71-.74Z"/><path class="cls-2" d="m250.06,440.55c0-.95.73-1.5,2.04-1.58l1.32-.08v-.35c0-.49-.34-.77-.88-.77-.43,0-.7.14-1.02.55-.16.18-.34.26-.57.26-.35,0-.6-.22-.6-.55,0-.11.02-.21.07-.32.24-.62,1.08-1.01,2.17-1.01,1.34,0,2.22.69,2.22,1.75v2.98c0,.47-.29.72-.69.72s-.65-.21-.68-.63v-.27h-.03c-.29.56-.95.88-1.6.88-1,0-1.75-.64-1.75-1.59Zm3.36-.42v-.38l-1.1.07c-.53.04-.83.28-.83.65,0,.39.32.63.8.63.62,0,1.14-.41,1.14-.97Z"/><path class="cls-2" d="m255.77,441.41v-5.78c0-.46.26-.73.7-.73s.7.27.7.73v2.12h.03c.28-.66.85-1.03,1.65-1.03,1.16,0,1.83.75,1.83,1.96v2.73c0,.49-.29.74-.71.74s-.71-.25-.71-.74v-2.43c0-.67-.33-1.08-.98-1.08s-1.07.47-1.07,1.16v2.35c0,.49-.29.74-.71.74s-.71-.25-.71-.74Z"/><path class="cls-2" d="m759.59,428.65c-.05-.13-.08-.26-.08-.4,0-.39.27-.65.65-.65.3,0,.5.12.68.43.23.54.78.78,1.46.78.79,0,1.33-.38,1.33-.9,0-.46-.33-.73-1.22-.91l-.75-.15c-1.41-.28-2.09-.95-2.09-2,0-1.29,1.12-2.14,2.69-2.14,1.29,0,2.26.54,2.57,1.46.03.1.05.2.05.33,0,.35-.25.59-.63.59-.33,0-.54-.13-.7-.43-.23-.53-.69-.75-1.29-.75-.73,0-1.21.34-1.21.86,0,.43.34.7,1.17.87l.74.15c1.49.3,2.14.9,2.14,1.97,0,1.38-1.08,2.25-2.84,2.25-1.46,0-2.39-.58-2.67-1.35Z"/><path class="cls-2" d="m765.9,429.25v-5.78c0-.46.26-.73.7-.73s.7.27.7.73v2.12h.03c.28-.66.85-1.03,1.65-1.03,1.16,0,1.83.75,1.83,1.96v2.73c0,.49-.29.74-.71.74s-.71-.25-.71-.74v-2.43c0-.67-.33-1.08-.98-1.08s-1.07.47-1.07,1.16v2.35c0,.49-.29.74-.71.74s-.71-.25-.71-.74Z"/><path class="cls-2" d="m771.52,427.26c0-1.69,1.03-2.72,2.59-2.72s2.59,1.03,2.59,2.72-1.01,2.73-2.59,2.73-2.59-1.02-2.59-2.73Zm3.74,0c0-1.04-.45-1.64-1.14-1.64s-1.15.6-1.15,1.64.44,1.64,1.15,1.64,1.14-.59,1.14-1.64Z"/><path class="cls-2" d="m778.25,429.24l-1.05-3.65c-.05-.19-.08-.3-.08-.44,0-.36.29-.61.69-.61.36,0,.59.21.67.61l.78,3.38h.03l.81-3.33c.09-.42.37-.65.81-.65s.7.23.8.65l.82,3.33h.03l.78-3.39c.08-.38.31-.6.66-.6.4,0,.67.25.67.61,0,.13-.02.25-.08.43l-1.05,3.65c-.15.52-.42.75-.91.75-.52,0-.8-.22-.92-.76l-.8-3.05h-.03l-.79,3.06c-.12.52-.41.75-.91.75s-.75-.23-.9-.75Z"/><path class="cls-2" d="m785.03,427.29c0-1.68.98-2.75,2.53-2.75s2.48,1.02,2.48,2.44c0,.4-.22.62-.62.62h-2.99v.06c0,.78.47,1.28,1.19,1.28.52,0,.86-.18,1.25-.63.15-.16.28-.21.46-.21.31,0,.56.2.56.52,0,.11-.03.23-.1.35-.35.64-1.16,1.03-2.17,1.03-1.64,0-2.6-1.01-2.6-2.71Zm3.64-.57c-.03-.68-.47-1.13-1.09-1.13s-1.08.46-1.13,1.13h2.22Z"/><path class="cls-2" d="m790.77,429.25v-3.98c0-.45.28-.72.69-.72s.67.26.67.72v.34h.03c.14-.65.57-1.04,1.09-1.04.19,0,.34.04.44.13.14.11.21.28.21.53,0,.22-.07.4-.21.51s-.34.18-.62.19c-.65,0-.88.38-.88,1v2.32c0,.47-.28.74-.71.74s-.71-.27-.71-.74Z"/><path class="cls-2" d="m794.29,428.95c-.03-.09-.05-.19-.05-.26,0-.33.24-.55.58-.55.23,0,.42.1.62.32.28.37.6.53,1.14.53s.85-.21.85-.56c0-.28-.18-.43-.69-.55l-.88-.19c-1.03-.22-1.54-.74-1.54-1.52,0-1,.86-1.65,2.22-1.65,1.08,0,1.88.49,2.05,1.08.02.07.03.14.03.21,0,.29-.18.49-.55.49-.19,0-.39-.07-.52-.22-.25-.32-.53-.56-1.04-.56-.48,0-.82.23-.82.57,0,.27.21.45.73.57l.86.19c1.11.23,1.57.64,1.57,1.43,0,1.04-.93,1.71-2.31,1.71-1.2,0-2-.43-2.25-1.04Z"/><path class="cls-2" d="m142.02,419.02c0-2.26,1.29-3.62,3.36-3.62,1.35,0,2.41.63,2.81,1.5.08.17.11.31.11.45,0,.38-.26.63-.64.63-.31,0-.53-.13-.71-.43-.35-.63-.86-.94-1.55-.94-1.16,0-1.86.88-1.86,2.38s.74,2.46,1.91,2.46c.96,0,1.63-.59,1.66-1.46v-.11s-1.02,0-1.02,0c-.35,0-.59-.2-.59-.54s.23-.54.59-.54h1.72c.46,0,.74.28.74.77v.11c0,1.79-1.14,3-3.12,3-2.1,0-3.39-1.37-3.39-3.66Z"/><path class="cls-2" d="m149.13,421.06c0-.95.73-1.5,2.04-1.58l1.32-.08v-.35c0-.49-.34-.77-.88-.77-.43,0-.7.14-1.02.55-.16.18-.34.26-.57.26-.35,0-.6-.22-.6-.55,0-.11.02-.21.07-.32.24-.62,1.08-1.01,2.17-1.01,1.34,0,2.22.69,2.22,1.75v2.98c0,.47-.29.72-.69.72s-.65-.21-.68-.63v-.27h-.03c-.29.56-.95.88-1.6.88-1,0-1.75-.64-1.75-1.59Zm3.36-.42v-.38l-1.1.07c-.53.04-.83.28-.83.65,0,.39.32.63.8.63.62,0,1.14-.41,1.14-.97Z"/><path class="cls-2" d="m154.81,421.92v-3.98c0-.45.28-.72.69-.72s.67.26.67.72v.34h.03c.14-.65.57-1.04,1.09-1.04.19,0,.34.04.44.13.14.11.21.28.21.53,0,.22-.07.4-.21.51s-.34.18-.62.19c-.65,0-.88.38-.88,1v2.32c0,.47-.28.74-.71.74s-.71-.27-.71-.74Z"/><path class="cls-2" d="m158.09,419.93c0-1.66.83-2.69,2.14-2.69.76,0,1.34.4,1.6.98h.03v-2.07c0-.49.3-.75.71-.75s.71.26.71.75v5.79c0,.47-.29.72-.71.72s-.72-.24-.72-.72v-.3h-.02c-.23.59-.81,1.01-1.61,1.01-1.31,0-2.13-1.04-2.13-2.71Zm3.78,0c0-.95-.45-1.56-1.16-1.56s-1.16.6-1.16,1.56.44,1.55,1.16,1.55,1.16-.6,1.16-1.55Z"/><path class="cls-2" d="m164.05,419.97c0-1.68.98-2.75,2.53-2.75s2.48,1.02,2.48,2.44c0,.4-.22.62-.62.62h-2.99v.06c0,.78.47,1.28,1.19,1.28.52,0,.86-.18,1.25-.63.15-.16.28-.21.46-.21.31,0,.56.2.56.52,0,.11-.03.23-.1.35-.35.64-1.16,1.03-2.17,1.03-1.64,0-2.6-1.01-2.6-2.71Zm3.64-.57c-.03-.68-.47-1.13-1.09-1.13s-1.08.46-1.13,1.13h2.22Z"/><path class="cls-2" d="m169.79,421.92v-3.98c0-.44.26-.72.69-.72s.71.27.71.72v.29h.03c.28-.65.81-1.01,1.61-1.01,1.16,0,1.82.73,1.82,1.96v2.73c0,.49-.3.74-.71.74s-.71-.25-.71-.74v-2.44c0-.68-.32-1.07-.96-1.07s-1.04.47-1.04,1.15v2.36c0,.49-.29.74-.71.74s-.71-.25-.71-.74Z"/><path class="cls-2" d="m83.72,264.5v-5.51c0-.48.27-.77.74-.77h3.35c.41,0,.67.23.67.61s-.27.61-.67.61h-2.61v1.69h2.49c.37,0,.62.21.62.57s-.24.57-.62.57h-2.49v1.78h2.61c.4,0,.67.23.67.61s-.26.61-.67.61h-3.35c-.46,0-.74-.28-.74-.77Z"/><path class="cls-2" d="m89.36,264.63v-5.77c0-.49.3-.75.71-.75s.71.26.71.75v5.77c0,.49-.29.74-.71.74s-.71-.25-.71-.74Z"/><path class="cls-2" d="m91.78,264.65v-5.79c0-.49.3-.75.71-.75s.71.26.71.75v2.08h.03c.29-.62.87-.99,1.62-.99,1.32,0,2.13,1.01,2.13,2.7s-.8,2.7-2.12,2.7c-.77,0-1.35-.37-1.64-.98h-.03v.28c0,.47-.29.72-.71.72s-.7-.24-.7-.72Zm3.74-2c0-.95-.44-1.56-1.15-1.56s-1.17.62-1.17,1.56.47,1.55,1.17,1.55,1.15-.6,1.15-1.55Z"/><path class="cls-2" d="m97.53,262.65c0-1.69,1.03-2.72,2.59-2.72s2.59,1.03,2.59,2.72-1.01,2.73-2.59,2.73-2.59-1.02-2.59-2.73Zm3.74,0c0-1.04-.45-1.64-1.14-1.64s-1.15.6-1.15,1.64.44,1.64,1.15,1.64,1.14-.59,1.14-1.64Z"/><path class="cls-2" d="m104.25,264.63l-1.05-3.65c-.05-.19-.08-.3-.08-.44,0-.36.29-.61.69-.61.36,0,.59.21.67.61l.78,3.38h.03l.81-3.33c.09-.42.37-.65.81-.65s.7.23.8.65l.82,3.33h.03l.78-3.39c.08-.38.31-.6.66-.6.4,0,.67.25.67.61,0,.13-.02.25-.08.43l-1.05,3.65c-.15.52-.42.75-.91.75-.52,0-.8-.22-.92-.76l-.8-3.05h-.03l-.79,3.06c-.12.52-.41.75-.91.75s-.75-.23-.9-.75Z"/><path class="cls-9" d="m391.53,77.57v-7.16c0-.63.36-1,.96-1h2.54c2.75,0,4.37,1.64,4.37,4.54s-1.62,4.61-4.37,4.61h-2.54c-.6,0-.96-.37-.96-1Zm3.27-.58c1.71,0,2.64-1.04,2.64-3.02s-.95-2.97-2.64-2.97h-1.35v5.99h1.35Z"/><path class="cls-9" d="m400.22,75.2c0-2.19,1.28-3.58,3.29-3.58s3.22,1.32,3.22,3.17c0,.51-.29.81-.81.81h-3.88v.08c0,1.01.61,1.67,1.55,1.67.68,0,1.12-.23,1.62-.82.2-.2.36-.27.6-.27.4,0,.72.25.72.68,0,.15-.04.3-.13.45-.45.84-1.5,1.33-2.82,1.33-2.13,0-3.38-1.31-3.38-3.52Zm4.73-.74c-.04-.89-.61-1.47-1.42-1.47s-1.4.6-1.47,1.47h2.89Z"/><path class="cls-9" d="m408.18,77.74v-4.58h-.36c-.39,0-.68-.25-.68-.69s.29-.68.68-.68h.36v-.51c0-1.35.66-1.94,1.94-1.96.98,0,1.4.31,1.4.75,0,.26-.13.41-.37.49-.1.03-.22.04-.36.05-.57.02-.8.25-.8.75v.43h.78c.39,0,.68.25.68.68s-.29.69-.68.69h-.74v4.58c0,.64-.38.96-.93.96s-.93-.32-.93-.96Z"/><path class="cls-9" d="m411.87,75.2c0-2.19,1.28-3.58,3.29-3.58s3.22,1.32,3.22,3.17c0,.51-.29.81-.81.81h-3.88v.08c0,1.01.61,1.67,1.55,1.67.68,0,1.12-.23,1.62-.82.2-.2.36-.27.6-.27.4,0,.72.25.72.68,0,.15-.04.3-.13.45-.45.84-1.5,1.33-2.82,1.33-2.13,0-3.38-1.31-3.38-3.52Zm4.73-.74c-.04-.89-.61-1.47-1.42-1.47s-1.4.6-1.47,1.47h2.89Z"/><path class="cls-9" d="m419.34,77.74v-5.18c0-.58.34-.93.9-.93s.93.36.93.94v.38h.04c.36-.84,1.05-1.31,2.09-1.31,1.51,0,2.36.95,2.36,2.55v3.55c0,.63-.39.96-.93.96s-.93-.33-.93-.96v-3.17c0-.89-.42-1.4-1.25-1.4s-1.36.61-1.36,1.49v3.07c0,.63-.38.96-.93.96s-.93-.33-.93-.96Z"/><path class="cls-9" d="m426.58,75.15c0-2.16,1.08-3.5,2.79-3.5.98,0,1.75.52,2.08,1.28h.04v-2.69c0-.63.39-.97.93-.97s.93.34.93.97v7.52c0,.62-.38.94-.92.94s-.93-.32-.93-.94v-.39h-.03c-.3.76-1.05,1.31-2.09,1.31-1.7,0-2.77-1.35-2.77-3.52Zm4.91.01c0-1.24-.59-2.02-1.51-2.02s-1.5.78-1.5,2.02.57,2.02,1.5,2.02,1.51-.77,1.51-2.02Z"/><path class="cls-9" d="m434.32,75.2c0-2.19,1.28-3.58,3.29-3.58s3.22,1.32,3.22,3.17c0,.51-.29.81-.81.81h-3.88v.08c0,1.01.61,1.67,1.55,1.67.68,0,1.12-.23,1.62-.82.2-.2.36-.27.6-.27.4,0,.72.25.72.68,0,.15-.04.3-.13.45-.45.84-1.5,1.33-2.82,1.33-2.13,0-3.38-1.31-3.38-3.52Zm4.73-.74c-.04-.89-.61-1.47-1.42-1.47s-1.4.6-1.47,1.47h2.89Z"/><path class="cls-9" d="m441.79,77.74v-5.18c0-.59.36-.93.89-.93s.88.34.88.93v.44h.04c.18-.84.74-1.35,1.42-1.35.25,0,.44.06.58.17.18.14.27.37.27.69,0,.29-.09.51-.27.67s-.44.23-.81.24c-.84.01-1.14.49-1.14,1.29v3.02c0,.62-.36.96-.93.96s-.93-.35-.93-.96Z"/><path class="cls-9" d="m449.13,76.96c-.06-.17-.1-.34-.1-.51,0-.51.35-.84.84-.84.39,0,.65.15.88.56.3.7,1.02,1.02,1.89,1.02,1.03,0,1.73-.5,1.73-1.17,0-.6-.43-.95-1.58-1.18l-.97-.19c-1.83-.36-2.72-1.24-2.72-2.6,0-1.68,1.46-2.79,3.5-2.79,1.68,0,2.94.7,3.35,1.9.04.13.07.26.07.43,0,.46-.33.77-.82.77-.43,0-.7-.17-.91-.56-.3-.69-.9-.98-1.68-.98-.95,0-1.57.44-1.57,1.12,0,.56.44.91,1.52,1.13l.96.2c1.94.39,2.78,1.17,2.78,2.56,0,1.79-1.4,2.92-3.69,2.92-1.89,0-3.1-.76-3.47-1.76Z"/><path class="cls-9" d="m457.3,80.03v-7.45c0-.62.38-.95.91-.95s.91.33.91.96v.37h.04c.37-.8,1.12-1.29,2.11-1.29,1.73,0,2.79,1.31,2.79,3.51s-1.05,3.51-2.76,3.51c-.99,0-1.75-.48-2.11-1.25h-.04v2.6c0,.63-.38.96-.93.96s-.93-.33-.93-.96Zm4.86-4.86c0-1.23-.58-2.02-1.51-2.02s-1.5.81-1.5,2.02.6,2.02,1.5,2.02,1.51-.78,1.51-2.02Z"/><path class="cls-9" d="m464.74,76.61c0-1.24.95-1.96,2.65-2.06l1.71-.1v-.45c0-.63-.45-1-1.14-1-.57,0-.91.18-1.32.72-.2.23-.44.34-.74.34-.45,0-.78-.29-.78-.71,0-.15.03-.28.1-.42.32-.81,1.41-1.31,2.82-1.31,1.75,0,2.88.9,2.88,2.27v3.88c0,.62-.37.93-.9.93s-.85-.28-.89-.83v-.35h-.04c-.38.72-1.23,1.15-2.08,1.15-1.29,0-2.28-.84-2.28-2.06Zm4.37-.54v-.5l-1.44.09c-.69.05-1.08.36-1.08.84,0,.51.42.83,1.04.83.81,0,1.48-.53,1.48-1.26Z"/><path class="cls-9" d="m473.2,77.73l-1.37-4.74c-.07-.24-.1-.39-.1-.57,0-.46.38-.79.89-.79.46,0,.76.28.87.79l1.01,4.4h.04l1.05-4.34c.12-.55.48-.85,1.05-.85s.91.3,1.03.85l1.06,4.34h.04l1.02-4.41c.1-.5.4-.77.86-.77.51,0,.88.32.88.79,0,.17-.03.32-.1.56l-1.37,4.75c-.19.67-.55.98-1.19.98-.68,0-1.04-.29-1.2-.98l-1.04-3.96h-.04l-1.03,3.97c-.16.67-.53.97-1.19.97s-.98-.3-1.17-.97Z"/><path class="cls-9" d="m482.36,77.74v-5.18c0-.58.34-.93.89-.93s.93.36.93.94v.38h.04c.36-.84,1.05-1.31,2.09-1.31,1.51,0,2.36.95,2.36,2.55v3.55c0,.63-.39.96-.93.96s-.93-.33-.93-.96v-3.17c0-.89-.42-1.4-1.25-1.4s-1.36.61-1.36,1.49v3.07c0,.63-.38.96-.93.96s-.93-.33-.93-.96Z"/><path class="cls-2" d="m757.78,546.59c0-.12.03-.29.1-.47l1.92-5.24c.21-.57.55-.83,1.11-.83s.92.25,1.13.83l1.93,5.24c.07.19.09.32.09.47,0,.41-.31.69-.74.69s-.63-.19-.77-.65l-.37-1.11h-2.54l-.37,1.1c-.14.47-.36.66-.75.66-.46,0-.75-.27-.75-.69Zm4.07-2.21l-.93-2.89h-.03l-.91,2.89h1.88Z"/><path class="cls-2" d="m766.94,546.6v-5.6c0-.6.35-.95.95-.95.51,0,.8.21,1.01.76l1.75,4.33h.04l1.74-4.33c.21-.54.5-.76,1.02-.76.6,0,.95.35.95.95v5.6c0,.43-.24.69-.66.69s-.65-.25-.65-.69v-4.16h-.04l-1.74,4.26c-.13.31-.32.45-.63.45s-.52-.14-.64-.44l-1.74-4.27h-.04v4.16c0,.43-.24.69-.65.69s-.66-.25-.66-.69Z"/><path class="cls-2" d="m775.14,545.69c0-.95.73-1.5,2.04-1.58l1.32-.08v-.35c0-.49-.34-.77-.88-.77-.43,0-.7.14-1.02.55-.16.18-.34.26-.57.26-.35,0-.6-.22-.6-.55,0-.11.02-.21.07-.32.24-.62,1.08-1.01,2.17-1.01,1.34,0,2.22.69,2.22,1.75v2.98c0,.47-.29.72-.69.72s-.65-.21-.68-.63v-.27h-.03c-.29.56-.95.88-1.6.88-1,0-1.75-.64-1.75-1.59Zm3.36-.42v-.38l-1.1.07c-.53.04-.83.28-.83.65,0,.39.32.63.8.63.62,0,1.14-.41,1.14-.97Z"/><path class="cls-2" d="m780.79,540.57c0-.42.33-.74.76-.74s.76.32.76.74-.33.74-.76.74-.76-.33-.76-.74Zm.05,5.98v-3.96c0-.46.27-.75.71-.75s.71.28.71.75v3.96c0,.46-.27.74-.71.74s-.71-.28-.71-.74Z"/><path class="cls-2" d="m783.21,546.55v-3.98c0-.44.26-.72.69-.72s.71.27.71.72v.29h.03c.28-.65.81-1.01,1.61-1.01,1.16,0,1.82.73,1.82,1.96v2.73c0,.49-.3.74-.71.74s-.71-.25-.71-.74v-2.44c0-.68-.32-1.07-.96-1.07s-1.04.47-1.04,1.15v2.36c0,.49-.29.74-.71.74s-.71-.25-.71-.74Z"/><path class="cls-2" d="m551.11,533.82c0-.12.03-.29.1-.47l1.92-5.24c.21-.57.55-.84,1.11-.84s.92.25,1.13.83l1.93,5.24c.07.19.09.32.09.47,0,.41-.31.69-.74.69s-.63-.19-.77-.65l-.37-1.11h-2.54l-.37,1.1c-.14.47-.36.66-.75.66-.46,0-.75-.27-.75-.69Zm4.07-2.21l-.93-2.89h-.03l-.91,2.89h1.88Z"/><path class="cls-2" d="m560.17,533.19c-.05-.13-.08-.26-.08-.39,0-.39.27-.65.65-.65.3,0,.5.12.68.43.23.54.78.78,1.46.78.79,0,1.33-.38,1.33-.9,0-.46-.33-.73-1.22-.91l-.75-.15c-1.41-.28-2.09-.95-2.09-2,0-1.29,1.12-2.14,2.69-2.14,1.29,0,2.26.54,2.57,1.46.03.1.05.2.05.33,0,.35-.25.59-.63.59-.33,0-.54-.13-.7-.43-.23-.53-.69-.75-1.29-.75-.73,0-1.21.34-1.21.86,0,.43.34.7,1.17.87l.74.15c1.49.3,2.14.9,2.14,1.97,0,1.38-1.08,2.25-2.84,2.25-1.46,0-2.39-.58-2.67-1.35Z"/><path class="cls-2" d="m566.49,533.78v-5.78c0-.46.26-.73.7-.73s.7.27.7.73v2.12h.03c.28-.66.85-1.03,1.65-1.03,1.16,0,1.83.75,1.83,1.96v2.73c0,.49-.29.74-.71.74s-.71-.25-.71-.74v-2.43c0-.67-.33-1.08-.98-1.08s-1.07.47-1.07,1.16v2.35c0,.49-.29.74-.71.74s-.71-.25-.71-.74Z"/><path class="cls-2" d="m572.11,531.8c0-1.69,1.03-2.72,2.59-2.72s2.59,1.03,2.59,2.72-1.01,2.73-2.59,2.73-2.59-1.02-2.59-2.73Zm3.74,0c0-1.04-.45-1.64-1.14-1.64s-1.15.6-1.15,1.64.44,1.64,1.15,1.64,1.14-.59,1.14-1.64Z"/><path class="cls-2" d="m578.03,533.78v-3.98c0-.45.28-.72.69-.72s.67.26.67.72v.34h.03c.14-.65.57-1.04,1.09-1.04.19,0,.34.04.44.13.14.11.21.28.21.53,0,.22-.07.39-.21.51s-.34.18-.62.19c-.65,0-.88.38-.88,1v2.32c0,.47-.28.74-.71.74s-.71-.27-.71-.74Z"/><path class="cls-2" d="m582.05,530.26h-.27c-.34,0-.55-.21-.55-.54s.21-.54.55-.54h.27v-.58c0-.46.27-.74.71-.74s.71.28.71.74v.58h.5c.34,0,.55.21.55.54s-.21.54-.55.54h-.5v2.5c0,.37.13.53.43.55h.09c.35.05.54.2.54.53,0,.42-.41.63-1.01.63h-.05c-.95,0-1.44-.47-1.44-1.4v-2.82Z"/><path class="cls-2" d="m503.43,318.33v-3.88c0-.49.27-.77.74-.77s.74.28.74.77v3.74c0,.9.53,1.49,1.48,1.49s1.47-.59,1.47-1.49v-3.74c0-.49.27-.77.74-.77s.74.28.74.77v3.88c0,1.55-1.15,2.61-2.95,2.61s-2.95-1.05-2.95-2.61Z"/><path class="cls-2" d="m512.49,320.14v-5.7c0-.49.27-.77.74-.77s.74.28.74.77v2.19h3.17v-2.19c0-.49.27-.77.74-.77s.74.28.74.77v5.7c0,.48-.27.77-.74.77s-.74-.28-.74-.77v-2.29h-3.17v2.29c0,.48-.27.77-.74.77s-.74-.28-.74-.77Z"/><path class="cls-2" d="m519.35,319.31c0-.95.73-1.5,2.04-1.58l1.32-.08v-.35c0-.49-.34-.77-.88-.77-.43,0-.7.14-1.02.55-.16.18-.34.26-.57.26-.35,0-.6-.22-.6-.55,0-.11.02-.21.07-.32.24-.62,1.08-1.01,2.17-1.01,1.34,0,2.22.69,2.22,1.75v2.98c0,.47-.29.72-.69.72s-.65-.21-.68-.63v-.27h-.03c-.29.56-.95.88-1.6.88-1,0-1.75-.64-1.75-1.59Zm3.36-.42v-.38l-1.1.07c-.53.04-.83.28-.83.65,0,.39.32.63.8.63.62,0,1.14-.41,1.14-.97Z"/><path class="cls-2" d="m525.06,320.18v-5.77c0-.49.3-.75.71-.75s.71.26.71.75v5.77c0,.49-.29.74-.71.74s-.71-.25-.71-.74Z"/><path class="cls-2" d="m527.48,320.18v-5.77c0-.49.3-.75.71-.75s.71.26.71.75v5.77c0,.49-.29.74-.71.74s-.71-.25-.71-.74Z"/><path class="cls-2" d="m671.39,204.98v-5.7c0-.49.27-.77.74-.77s.74.28.74.77v2.19h3.17v-2.19c0-.49.27-.77.74-.77s.74.28.74.77v5.7c0,.48-.27.77-.74.77s-.74-.28-.74-.77v-2.29h-3.17v2.29c0,.48-.27.77-.74.77s-.74-.28-.74-.77Z"/><path class="cls-2" d="m678.37,203.06c0-1.68.98-2.75,2.53-2.75s2.48,1.02,2.48,2.44c0,.4-.22.62-.62.62h-2.99v.06c0,.78.47,1.28,1.19,1.28.52,0,.86-.18,1.25-.63.15-.16.28-.21.46-.21.31,0,.56.2.56.52,0,.11-.03.23-.1.35-.35.64-1.16,1.03-2.17,1.03-1.64,0-2.6-1.01-2.6-2.71Zm3.64-.57c-.03-.68-.47-1.13-1.09-1.13s-1.08.46-1.13,1.13h2.22Z"/><path class="cls-2" d="m683.91,204.15c0-.95.73-1.5,2.04-1.58l1.32-.08v-.35c0-.49-.34-.77-.88-.77-.43,0-.7.14-1.02.55-.16.18-.34.26-.57.26-.35,0-.6-.22-.6-.55,0-.11.02-.21.07-.32.24-.62,1.08-1.01,2.17-1.01,1.34,0,2.22.69,2.22,1.75v2.98c0,.47-.29.72-.69.72s-.65-.21-.68-.63v-.27h-.03c-.29.56-.95.88-1.6.88-1,0-1.75-.64-1.75-1.59Zm3.36-.42v-.38l-1.1.07c-.53.04-.83.28-.83.65,0,.39.32.63.8.63.62,0,1.14-.41,1.14-.97Z"/><path class="cls-2" d="m690.73,205.03l-1.36-3.65c-.04-.13-.08-.28-.08-.42,0-.39.31-.64.71-.64.35,0,.58.19.68.57l1.06,3.51h.03l1.06-3.53c.1-.38.34-.56.67-.56.4,0,.69.27.69.63,0,.13-.03.28-.08.4l-1.36,3.68c-.18.5-.48.73-1,.73-.55,0-.84-.22-1.03-.73Z"/><path class="cls-2" d="m694.51,203.06c0-1.68.98-2.75,2.53-2.75s2.48,1.02,2.48,2.44c0,.4-.22.62-.62.62h-2.99v.06c0,.78.47,1.28,1.19,1.28.52,0,.86-.18,1.25-.63.15-.16.28-.21.46-.21.31,0,.56.2.56.52,0,.11-.03.23-.1.35-.35.64-1.16,1.03-2.17,1.03-1.64,0-2.6-1.01-2.6-2.71Zm3.64-.57c-.03-.68-.47-1.13-1.09-1.13s-1.08.46-1.13,1.13h2.22Z"/><path class="cls-2" d="m700.25,205.02v-3.98c0-.44.26-.72.69-.72s.71.27.71.72v.29h.03c.28-.65.81-1.01,1.61-1.01,1.16,0,1.82.73,1.82,1.96v2.73c0,.49-.3.74-.71.74s-.71-.25-.71-.74v-2.44c0-.68-.32-1.07-.96-1.07s-1.04.47-1.04,1.15v2.36c0,.49-.29.74-.71.74s-.71-.25-.71-.74Z"/><path class="cls-2" d="m443.62,529.79v-5.6c0-.6.35-.95.95-.95.51,0,.8.21,1.01.76l1.75,4.33h.04l1.74-4.33c.21-.54.5-.76,1.02-.76.6,0,.95.35.95.95v5.6c0,.43-.24.69-.66.69s-.65-.25-.65-.69v-4.16h-.04l-1.74,4.26c-.13.31-.32.45-.63.45s-.52-.14-.64-.44l-1.74-4.27h-.04v4.16c0,.43-.24.69-.65.69s-.66-.25-.66-.69Z"/><path class="cls-2" d="m451.82,528.88c0-.95.73-1.5,2.04-1.58l1.32-.08v-.35c0-.49-.34-.77-.88-.77-.43,0-.7.14-1.02.55-.16.18-.34.26-.57.26-.35,0-.6-.22-.6-.55,0-.11.02-.21.07-.32.24-.62,1.08-1.01,2.17-1.01,1.34,0,2.22.69,2.22,1.75v2.98c0,.47-.29.72-.69.72s-.65-.21-.68-.63v-.27h-.03c-.29.56-.95.88-1.6.88-1,0-1.75-.64-1.75-1.59Zm3.36-.42v-.38l-1.1.07c-.53.04-.83.28-.83.65,0,.39.32.63.8.63.62,0,1.14-.41,1.14-.97Z"/><path class="cls-2" d="m457.5,529.74v-3.98c0-.45.28-.72.69-.72s.67.26.67.72v.34h.03c.14-.65.57-1.04,1.09-1.04.19,0,.34.04.44.13.14.11.21.28.21.53,0,.22-.07.39-.21.51s-.34.18-.62.19c-.65,0-.88.38-.88,1v2.32c0,.47-.28.74-.71.74s-.71-.27-.71-.74Z"/><path class="cls-2" d="m461.17,529.74v-5.77c0-.49.3-.75.71-.75s.71.26.71.75v3.25h.02l1.89-1.9c.19-.2.35-.28.57-.28.37,0,.63.27.63.62,0,.21-.06.35-.27.54l-1.33,1.26,1.46,1.86c.16.21.2.34.2.52,0,.38-.28.64-.68.64-.3,0-.47-.11-.7-.44l-1.34-1.78-.45.42v1.06c0,.49-.29.74-.71.74s-.71-.25-.71-.74Z"/><path class="cls-2" d="m466.08,527.79c0-1.68.98-2.75,2.53-2.75s2.48,1.02,2.48,2.44c0,.39-.22.62-.62.62h-2.99v.06c0,.78.47,1.28,1.19,1.28.52,0,.86-.18,1.25-.63.15-.16.28-.21.46-.21.31,0,.56.2.56.52,0,.11-.03.23-.1.35-.35.64-1.16,1.03-2.17,1.03-1.64,0-2.6-1.01-2.6-2.71Zm3.64-.57c-.03-.68-.47-1.13-1.09-1.13s-1.08.46-1.13,1.13h2.22Z"/><path class="cls-2" d="m472.2,526.22h-.27c-.34,0-.55-.21-.55-.54s.21-.54.55-.54h.27v-.58c0-.46.27-.74.71-.74s.71.28.71.74v.58h.5c.34,0,.55.21.55.54s-.21.54-.55.54h-.5v2.5c0,.37.13.53.43.55h.09c.35.05.54.2.54.53,0,.42-.41.63-1.01.63h-.05c-.95,0-1.44-.47-1.44-1.4v-2.82Z"/><path class="cls-10" d="m506.29,737.95c0-2.27,1.29-3.64,3.32-3.64,1.32,0,2.34.59,2.82,1.6.1.19.15.38.15.55,0,.39-.26.63-.65.63-.33,0-.54-.15-.7-.49-.32-.72-.9-1.08-1.6-1.08-1.11,0-1.83.93-1.83,2.42s.71,2.43,1.84,2.43c.74,0,1.3-.34,1.62-1.04.15-.33.34-.46.65-.46.42,0,.69.26.69.65,0,.17-.04.32-.11.49-.44.98-1.49,1.58-2.82,1.58-2.09,0-3.36-1.37-3.36-3.64Z"/><path class="cls-10" d="m513.28,739.97c0-.95.73-1.5,2.04-1.58l1.32-.08v-.35c0-.49-.34-.77-.88-.77-.43,0-.7.14-1.02.55-.16.18-.34.26-.57.26-.35,0-.6-.22-.6-.55,0-.11.02-.21.07-.32.24-.62,1.08-1.01,2.17-1.01,1.34,0,2.22.69,2.22,1.75v2.98c0,.47-.29.72-.69.72s-.65-.21-.68-.63v-.27h-.03c-.29.56-.95.88-1.6.88-1,0-1.75-.64-1.75-1.59Zm3.36-.42v-.38l-1.1.07c-.53.04-.83.28-.83.65,0,.39.32.63.8.63.62,0,1.14-.41,1.14-.97Z"/><path class="cls-10" d="m520.1,740.85l-1.36-3.65c-.04-.13-.08-.28-.08-.42,0-.39.31-.64.71-.64.35,0,.58.19.68.57l1.06,3.51h.03l1.06-3.53c.1-.38.34-.56.67-.56.4,0,.69.27.69.63,0,.13-.03.28-.08.4l-1.36,3.68c-.18.5-.48.73-1,.73-.55,0-.84-.22-1.03-.73Z"/><path class="cls-10" d="m523.88,738.88c0-1.68.98-2.75,2.53-2.75s2.48,1.02,2.48,2.44c0,.4-.22.62-.62.62h-2.99v.06c0,.78.47,1.28,1.19,1.28.52,0,.86-.18,1.25-.63.15-.16.28-.21.46-.21.31,0,.56.2.56.52,0,.11-.03.23-.1.35-.35.64-1.16,1.03-2.17,1.03-1.64,0-2.6-1.01-2.6-2.71Zm3.64-.57c-.03-.68-.47-1.13-1.09-1.13s-1.08.46-1.13,1.13h2.22Z"/><path class="cls-2" d="m506.29,737.95c0-2.27,1.29-3.64,3.32-3.64,1.32,0,2.34.59,2.82,1.6.1.19.15.38.15.55,0,.39-.26.63-.65.63-.33,0-.54-.15-.7-.49-.32-.72-.9-1.08-1.6-1.08-1.11,0-1.83.93-1.83,2.42s.71,2.43,1.84,2.43c.74,0,1.3-.34,1.62-1.04.15-.33.34-.46.65-.46.42,0,.69.26.69.65,0,.17-.04.32-.11.49-.44.98-1.49,1.58-2.82,1.58-2.09,0-3.36-1.37-3.36-3.64Z"/><path class="cls-2" d="m513.28,739.97c0-.95.73-1.5,2.04-1.58l1.32-.08v-.35c0-.49-.34-.77-.88-.77-.43,0-.7.14-1.02.55-.16.18-.34.26-.57.26-.35,0-.6-.22-.6-.55,0-.11.02-.21.07-.32.24-.62,1.08-1.01,2.17-1.01,1.34,0,2.22.69,2.22,1.75v2.98c0,.47-.29.72-.69.72s-.65-.21-.68-.63v-.27h-.03c-.29.56-.95.88-1.6.88-1,0-1.75-.64-1.75-1.59Zm3.36-.42v-.38l-1.1.07c-.53.04-.83.28-.83.65,0,.39.32.63.8.63.62,0,1.14-.41,1.14-.97Z"/><path class="cls-2" d="m520.1,740.85l-1.36-3.65c-.04-.13-.08-.28-.08-.42,0-.39.31-.64.71-.64.35,0,.58.19.68.57l1.06,3.51h.03l1.06-3.53c.1-.38.34-.56.67-.56.4,0,.69.27.69.63,0,.13-.03.28-.08.4l-1.36,3.68c-.18.5-.48.73-1,.73-.55,0-.84-.22-1.03-.73Z"/><path class="cls-2" d="m523.88,738.88c0-1.68.98-2.75,2.53-2.75s2.48,1.02,2.48,2.44c0,.4-.22.62-.62.62h-2.99v.06c0,.78.47,1.28,1.19,1.28.52,0,.86-.18,1.25-.63.15-.16.28-.21.46-.21.31,0,.56.2.56.52,0,.11-.03.23-.1.35-.35.64-1.16,1.03-2.17,1.03-1.64,0-2.6-1.01-2.6-2.71Zm3.64-.57c-.03-.68-.47-1.13-1.09-1.13s-1.08.46-1.13,1.13h2.22Z"/><path class="cls-2" d="m184.55,259.41v-15.97c0-1.4.79-2.22,2.14-2.22h6.75c3.84,0,6.24,1.97,6.24,5.1,0,2.24-1.67,4.11-3.84,4.43v.11c2.78.21,4.81,2.24,4.81,4.94,0,3.6-2.7,5.85-7.07,5.85h-6.91c-1.35,0-2.14-.82-2.14-2.24Zm7.35-9.7c2.28,0,3.58-1.01,3.58-2.73s-1.15-2.58-3.14-2.58h-3.51v5.31h3.07Zm.61,8.75c2.46,0,3.79-1.05,3.79-3s-1.37-2.93-3.89-2.93h-3.58v5.93h3.68Z"/><path class="cls-2" d="m650.8,304.57c-1.13,0-1.77-.57-2.17-1.93l-1.08-3.19h-7.38l-1.08,3.23c-.38,1.33-1.02,1.88-2.22,1.88s-2.14-.84-2.14-2.01c0-.42.07-.81.27-1.36l5.61-15.21c.61-1.67,1.6-2.41,3.27-2.41s2.62.76,3.21,2.42l5.58,15.19c.18.52.28,1.01.28,1.36,0,1.23-.83,2.01-2.17,2.01Zm-4.18-8.43l-2.65-8.37h-.1l-2.71,8.37h5.45Z"/><path class="cls-2" d="m663.03,616.45c0-.12.03-.29.1-.47l1.92-5.24c.21-.57.55-.84,1.11-.84s.92.25,1.13.83l1.93,5.24c.07.19.09.32.09.47,0,.41-.31.69-.74.69s-.63-.19-.77-.65l-.37-1.11h-2.54l-.37,1.1c-.14.47-.36.66-.75.66-.46,0-.75-.27-.75-.69Zm4.07-2.21l-.93-2.89h-.03l-.91,2.89h1.88Z"/><path class="cls-2" d="m672.19,616.28v-5.6c0-.49.27-.77.74-.77s.74.28.74.77v5.15h2.5c.4,0,.67.23.67.61s-.26.61-.67.61h-3.24c-.46,0-.74-.28-.74-.77Z"/><path class="cls-2" d="m677.23,614.42c0-1.69,1.03-2.72,2.59-2.72s2.59,1.03,2.59,2.72-1.01,2.73-2.59,2.73-2.59-1.02-2.59-2.73Zm3.74,0c0-1.04-.45-1.64-1.14-1.64s-1.15.6-1.15,1.64.44,1.64,1.15,1.64,1.14-.59,1.14-1.64Z"/><path class="cls-2" d="m683.19,616.43v-5.79c0-.49.3-.75.71-.75s.71.26.71.75v2.08h.03c.29-.62.87-.99,1.62-.99,1.32,0,2.13,1.01,2.13,2.7s-.8,2.7-2.12,2.7c-.77,0-1.35-.37-1.64-.98h-.03v.28c0,.47-.29.72-.71.72s-.7-.24-.7-.72Zm3.74-2c0-.95-.44-1.56-1.15-1.56s-1.17.62-1.17,1.56.47,1.55,1.17,1.55,1.15-.6,1.15-1.55Z"/><path class="cls-2" d="m689.16,616.43v-5.79c0-.49.3-.75.71-.75s.71.26.71.75v2.08h.03c.29-.62.87-.99,1.62-.99,1.32,0,2.13,1.01,2.13,2.7s-.8,2.7-2.12,2.7c-.77,0-1.35-.37-1.64-.98h-.03v.28c0,.47-.29.72-.71.72s-.7-.24-.7-.72Zm3.74-2c0-.95-.44-1.56-1.15-1.56s-1.17.62-1.17,1.56.47,1.55,1.17,1.55,1.15-.6,1.15-1.55Z"/><path class="cls-2" d="m694.9,618.32c0-.29.2-.47.52-.47.1,0,.15,0,.25,0,.25,0,.52-.11.69-.47l.07-.19-1.67-4.4c-.05-.15-.08-.3-.08-.42,0-.39.32-.66.74-.66.38,0,.57.16.69.58l1.14,3.62h.02l1.14-3.63c.12-.4.32-.57.69-.57.41,0,.69.27.69.64,0,.12-.03.28-.08.42l-1.61,4.37c-.49,1.35-1.09,1.85-2.24,1.85-.62,0-.96-.24-.96-.67Z"/><path class="cls-2" d="m90.59,495.62v-5.51c0-.48.27-.77.74-.77h2.33c1.32,0,2.15.68,2.15,1.76,0,.77-.58,1.42-1.32,1.53v.04c.96.07,1.66.77,1.66,1.7,0,1.24-.93,2.02-2.44,2.02h-2.38c-.46,0-.74-.28-.74-.77Zm2.53-3.34c.79,0,1.24-.35,1.24-.94s-.4-.89-1.08-.89h-1.21v1.83h1.06Zm.21,3.02c.85,0,1.31-.36,1.31-1.04s-.47-1.01-1.34-1.01h-1.24v2.05h1.27Z"/><path class="cls-2" d="m98.97,495.62v-5.6c0-.49.27-.77.74-.77s.74.28.74.77v5.15h2.5c.4,0,.67.23.67.61s-.26.61-.67.61h-3.24c-.46,0-.74-.28-.74-.77Z"/><path class="cls-2" d="m104.01,493.77c0-1.69,1.03-2.72,2.59-2.72s2.59,1.03,2.59,2.72-1.01,2.73-2.59,2.73-2.59-1.02-2.59-2.73Zm3.74,0c0-1.04-.45-1.64-1.14-1.64s-1.15.6-1.15,1.64.44,1.64,1.15,1.64,1.14-.59,1.14-1.64Z"/><path class="cls-2" d="m109.93,495.75v-3.98c0-.44.26-.72.69-.72s.71.27.71.72v.29h.03c.28-.65.81-1.01,1.61-1.01,1.16,0,1.82.73,1.82,1.96v2.73c0,.49-.3.74-.71.74s-.71-.25-.71-.74v-2.44c0-.68-.32-1.07-.96-1.07s-1.04.47-1.04,1.15v2.36c0,.49-.29.74-.71.74s-.71-.25-.71-.74Z"/><path class="cls-2" d="m115.83,497.4c-.08-.13-.11-.26-.11-.4,0-.3.22-.52.58-.52.19,0,.33.06.49.21.39.37.76.57,1.23.57.78,0,1.24-.42,1.24-1.08v-.83h-.03c-.24.56-.85.94-1.61.94-1.3,0-2.12-1-2.12-2.59s.8-2.61,2.15-2.61c.75,0,1.32.4,1.6.99h.03v-.29c0-.48.31-.72.72-.72s.71.24.71.72v4.41c0,1.36-.99,2.18-2.67,2.17-1.07,0-1.87-.41-2.2-.96Zm3.45-3.69c0-.94-.46-1.55-1.17-1.55s-1.15.6-1.15,1.54.44,1.52,1.15,1.52,1.17-.57,1.17-1.51Z"/></g></svg>