<svg xmlns="http://www.w3.org/2000/svg" viewBox="0 0 958.08 940.08"><defs><style>.cls-1{fill:#33353b;}.cls-2{fill:#575548;}.cls-3,.cls-5,.cls-6{fill:none;}.cls-3,.cls-6{stroke:#b0adb0;stroke-miterlimit:10;}.cls-4{fill:#b0adb0;}.cls-6{stroke-dasharray:5.15 4.12;}.cls-7{fill:#656569;}.cls-8{fill:#d32027;}.cls-9{fill:#fff;}.cls-10{fill:#79c143;}</style></defs><title>Breeze Offence</title><g id="Body_Merge" data-name="Body Merge"><path class="cls-1" d="M878,1011H823V962h0V935h0V892c-9.84-19.57-19.58-37.38-29.53-51.67C776.86,816.51,762,802,762,802H709V739H598l-25,51H521v10H507V790H335l-15,20v3l11,8v1.87L309,851h-3l-2-2h-4l-71,41H113L85,917v189l51,14.09v.9h39v53H143v155h15v65H278v52.94c6.82,36.15,37,51.08,37,51.08h11.93c8.23,3.1,8.06,10,8.06,10v53l12,61,123,48h8l75,6v1h7l14-8h2v-66c-11.1-.3-13-32-13-32v-3.7a9.79,9.79,0,0,1,1-4.38l4-8v-4h58v-14H635v9.94h9.91c19.61.7,32.53,4.48,38.38,6.61a18.28,18.28,0,0,1,5.91,3.55L726,1590.16a9,9,0,0,0,4.77,2.23l10.86,1.55.4,0v0h11v0a2.68,2.68,0,0,0,.4,0L773,1592.1a4.39,4.39,0,0,0,1.92-.65C795.29,1578.67,799,1569,799,1569v-26h91l33.87-15.74A220.15,220.15,0,0,0,941.22,1508c25.08-64.11,25.79-83,25.79-83l-2-33v-10l2.92-15v-29H944v-44h26v-2c14.83-8.77,49-102,49-102h22v-72Zm-90-42h-6l-32,19v101.93h-8V1085h-5v-18h-4v-9h9V962h46Zm-3,464,49.17-31,19-50H882v94H839v44H797.93v-32L785,1435Zm-201,56H498v-10h11v-29h66v29h9v10Zm-46,71h-9v-9h9Zm-41-9v9h-9v-9Zm10-189H447L326,1253V1145H400v41s2.43,74.1,81,108h26v68Zm-205-33v6h-5v-6Zm54.9-484.11-25,27.91L325,865.86,350,838ZM341,902h1l34-42h2l13,12h32v-5h6v5h79v-9h14v31h85v9H529v6H519v-6H446l-10,17v34h15v15h14v6H435v4H341Zm153,73h-8v-6h8Zm139,280.84V1229h50v-19h-6v-38h6v-4h-6v-15H598V1002H519V969h0V930h10v8l76,28h80v92h10v10H685v7H673v41h12v58h-6v34h6v67H633ZM724,1328H701v-8h23Zm17-393V903H663v-8h87v15l25,20h13v5ZM522,824v14H508V824ZM216,1122h50v-1l19-20v-2l-11-11v-2c6.32-8.45,64-44,64-44h2v-13h95v66H327c-29.12,7.56-34,38-34,38v41H248v4h-6v-4H216Zm3,208,23-21V1206h6v2h31v109.75h0V1354H219Zm133,131v-1H340c-17.55-2.81-21-19-21-19V1329h17v10l112,97.09V1479h16v10H448v62h9v9H421C415.52,1458,352,1461,352,1461Zm274,41v-13h-7v-9h14V1360H577v-66h56v-7h52v210H635v5Zm277-179H822l-17,71-33,22h-2L749,1382.15V1359h-8v-31h-.06v-112H720v-90h22v-4h9v45H722v47h29v13l27,25h72v57h53Z" transform="translate(-83.96 -737.95)"/></g><g id="Bombsite"><rect class="cls-2" x="66.01" y="214.01" width="106.04" height="107.03"/><polyline class="cls-2" points="771.48 499.03 916.52 499.03 935.53 452.9 957.58 452.9 957.6 379.83 956.47 379.05 770.99 379.05 743.53 405.48 743.53 471.42 771.48 499.03"/><rect class="cls-1" x="758.57" y="410.5" width="56.16" height="56.93"/><rect class="cls-1" x="836.46" y="410.5" width="55.79" height="56.93"/><rect class="cls-1" x="814.52" y="431.53" width="21.94" height="15.03"/><path class="cls-1" d="M190,993.38l4.75-2.28,3.29-.45,4.7.35,3.89,1.31,3.29,1.82,2.53,2.68,2.12,3.09,1.06,2.83s.61,3.29.61,3.49-.35,3.34-.35,3.34l-.81,3.94-.21,1.16L230,1029.55l-10.62,10.75L203.22,1024l-4.19.45-3.59-.35-2.68-1.22-4.5-2.47-1.82-2.13-2.13-2.73-1.11-3.23-1-3.49.2-3.32,1.27-4.52,1.46-2.83,2.43-2.83Z" transform="translate(-83.96 -737.95)"/></g><g id="Lines"><polygon class="cls-3" points="657.38 760.52 661.42 760.52 669.78 747.37 671.53 745.01 671.53 736.32 669.44 729.51 659.26 724.52 651.44 724.52 643.35 734.56 643.35 738.61 644.57 739.55 644.63 742.52 640.72 748.65 640.72 755.6 645.58 758.29 657.38 760.52"/><path class="cls-4" d="M763.74,1539.48l.63.5v5l-5.77,9.62-6.8,3.2-.26.13-.16.24-1.52,2.37H738.08l-4.68-4.67v-8.78l2.56-3.66h13.57l.13,0,14.08-3.91m.22-1.1-14.57,4H735.44l-3,4.35v9.5l5.26,5.26H750.4l1.82-2.83,7.08-3.34,6.07-10.11v-5.77l-1.41-1.11Z" transform="translate(-83.96 -737.95)"/><path class="cls-4" d="M707,1356v2H685v-2h22m1-1H684v4h24v-4Z" transform="translate(-83.96 -737.95)"/><path class="cls-4" d="M741,1356v2H720v-2h21m1-1H719v4h23v-4Z" transform="translate(-83.96 -737.95)"/><path class="cls-4" d="M749,1359v6H735v-6h14m1-1H734v8h16v-8Z" transform="translate(-83.96 -737.95)"/><path class="cls-4" d="M733.06,1359v8h-6v-8h6m1-1h-8v10h8v-10Z" transform="translate(-83.96 -737.95)"/><line class="cls-3" x1="644.04" y1="629.5" x2="665.46" y2="638.49"/><line class="cls-3" x1="655.56" y1="627.46" x2="655.56" y2="634.33"/><line class="cls-3" x1="649.68" y1="627.46" x2="649.68" y2="631.82"/><path class="cls-4" d="M894,1396v13H882v-13h12m1-1H881v15h14v-15Z" transform="translate(-83.96 -737.95)"/><path class="cls-3" d="M880.4,1445.15v12.28S868,1484.8,842.55,1488.5h-4.08" transform="translate(-83.96 -737.95)"/><path class="cls-3" d="M932.49,1410" transform="translate(-83.96 -737.95)"/><path class="cls-3" d="M932.49,1410v10.62s-.65,85.93-102.79,122.94" transform="translate(-83.96 -737.95)"/><path class="cls-4" d="M870,1253v13H850v-13h20m1-1H849v15h22v-15Z" transform="translate(-83.96 -737.95)"/><path class="cls-4" d="M812,1238v14H799v-14h13m1-1H798v16h15v-16Z" transform="translate(-83.96 -737.95)"/><path class="cls-4" d="M820,1246v6h-7v-6h7m1-1h-9v8h9v-8Z" transform="translate(-83.96 -737.95)"/><path class="cls-4" d="M755,1138v5h-4v-5h4m1-1h-6v7h6v-7Z" transform="translate(-83.96 -737.95)"/><path class="cls-4" d="M770,1124v13H751v-13h19m1-1H750v15h21v-15Z" transform="translate(-83.96 -737.95)"/><path class="cls-4" d="M764,1124v13H751v-13h13m1-1H750v15h15v-15Z" transform="translate(-83.96 -737.95)"/><polyline class="cls-3" points="689.55 279.94 689.55 385.52 666.44 385.52"/><rect class="cls-3" x="803.77" y="1061.64" width="56.83" height="21.02" transform="translate(-256.23 -578.55) rotate(-9.92)"/><rect class="cls-3" x="842.44" y="1044.14" width="14.82" height="14.14" transform="translate(-252.36 -575.82) rotate(-9.92)"/><rect class="cls-3" x="836.47" y="1053.13" width="6.75" height="6.96" transform="translate(-253.44 -577.47) rotate(-9.92)"/><polyline class="cls-3" points="771.35 378.7 743.53 405.48 743.53 471.42 771.82 499.37"/><path class="cls-4" d="M898,1149v56H843v-56h55m1-1H842v58h57v-58Z" transform="translate(-83.96 -737.95)"/><path class="cls-4" d="M976,1149v56H921v-56h55m1-1H920v58h57v-58Z" transform="translate(-83.96 -737.95)"/><line class="cls-3" x1="814.73" y1="431.53" x2="836.46" y2="431.53"/><line class="cls-3" x1="836.35" y1="446.56" x2="814.82" y2="446.56"/><line class="cls-3" x1="662.57" y1="351.29" x2="662.57" y2="384.71"/><line class="cls-3" x1="649.49" y1="325.56" x2="630.06" y2="325.56"/><line class="cls-3" x1="610.49" y1="320.5" x2="621.01" y2="306.04"/><path class="cls-4" d="M823,931v3H788v-3h35m1-1H787v5h37v-5Z" transform="translate(-83.96 -737.95)"/><path class="cls-4" d="M823,963v3H788v-3h35m1-1H787v5h37v-5Z" transform="translate(-83.96 -737.95)"/><path class="cls-4" d="M715,802v4h-7v-4h7m1-1h-9v6h9v-6Z" transform="translate(-83.96 -737.95)"/><path class="cls-4" d="M744,802v5h-9v-5h9m1-1H734v7h11v-7Z" transform="translate(-83.96 -737.95)"/><polyline class="cls-3" points="688.06 75.5 674.56 75.5 671.37 63.36"/><path class="cls-4" d="M508,828v6h-4v-6h4m1-1h-6v8h6v-8Z" transform="translate(-83.96 -737.95)"/><path class="cls-4" d="M430,790v4h-6v-4h6m1-1h-8v6h8v-6Z" transform="translate(-83.96 -737.95)"/><path class="cls-4" d="M592,903v19H578V903h14m1-1H577v21h16V902Z" transform="translate(-83.96 -737.95)"/><path class="cls-4" d="M592,903v12H578V903h14m1-1H577v14h16V902Z" transform="translate(-83.96 -737.95)"/><path class="cls-4" d="M519,989v5h-9v-5h9m1-1H509v7h11v-7Z" transform="translate(-83.96 -737.95)"/><path class="cls-4" d="M519,983v5H506v-5h13m1-1H505v7h15v-7Z" transform="translate(-83.96 -737.95)"/><path class="cls-4" d="M519,975v13H506V975h13m1-1H505v15h15V974Z" transform="translate(-83.96 -737.95)"/><path class="cls-4" d="M532.38,1040.7l1.44,14-14,1.43-1.44-14,14-1.44m.89-1.1-16,1.64,1.64,16,16-1.64-1.64-16Z" transform="translate(-83.96 -737.95)"/><path class="cls-4" d="M551.87,1054.51l4.65,2.21-5.33,11.19-4.64-2.21,5.32-11.19m-.47-1.33-6.19,13,6.46,3.07,6.18-13-6.45-3.07Z" transform="translate(-83.96 -737.95)"/><path class="cls-4" d="M583,1074v6h-5v-6h5m1-1h-7v8h7v-8Z" transform="translate(-83.96 -737.95)"/><path class="cls-4" d="M598,1074v14H584v-14h14m1-1H583v16h16v-16Z" transform="translate(-83.96 -737.95)"/><path class="cls-4" d="M499,1037.13l2.52,12.1-26.42,5.49-2.52-12.1,26.42-5.49m.78-1.18-28.38,5.9,2.92,14.06,28.38-5.9L499.8,1036Z" transform="translate(-83.96 -737.95)"/><path class="cls-4" d="M485,1095v57H400V1148h81v-53h4m1-1h-6v53H399V1153h87v-59Z" transform="translate(-83.96 -737.95)"/><path class="cls-4" d="M464,1153v13H449v-13h15m1-1H448v15h17v-15Z" transform="translate(-83.96 -737.95)"/><path class="cls-4" d="M464,1153v6H449v-6h15m1-1H448v8h17v-8Z" transform="translate(-83.96 -737.95)"/><path class="cls-4" d="M434,1095v16H421v-16h13m1-1H420v18h15v-18Z" transform="translate(-83.96 -737.95)"/><path class="cls-4" d="M170,1259v12.91H143V1259h27m1-1H142v14.91h29V1258Z" transform="translate(-83.96 -737.95)"/><path class="cls-4" d="M155,1259v12.91H143V1259h12m1-1H142v14.91h14V1258Z" transform="translate(-83.96 -737.95)"/><path class="cls-4" d="M219,1330v7H158v-7h61m1-1H157v9h63v-9Z" transform="translate(-83.96 -737.95)"/><path class="cls-4" d="M149,923v28H121V923h28m1-1H120v30h30V922Z" transform="translate(-83.96 -737.95)"/><path class="cls-4" d="M214,949v2H150v-2h64m1-1H149v4h66v-4Z" transform="translate(-83.96 -737.95)"/><path class="cls-4" d="M122.94,952v35H121V952h1.94m1-1H120v37h3.94V951Z" transform="translate(-83.96 -737.95)"/><path class="cls-4" d="M149,1060v28H121v-28h28m1-1H120v30h30v-30Z" transform="translate(-83.96 -737.95)"/><path class="cls-4" d="M122.94,1024v35H121v-35h1.94m1-1H120v37h3.94v-37Z" transform="translate(-83.96 -737.95)"/><path class="cls-4" d="M199.4,991.09A16.41,16.41,0,1,1,183,1007.5a16.43,16.43,0,0,1,16.41-16.41m0-1a17.41,17.41,0,1,0,17.41,17.41,17.41,17.41,0,0,0-17.41-17.41Z" transform="translate(-83.96 -737.95)"/><path class="cls-4" d="M199.4,991.09A16.41,16.41,0,0,1,214.47,1014l-.27.62.48.48,14.66,14.66-9.78,9.78-15.75-15.74-.38-.39-.54.12a16.65,16.65,0,0,1-3.49.38,16.41,16.41,0,0,1,0-32.82m0-1a17.41,17.41,0,1,0,3.71,34.41L219.56,1041l11.19-11.2-15.36-15.36a17.42,17.42,0,0,0-16-24.31Z" transform="translate(-83.96 -737.95)"/><path class="cls-4" d="M199.4,991.09A16.41,16.41,0,0,1,214.47,1014l-.27.62.48.48,3.25,3.26-9.78,9.78-4.34-4.34-.38-.39-.54.12a16.65,16.65,0,0,1-3.49.38,16.41,16.41,0,0,1,0-32.82m0-1a17.41,17.41,0,1,0,3.71,34.41l5,5,11.2-11.19-4-4a17.42,17.42,0,0,0-16-24.31Z" transform="translate(-83.96 -737.95)"/><path class="cls-4" d="M294,916v15H281V916h13m1-1H280v17h15V915Z" transform="translate(-83.96 -737.95)"/><path class="cls-4" d="M299,916v63h-4V916h4m1-1h-6v65h6V915Z" transform="translate(-83.96 -737.95)"/><path class="cls-4" d="M391,979v14.93H354V979h37m1-1H353v16.93h39V978Z" transform="translate(-83.96 -737.95)"/><path class="cls-4" d="M384,979v15H354V979h30m1-1H353v17h32V978Z" transform="translate(-83.96 -737.95)"/><path class="cls-4" d="M573.41,1194.32l8.58,8.58-24.68,24.68-.19.19-.07.25a16,16,0,0,1-28.95,4.19l-.3-.46H494V1217h33l.28-.55a16,16,0,0,1,26.13-3.64l.71.77.74-.74,18.52-18.52m0-1.41-19.23,19.22a17,17,0,0,0-27.76,3.87H493v16.75h34.22a17,17,0,0,0,30.75-4.46l25.39-25.39-10-10Z" transform="translate(-83.96 -737.95)"/><polyline class="cls-3" points="396.24 392.52 391.54 392.52 389.52 399.55 380.52 408.57 380.52 409.64"/><rect class="cls-4" x="380.35" y="236.05" width="41.24" height="1"/><line class="cls-3" x1="597.44" y1="429.44" x2="582.48" y2="442.65"/><path class="cls-4" d="M683.1,1217v12H634v-12h49.1m1-1H633v14h51.1v-14Z" transform="translate(-83.96 -737.95)"/><line class="cls-3" x1="591.54" y1="536.29" x2="591.54" y2="550"/><line class="cls-3" x1="559.53" y1="536.52" x2="559.53" y2="549.52"/><polygon class="cls-4" points="136.74 591.03 135.93 591.03 135.93 591.63 136.74 591.63 136.74 591.03 136.74 591.03"/><path class="cls-4" d="M508,866v6h-6v-4h3v-2h3m1-1h-5v2h-3v6h8v-8Z" transform="translate(-83.96 -737.95)"/><rect class="cls-5" x="413.04" y="51.05" width="10.99" height="4.97"/><path class="cls-4" d="M507,790v5h-4v-2h-5v-3h9m1-1H497v5h5v2h6v-7Z" transform="translate(-83.96 -737.95)"/><path class="cls-4" d="M394.72,1314.9l9.74,8.77-2.21,2.45-9.74-8.77,2.21-2.45m-.07-1.41-3.55,3.94,11.22,10.1,3.55-3.94-11.22-10.1Z" transform="translate(-83.96 -737.95)"/><path class="cls-4" d="M541.63,1207.6a16,16,0,1,1-16,16,16,16,0,0,1,16-16m0-1a17,17,0,1,0,17,17,17,17,0,0,0-17-17Z" transform="translate(-83.96 -737.95)"/></g><g id="Hell_Lines" data-name="Hell Lines"><line class="cls-3" x1="600.14" y1="430.62" x2="602.64" y2="430.62"/><line class="cls-6" x1="606.76" y1="430.62" x2="632.48" y2="430.62"/><line class="cls-3" x1="634.54" y1="430.62" x2="637.04" y2="430.62"/><line class="cls-3" x1="637.04" y1="475.01" x2="634.54" y2="475.01"/><line class="cls-6" x1="630.43" y1="475.01" x2="604.7" y2="475.01"/><line class="cls-3" x1="602.64" y1="475.01" x2="600.14" y2="475.01"/></g><g id="Outlines"><path class="cls-7" d="M709,739v63h53s14.88,14.51,31.47,38.33c9.95,14.29,19.69,32.1,29.53,51.67v43h0v27h0v49h55l163,107v72h-22s-34.15,93.23-49,102v2H944v44h23.94v29L965,1382v10l2,33s-.71,18.93-25.79,83a220.15,220.15,0,0,1-17.39,19.22L890,1543H799v26s-3.72,9.71-24.13,22.49a4.39,4.39,0,0,1-1.92.65L753.38,1594a2.68,2.68,0,0,1-.4,0v0H742v0l-.4,0-10.86-1.55a9,9,0,0,1-4.77-2.23l-36.74-33.06a18.28,18.28,0,0,0-5.91-3.55c-5.85-2.13-18.77-5.91-38.38-6.61H635V1537H626v14H568v4l-4,8a9.79,9.79,0,0,0-1,4.38v3.7s1.9,31.66,13,32v66h-2l-14,8h-7v-1l-75-6h-8l-123-48-12-61v-53s.17-6.89-8.06-10H315s-30.17-14.93-37-51.08V1394H158v-65H143V1174h32v-53H136v-.9L85,1106V917l28-27H229l71-41h4l2,2h3l22-28.06v-1.87l-11-8v-3l15-20H507v10h14V790h52l25-51H709M508,838h14V824H508v14M331.91,872.79l25-27.91L350,838l-25,27.9,6.93,6.93M341,979h94v-4h30v-6H451V954H436V920l10-17h73v6h10v-6h78v-9H522V863H508v9H429v-5h-6v5h-32l-13-12h-2l-34,42h-1v77m322-76h78v32h47v-5H775l-25-20V895H663v8M519,969h0v33h79v151h79v15h6v4h-6v38h6v19H633v46h52v-67h-6v-34h6v-58H673v-41h12v-7h10v-10H685V966H605l-76-28v-8H519v39m214,98h4v18h5v4.92h8V988l32-19h6v-7H742v96h-9v9M486,975h8v-6h-8v6M216,1174h26v4h6v-4h45v-41s4.89-30.44,34-38H435v-66H340v13h-2s-57.69,35.59-64,44v2l11,11v2l-19,20v1H216v52m504,41.93h20.93v112H741v31h8v23.16L770,1416h2l33-22,17-71h81v-14H850v-57H778l-27-25v-13H722v-47h29v-45h-9v4H720v90M447,1362h60v-68H481c-78.57-33.86-81-108-81-108v-41H326v108l121,109m-228-8h60v-36.25h0V1208H248v-2h-6v103l-23,21v24m358,6h56v120H619v9h7v13H635v-5h50V1287H633v7H577v66m124-32h23v-8H701v8M340,1460h12v1h.56c6.26,0,63.27,2.66,68.46,99h36v-9h-9v-62h16v-10H448v-42.89L336,1339v-10H319v112s3.49,16.22,21,19m-43-125h5v-6h-5v6m500.93,155H839v-44h43v-94H853.15l-19,50L785,1433l.06,2,12.91,23v32M498,1489h86v-10h-9v-29H509v29H498v10m31,71h9v-9h-9v9m-41,0h9v-9h-9v9M710,738H597.35l-.29.59L572.33,789H519.94v10H508.05V789H334.48l-.31.42-15,20-.21.28v3.9l.43.31,10.57,7.74v1l-21.48,27.37h-2l-1.69-1.69-.31-.3h-4.71l-.24.14-70.75,40.84H112.6l-.31.29-28,27-.32.31v190.23l.77.21L135,1120.87V1122h39V1173H142V1330h15v65H277v52.08a75.13,75.13,0,0,0,21.36,39.65,69.58,69.58,0,0,0,16.2,12.18l.22.11h12c7.26,2.83,7.2,8.86,7.2,8.92v53.13l0,.1,12,61,.11.56.54.21,123,48,.19.07H478l74,5.94h0v1h8.32l.24-.13,13.76-7.86h2.78V1602l-1,0c-8.3-.23-11.46-22.38-12-30.94v-3.67a8.84,8.84,0,0,1,.92-3.91l4-8,.11-.23V1552h58v-14h7V1548h11c19.35.69,32.13,4.4,38,6.55a17.2,17.2,0,0,1,5.57,3.34l36.74,33.06a10,10,0,0,0,5.32,2.49l10.36,1.48v.11l1,0h12V1595l19-1.81a5.49,5.49,0,0,0,2.39-.81c20.47-12.82,24.39-22.6,24.55-23l.07-.18v-25.1h90.13l.21-.1,33.87-15.74.17-.08.13-.12a223.24,223.24,0,0,0,17.48-19.32l.1-.12.05-.14c24.86-63.55,25.83-82.61,25.86-83.39v-.11l-2-33v-9.87l2.9-14.89,0-.1V1337H945v-41.92h26v-2.5c14.69-10.18,45.31-92.44,48.66-101.52H1042v-73.6l-.47-.31-163-107-.26-.17H824V934h0V891.75l-.11-.22c-11.45-22.78-20.86-39.24-29.61-51.8-16.45-23.63-31.44-38.34-31.59-38.48l-.31-.3H710V738Zm-201,87.1h11.9V837H509v-11.9ZM326.43,865.82,350,839.48l5.44,5.44-23.57,26.34-5.44-5.44ZM376.5,861h1.06l12.67,11.73.3.28H424v-5H428v5H509v-9h11.9v31h85v6.92H528v6H520v-6H445.39l-.3.51-10,17-.14.24V955h15v15h14V974H434v4H342V903.06h.46l.31-.39L376.5,861Zm287.55,35H749V910.5l.39.31,25,20,.28.23H787V934H742V902h-78V896Zm-144,35H528v7.68l.69.25,76,28,.17.06h79.13v92h10V1067h-10v7H672V1117h12v49.9H678v-15H599V1001h-79v-33h0V931.05Zm223,32H787V968h-5.24l-.25.14-32,19-.51.3v101.48H743V1084h-5v-18h-4V1059h9v-96Zm-256,7h5.9V974H487V970Zm-146,60H434V1094H326.87l-.13,0c-15.4,4-24,14.36-28.58,22.34a54.23,54.23,0,0,0-6.21,16.51V1173h-45v4H243v-4H217v-49.89h50v-1.63l18.72-19.71.29-.31v-2.84l-.31-.31-10.7-10.7v-1.19c6.87-8.36,59.13-40.8,63.26-43.35H341v-13Zm402,93H750V1166H721.05V1127h22v-4Zm-416,23H399v40c0,.22.74,19,11.13,41.72a129.08,129.08,0,0,0,24.36,35.82A140.81,140.81,0,0,0,480.6,1295l.19.08H506V1361H447.4L327,1252.51V1146Zm-84,61h3.9v2h31V1318.8h0V1353h-57.9v-22.49l22.65-20.7.34-.31V1207ZM742,1215h8v12.39l.34.31,27,25,.3.28H849v57h53v11.92H821.14l-.2.8-16.85,70.66L771.68,1415h-1.07l-20.6-33.1v-23.91h-8v-31H742V1215Zm-108,15h49.9V1274H634V1230Zm0,58h49.9v207.89H634v5h-7v-13h-7v-6.9h14V1359h-56V1295h56v-7Zm68,33h20.85v5.92H702.06V1321Zm-382,9H335v9.43l.36.31,111.63,96.78V1480h16V1488h-16V1552h9v6.9H422c-5.45-94.15-60.46-98.84-69-99v-1h-13c-15.87-2.59-19.74-16.77-20.07-18.11V1330Zm-22,0h2.89V1334h-2.89V1330Zm555.82,23H881V1445h-43v44H799v-31.25l-.13-.24-12.79-22.76,0-1.13,48.67-30.69.3-.19.13-.33L853.87,1353Zm-343.82,98h63.89v29h9v7.9h-83.9V1480h11v-29Zm20,101h6.91v6.9H530V1552Zm-41,0h6.9v6.9H489V1552Z" transform="translate(-83.96 -737.95)"/></g><g id="Callouts_copy" data-name="Callouts copy"><path class="cls-8" d="M456.89,1630.24a1.81,1.81,0,0,1,.13-.61l2.5-6.81a1.52,1.52,0,0,1,2.9,0l2.52,6.82a1.68,1.68,0,0,1,.12.61.89.89,0,0,1-1,.9c-.54,0-.83-.25-1-.84l-.48-1.45h-3.31l-.48,1.43c-.18.61-.46.86-1,.86A.87.87,0,0,1,456.89,1630.24Zm5.29-2.87-1.22-3.76h0l-1.19,3.76Z" transform="translate(-83.96 -737.95)"/><path class="cls-8" d="M466.11,1625.61h-.35a.7.7,0,1,1,0-1.39h.35v-.76a.93.93,0,1,1,1.86,0v.76h.65a.7.7,0,1,1,0,1.39H468v3.26c0,.48.16.69.56.72h.12c.46.05.71.24.71.67s-.54.83-1.32.83H468a1.64,1.64,0,0,1-1.87-1.82Z" transform="translate(-83.96 -737.95)"/><path class="cls-8" d="M470.73,1625.61h-.35a.7.7,0,1,1,0-1.39h.35v-.76a.93.93,0,1,1,1.86,0v.76h.65a.7.7,0,1,1,0,1.39h-.65v3.26c0,.48.16.69.56.72h.12c.46.05.71.24.71.67s-.54.83-1.32.83h-.06a1.64,1.64,0,0,1-1.87-1.82Z" transform="translate(-83.96 -737.95)"/><path class="cls-8" d="M474.53,1629.07c0-1.24,1-2,2.65-2.06l1.72-.1v-.45c0-.64-.45-1-1.15-1a1.5,1.5,0,0,0-1.32.71.91.91,0,0,1-.73.34.72.72,0,0,1-.78-.71.92.92,0,0,1,.1-.42c.32-.81,1.41-1.31,2.82-1.31,1.74,0,2.88.9,2.88,2.27v3.88a.85.85,0,0,1-.9.94.82.82,0,0,1-.89-.83V1630h0a2.36,2.36,0,0,1-2.08,1.15A2.1,2.1,0,0,1,474.53,1629.07Zm4.37-.54v-.5l-1.44.09c-.69.05-1.08.36-1.08.84s.42.83,1,.83A1.37,1.37,0,0,0,478.9,1628.53Z" transform="translate(-83.96 -737.95)"/><path class="cls-8" d="M481.66,1627.62a3.22,3.22,0,0,1,3.34-3.55,3,3,0,0,1,2.87,1.63,1.12,1.12,0,0,1,.1.45.73.73,0,0,1-.79.73.81.81,0,0,1-.78-.49,1.46,1.46,0,0,0-1.34-.87c-.94,0-1.52.78-1.52,2.09s.58,2.1,1.51,2.1a1.45,1.45,0,0,0,1.33-.8c.25-.38.45-.54.84-.54a.73.73,0,0,1,.79.74,1.05,1.05,0,0,1-.13.48,3.07,3.07,0,0,1-2.86,1.58A3.21,3.21,0,0,1,481.66,1627.62Z" transform="translate(-83.96 -737.95)"/><path class="cls-8" d="M489,1630.19v-7.5a.93.93,0,1,1,1.85,0v4.23h0l2.46-2.47a1,1,0,0,1,.74-.37.79.79,0,0,1,.82.8.84.84,0,0,1-.35.7l-1.73,1.64,1.9,2.42a1,1,0,0,1,.26.68.82.82,0,0,1-.88.84c-.4,0-.62-.14-.91-.58l-1.75-2.31-.59.54v1.38a.93.93,0,1,1-1.85,0Z" transform="translate(-83.96 -737.95)"/><path class="cls-8" d="M495.43,1627.65c0-2.19,1.27-3.58,3.28-3.58a3.06,3.06,0,0,1,3.23,3.17.73.73,0,0,1-.81.8h-3.88v.09a1.51,1.51,0,0,0,1.55,1.67,1.92,1.92,0,0,0,1.62-.82.73.73,0,0,1,.6-.27.67.67,0,0,1,.73.67,1,1,0,0,1-.13.45,3.06,3.06,0,0,1-2.82,1.34C496.68,1631.17,495.43,1629.85,495.43,1627.65Zm4.72-.74a1.4,1.4,0,0,0-1.42-1.47,1.46,1.46,0,0,0-1.46,1.47Z" transform="translate(-83.96 -737.95)"/><path class="cls-8" d="M502.89,1630.19V1625a.85.85,0,0,1,.9-.93.84.84,0,0,1,.87.93v.45h0a1.5,1.5,0,0,1,1.42-1.35.88.88,0,0,1,.57.17.82.82,0,0,1,.27.69.81.81,0,0,1-.27.66,1.14,1.14,0,0,1-.8.24c-.85,0-1.15.49-1.15,1.3v3a.93.93,0,1,1-1.85,0Z" transform="translate(-83.96 -737.95)"/><path class="cls-8" d="M510.23,1629.42a1.6,1.6,0,0,1-.1-.52.8.8,0,0,1,.84-.84.91.91,0,0,1,.88.56,1.91,1.91,0,0,0,1.9,1c1,0,1.72-.49,1.72-1.17s-.43-.94-1.58-1.18l-1-.19c-1.83-.36-2.72-1.24-2.72-2.6,0-1.68,1.46-2.79,3.49-2.79,1.68,0,2.94.71,3.35,1.9a1.38,1.38,0,0,1,.07.43.75.75,0,0,1-.82.76.93.93,0,0,1-.91-.56,1.67,1.67,0,0,0-1.69-1c-.94,0-1.57.45-1.57,1.12s.44.91,1.52,1.13l1,.2c1.94.38,2.78,1.16,2.78,2.55,0,1.79-1.4,2.92-3.69,2.92C511.81,1631.17,510.6,1630.42,510.23,1629.42Z" transform="translate(-83.96 -737.95)"/><path class="cls-8" d="M518.4,1632.48V1625a.92.92,0,1,1,1.83,0v.36h0a2.22,2.22,0,0,1,2.11-1.29c1.73,0,2.79,1.31,2.79,3.51s-1.06,3.51-2.76,3.51a2.22,2.22,0,0,1-2.11-1.25h0v2.6a.93.93,0,1,1-1.85,0Zm4.86-4.86c0-1.23-.58-2-1.51-2s-1.5.81-1.5,2,.59,2,1.5,2S523.26,1628.86,523.26,1627.62Z" transform="translate(-83.96 -737.95)"/><path class="cls-8" d="M525.84,1629.07c0-1.24,1-2,2.66-2.06l1.71-.1v-.45c0-.64-.44-1-1.14-1a1.48,1.48,0,0,0-1.32.71.94.94,0,0,1-.74.34.71.71,0,0,1-.77-.71,1.06,1.06,0,0,1,.09-.42c.32-.81,1.41-1.31,2.82-1.31,1.75,0,2.88.9,2.88,2.27v3.88a.85.85,0,0,1-.9.94.82.82,0,0,1-.89-.83V1630h0a2.36,2.36,0,0,1-2.08,1.15A2.11,2.11,0,0,1,525.84,1629.07Zm4.37-.54v-.5l-1.43.09c-.7.05-1.09.36-1.09.84s.42.83,1,.83A1.37,1.37,0,0,0,530.21,1628.53Z" transform="translate(-83.96 -737.95)"/><path class="cls-8" d="M534.31,1630.18l-1.38-4.74a1.9,1.9,0,0,1-.1-.57.82.82,0,0,1,.9-.79.86.86,0,0,1,.87.78l1,4.4h0l1.06-4.33a1.06,1.06,0,0,1,2.08,0l1.06,4.33h0l1-4.41a.85.85,0,0,1,.86-.77.8.8,0,0,1,.88.78,1.9,1.9,0,0,1-.1.57l-1.38,4.75a1.13,1.13,0,0,1-1.18,1,1.1,1.1,0,0,1-1.2-1l-1-4h0l-1,4a1.1,1.1,0,0,1-1.19,1C534.84,1631.16,534.5,1630.86,534.31,1630.18Z" transform="translate(-83.96 -737.95)"/><path class="cls-8" d="M543.46,1630.19V1625a.84.84,0,0,1,.9-.93.87.87,0,0,1,.93.94v.38h0a2.09,2.09,0,0,1,2.1-1.31,2.24,2.24,0,0,1,2.36,2.55v3.55a.93.93,0,1,1-1.85,0V1627c0-.89-.42-1.39-1.25-1.39a1.35,1.35,0,0,0-1.36,1.49v3.07a.93.93,0,1,1-1.86,0Z" transform="translate(-83.96 -737.95)"/><path class="cls-9" d="M810.21,1041.11v-2l-2.15-3.32a.94.94,0,0,1-.15-.5.74.74,0,0,1,1.42-.24l1.62,2.66h0l1.62-2.66a.71.71,0,0,1,.66-.45.69.69,0,0,1,.73.68,1,1,0,0,1-.15.51l-2.15,3.32v2a.74.74,0,1,1-1.48,0Z" transform="translate(-83.96 -737.95)"/><path class="cls-9" d="M813.47,1039.19a2.47,2.47,0,0,1,2.53-2.75,2.34,2.34,0,0,1,2.48,2.43.56.56,0,0,1-.62.62h-3v.07a1.16,1.16,0,0,0,1.19,1.28,1.48,1.48,0,0,0,1.25-.63.6.6,0,0,1,.46-.21.52.52,0,0,1,.56.52.78.78,0,0,1-.1.35,2.35,2.35,0,0,1-2.17,1A2.44,2.44,0,0,1,813.47,1039.19Zm3.64-.57a1.08,1.08,0,0,0-1.09-1.13,1.13,1.13,0,0,0-1.13,1.13Z" transform="translate(-83.96 -737.95)"/><path class="cls-9" d="M819.25,1041.14v-5.76a.72.72,0,1,1,1.43,0v5.76a.72.72,0,1,1-1.43,0Z" transform="translate(-83.96 -737.95)"/><path class="cls-9" d="M821.67,1041.14v-5.76a.68.68,0,0,1,.72-.75.67.67,0,0,1,.71.75v5.76a.67.67,0,0,1-.71.75A.68.68,0,0,1,821.67,1041.14Z" transform="translate(-83.96 -737.95)"/><path class="cls-9" d="M823.87,1039.16a2.6,2.6,0,1,1,2.59,2.74A2.48,2.48,0,0,1,823.87,1039.16Zm3.74,0c0-1-.45-1.64-1.15-1.64s-1.14.6-1.14,1.64.44,1.64,1.14,1.64S827.61,1040.22,827.61,1039.17Z" transform="translate(-83.96 -737.95)"/><path class="cls-9" d="M830.59,1041.14l-1.05-3.65a1.58,1.58,0,0,1-.08-.44.63.63,0,0,1,.69-.61.66.66,0,0,1,.67.61l.77,3.38h0l.81-3.33a.77.77,0,0,1,.81-.66.76.76,0,0,1,.8.66l.81,3.33h0l.78-3.39a.66.66,0,0,1,.66-.6.62.62,0,0,1,.68.61,1.59,1.59,0,0,1-.08.43l-1.06,3.65a.87.87,0,0,1-.91.76.84.84,0,0,1-.92-.76l-.8-3.05h0l-.79,3.06a.84.84,0,0,1-.91.75C831,1041.89,830.75,1041.66,830.59,1041.14Z" transform="translate(-83.96 -737.95)"/><path class="cls-9" d="M364.4,1338.07c0-2.27,1.29-3.64,3.32-3.64a2.93,2.93,0,0,1,2.82,1.6,1.17,1.17,0,0,1,.15.55.61.61,0,0,1-.65.64.72.72,0,0,1-.7-.49,1.69,1.69,0,0,0-1.6-1.08c-1.12,0-1.84.93-1.84,2.42s.71,2.43,1.84,2.43a1.66,1.66,0,0,0,1.62-1,.64.64,0,0,1,.65-.46.63.63,0,0,1,.68.65,1.16,1.16,0,0,1-.11.5,2.94,2.94,0,0,1-2.82,1.57C365.67,1341.71,364.4,1340.35,364.4,1338.07Z" transform="translate(-83.96 -737.95)"/><path class="cls-9" d="M371.39,1340.09c0-.95.74-1.5,2-1.58l1.32-.08v-.35c0-.48-.34-.77-.88-.77a1.14,1.14,0,0,0-1,.56.75.75,0,0,1-.57.26.55.55,0,0,1-.59-.55.74.74,0,0,1,.07-.32c.24-.63,1.08-1,2.17-1,1.34,0,2.21.69,2.21,1.75v3a.65.65,0,0,1-.69.72.63.63,0,0,1-.68-.64v-.27h0a1.82,1.82,0,0,1-1.6.89A1.63,1.63,0,0,1,371.39,1340.09Zm3.36-.41v-.38l-1.1.06c-.53,0-.84.28-.84.65s.33.64.8.64A1,1,0,0,0,374.75,1339.68Z" transform="translate(-83.96 -737.95)"/><path class="cls-9" d="M377.07,1341v-4a.65.65,0,0,1,.69-.72.67.67,0,0,1,.71.73v.29h0a1.61,1.61,0,0,1,1.61-1,1.73,1.73,0,0,1,1.82,2V1341a.72.72,0,1,1-1.43,0v-2.44c0-.68-.32-1.07-1-1.07a1,1,0,0,0-1,1.14V1341a.72.72,0,1,1-1.43,0Z" transform="translate(-83.96 -737.95)"/><path class="cls-9" d="M382.83,1341v-4a.65.65,0,0,1,.69-.72.67.67,0,0,1,.71.73v.29h0a1.61,1.61,0,0,1,1.62-1,1.73,1.73,0,0,1,1.81,2V1341a.71.71,0,1,1-1.42,0v-2.44c0-.68-.33-1.07-1-1.07a1,1,0,0,0-1,1.14V1341a.67.67,0,0,1-.71.74A.68.68,0,0,1,382.83,1341Z" transform="translate(-83.96 -737.95)"/><path class="cls-9" d="M388.4,1339a2.6,2.6,0,1,1,2.6,2.74A2.48,2.48,0,0,1,388.4,1339Zm3.74,0c0-1-.45-1.64-1.14-1.64s-1.15.6-1.15,1.64.44,1.64,1.15,1.64S392.14,1340,392.14,1339Z" transform="translate(-83.96 -737.95)"/><path class="cls-9" d="M394.32,1341v-4a.65.65,0,0,1,.69-.72.67.67,0,0,1,.71.73v.29h0a1.61,1.61,0,0,1,1.61-1,1.73,1.73,0,0,1,1.82,2V1341a.72.72,0,1,1-1.43,0v-2.44c0-.68-.32-1.07-1-1.07a1,1,0,0,0-1,1.14V1341a.67.67,0,0,1-.71.74A.68.68,0,0,1,394.32,1341Z" transform="translate(-83.96 -737.95)"/><path class="cls-9" d="M619.83,1191.64v-5.51a.7.7,0,0,1,.74-.77h1.95c2.12,0,3.36,1.26,3.36,3.5s-1.24,3.55-3.36,3.55h-1.95A.69.69,0,0,1,619.83,1191.64Zm2.52-.45c1.32,0,2-.8,2-2.33s-.73-2.28-2-2.28h-1v4.61Z" transform="translate(-83.96 -737.95)"/><path class="cls-9" d="M626.52,1189.79a2.59,2.59,0,1,1,2.59,2.73A2.48,2.48,0,0,1,626.52,1189.79Zm3.73,0c0-1-.45-1.64-1.14-1.64s-1.15.6-1.15,1.64.45,1.64,1.15,1.64S630.25,1190.84,630.25,1189.79Z" transform="translate(-83.96 -737.95)"/><path class="cls-9" d="M632.41,1190.55v-2.74a.72.72,0,1,1,1.43,0v2.44c0,.7.34,1.07,1,1.07a1,1,0,0,0,1-1.15v-2.36a.68.68,0,0,1,.72-.74.67.67,0,0,1,.71.74v4a.69.69,0,1,1-1.38,0v-.32h0a1.55,1.55,0,0,1-1.56,1A1.79,1.79,0,0,1,632.41,1190.55Z" transform="translate(-83.96 -737.95)"/><path class="cls-9" d="M638.23,1191.79V1186a.72.72,0,1,1,1.43,0v2.08h0a1.69,1.69,0,0,1,1.61-1c1.33,0,2.13,1,2.13,2.7s-.8,2.7-2.12,2.7a1.72,1.72,0,0,1-1.64-1h0v.28a.66.66,0,0,1-.71.72A.65.65,0,0,1,638.23,1191.79Zm3.74-2c0-1-.44-1.56-1.15-1.56s-1.17.62-1.17,1.56.48,1.55,1.17,1.55S642,1190.75,642,1189.79Z" transform="translate(-83.96 -737.95)"/><path class="cls-9" d="M644.2,1191.77V1186a.67.67,0,0,1,.72-.74.67.67,0,0,1,.71.74v5.77a.67.67,0,0,1-.71.74A.67.67,0,0,1,644.2,1191.77Z" transform="translate(-83.96 -737.95)"/><path class="cls-9" d="M646.4,1189.82a2.47,2.47,0,0,1,2.53-2.76,2.35,2.35,0,0,1,2.48,2.44.56.56,0,0,1-.62.62h-3v.06a1.17,1.17,0,0,0,1.19,1.29,1.48,1.48,0,0,0,1.25-.63.57.57,0,0,1,.47-.21.51.51,0,0,1,.55.52.79.79,0,0,1-.09.35,2.37,2.37,0,0,1-2.17,1A2.43,2.43,0,0,1,646.4,1189.82Zm3.64-.57a1.08,1.08,0,0,0-1.1-1.13,1.13,1.13,0,0,0-1.12,1.13Z" transform="translate(-83.96 -737.95)"/><path class="cls-9" d="M654.24,1191.64v-5.51a.7.7,0,0,1,.74-.77h1.95c2.12,0,3.36,1.26,3.36,3.5s-1.24,3.55-3.36,3.55H655A.69.69,0,0,1,654.24,1191.64Zm2.52-.45c1.32,0,2-.8,2-2.33s-.73-2.28-2-2.28h-1v4.61Z" transform="translate(-83.96 -737.95)"/><path class="cls-9" d="M660.93,1189.79a2.59,2.59,0,1,1,2.59,2.73A2.48,2.48,0,0,1,660.93,1189.79Zm3.73,0c0-1-.45-1.64-1.14-1.64s-1.15.6-1.15,1.64.45,1.64,1.15,1.64S664.66,1190.84,664.66,1189.79Z" transform="translate(-83.96 -737.95)"/><path class="cls-9" d="M666.65,1189.79a2.6,2.6,0,1,1,2.6,2.73A2.48,2.48,0,0,1,666.65,1189.79Zm3.74,0c0-1-.45-1.64-1.14-1.64s-1.15.6-1.15,1.64.44,1.64,1.15,1.64S670.39,1190.84,670.39,1189.79Z" transform="translate(-83.96 -737.95)"/><path class="cls-9" d="M672.57,1191.77v-4a.65.65,0,0,1,.69-.72.64.64,0,0,1,.67.72v.34h0a1.16,1.16,0,0,1,1.09-1,.75.75,0,0,1,.45.13.66.66,0,0,1,.2.53.63.63,0,0,1-.2.51,1,1,0,0,1-.62.19c-.65,0-.88.38-.88,1v2.32a.67.67,0,0,1-.71.74A.68.68,0,0,1,672.57,1191.77Z" transform="translate(-83.96 -737.95)"/><path class="cls-9" d="M470.41,939.14v-5.77a.67.67,0,0,1,.74-.73.83.83,0,0,1,.73.43l3.05,4.25h0v-3.94a.71.71,0,1,1,1.41,0v5.78a.65.65,0,0,1-.72.71.81.81,0,0,1-.74-.42l-3.06-4.28h0v4a.66.66,0,0,1-.71.73A.66.66,0,0,1,470.41,939.14Z" transform="translate(-83.96 -737.95)"/><path class="cls-9" d="M477.24,937.19a2.47,2.47,0,0,1,2.53-2.76,2.35,2.35,0,0,1,2.48,2.44.56.56,0,0,1-.62.62h-3v.06a1.17,1.17,0,0,0,1.19,1.29,1.5,1.5,0,0,0,1.25-.63.57.57,0,0,1,.46-.21.51.51,0,0,1,.56.52.69.69,0,0,1-.1.35,2.35,2.35,0,0,1-2.17,1A2.43,2.43,0,0,1,477.24,937.19Zm3.64-.57a1.08,1.08,0,0,0-1.1-1.13,1.13,1.13,0,0,0-1.13,1.13Z" transform="translate(-83.96 -737.95)"/><path class="cls-9" d="M482.86,938.85a.91.91,0,0,1-.05-.27.53.53,0,0,1,.57-.54.8.8,0,0,1,.62.32,1.28,1.28,0,0,0,1.15.53c.52,0,.85-.21.85-.56s-.18-.43-.69-.55l-.88-.18c-1-.22-1.54-.74-1.54-1.52,0-1,.86-1.65,2.22-1.65a2,2,0,0,1,2.05,1.09.76.76,0,0,1,0,.21.47.47,0,0,1-.54.49.69.69,0,0,1-.52-.22,1.23,1.23,0,0,0-1.05-.56c-.48,0-.82.22-.82.56s.21.46.73.57l.87.18c1.11.24,1.57.65,1.57,1.43,0,1-.93,1.71-2.32,1.71C483.91,939.89,483.11,939.46,482.86,938.85Z" transform="translate(-83.96 -737.95)"/><path class="cls-9" d="M488.51,935.62h-.27a.54.54,0,1,1,0-1.07h.27V934a.72.72,0,1,1,1.43,0v.58h.5a.54.54,0,1,1,0,1.07h-.5v2.51c0,.37.12.52.43.55h.09c.36,0,.55.18.55.51s-.41.64-1,.64H490a1.26,1.26,0,0,1-1.44-1.4Z" transform="translate(-83.96 -737.95)"/><path class="cls-9" d="M702.6,1241.21v-5.69a.74.74,0,1,1,1.48,0v2.18h3.17v-2.18a.74.74,0,1,1,1.48,0v5.69a.74.74,0,1,1-1.48,0v-2.29h-3.17v2.29a.74.74,0,1,1-1.48,0Z" transform="translate(-83.96 -737.95)"/><path class="cls-9" d="M709.46,1240.38c0-1,.74-1.5,2-1.58l1.32-.08v-.34c0-.49-.34-.77-.88-.77a1.14,1.14,0,0,0-1,.55.75.75,0,0,1-.57.26.55.55,0,0,1-.59-.55.74.74,0,0,1,.07-.32c.24-.62,1.08-1,2.17-1,1.34,0,2.21.69,2.21,1.75v3a.64.64,0,0,1-.69.72.62.62,0,0,1-.68-.63v-.27h0a1.82,1.82,0,0,1-1.6.88A1.62,1.62,0,0,1,709.46,1240.38Zm3.36-.41v-.38l-1.1.07c-.53,0-.84.27-.84.65s.33.63.81.63A1,1,0,0,0,712.82,1240Z" transform="translate(-83.96 -737.95)"/><path class="cls-9" d="M715.18,1241.25v-5.77a.71.71,0,1,1,1.42,0v5.77a.71.71,0,1,1-1.42,0Z" transform="translate(-83.96 -737.95)"/><path class="cls-9" d="M717.6,1241.25v-5.77a.71.71,0,1,1,1.42,0v5.77a.71.71,0,1,1-1.42,0Z" transform="translate(-83.96 -737.95)"/><path class="cls-9" d="M824.48,1346.46a1.09,1.09,0,0,1-.08-.39.61.61,0,0,1,.65-.65.69.69,0,0,1,.68.43,1.47,1.47,0,0,0,1.46.78c.79,0,1.33-.38,1.33-.9s-.34-.73-1.22-.91l-.75-.15c-1.4-.27-2.09-1-2.09-2,0-1.29,1.12-2.14,2.69-2.14a2.49,2.49,0,0,1,2.57,1.46.84.84,0,0,1,.06.33.58.58,0,0,1-.63.59.74.74,0,0,1-.71-.44,1.27,1.27,0,0,0-1.29-.75c-.73,0-1.21.34-1.21.86s.33.7,1.17.87l.74.15c1.5.3,2.14.9,2.14,2,0,1.37-1.08,2.24-2.84,2.24C825.7,1347.81,824.77,1347.23,824.48,1346.46Z" transform="translate(-83.96 -737.95)"/><path class="cls-9" d="M830.8,1347.06v-5.78a.7.7,0,1,1,1.4,0v2.11h0a1.68,1.68,0,0,1,1.65-1,1.75,1.75,0,0,1,1.82,2v2.73a.71.71,0,1,1-1.42,0v-2.43c0-.67-.33-1.08-1-1.08a1,1,0,0,0-1.07,1.16v2.35a.72.72,0,1,1-1.43,0Z" transform="translate(-83.96 -737.95)"/><path class="cls-9" d="M836.42,1345.07a2.6,2.6,0,1,1,2.59,2.74A2.48,2.48,0,0,1,836.42,1345.07Zm3.74,0c0-1-.45-1.64-1.15-1.64s-1.14.6-1.14,1.64.44,1.64,1.14,1.64S840.16,1346.13,840.16,1345.08Z" transform="translate(-83.96 -737.95)"/><path class="cls-9" d="M842.34,1348.82v-5.73a.67.67,0,0,1,.7-.74.68.68,0,0,1,.71.74v.29h0a1.72,1.72,0,0,1,1.63-1c1.32,0,2.14,1,2.14,2.7s-.81,2.7-2.12,2.7a1.72,1.72,0,0,1-1.63-1h0v2a.71.71,0,1,1-1.42,0Zm3.74-3.74c0-.95-.45-1.56-1.16-1.56s-1.16.62-1.16,1.56.46,1.55,1.16,1.55S846.08,1346,846.08,1345.08Z" transform="translate(-83.96 -737.95)"/><path class="cls-10" d="M599.73,779.81v-7.16a.89.89,0,0,1,1-1h2.54c2.75,0,4.37,1.63,4.37,4.54s-1.62,4.61-4.37,4.61h-2.54A.9.9,0,0,1,599.73,779.81Zm3.27-.58c1.72,0,2.64-1,2.64-3s-.95-3-2.64-3h-1.35v6Z" transform="translate(-83.96 -737.95)"/><path class="cls-10" d="M608.42,777.44c0-2.19,1.28-3.58,3.29-3.58a3.06,3.06,0,0,1,3.23,3.17.74.74,0,0,1-.81.81h-3.88v.08a1.51,1.51,0,0,0,1.54,1.67,1.94,1.94,0,0,0,1.63-.82.76.76,0,0,1,.6-.27.68.68,0,0,1,.73.68,1,1,0,0,1-.13.45A3.05,3.05,0,0,1,611.8,781C609.67,781,608.42,779.65,608.42,777.44Zm4.73-.74a1.39,1.39,0,0,0-1.42-1.46,1.47,1.47,0,0,0-1.47,1.46Z" transform="translate(-83.96 -737.95)"/><path class="cls-10" d="M616.38,780v-4.57H616a.69.69,0,0,1,0-1.37h.35v-.51a1.72,1.72,0,0,1,2-2c1,0,1.39.31,1.39.75a.47.47,0,0,1-.37.49,1.73,1.73,0,0,1-.36.05c-.57,0-.8.25-.8.75V774H619a.69.69,0,0,1,0,1.37h-.73V780a.93.93,0,1,1-1.86,0Z" transform="translate(-83.96 -737.95)"/><path class="cls-10" d="M620.08,777.44c0-2.19,1.27-3.58,3.29-3.58a3,3,0,0,1,3.22,3.17.73.73,0,0,1-.8.81H621.9v.08a1.51,1.51,0,0,0,1.55,1.67,1.92,1.92,0,0,0,1.62-.82.78.78,0,0,1,.61-.27.67.67,0,0,1,.72.68.89.89,0,0,1-.13.45,3,3,0,0,1-2.81,1.33C621.33,781,620.08,779.65,620.08,777.44Zm4.73-.74a1.4,1.4,0,0,0-1.42-1.46,1.46,1.46,0,0,0-1.47,1.46Z" transform="translate(-83.96 -737.95)"/><path class="cls-10" d="M627.54,780V774.8a.85.85,0,0,1,.9-.93.87.87,0,0,1,.93.94v.38h0a2.09,2.09,0,0,1,2.1-1.31,2.24,2.24,0,0,1,2.36,2.55V780a.93.93,0,1,1-1.85,0v-3.16c0-.89-.42-1.4-1.26-1.4a1.34,1.34,0,0,0-1.35,1.49V780a.93.93,0,1,1-1.86,0Z" transform="translate(-83.96 -737.95)"/><path class="cls-10" d="M634.79,777.4c0-2.16,1.08-3.5,2.78-3.5a2.18,2.18,0,0,1,2.08,1.28h0v-2.69a.93.93,0,1,1,1.85,0V780a.93.93,0,1,1-1.85,0v-.39h0a2.12,2.12,0,0,1-2.09,1.3C635.86,780.92,634.79,779.58,634.79,777.4Zm4.91,0c0-1.24-.59-2-1.51-2s-1.51.78-1.51,2,.57,2,1.51,2S639.7,778.66,639.7,777.41Z" transform="translate(-83.96 -737.95)"/><path class="cls-10" d="M642.53,777.44c0-2.19,1.28-3.58,3.29-3.58A3,3,0,0,1,649,777a.73.73,0,0,1-.8.81h-3.89v.08a1.51,1.51,0,0,0,1.55,1.67,2,2,0,0,0,1.63-.82.75.75,0,0,1,.6-.27.67.67,0,0,1,.72.68,1,1,0,0,1-.12.45,3.07,3.07,0,0,1-2.82,1.33C643.78,781,642.53,779.65,642.53,777.44Zm4.73-.74a1.4,1.4,0,0,0-1.42-1.46,1.46,1.46,0,0,0-1.47,1.46Z" transform="translate(-83.96 -737.95)"/><path class="cls-10" d="M650,780V774.8a.89.89,0,1,1,1.77,0v.45h0a1.5,1.5,0,0,1,1.42-1.35.91.91,0,0,1,.58.17.85.85,0,0,1,.26.69.87.87,0,0,1-.26.67,1.3,1.3,0,0,1-.81.24c-.84,0-1.14.49-1.14,1.29v3a.93.93,0,1,1-1.85,0Z" transform="translate(-83.96 -737.95)"/><path class="cls-10" d="M657.33,779.21a1.55,1.55,0,0,1-.1-.52.81.81,0,0,1,.85-.84.92.92,0,0,1,.88.56,1.88,1.88,0,0,0,1.89,1c1,0,1.73-.49,1.73-1.16s-.44-1-1.58-1.18l-1-.19c-1.82-.37-2.72-1.24-2.72-2.61,0-1.67,1.46-2.78,3.5-2.78,1.67,0,2.94.7,3.34,1.89a1.14,1.14,0,0,1,.07.43.75.75,0,0,1-.82.77.94.94,0,0,1-.91-.57,1.65,1.65,0,0,0-1.68-1c-.95,0-1.58.45-1.58,1.12s.44.92,1.53,1.13l1,.2c1.95.39,2.78,1.17,2.78,2.56,0,1.79-1.4,2.92-3.69,2.92C658.91,781,657.7,780.21,657.33,779.21Z" transform="translate(-83.96 -737.95)"/><path class="cls-10" d="M665.5,782.27v-7.45a.92.92,0,1,1,1.83,0v.37h0a2.22,2.22,0,0,1,2.11-1.3c1.72,0,2.78,1.32,2.78,3.51s-1,3.51-2.75,3.51a2.24,2.24,0,0,1-2.12-1.25h0v2.6a.93.93,0,1,1-1.86,0Zm4.86-4.86c0-1.23-.58-2-1.51-2s-1.5.8-1.5,2,.6,2,1.5,2S670.36,778.65,670.36,777.41Z" transform="translate(-83.96 -737.95)"/><path class="cls-10" d="M673,778.86c0-1.24.95-2,2.65-2.06l1.72-.1v-.45c0-.63-.45-1-1.15-1a1.49,1.49,0,0,0-1.32.71.93.93,0,0,1-.73.35.72.72,0,0,1-.78-.71.9.9,0,0,1,.1-.42c.31-.81,1.41-1.32,2.81-1.32,1.75,0,2.89.91,2.89,2.28V780a.85.85,0,0,1-.9.94.81.81,0,0,1-.89-.83v-.35h0a2.34,2.34,0,0,1-2.08,1.15A2.1,2.1,0,0,1,673,778.86Zm4.37-.54v-.49l-1.44.08c-.69.05-1.09.37-1.09.85s.42.82,1.05.82A1.36,1.36,0,0,0,677.32,778.32Z" transform="translate(-83.96 -737.95)"/><path class="cls-10" d="M681.41,780,680,775.24a2,2,0,0,1-.1-.58.81.81,0,0,1,.89-.79.86.86,0,0,1,.87.79l1,4.4h0l1-4.34a1,1,0,0,1,1.05-.85,1,1,0,0,1,1,.85l1.06,4.34h0l1-4.42a.85.85,0,0,1,.86-.77.8.8,0,0,1,.87.79,1.89,1.89,0,0,1-.1.56L688.26,780a1.14,1.14,0,0,1-1.19,1,1.09,1.09,0,0,1-1.2-1l-1-4h0l-1,4a1.1,1.1,0,0,1-1.19,1C681.94,781,681.61,780.65,681.41,780Z" transform="translate(-83.96 -737.95)"/><path class="cls-10" d="M690.57,780V774.8a.85.85,0,0,1,.89-.93.87.87,0,0,1,.93.94v.38h0a2.09,2.09,0,0,1,2.09-1.31,2.24,2.24,0,0,1,2.36,2.55V780a.93.93,0,1,1-1.85,0v-3.16c0-.89-.42-1.4-1.25-1.4a1.35,1.35,0,0,0-1.36,1.49V780a.93.93,0,1,1-1.85,0Z" transform="translate(-83.96 -737.95)"/><path class="cls-9" d="M177.92,1215v-5.51a.7.7,0,0,1,.74-.77H181c1.32,0,2.15.68,2.15,1.76a1.55,1.55,0,0,1-1.32,1.53v0a1.7,1.7,0,0,1,1.66,1.7c0,1.24-.93,2-2.44,2h-2.38A.7.7,0,0,1,177.92,1215Zm2.54-3.35c.78,0,1.23-.35,1.23-.94s-.39-.89-1.08-.89H179.4v1.83Zm.21,3c.85,0,1.31-.36,1.31-1s-.48-1-1.35-1H179.4v2Z" transform="translate(-83.96 -737.95)"/><path class="cls-9" d="M186.3,1215.2v-5.59a.88.88,0,0,1,.95-1,1,1,0,0,1,1,.77l1.75,4.33h0l1.74-4.33a1,1,0,0,1,1-.77.88.88,0,0,1,.95,1v5.59a.66.66,0,1,1-1.32,0V1211h0l-1.75,4.26a.61.61,0,0,1-.63.45.63.63,0,0,1-.64-.44l-1.74-4.27h0v4.16a.66.66,0,1,1-1.31,0Z" transform="translate(-83.96 -737.95)"/><path class="cls-9" d="M194.5,1214.29c0-1,.73-1.5,2-1.58l1.31-.08v-.34c0-.49-.34-.77-.87-.77a1.15,1.15,0,0,0-1,.55.75.75,0,0,1-.57.26.55.55,0,0,1-.59-.55.74.74,0,0,1,.07-.32,2.22,2.22,0,0,1,2.17-1c1.34,0,2.22.69,2.22,1.75v3a.65.65,0,0,1-.7.72.63.63,0,0,1-.68-.63V1215h0a1.82,1.82,0,0,1-1.6.88A1.61,1.61,0,0,1,194.5,1214.29Zm3.35-.41v-.38l-1.1.07c-.53,0-.83.27-.83.65s.32.63.8.63A1,1,0,0,0,197.85,1213.88Z" transform="translate(-83.96 -737.95)"/><path class="cls-9" d="M200.15,1209.18a.76.76,0,1,1,.76.73A.74.74,0,0,1,200.15,1209.18Zm0,6v-4a.71.71,0,1,1,1.42,0v4a.71.71,0,1,1-1.42,0Z" transform="translate(-83.96 -737.95)"/><path class="cls-9" d="M202.57,1215.16v-4a.65.65,0,0,1,.69-.71.66.66,0,0,1,.71.72v.29h0a1.6,1.6,0,0,1,1.61-1,1.72,1.72,0,0,1,1.82,2v2.74a.72.72,0,1,1-1.43,0v-2.44c0-.68-.32-1.07-1-1.07a1,1,0,0,0-1,1.14v2.37a.72.72,0,1,1-1.43,0Z" transform="translate(-83.96 -737.95)"/><path class="cls-9" d="M529.56,1264.88v-5.6a.88.88,0,0,1,1-1,1,1,0,0,1,1,.76l1.74,4.33h0l1.75-4.33a1,1,0,0,1,1-.76.87.87,0,0,1,.94,1v5.6a.66.66,0,1,1-1.31,0v-4.16h0l-1.74,4.26a.63.63,0,0,1-.63.45.63.63,0,0,1-.64-.44l-1.74-4.27h0v4.16a.66.66,0,1,1-1.32,0Z" transform="translate(-83.96 -737.95)"/><path class="cls-9" d="M538.05,1258.85a.76.76,0,0,1,1.52,0,.76.76,0,0,1-1.52,0Zm.05,6v-3.95a.71.71,0,1,1,1.42,0v3.95a.71.71,0,1,1-1.42,0Z" transform="translate(-83.96 -737.95)"/><path class="cls-9" d="M540.28,1262.85c0-1.66.83-2.69,2.14-2.69a1.68,1.68,0,0,1,1.6,1h0v-2.07a.72.72,0,1,1,1.43,0v5.78a.67.67,0,0,1-.71.73.67.67,0,0,1-.72-.73v-.3h0a1.65,1.65,0,0,1-1.61,1C541.11,1265.56,540.28,1264.52,540.28,1262.85Zm3.78,0c0-.95-.45-1.56-1.16-1.56s-1.16.6-1.16,1.56.44,1.55,1.16,1.55S544.06,1263.81,544.06,1262.86Z" transform="translate(-83.96 -737.95)"/><path class="cls-9" d="M379.79,1009.49v-5.15h-1.46a.61.61,0,1,1,0-1.22h4.39a.61.61,0,1,1,0,1.22h-1.46v5.15a.74.74,0,1,1-1.47,0Z" transform="translate(-83.96 -737.95)"/><path class="cls-9" d="M383.33,1008.3v-2.73a.71.71,0,1,1,1.42,0V1008c0,.7.35,1.07,1,1.07a1,1,0,0,0,1-1.14v-2.36a.72.72,0,1,1,1.43,0v4a.69.69,0,1,1-1.38,0v-.32h0a1.56,1.56,0,0,1-1.57,1A1.79,1.79,0,0,1,383.33,1008.3Z" transform="translate(-83.96 -737.95)"/><path class="cls-9" d="M389.11,1009.52v-4a.65.65,0,0,1,.69-.72.67.67,0,0,1,.72.72v.3h0a1.61,1.61,0,0,1,1.62-1,1.72,1.72,0,0,1,1.81,2v2.73a.71.71,0,1,1-1.42,0v-2.43c0-.69-.33-1.08-1-1.08a1,1,0,0,0-1,1.15v2.36a.67.67,0,0,1-.71.75A.68.68,0,0,1,389.11,1009.52Z" transform="translate(-83.96 -737.95)"/><path class="cls-9" d="M394.88,1009.52v-4a.64.64,0,0,1,.68-.72.67.67,0,0,1,.72.72v.3h0a1.59,1.59,0,0,1,1.61-1,1.72,1.72,0,0,1,1.81,2v2.73a.71.71,0,1,1-1.42,0v-2.43c0-.69-.32-1.08-1-1.08a1,1,0,0,0-1.05,1.15v2.36a.71.71,0,1,1-1.42,0Z" transform="translate(-83.96 -737.95)"/><path class="cls-9" d="M400.45,1007.57a2.47,2.47,0,0,1,2.53-2.75,2.34,2.34,0,0,1,2.48,2.43.56.56,0,0,1-.62.62h-3v.07a1.16,1.16,0,0,0,1.19,1.28,1.5,1.5,0,0,0,1.25-.63.57.57,0,0,1,.46-.21.52.52,0,0,1,.56.52.67.67,0,0,1-.1.35,2.35,2.35,0,0,1-2.17,1A2.44,2.44,0,0,1,400.45,1007.57Zm3.63-.57a1.07,1.07,0,0,0-1.09-1.13,1.13,1.13,0,0,0-1.13,1.13Z" transform="translate(-83.96 -737.95)"/><path class="cls-9" d="M406.22,1009.52v-5.76a.68.68,0,0,1,.72-.75.67.67,0,0,1,.71.75v5.76a.67.67,0,0,1-.71.75A.68.68,0,0,1,406.22,1009.52Z" transform="translate(-83.96 -737.95)"/><path class="cls-9" d="M701.59,1380.22v-5.61a.7.7,0,0,1,.74-.77h2.15c1.62,0,2.55.86,2.55,2.25a2,2,0,0,1-1.21,2l1,1.76a.94.94,0,0,1,.16.51.69.69,0,0,1-.74.67c-.36,0-.52-.13-.76-.56l-1.17-2.12h-1.25v1.91a.74.74,0,1,1-1.48,0Zm2.75-3a1,1,0,0,0,1.17-1.12,1.08,1.08,0,0,0-1.19-1.13h-1.25v2.25Z" transform="translate(-83.96 -737.95)"/><path class="cls-9" d="M707.63,1378.27a2.6,2.6,0,1,1,2.59,2.73A2.48,2.48,0,0,1,707.63,1378.27Zm3.74,0c0-1-.45-1.64-1.15-1.64s-1.14.6-1.14,1.64.44,1.64,1.14,1.64S711.37,1379.32,711.37,1378.27Z" transform="translate(-83.96 -737.95)"/><path class="cls-9" d="M713.55,1382v-5.73a.66.66,0,0,1,.7-.73.67.67,0,0,1,.71.73v.29h0a1.69,1.69,0,0,1,1.62-1c1.32,0,2.14,1,2.14,2.7s-.81,2.7-2.12,2.7a1.72,1.72,0,0,1-1.63-1h0v2a.72.72,0,1,1-1.43,0Zm3.74-3.74c0-1-.45-1.56-1.16-1.56s-1.16.62-1.16,1.56.46,1.55,1.16,1.55S717.29,1379.22,717.29,1378.27Z" transform="translate(-83.96 -737.95)"/><path class="cls-9" d="M719.29,1378.29a2.47,2.47,0,0,1,2.53-2.75,2.35,2.35,0,0,1,2.48,2.44.56.56,0,0,1-.62.62h-3v.06a1.17,1.17,0,0,0,1.19,1.29,1.48,1.48,0,0,0,1.25-.63.59.59,0,0,1,.47-.21.51.51,0,0,1,.56.52.74.74,0,0,1-.1.34,2.35,2.35,0,0,1-2.17,1A2.43,2.43,0,0,1,719.29,1378.29Zm3.64-.57a1.07,1.07,0,0,0-1.09-1.12,1.12,1.12,0,0,0-1.13,1.12Z" transform="translate(-83.96 -737.95)"/><path class="cls-9" d="M170.85,1374.36l-1.47-5.33a1.91,1.91,0,0,1-.08-.49.65.65,0,0,1,.73-.66.69.69,0,0,1,.71.63l1,4.57h0l1.19-4.54c.11-.46.34-.66.75-.66a.72.72,0,0,1,.75.65l1.19,4.55h0l1.06-4.57a.68.68,0,0,1,.71-.63.65.65,0,0,1,.73.66,2,2,0,0,1-.08.49l-1.48,5.34c-.14.52-.4.75-.85.75s-.73-.22-.88-.75l-1.17-4.16h0l-1.17,4.16c-.14.52-.4.75-.87.75S171,1374.89,170.85,1374.36Z" transform="translate(-83.96 -737.95)"/><path class="cls-9" d="M179,1368.4a.76.76,0,1,1,.76.74A.74.74,0,0,1,179,1368.4Zm.05,6v-4a.71.71,0,1,1,1.42,0v4a.71.71,0,1,1-1.42,0Z" transform="translate(-83.96 -737.95)"/><path class="cls-9" d="M181.46,1374.38v-4a.65.65,0,0,1,.69-.72.67.67,0,0,1,.71.72v.3h0a1.6,1.6,0,0,1,1.61-1,1.73,1.73,0,0,1,1.82,2v2.73a.68.68,0,0,1-.72.75.67.67,0,0,1-.71-.75V1372c0-.69-.32-1.08-1-1.08a1,1,0,0,0-1.05,1.15v2.36a.71.71,0,1,1-1.42,0Z" transform="translate(-83.96 -737.95)"/><path class="cls-9" d="M187,1372.4c0-1.66.83-2.69,2.14-2.69a1.68,1.68,0,0,1,1.6,1h0v-2.07a.72.72,0,1,1,1.43,0v5.78a.67.67,0,0,1-.71.73.67.67,0,0,1-.72-.73v-.3h0a1.63,1.63,0,0,1-1.61,1C187.85,1375.11,187,1374.07,187,1372.4Zm3.78,0c0-1-.46-1.56-1.16-1.56s-1.16.6-1.16,1.56.44,1.55,1.16,1.55S190.81,1373.36,190.81,1372.41Z" transform="translate(-83.96 -737.95)"/><path class="cls-9" d="M193,1372.4a2.59,2.59,0,1,1,2.59,2.73A2.47,2.47,0,0,1,193,1372.4Zm3.73,0c0-1-.45-1.64-1.14-1.64s-1.15.6-1.15,1.64.45,1.64,1.15,1.64S196.72,1373.46,196.72,1372.41Z" transform="translate(-83.96 -737.95)"/><path class="cls-9" d="M199.71,1374.38l-1.05-3.65a1.33,1.33,0,0,1-.08-.44.63.63,0,0,1,.69-.61.68.68,0,0,1,.67.61l.77,3.38h0l.81-3.33a.81.81,0,0,1,1.6,0l.82,3.33h0l.78-3.39a.66.66,0,0,1,.66-.6.62.62,0,0,1,.67.61,1.28,1.28,0,0,1-.08.43l-1.05,3.65a.87.87,0,0,1-.91.76.85.85,0,0,1-.93-.76l-.79-3h0l-.79,3.06a.85.85,0,0,1-.92.75C200.12,1375.13,199.86,1374.9,199.71,1374.38Z" transform="translate(-83.96 -737.95)"/><path class="cls-9" d="M912.94,1394.21c0-2.27,1.29-3.64,3.32-3.64a2.93,2.93,0,0,1,2.82,1.6,1.14,1.14,0,0,1,.15.55.61.61,0,0,1-.65.64.72.72,0,0,1-.7-.49,1.7,1.7,0,0,0-1.61-1.08c-1.11,0-1.83.93-1.83,2.42s.71,2.43,1.84,2.43a1.66,1.66,0,0,0,1.62-1.05.64.64,0,0,1,.64-.46.63.63,0,0,1,.69.65,1.33,1.33,0,0,1-.11.5,2.94,2.94,0,0,1-2.82,1.57C914.21,1397.85,912.94,1396.49,912.94,1394.21Z" transform="translate(-83.96 -737.95)"/><path class="cls-9" d="M919.93,1396.23c0-1,.73-1.5,2-1.58l1.32-.08v-.35c0-.48-.34-.77-.88-.77a1.13,1.13,0,0,0-1,.55.72.72,0,0,1-.57.27.56.56,0,0,1-.6-.55.76.76,0,0,1,.08-.32c.24-.63,1.08-1,2.17-1,1.34,0,2.21.69,2.21,1.75v3a.65.65,0,0,1-.69.72.62.62,0,0,1-.68-.64v-.27h0a1.82,1.82,0,0,1-1.61.89A1.62,1.62,0,0,1,919.93,1396.23Zm3.36-.41v-.38l-1.1.06c-.53,0-.84.28-.84.65s.32.64.8.64A1,1,0,0,0,923.29,1395.82Z" transform="translate(-83.96 -737.95)"/><path class="cls-9" d="M926.75,1397.11l-1.36-3.65a1.49,1.49,0,0,1-.08-.43.66.66,0,0,1,.72-.64.68.68,0,0,1,.68.57l1.06,3.52h0l1.06-3.53a.69.69,0,0,1,1.36.08,1.1,1.1,0,0,1-.08.4l-1.36,3.68a1,1,0,0,1-1,.73A1,1,0,0,1,926.75,1397.11Z" transform="translate(-83.96 -737.95)"/><path class="cls-9" d="M930.53,1395.14a2.47,2.47,0,0,1,2.53-2.75,2.35,2.35,0,0,1,2.48,2.44.57.57,0,0,1-.62.62h-3v.06a1.16,1.16,0,0,0,1.19,1.28,1.48,1.48,0,0,0,1.25-.63.6.6,0,0,1,.46-.21.52.52,0,0,1,.56.53.63.63,0,0,1-.1.34,2.33,2.33,0,0,1-2.16,1A2.43,2.43,0,0,1,930.53,1395.14Zm3.64-.57a1.09,1.09,0,0,0-1.1-1.13,1.13,1.13,0,0,0-1.13,1.13Z" transform="translate(-83.96 -737.95)"/><path class="cls-9" d="M768.16,951.19v-5.5a.68.68,0,0,1,.73-.77h2.33c1.33,0,2.16.68,2.16,1.76a1.57,1.57,0,0,1-1.33,1.53v0a1.7,1.7,0,0,1,1.66,1.7c0,1.24-.93,2-2.43,2h-2.39A.69.69,0,0,1,768.16,951.19Zm2.53-3.34c.79,0,1.24-.35,1.24-.94s-.4-.89-1.09-.89h-1.21v1.83Zm.21,3c.85,0,1.31-.36,1.31-1s-.47-1-1.34-1h-1.24v2Z" transform="translate(-83.96 -737.95)"/><path class="cls-9" d="M774.43,951.33v-4a.66.66,0,0,1,.69-.72.65.65,0,0,1,.67.72v.34h0a1.15,1.15,0,0,1,1.09-1,.69.69,0,0,1,.45.13.65.65,0,0,1,.2.53.66.66,0,0,1-.2.51,1,1,0,0,1-.62.19c-.65,0-.88.37-.88,1v2.33a.72.72,0,1,1-1.43,0Z" transform="translate(-83.96 -737.95)"/><path class="cls-9" d="M778,945.35a.75.75,0,0,1,.77-.74.74.74,0,1,1-.77.74Zm.05,6v-4a.72.72,0,1,1,1.43,0v4a.72.72,0,1,1-1.43,0Z" transform="translate(-83.96 -737.95)"/><path class="cls-9" d="M780.28,949.34c0-1.66.83-2.69,2.14-2.69a1.69,1.69,0,0,1,1.6,1h0v-2.07a.68.68,0,0,1,.72-.75.67.67,0,0,1,.71.75v5.79a.66.66,0,0,1-.71.72.67.67,0,0,1-.72-.72V951h0a1.65,1.65,0,0,1-1.61,1C781.1,952.05,780.28,951,780.28,949.34Zm3.77,0c0-1-.45-1.56-1.16-1.56s-1.15.6-1.15,1.56.43,1.55,1.15,1.55S784.05,950.31,784.05,949.35Z" transform="translate(-83.96 -737.95)"/><path class="cls-9" d="M786.56,953a.72.72,0,0,1-.11-.39.53.53,0,0,1,.58-.53.68.68,0,0,1,.5.21,1.69,1.69,0,0,0,1.23.57,1.07,1.07,0,0,0,1.24-1.08v-.83h0a1.7,1.7,0,0,1-1.61.93c-1.31,0-2.13-1-2.13-2.59s.8-2.61,2.15-2.61a1.7,1.7,0,0,1,1.6,1h0v-.29a.71.71,0,1,1,1.42,0v4.41c0,1.36-1,2.18-2.67,2.17A2.52,2.52,0,0,1,786.56,953Zm3.45-3.69c0-.94-.46-1.55-1.17-1.55s-1.15.6-1.15,1.55.44,1.51,1.15,1.51S790,950.23,790,949.28Z" transform="translate(-83.96 -737.95)"/><path class="cls-9" d="M792.17,949.37a2.47,2.47,0,0,1,2.52-2.75,2.35,2.35,0,0,1,2.48,2.44.56.56,0,0,1-.62.62h-3v.06a1.16,1.16,0,0,0,1.19,1.28,1.48,1.48,0,0,0,1.25-.63.6.6,0,0,1,.46-.21.52.52,0,0,1,.56.53.74.74,0,0,1-.1.34,2.35,2.35,0,0,1-2.17,1A2.43,2.43,0,0,1,792.17,949.37Zm3.63-.57a1.08,1.08,0,0,0-1.09-1.13,1.13,1.13,0,0,0-1.13,1.13Z" transform="translate(-83.96 -737.95)"/><path class="cls-9" d="M313.75,1128.62v-5.5a.69.69,0,0,1,.74-.77h3.35a.61.61,0,1,1,0,1.22h-2.62v1.7h2.49a.57.57,0,1,1,0,1.13h-2.49v1.78h2.62a.61.61,0,1,1,0,1.22h-3.35A.7.7,0,0,1,313.75,1128.62Z" transform="translate(-83.96 -737.95)"/><path class="cls-9" d="M319.39,1128.76V1123a.68.68,0,0,1,.72-.75.67.67,0,0,1,.71.75v5.77a.67.67,0,0,1-.71.74A.68.68,0,0,1,319.39,1128.76Z" transform="translate(-83.96 -737.95)"/><path class="cls-9" d="M321.81,1128.78V1123a.68.68,0,0,1,.72-.75.67.67,0,0,1,.71.75v2.08h0a1.71,1.71,0,0,1,1.62-1c1.32,0,2.13,1,2.13,2.7s-.81,2.7-2.13,2.7a1.72,1.72,0,0,1-1.64-1h0v.28a.71.71,0,1,1-1.41,0Zm3.75-2c0-1-.45-1.56-1.16-1.56s-1.16.62-1.16,1.56.47,1.55,1.16,1.55S325.56,1127.74,325.56,1126.78Z" transform="translate(-83.96 -737.95)"/><path class="cls-9" d="M327.56,1126.77a2.6,2.6,0,1,1,2.59,2.74A2.48,2.48,0,0,1,327.56,1126.77Zm3.74,0c0-1-.45-1.64-1.15-1.64s-1.14.6-1.14,1.64.44,1.64,1.14,1.64S331.3,1127.83,331.3,1126.78Z" transform="translate(-83.96 -737.95)"/><path class="cls-9" d="M334.29,1128.75l-1.06-3.65a1.58,1.58,0,0,1-.08-.44.63.63,0,0,1,.69-.61.66.66,0,0,1,.67.61l.78,3.38h0l.81-3.33a.81.81,0,0,1,1.6,0l.81,3.33h0l.78-3.39a.66.66,0,0,1,.66-.6.62.62,0,0,1,.68.61,1.59,1.59,0,0,1-.08.43l-1.06,3.66a.87.87,0,0,1-.91.75.84.84,0,0,1-.92-.76l-.8-3h0l-.79,3.06a.84.84,0,0,1-.91.75C334.7,1129.5,334.44,1129.27,334.29,1128.75Z" transform="translate(-83.96 -737.95)"/><path class="cls-9" d="M87,1076.23v-5.6a.74.74,0,1,1,1.47,0v5.15H91a.6.6,0,0,1,.67.62.6.6,0,0,1-.67.61H87.72A.7.7,0,0,1,87,1076.23Z" transform="translate(-83.96 -737.95)"/><path class="cls-9" d="M92.08,1075.5c0-1,.73-1.5,2-1.58l1.32-.08v-.35c0-.48-.34-.77-.88-.77a1.13,1.13,0,0,0-1,.55.72.72,0,0,1-.57.27.56.56,0,0,1-.6-.55.76.76,0,0,1,.08-.32c.24-.63,1.08-1,2.17-1,1.34,0,2.21.69,2.21,1.75v3a.65.65,0,0,1-.69.72.62.62,0,0,1-.68-.64v-.27h0a1.82,1.82,0,0,1-1.61.89A1.62,1.62,0,0,1,92.08,1075.5Zm3.36-.41v-.38l-1.1.06c-.53,0-.84.28-.84.65s.32.64.8.64A1,1,0,0,0,95.44,1075.09Z" transform="translate(-83.96 -737.95)"/><path class="cls-9" d="M97.57,1074.38c0-1.66.83-2.69,2.14-2.69a1.68,1.68,0,0,1,1.6,1h0v-2.07a.72.72,0,1,1,1.43,0v5.79a.66.66,0,0,1-.71.72.67.67,0,0,1-.72-.72v-.31h0a1.63,1.63,0,0,1-1.61,1C98.4,1077.09,97.57,1076.05,97.57,1074.38Zm3.78,0c0-1-.45-1.56-1.16-1.56s-1.16.6-1.16,1.56.44,1.55,1.16,1.55S101.35,1075.35,101.35,1074.39Z" transform="translate(-83.96 -737.95)"/><path class="cls-9" d="M103.53,1074.38c0-1.66.83-2.69,2.14-2.69a1.69,1.69,0,0,1,1.6,1h0v-2.07a.71.71,0,1,1,1.42,0v5.79a.71.71,0,1,1-1.42,0v-.31h0a1.64,1.64,0,0,1-1.61,1C104.35,1077.09,103.53,1076.05,103.53,1074.38Zm3.78,0c0-1-.46-1.56-1.17-1.56s-1.15.6-1.15,1.56.44,1.55,1.15,1.55S107.31,1075.35,107.31,1074.39Z" transform="translate(-83.96 -737.95)"/><path class="cls-9" d="M109.48,1074.41a2.47,2.47,0,0,1,2.53-2.75,2.34,2.34,0,0,1,2.48,2.44.56.56,0,0,1-.62.62h-3v.06a1.15,1.15,0,0,0,1.19,1.28,1.48,1.48,0,0,0,1.25-.63.58.58,0,0,1,.46-.21.52.52,0,0,1,.56.53.74.74,0,0,1-.1.34,2.35,2.35,0,0,1-2.17,1A2.44,2.44,0,0,1,109.48,1074.41Zm3.64-.57a1.08,1.08,0,0,0-1.09-1.13,1.13,1.13,0,0,0-1.13,1.13Z" transform="translate(-83.96 -737.95)"/><path class="cls-9" d="M115.23,1076.37v-4a.68.68,0,1,1,1.36,0v.34h0a1.14,1.14,0,0,1,1.09-1,.64.64,0,0,1,.44.13.62.62,0,0,1,.21.53.64.64,0,0,1-.21.51,1,1,0,0,1-.62.19c-.65,0-.88.37-.88,1v2.33a.71.71,0,1,1-1.42,0Z" transform="translate(-83.96 -737.95)"/><path class="cls-9" d="M165.24,979.76v-16a2,2,0,0,1,2.14-2.22h6.75c3.84,0,6.25,2,6.25,5.09a4.52,4.52,0,0,1-3.84,4.44v.11a5,5,0,0,1,4.81,4.94c0,3.6-2.7,5.85-7.06,5.85h-6.91A2,2,0,0,1,165.24,979.76Zm7.35-9.7c2.28,0,3.58-1,3.58-2.73s-1.15-2.58-3.14-2.58h-3.51v5.31Zm.61,8.75c2.46,0,3.79-1,3.79-3s-1.37-2.93-3.89-2.93h-3.58v5.93Z" transform="translate(-83.96 -737.95)"/><path class="cls-9" d="M1012.73,1167.27c-1.13,0-1.77-.56-2.16-1.92l-1.08-3.19h-7.38l-1.07,3.23c-.39,1.33-1,1.88-2.23,1.88a2,2,0,0,1-2.13-2,4,4,0,0,1,.26-1.36l5.61-15.2a3.39,3.39,0,0,1,6.49,0l5.58,15.19a4.56,4.56,0,0,1,.28,1.36A2,2,0,0,1,1012.73,1167.27Zm-4.17-8.42-2.65-8.37h-.1l-2.71,8.37Z" transform="translate(-83.96 -737.95)"/><path class="cls-9" d="M301.23,949.32v-5.7a.74.74,0,1,1,1.47,0v2.19h3.18v-2.19a.74.74,0,1,1,1.47,0v5.7a.74.74,0,1,1-1.47,0V947H302.7v2.29a.74.74,0,1,1-1.47,0Z" transform="translate(-83.96 -737.95)"/><path class="cls-9" d="M308.09,948.49c0-1,.73-1.5,2-1.58l1.32-.08v-.35a.77.77,0,0,0-.88-.77,1.15,1.15,0,0,0-1,.55.71.71,0,0,1-.56.27.56.56,0,0,1-.6-.55.74.74,0,0,1,.07-.32,2.2,2.2,0,0,1,2.17-1c1.34,0,2.22.69,2.22,1.75v3a.66.66,0,0,1-.7.72.63.63,0,0,1-.68-.64v-.27h0a1.81,1.81,0,0,1-1.6.89A1.62,1.62,0,0,1,308.09,948.49Zm3.36-.41v-.39l-1.11.07c-.53,0-.83.28-.83.65s.32.64.8.64A1.06,1.06,0,0,0,311.45,948.08Z" transform="translate(-83.96 -737.95)"/><path class="cls-9" d="M313.8,949.35v-5.76a.72.72,0,1,1,1.43,0v5.76a.72.72,0,1,1-1.43,0Z" transform="translate(-83.96 -737.95)"/><path class="cls-9" d="M316.57,949.35v-3.52h-.28a.49.49,0,0,1-.52-.52.5.5,0,0,1,.52-.53h.28v-.39a1.31,1.31,0,0,1,1.49-1.5c.76,0,1.08.23,1.08.57a.37.37,0,0,1-.29.38l-.27,0c-.44,0-.62.19-.62.57v.33h.6a.5.5,0,0,1,.52.53.49.49,0,0,1-.52.52H318v3.52a.71.71,0,1,1-1.42,0Z" transform="translate(-83.96 -737.95)"/><path class="cls-9" d="M323.17,949.34,321.7,944a1.91,1.91,0,0,1-.08-.48.64.64,0,0,1,.72-.67.69.69,0,0,1,.71.64l1.06,4.56h0l1.18-4.54c.12-.46.35-.66.76-.66a.73.73,0,0,1,.75.65l1.19,4.55h0l1.05-4.56a.69.69,0,0,1,.71-.64.65.65,0,0,1,.73.67,2,2,0,0,1-.08.48L329,949.35c-.15.51-.4.74-.85.74s-.74-.22-.88-.75l-1.17-4.16h0l-1.17,4.16c-.14.52-.41.75-.87.75S323.31,949.86,323.17,949.34Z" transform="translate(-83.96 -737.95)"/><path class="cls-9" d="M330.51,948.49c0-1,.74-1.5,2-1.58l1.32-.08v-.35c0-.48-.34-.77-.88-.77a1.14,1.14,0,0,0-1,.55.72.72,0,0,1-.57.27.55.55,0,0,1-.59-.55.74.74,0,0,1,.07-.32c.24-.63,1.08-1,2.17-1,1.34,0,2.21.69,2.21,1.75v3a.65.65,0,0,1-.69.72.63.63,0,0,1-.68-.64v-.27h0a1.81,1.81,0,0,1-1.6.89A1.63,1.63,0,0,1,330.51,948.49Zm3.36-.41v-.39l-1.1.07c-.53,0-.84.28-.84.65s.33.64.81.64A1,1,0,0,0,333.87,948.08Z" transform="translate(-83.96 -737.95)"/><path class="cls-9" d="M336.23,949.35v-5.76a.71.71,0,1,1,1.42,0v5.76a.71.71,0,1,1-1.42,0Z" transform="translate(-83.96 -737.95)"/><path class="cls-9" d="M338.65,949.35v-5.76a.71.71,0,1,1,1.42,0v5.76a.71.71,0,1,1-1.42,0Z" transform="translate(-83.96 -737.95)"/><path class="cls-9" d="M514.77,1026.25v-5.15h-1.45a.61.61,0,1,1,0-1.22h4.39a.61.61,0,1,1,0,1.22h-1.46v5.15a.74.74,0,1,1-1.48,0Z" transform="translate(-83.96 -737.95)"/><path class="cls-9" d="M517.64,1024.3a2.6,2.6,0,1,1,2.6,2.74A2.48,2.48,0,0,1,517.64,1024.3Zm3.74,0c0-1-.45-1.64-1.14-1.64s-1.15.6-1.15,1.64.44,1.64,1.15,1.64S521.38,1025.36,521.38,1024.31Z" transform="translate(-83.96 -737.95)"/><path class="cls-9" d="M523.56,1028.05v-5.74a.71.71,0,1,1,1.41,0v.28h0a1.7,1.7,0,0,1,1.62-1c1.33,0,2.14,1,2.14,2.7s-.81,2.7-2.12,2.7a1.71,1.71,0,0,1-1.62-1h0v2a.72.72,0,1,1-1.43,0Zm3.74-3.74c0-.95-.45-1.56-1.16-1.56s-1.16.62-1.16,1.56.46,1.55,1.16,1.55S527.3,1025.26,527.3,1024.31Z" transform="translate(-83.96 -737.95)"/><path class="cls-9" d="M531.47,1026.28v-4a.69.69,0,1,1,1.38,0v.33h0a1.54,1.54,0,0,1,1.49-1,1.38,1.38,0,0,1,1.46,1.08h0a1.67,1.67,0,0,1,1.63-1.08,1.65,1.65,0,0,1,1.71,1.76v2.93a.68.68,0,0,1-.72.75.67.67,0,0,1-.7-.75v-2.57c0-.61-.31-.94-.86-.94a.89.89,0,0,0-.9,1v2.53a.65.65,0,0,1-.69.75c-.42,0-.68-.26-.68-.75v-2.62a.8.8,0,0,0-.84-.89.91.91,0,0,0-.91,1v2.51a.72.72,0,1,1-1.43,0Z" transform="translate(-83.96 -737.95)"/><path class="cls-9" d="M540.08,1020.3a.76.76,0,0,1,1.52,0,.76.76,0,0,1-1.52,0Zm0,6v-3.95a.68.68,0,0,1,.71-.75.69.69,0,0,1,.72.75v3.95a.68.68,0,0,1-.72.75A.67.67,0,0,1,540.13,1026.28Z" transform="translate(-83.96 -737.95)"/><path class="cls-9" d="M542.31,1024.3c0-1.66.83-2.69,2.15-2.69a1.68,1.68,0,0,1,1.59,1h0v-2.07a.72.72,0,1,1,1.43,0v5.78a.67.67,0,0,1-.71.73.67.67,0,0,1-.72-.73v-.3h0a1.65,1.65,0,0,1-1.61,1C543.14,1027,542.31,1026,542.31,1024.3Zm3.78,0c0-1-.45-1.56-1.16-1.56s-1.16.6-1.16,1.56.44,1.55,1.16,1.55S546.09,1025.26,546.09,1024.31Z" transform="translate(-83.96 -737.95)"/><path class="cls-9" d="M737.29,1455.7a1.41,1.41,0,0,1,.1-.47l1.92-5.23a1.08,1.08,0,0,1,1.11-.84,1.09,1.09,0,0,1,1.13.83l1.93,5.24a1.29,1.29,0,0,1,.09.47.69.69,0,0,1-.74.7c-.41,0-.63-.19-.76-.65l-.37-1.12h-2.55l-.37,1.1c-.13.47-.35.67-.74.67A.68.68,0,0,1,737.29,1455.7Zm4.07-2.21-.94-2.88h0l-.91,2.88Z" transform="translate(-83.96 -737.95)"/><path class="cls-9" d="M746.44,1455.71v-5.6a.88.88,0,0,1,1-.95,1,1,0,0,1,1,.76l1.74,4.33h0l1.75-4.33a1,1,0,0,1,1-.76.87.87,0,0,1,.94.95v5.6a.66.66,0,1,1-1.31,0v-4.16h0l-1.74,4.26a.63.63,0,0,1-.63.45.63.63,0,0,1-.64-.44l-1.74-4.27h0v4.16a.66.66,0,1,1-1.32,0Z" transform="translate(-83.96 -737.95)"/><path class="cls-9" d="M754.64,1454.8c0-1,.73-1.5,2-1.58l1.32-.08v-.35c0-.49-.34-.77-.88-.77a1.13,1.13,0,0,0-1,.55.72.72,0,0,1-.57.27.56.56,0,0,1-.6-.55.76.76,0,0,1,.08-.32c.24-.63,1.08-1,2.17-1,1.34,0,2.21.69,2.21,1.75v3a.65.65,0,0,1-.69.72.62.62,0,0,1-.68-.64v-.27h0a1.82,1.82,0,0,1-1.61.89A1.62,1.62,0,0,1,754.64,1454.8Zm3.36-.42V1454l-1.1.07c-.53,0-.84.28-.84.65s.32.64.8.64A1.05,1.05,0,0,0,758,1454.38Z" transform="translate(-83.96 -737.95)"/><path class="cls-9" d="M760.3,1449.68a.76.76,0,0,1,1.52,0,.76.76,0,0,1-1.52,0Zm0,6v-4a.72.72,0,1,1,1.43,0v4a.72.72,0,1,1-1.43,0Z" transform="translate(-83.96 -737.95)"/><path class="cls-9" d="M762.72,1455.66v-4a.65.65,0,0,1,.69-.72.67.67,0,0,1,.71.72v.3h0a1.6,1.6,0,0,1,1.61-1,1.73,1.73,0,0,1,1.82,2v2.73a.68.68,0,0,1-.72.75.67.67,0,0,1-.71-.75v-2.43c0-.69-.32-1.08-1-1.08a1,1,0,0,0-1.05,1.15v2.36a.71.71,0,1,1-1.42,0Z" transform="translate(-83.96 -737.95)"/><path class="cls-9" d="M692.7,1097.06a1.14,1.14,0,0,1-.08-.4.62.62,0,0,1,.65-.65.7.7,0,0,1,.68.43,1.45,1.45,0,0,0,1.46.78c.79,0,1.32-.38,1.32-.9s-.33-.72-1.21-.9l-.75-.15c-1.4-.28-2.09-1-2.09-2,0-1.29,1.12-2.15,2.69-2.15a2.5,2.5,0,0,1,2.57,1.46,1.09,1.09,0,0,1,0,.33.58.58,0,0,1-.63.59.73.73,0,0,1-.7-.43,1.27,1.27,0,0,0-1.29-.75c-.73,0-1.21.34-1.21.86s.33.7,1.17.86l.74.16c1.49.29,2.14.89,2.14,2,0,1.38-1.08,2.25-2.84,2.25C693.92,1098.41,693,1097.83,692.7,1097.06Z" transform="translate(-83.96 -737.95)"/><path class="cls-9" d="M699.84,1097.65l-1.05-3.65a1.33,1.33,0,0,1-.08-.44.63.63,0,0,1,.69-.61.66.66,0,0,1,.66.61l.78,3.38h0l.81-3.34a.82.82,0,0,1,1.6,0l.82,3.34h0l.78-3.39a.66.66,0,0,1,.66-.6.62.62,0,0,1,.67.61,1.28,1.28,0,0,1-.08.43l-1,3.65a.87.87,0,0,1-.91.76.84.84,0,0,1-.93-.76l-.79-3.05h0l-.79,3.06a.85.85,0,0,1-.92.75C700.25,1098.4,700,1098.17,699.84,1097.65Z" transform="translate(-83.96 -737.95)"/><path class="cls-9" d="M706.86,1091.67a.76.76,0,1,1,.76.74A.74.74,0,0,1,706.86,1091.67Zm0,6v-4a.67.67,0,0,1,.71-.75.68.68,0,0,1,.72.75v4a.68.68,0,0,1-.72.75A.67.67,0,0,1,706.91,1097.65Z" transform="translate(-83.96 -737.95)"/><path class="cls-9" d="M709.66,1094.13h-.27a.54.54,0,1,1,0-1.07h.27v-.58a.72.72,0,1,1,1.43,0v.58h.5a.54.54,0,1,1,0,1.07h-.5v2.51c0,.37.13.52.43.55h.1c.35,0,.54.18.54.52s-.41.63-1,.63h0a1.26,1.26,0,0,1-1.44-1.4Z" transform="translate(-83.96 -737.95)"/><path class="cls-9" d="M712.57,1095.68a2.47,2.47,0,0,1,2.57-2.73,2.26,2.26,0,0,1,2.21,1.25.93.93,0,0,1,.08.35.56.56,0,0,1-.61.55.61.61,0,0,1-.6-.37,1.12,1.12,0,0,0-1-.67c-.73,0-1.17.6-1.17,1.61s.44,1.62,1.16,1.62a1.13,1.13,0,0,0,1-.62.7.7,0,0,1,.65-.42.56.56,0,0,1,.6.57.91.91,0,0,1-.09.37,2.37,2.37,0,0,1-2.21,1.21A2.47,2.47,0,0,1,712.57,1095.68Z" transform="translate(-83.96 -737.95)"/><path class="cls-9" d="M718.25,1097.65v-5.78a.7.7,0,1,1,1.4,0V1094h0a1.66,1.66,0,0,1,1.64-1,1.74,1.74,0,0,1,1.83,2v2.73a.67.67,0,0,1-.71.75.68.68,0,0,1-.72-.75v-2.42c0-.68-.33-1.09-1-1.09a1,1,0,0,0-1.07,1.16v2.35a.71.71,0,1,1-1.42,0Z" transform="translate(-83.96 -737.95)"/><path class="cls-9" d="M684.1,1168.57" transform="translate(-83.96 -737.95)"/></g></svg>