<svg xmlns="http://www.w3.org/2000/svg" viewBox="0 0 923.1 879.06"><defs><style>.cls-1{fill:#ffd20a;}.cls-2{fill:#33353b;}.cls-3{fill:#575548;}.cls-10,.cls-11,.cls-12,.cls-4,.cls-5,.cls-6,.cls-7,.cls-8,.cls-9{fill:none;stroke:#b0adb0;stroke-miterlimit:10;}.cls-5{stroke-dasharray:6.62 9.46;}.cls-6{stroke-dasharray:6.64 9.48;}.cls-7{stroke-dasharray:5.58 7.98;}.cls-8{stroke-dasharray:4.62 3.69;}.cls-9{stroke-dasharray:4.99 3.99;}.cls-10{stroke-dasharray:7.11 10.15;}.cls-11{stroke-dasharray:7.19 10.27;}.cls-12{stroke-dasharray:7.12 10.18;}.cls-13{fill:#b0adb0;}.cls-14{fill:#656569;}.cls-15{fill:#d32027;}.cls-16{fill:#fff;}.cls-17{fill:#79c143;}</style></defs><title>fracture offence</title><g id="Layer_9" data-name="Layer 9"><rect class="cls-1" x="588" y="919.13" width="1.06" height="550.36" transform="translate(1103.11 1612.66) rotate(180)"/><rect class="cls-1" x="554.82" y="919.23" width="1.06" height="550.34" transform="translate(1036.76 1612.84) rotate(180)"/></g><g id="Body_merge" data-name="Body merge"><path class="cls-2" d="M75,1172H91v130h15v14h34l21.2-34H166v65H143v26L197,1462l0,3-25,17v26h94v79h49v-1h48l26-15h28v18h71v-23h19v88H636v-4h83l22-11v-69H716v-61h78v24h31.52c0,.89,36.48,0,36.48,0l23-23,48-48V1343h-8v-30h71v-40.44h0V1158H903v40H861V1188h22V1058l-59.12-42c-34-2.23-34.86-13-34.86-13v-2c6.68-4.17,8.88-9.29,9.61-12H799v-2c-8.91-10.17-27-82.27-27-82.27V883h20V841l-27-31-43-2-50-6.91-13-3-14.87-2-16-10-7.28-1.89L611,777H382l-57,57V959h25v59H248l-44,44v9H182l-13,16v60H75Zm353-17h22v65.92L377.69,1293H284v-9h88l36-36v-30l20-19v-44Zm238,300v127H654v-12H606v-88l-7-12H507v15H441l-23.16,46H388.08L323,1392.87V1338H272v84.71L239,1443h-2l-25-45v-62.06H336v15h60l88.16-89H548v-77h47v76h27v114h56v24.84L715,1437h49v18Zm42.54-269H713v56h42v11H698l-20,16-16,15v62h-9v-85h15v-75ZM890,1312.27V1342H868v104H824v-27H782v-29l-43-43h-3v-41h93v-21h40ZM724,905.21c-2.83.58-4.67,1.18-5,1.79-1.74,3.47-3,12-3,12v22l3,9.06v21.22l-.9,12.66C721.69,996.09,772,1061,772,1061h58v18H807v79h23v16.06H806.09l-8.09,15V1210H749v-49l-36-36h-53.9v0H484.64L462,1113H369v75H309V1080h33v26h22v5h35v-67h59V975l-24-31H398v-35.6L436,870h74v49H636V868h82v15h6ZM194,1108.13V1100h10v14h44v48h23v37H223v-17H120v-10h74v-63.87Z" transform="translate(-73.95 -775.96)"/></g><g id="Bombsite"><polygon class="cls-3" points="149.04 406.02 46.89 406.02 46.89 450 16.96 450 16.96 526.22 32.04 526.22 32.04 540.22 66.03 540.22 87.54 506.6 91.51 506.48 91.52 485.99 149.04 485.99 149.04 406.02"/><polygon class="cls-3" points="922.77 381.42 829.05 381.42 829.05 472 829.05 485.85 829.05 517 907.03 517 907.03 485.85 922.77 485.85 922.77 381.42"/><polygon class="cls-2" points="151.99 474.53 143.53 474.53 143.53 464.58 127.56 464.58 127.56 448.67 143.53 448.67 143.53 457.5 159.58 457.57 159.58 474.53 151.99 474.53"/></g><g id="Hell_lines" data-name="Hell lines"><line class="cls-4" x1="197.5" y1="560.36" x2="197.5" y2="556.86"/><line class="cls-5" x1="197.5" y1="547.4" x2="197.5" y2="455.69"/><polyline class="cls-4" points="197.5 450.96 197.5 447.46 201 447.46"/><line class="cls-6" x1="210.48" y1="447.46" x2="286.32" y2="447.46"/><polyline class="cls-4" points="291.06 447.46 294.56 447.46 294.56 443.96"/><line class="cls-7" x1="294.56" y1="435.98" x2="294.56" y2="412.85"/><line class="cls-4" x1="294.56" y1="408.86" x2="294.56" y2="405.36"/><polyline class="cls-4" points="874.57 482.96 874.57 485.46 872.07 485.46"/><line class="cls-8" x1="868.38" y1="485.46" x2="861.92" y2="485.46"/><polyline class="cls-4" points="860.07 485.46 857.57 485.46 857.57 482.96"/><line class="cls-9" x1="857.57" y1="478.97" x2="857.57" y2="463.01"/><polyline class="cls-4" points="857.57 461.02 857.57 458.52 860.07 458.52"/><line class="cls-8" x1="863.76" y1="458.52" x2="870.23" y2="458.52"/><polyline class="cls-4" points="872.07 458.52 874.57 458.52 874.57 461.02"/><line class="cls-9" x1="874.57" y1="465.01" x2="874.57" y2="480.97"/><line class="cls-4" x1="325.56" y1="336.54" x2="325.56" y2="340.04"/><polyline class="cls-10" points="325.56 350.2 325.65 481.16 324.22 482.61"/><polyline class="cls-4" points="320.63 486.2 318.16 488.69 314.66 488.69"/><line class="cls-11" x1="304.4" y1="488.68" x2="257.17" y2="488.68"/><polyline class="cls-4" points="252.04 488.69 248.54 488.69 248.54 492.19"/><polyline class="cls-4" points="248.54 505.05 248.54 508.55 249.57 508.55 249.57 512.05"/><line class="cls-12" x1="249.57" y1="522.23" x2="249.57" y2="551.74"/><line class="cls-4" x1="249.57" y1="556.83" x2="249.57" y2="560.33"/></g><g id="Lines"><path class="cls-13" d="M996,1198v62.92H932V1198h64m1-1H931v64.92h66V1197Z" transform="translate(-73.95 -775.96)"/><path class="cls-13" d="M996,1198v15H981v-15h15m1-1H980v17h17v-17Z" transform="translate(-73.95 -775.96)"/><path class="cls-13" d="M867,1271v14H852v-14h15m1-1H851v16h17v-16Z" transform="translate(-73.95 -775.96)"/><path class="cls-13" d="M806.09,1174.05l6.91,0V1209l-15,0v-19.87l8.11-15.06m-.59-1L797,1188.86V1210l17,0v-36.93l-8.5,0Z" transform="translate(-73.95 -775.96)"/><path class="cls-13" d="M754,1253v12H737v-12h17m1-1H736v14h19v-14Z" transform="translate(-73.95 -775.96)"/><path class="cls-13" d="M668,1187v23H654v-23h14m1-1H653v25h16v-25Z" transform="translate(-73.95 -775.96)"/><path class="cls-13" d="M668,1195v15H654v-15h14m1-1H653v17h16v-17Z" transform="translate(-73.95 -775.96)"/><path class="cls-13" d="M216.89,1225v9H233v15.93H218v-10H202V1225h14.89m1-1H201v16.89h16v10h17V1233H217.89v-9Z" transform="translate(-73.95 -775.96)"/><path class="cls-13" d="M264,1323v13H251v-13h13m1-1H250v15h15v-15Z" transform="translate(-73.95 -775.96)"/><path class="cls-13" d="M345,1233v51H330v-51h15m1-1H329v53h17v-53Z" transform="translate(-73.95 -775.96)"/><path class="cls-13" d="M269.73,1053l10,10-22.49,22.49-10-10,22.49-22.5m0-1.41-23.91,23.91,11.45,11.44,23.9-23.91-11.44-11.44Z" transform="translate(-73.95 -775.96)"/><path class="cls-13" d="M281,1506v15H266v-15h15m1-1H265v17h17v-17Z" transform="translate(-73.95 -775.96)"/><path class="cls-13" d="M343.94,1437.28l10.79,22.89-27.32,19.52-14.48-20.26,31-22.15m.39-1.51-32.79,23.43,15.64,21.88L356,1460.5l-11.66-24.73Z" transform="translate(-73.95 -775.96)"/><path class="cls-13" d="M315.25,1464.4l6.28,8.8-11.59,8.28-6.29-8.8,11.6-8.28m.23-1.4-13.22,9.45,7.45,10.42,13.22-9.44L315.48,1463Z" transform="translate(-73.95 -775.96)"/><path class="cls-4" d="M345.3,1435.08" transform="translate(-73.95 -775.96)"/><path class="cls-13" d="M506,1552v14H489v-14h17m1-1H488v16h19v-16Z" transform="translate(-73.95 -775.96)"/><path class="cls-13" d="M549,1615.08l24,2.86v12l-24-2.79v-12m-1-1.12v14l26,3v-14l-26-3.1Z" transform="translate(-73.95 -775.96)"/><path class="cls-13" d="M560.91,1608v7.48l-7.91-.93V1608h7.91m1-1H552v8.44l9.91,1.16V1607Z" transform="translate(-73.95 -775.96)"/><path class="cls-13" d="M571,1608v8.69l-9.1-1.09V1608H571m1-1h-11.1v9.48l11.1,1.34V1607Z" transform="translate(-73.95 -775.96)"/><path class="cls-13" d="M580.93,1616.94v7.1H574v-7.1h6.95m1-1H573v9.1h8.95v-9.1Z" transform="translate(-73.95 -775.96)"/><path class="cls-13" d="M672,1455v6h-6v-6h6m1-1h-8v8h8v-8Z" transform="translate(-73.95 -775.96)"/><path class="cls-13" d="M839.91,1446v14.94H825V1446h14.89m1-1H824v16.94h16.89V1445Z" transform="translate(-73.95 -775.96)"/><path class="cls-13" d="M933,1397v16H913v-16h20m1-1H912v18h22v-18Z" transform="translate(-73.95 -775.96)"/><line class="cls-4" x1="689.5" y1="661.51" x2="708.76" y2="642.19"/><path class="cls-4" d="M506.44,1484.38" transform="translate(-73.95 -775.96)"/><line class="cls-4" x1="432.55" y1="738.04" x2="432.55" y2="708.43"/><polyline class="cls-4" points="139.53 524.01 139.53 486.5 151.57 486.5 151.57 482.54 167.5 482.54 167.5 450.49 149.57 450.49 149.57 422.42"/><line class="cls-4" x1="167.5" y1="450.49" x2="180.01" y2="450.49"/><line class="cls-4" x1="91.51" y1="485.99" x2="91.51" y2="506.48"/><line class="cls-4" x1="371.53" y1="182.1" x2="371.53" y2="268.54"/><polyline class="cls-4" points="463.49 486.46 463.49 393.55 531.54 393.55 531.54 485.6"/><line class="cls-4" x1="603.55" y1="492.53" x2="603.55" y2="599.68"/><polyline class="cls-4" points="877.03 517.5 907.52 517.5 907.52 485.55"/><line class="cls-4" x1="755.54" y1="303.02" x2="755.54" y2="349.02"/><path class="cls-13" d="M559,777v27H544V788H529V777h30m1-1H528v13h15v16h17V776Z" transform="translate(-73.95 -775.96)"/><path class="cls-13" d="M624,784.89l4.07,1.05,3.8,2.37L632,820h-8V784.89m-1-1.3V821h10l-.09-33.25-4.4-2.75L623,783.59Z" transform="translate(-73.95 -775.96)"/><rect class="cls-13" x="558.33" y="44.04" width="54.72" height="1.01"/><path class="cls-13" d="M323,1285v7H285v-7h38m1-1H284v9h40v-9Z" transform="translate(-73.95 -775.96)"/><line class="cls-4" x1="129.53" y1="294.53" x2="129.53" y2="324.51"/><line class="cls-4" x1="46.56" y1="405.51" x2="46.56" y2="450.01"/><path class="cls-4" d="M861.1,1173.46" transform="translate(-73.95 -775.96)"/><path class="cls-4" d="M829.8,1173.46" transform="translate(-73.95 -775.96)"/><polygon class="cls-13" points="787.06 398.11 787.06 412.12 788.05 412.12 788.05 397.12 787.55 397.12 787.05 397.12 755.4 397.12 755.4 398.11 787.06 398.11"/><path class="cls-13" d="M635,1368v7H622v-7h13m1-1H621v9h15v-9Z" transform="translate(-73.95 -775.96)"/></g><g id="Outlines"><path class="cls-14" d="M611,777l9.79,7.06,7.28,1.89,16,10L659,798l13,3L722,808l43,2,27,31v42H772v21.75s18.07,72.1,27,82.27v2h-.35c-.73,2.76-2.93,7.88-9.61,12v2s.88,10.72,34.86,13L883,1058v130H861v10.07h42v-40h93v114.54h0V1313H925v30h8v119l-48,48-23,23s-16.21.4-27,.4c-5.4,0-9.46-.1-9.46-.4H794v-24H716v61h25v69l-22,11H636v4H507v-88H488v23H417v-18H389l-26,15H315v1H266v-79H172v-26l25-17,0-3-54-89.09v-26h23v-65h-4.82L140,1316H106v-14H91V1172H75v-25h94v-60l13-16h22v-9l44-44H350V959H325V834l57-57H611M510,919V870H436l-38,38.39V944h36l24,31v69H399v67H364v-5H342v-26H309v108h60v-75H462l22.69,12H659.09v0H713l36,36v49h49V1189.1l8.09-15H830V1158H807v-79h23v-18H772s-50.3-64.91-53.88-77.08l.9-12.66V950L716,941V919s1.27-8.53,3-12c.3-.61,2.14-1.21,5-1.79V883h-6V868H636v51H510M120,1182H223v17h48v-37H248v-48H204v-14H194v72H120v10m164,111h93.68l72.3-72.08V1155H428v44l-20,19v30l-36,36H284v9m52,58v-15H212V1398l25,45h2l33-20.28V1338h51v54.88L388.08,1531h29.73L441,1485h66v-15h92l7,12v88h48v12h12V1455h98v-18H715l-37-37.15V1375H622V1261H595v-76H548v77H484.15L396,1351H336m317-5h9v-62l16-15,20-16h57v-11H713v-56H668v75H653v85m83,1h3l43,43v29h42v27h44V1342h22v-29.73L869,1285H829v21H736v41M611.34,776H381.57l-.31.3-57,57-.31.31V960h25V1017H247.55l-.3.31-44,44-.3.31v8.38H181.49l-.32.39-13,16-.24.29v59.29H74v27.13H90v130h15v14h35.6l.31-.5,20.89-33.49h3.19v62.89h-23v27.3l.15.25L196,1462.32l0,2.11-24.52,16.71-.46.31V1509h94v79h51.1v-1h47.19l.25-.14L389.27,1572H416v18H489v-23H506v88h131.1v-4h82.19l.22-.11,22-11,.58-.29V1569H717v-59H793v24h32.28a11.2,11.2,0,0,0,3,.31c1.58.06,3.87.09,6.79.09,10.7,0,26.88-.39,27-.4h.42l.29-.3,23-23,48-48,.31-.31V1342h-8v-27.91h71v-42.54h0V1157H902v40H862.06v-8h22V1057.47l-.45-.31-59.11-42-.25-.17-.29,0c-31.35-2-33.75-11.35-33.88-12v-1.34c6-4,8.42-8.67,9.35-11.58H800v-3.43l-.26-.3c-8.47-9.66-25.86-78.3-26.72-81.7V884h20V840.61l-.26-.3-27-31-.29-.34-.45,0-42.95-2L672.23,800l-13-3h-.1l-14.64-2-15.85-9.93-.14-.09-.16,0-7.09-1.84-9.63-7-.28-.19ZM637,869.05h79.92v15h6v20.32c-3.5.78-4.5,1.44-4.86,2.17-1.79,3.58-3.06,12-3.11,12.31v22.31l0,.16,3,8.9v21l-.89,12.63,0,.19.05.18c3.59,12.22,52,74.77,54.06,77.43l.32.4H829V1078H806v81.11h23v14H805.46l-.29.55-8.09,15-.13.24v20.09H750v-48.38l-.3-.3-36-36-.31-.31H658v0H484.9l-22.46-11.88-.23-.12H400v-67h59V974.64l-.22-.29-24-31-.32-.4H399V908.81L436.43,871h72.51v49H637v-51Zm-327,212h30.89v26h22v5h5V1187H310.05V1081Zm-115,20H203v14h44v48h23v34.92H224v-17h-103v-7.9h74v-72Zm234,55h19.9v64.44L377.25,1292H285.06V1285h87.36l.31-.31,36-36,.31-.31v-30l19.66-18.65.33-.31v-43.44Zm120,30H594v76h27v114h56v24.23l.31.3,37,37.15.31.31h48.35V1454H665v127H655v-12H607v-87.23l-.14-.24-7-12-.3-.52H506v15H440.32l-.29.57L417.16,1530H388.74L324,1392.63V1337H335v15h61.48l.3-.31L484.58,1263H549v-77Zm120,1h42.9v56h42V1252H697.63l-.29.23-20,16,0,0,0,0-16,15-.33.32V1345H654v-83h15v-75Zm161,99H868.5l20.44,26.61V1341H867v104H825v-27H783v-28.38l-.31-.31-43-43-.3-.3H737V1307h93v-21Zm-617,51h57.89v85.13l-32.28,19.82h-1l-24.57-44.21V1337Z" transform="translate(-73.95 -775.96)"/></g><g id="Callouts_copy" data-name="Callouts copy"><path class="cls-15" d="M519.24,1595.83a1.76,1.76,0,0,1,.13-.61l2.5-6.81a1.51,1.51,0,0,1,2.9,0l2.52,6.82a1.64,1.64,0,0,1,.12.61.9.9,0,0,1-1,.9c-.54,0-.83-.25-1-.85l-.48-1.44h-3.31l-.48,1.43c-.18.6-.46.86-1,.86A.87.87,0,0,1,519.24,1595.83Zm5.29-2.88-1.22-3.75h0l-1.19,3.75Z" transform="translate(-73.95 -775.96)"/><path class="cls-15" d="M528.46,1591.2h-.35a.7.7,0,1,1,0-1.4h.35v-.75a.93.93,0,1,1,1.85,0v.75H531a.7.7,0,1,1,0,1.4h-.66v3.26c0,.48.17.68.57.71l.12,0c.46,0,.71.24.71.67s-.54.82-1.32.82h-.06a1.63,1.63,0,0,1-1.87-1.81Z" transform="translate(-73.95 -775.96)"/><path class="cls-15" d="M533.08,1591.2h-.35a.7.7,0,1,1,0-1.4h.35v-.75a.93.93,0,1,1,1.86,0v.75h.65a.7.7,0,1,1,0,1.4h-.65v3.26c0,.48.16.68.56.71l.12,0c.46,0,.71.24.71.67s-.54.82-1.32.82H535a1.63,1.63,0,0,1-1.87-1.81Z" transform="translate(-73.95 -775.96)"/><path class="cls-15" d="M536.88,1594.65c0-1.24,1-2,2.65-2.05l1.72-.11V1592c0-.63-.45-1-1.15-1a1.49,1.49,0,0,0-1.32.72.92.92,0,0,1-.73.34.72.72,0,0,1-.78-.71.9.9,0,0,1,.1-.42c.31-.81,1.41-1.31,2.82-1.31,1.74,0,2.88.9,2.88,2.27v3.88a.85.85,0,0,1-.9.93.82.82,0,0,1-.89-.82v-.35h0a2.35,2.35,0,0,1-2.08,1.14A2.1,2.1,0,0,1,536.88,1594.65Zm4.37-.54v-.49l-1.44.09c-.69,0-1.08.36-1.08.84s.41.83,1,.83A1.37,1.37,0,0,0,541.25,1594.11Z" transform="translate(-73.95 -775.96)"/><path class="cls-15" d="M544,1593.21a3.22,3.22,0,0,1,3.34-3.55,3,3,0,0,1,2.87,1.62,1.42,1.42,0,0,1,.1.46.72.72,0,0,1-.79.72.8.8,0,0,1-.78-.48,1.45,1.45,0,0,0-1.34-.87c-.94,0-1.52.77-1.52,2.09s.58,2.1,1.51,2.1a1.47,1.47,0,0,0,1.33-.8c.25-.39.45-.55.84-.55a.73.73,0,0,1,.78.75,1.06,1.06,0,0,1-.12.48,3.07,3.07,0,0,1-2.87,1.57A3.2,3.2,0,0,1,544,1593.21Z" transform="translate(-73.95 -775.96)"/><path class="cls-15" d="M551.39,1595.78v-7.5a.93.93,0,1,1,1.85,0v4.22h0l2.46-2.47a1,1,0,0,1,.74-.37.8.8,0,0,1,.82.81.84.84,0,0,1-.35.7l-1.73,1.63,1.9,2.42a1,1,0,0,1,.26.68.82.82,0,0,1-.88.84c-.4,0-.62-.14-.91-.58l-1.75-2.31-.59.55v1.38a.93.93,0,1,1-1.85,0Z" transform="translate(-73.95 -775.96)"/><path class="cls-15" d="M557.77,1593.24c0-2.19,1.28-3.58,3.29-3.58a3.05,3.05,0,0,1,3.23,3.16.73.73,0,0,1-.81.81H559.6v.08a1.51,1.51,0,0,0,1.55,1.67,1.93,1.93,0,0,0,1.62-.82.76.76,0,0,1,.6-.27.68.68,0,0,1,.73.68,1,1,0,0,1-.13.45,3.05,3.05,0,0,1-2.82,1.33A3.16,3.16,0,0,1,557.77,1593.24Zm4.73-.75a1.4,1.4,0,0,0-1.42-1.46,1.46,1.46,0,0,0-1.46,1.46Z" transform="translate(-73.95 -775.96)"/><path class="cls-15" d="M565.24,1595.78v-5.18a.89.89,0,1,1,1.77,0v.44h0a1.5,1.5,0,0,1,1.41-1.34.84.84,0,0,1,.58.17.8.8,0,0,1,.27.68.83.83,0,0,1-.27.67,1.27,1.27,0,0,1-.8.24c-.85,0-1.15.49-1.15,1.29v3a.93.93,0,1,1-1.85,0Z" transform="translate(-73.95 -775.96)"/><path class="cls-15" d="M572.58,1595a1.29,1.29,0,0,1-.1-.51.81.81,0,0,1,.84-.85.92.92,0,0,1,.88.56,1.9,1.9,0,0,0,1.89,1c1,0,1.73-.5,1.73-1.17s-.43-1-1.58-1.18l-1-.19c-1.83-.36-2.72-1.24-2.72-2.6,0-1.68,1.46-2.79,3.49-2.79,1.68,0,2.94.7,3.35,1.9a1.32,1.32,0,0,1,.07.42.75.75,0,0,1-.82.77.93.93,0,0,1-.91-.56,1.66,1.66,0,0,0-1.69-1c-.94,0-1.57.44-1.57,1.12s.44.91,1.52,1.12l1,.2c1.94.39,2.78,1.17,2.78,2.56,0,1.79-1.41,2.92-3.69,2.92C574.16,1596.76,573,1596,572.58,1595Z" transform="translate(-73.95 -775.96)"/><path class="cls-15" d="M580.75,1598.07v-7.45a.92.92,0,1,1,1.83,0v.37h0a2.22,2.22,0,0,1,2.11-1.29c1.73,0,2.79,1.31,2.79,3.51s-1.06,3.5-2.76,3.5a2.22,2.22,0,0,1-2.11-1.25h0v2.61a.93.93,0,1,1-1.85,0Zm4.86-4.86c0-1.24-.58-2-1.51-2s-1.51.81-1.51,2,.6,2,1.51,2S585.61,1594.44,585.61,1593.21Z" transform="translate(-73.95 -775.96)"/><path class="cls-15" d="M588.19,1594.65c0-1.24.95-2,2.66-2.05l1.71-.11V1592c0-.63-.44-1-1.14-1a1.47,1.47,0,0,0-1.32.72.94.94,0,0,1-.74.34.71.71,0,0,1-.77-.71,1,1,0,0,1,.09-.42c.32-.81,1.41-1.31,2.82-1.31,1.75,0,2.88.9,2.88,2.27v3.88a.84.84,0,0,1-.9.93.82.82,0,0,1-.89-.82v-.35h0a2.35,2.35,0,0,1-2.08,1.14A2.1,2.1,0,0,1,588.19,1594.65Zm4.37-.54v-.49l-1.43.09c-.7,0-1.09.36-1.09.84s.42.83,1,.83A1.37,1.37,0,0,0,592.56,1594.11Z" transform="translate(-73.95 -775.96)"/><path class="cls-15" d="M596.65,1595.77l-1.37-4.74a2,2,0,0,1-.1-.57.82.82,0,0,1,.9-.8.86.86,0,0,1,.87.79l1,4.4h0l1.06-4.34a1.06,1.06,0,0,1,2.08,0l1.06,4.34h0l1-4.41a.85.85,0,0,1,.86-.78.81.81,0,0,1,.88.79,2.44,2.44,0,0,1-.1.57l-1.38,4.74a1.12,1.12,0,0,1-1.18,1,1.09,1.09,0,0,1-1.2-1l-1-4h0l-1,4a1.1,1.1,0,0,1-1.19,1A1.12,1.12,0,0,1,596.65,1595.77Z" transform="translate(-73.95 -775.96)"/><path class="cls-15" d="M605.81,1595.78v-5.18a.85.85,0,0,1,.9-.94.87.87,0,0,1,.93.94v.38h0a2.09,2.09,0,0,1,2.1-1.3,2.24,2.24,0,0,1,2.36,2.54v3.56a.93.93,0,1,1-1.85,0v-3.17c0-.89-.42-1.4-1.25-1.4a1.34,1.34,0,0,0-1.36,1.49v3.08a.93.93,0,1,1-1.86,0Z" transform="translate(-73.95 -775.96)"/><path class="cls-16" d="M419.57,1139.29v-5.5a.69.69,0,0,1,.74-.77h2.32c1.33,0,2.16.68,2.16,1.76a1.55,1.55,0,0,1-1.33,1.52v0a1.73,1.73,0,0,1,1.67,1.71c0,1.24-.94,2-2.44,2h-2.38A.69.69,0,0,1,419.57,1139.29Zm2.53-3.34c.79,0,1.24-.35,1.24-.94s-.4-.89-1.09-.89H421V1136Zm.21,3c.85,0,1.31-.37,1.31-1s-.47-1-1.34-1H421v2Z" transform="translate(-73.95 -775.96)"/><path class="cls-16" d="M427.94,1139.29v-5.6a.74.74,0,1,1,1.48,0v5.15h2.5a.61.61,0,1,1,0,1.22h-3.24A.69.69,0,0,1,427.94,1139.29Z" transform="translate(-73.95 -775.96)"/><path class="cls-16" d="M433.23,1133.44a.76.76,0,0,1,1.52,0,.76.76,0,0,1-1.52,0Zm0,6v-4a.72.72,0,1,1,1.43,0v4a.72.72,0,1,1-1.43,0Z" transform="translate(-73.95 -775.96)"/><path class="cls-16" d="M435.65,1139.42v-4a.65.65,0,0,1,.69-.72.67.67,0,0,1,.71.73v.29h0a1.6,1.6,0,0,1,1.61-1,1.73,1.73,0,0,1,1.82,2v2.73a.68.68,0,0,1-.72.75.67.67,0,0,1-.71-.75V1137c0-.69-.32-1.08-1-1.08a1,1,0,0,0-1.05,1.15v2.36a.71.71,0,1,1-1.42,0Z" transform="translate(-73.95 -775.96)"/><path class="cls-16" d="M441.44,1139.42v-5.76a.68.68,0,0,1,.72-.75.67.67,0,0,1,.71.75v3.25h0l1.89-1.9a.74.74,0,0,1,.57-.29.61.61,0,0,1,.63.62.65.65,0,0,1-.26.54l-1.34,1.26,1.46,1.86a.76.76,0,0,1,.2.52.64.64,0,0,1-.68.65c-.3,0-.47-.11-.69-.45l-1.35-1.77-.45.42v1.05a.67.67,0,0,1-.71.75A.68.68,0,0,1,441.44,1139.42Z" transform="translate(-73.95 -775.96)"/><path class="cls-16" d="M356.85,1275.09c0-2.25,1.29-3.62,3.36-3.62A3,3,0,0,1,363,1273a1,1,0,0,1,.11.45.61.61,0,0,1-.65.64.77.77,0,0,1-.71-.43,1.67,1.67,0,0,0-1.55-.94c-1.16,0-1.86.89-1.86,2.39s.74,2.46,1.91,2.46a1.52,1.52,0,0,0,1.66-1.47V1276h-1a.54.54,0,1,1,0-1.08h1.72a.69.69,0,0,1,.74.77v.11a2.84,2.84,0,0,1-3.12,3C358.14,1278.76,356.85,1277.38,356.85,1275.09Z" transform="translate(-73.95 -775.96)"/><path class="cls-16" d="M364,1276.05a2.47,2.47,0,0,1,2.53-2.76,2.35,2.35,0,0,1,2.48,2.44.56.56,0,0,1-.62.62h-3v.06a1.17,1.17,0,0,0,1.19,1.29,1.48,1.48,0,0,0,1.25-.63.57.57,0,0,1,.47-.21.51.51,0,0,1,.55.52.79.79,0,0,1-.09.35,2.37,2.37,0,0,1-2.17,1A2.43,2.43,0,0,1,364,1276.05Zm3.64-.57a1.08,1.08,0,0,0-1.1-1.13,1.13,1.13,0,0,0-1.12,1.13Z" transform="translate(-73.95 -775.96)"/><path class="cls-16" d="M369.77,1278v-4a.65.65,0,0,1,.69-.72.66.66,0,0,1,.71.72v.29h0a1.6,1.6,0,0,1,1.61-1,1.72,1.72,0,0,1,1.82,2V1278a.71.71,0,1,1-1.42,0v-2.44c0-.68-.33-1.07-1-1.07a1,1,0,0,0-1,1.15V1278a.67.67,0,0,1-.71.74A.67.67,0,0,1,369.77,1278Z" transform="translate(-73.95 -775.96)"/><path class="cls-16" d="M698.3,1329.57a1.14,1.14,0,0,1-.08-.4.62.62,0,0,1,.65-.65.72.72,0,0,1,.68.43,1.45,1.45,0,0,0,1.45.78c.8,0,1.33-.38,1.33-.89s-.33-.73-1.21-.91l-.75-.15c-1.41-.28-2.09-1-2.09-2,0-1.29,1.12-2.14,2.69-2.14a2.5,2.5,0,0,1,2.57,1.46,1,1,0,0,1,.05.32.58.58,0,0,1-.63.59.73.73,0,0,1-.7-.43,1.27,1.27,0,0,0-1.29-.75c-.73,0-1.22.34-1.22.86s.34.7,1.18.87l.74.15c1.49.29,2.14.9,2.14,2,0,1.38-1.08,2.25-2.84,2.25C699.52,1330.92,698.58,1330.34,698.3,1329.57Z" transform="translate(-73.95 -775.96)"/><path class="cls-16" d="M704.38,1329.3c0-1,.73-1.5,2-1.58l1.32-.08v-.35c0-.49-.34-.77-.88-.77a1.15,1.15,0,0,0-1,.55.69.69,0,0,1-.56.27.56.56,0,0,1-.6-.55.92.92,0,0,1,.07-.32,2.2,2.2,0,0,1,2.17-1c1.35,0,2.22.69,2.22,1.75v3a.65.65,0,0,1-.69.72.64.64,0,0,1-.69-.64V1330h0a1.79,1.79,0,0,1-1.6.89A1.62,1.62,0,0,1,704.38,1329.3Zm3.36-.42v-.38l-1.11.07c-.53,0-.83.28-.83.65s.32.64.8.64A1.05,1.05,0,0,0,707.74,1328.88Z" transform="translate(-73.95 -775.96)"/><path class="cls-16" d="M710.06,1330.16v-4a.65.65,0,0,1,.69-.72.67.67,0,0,1,.71.72v.3h0a1.6,1.6,0,0,1,1.61-1,1.73,1.73,0,0,1,1.82,2v2.73a.68.68,0,0,1-.72.75.67.67,0,0,1-.71-.75v-2.43c0-.69-.32-1.08-1-1.08a1,1,0,0,0-1,1.15v2.36a.71.71,0,1,1-1.42,0Z" transform="translate(-73.95 -775.96)"/><path class="cls-16" d="M715.63,1328.18c0-1.66.83-2.69,2.14-2.69a1.68,1.68,0,0,1,1.6,1h0v-2.07a.71.71,0,1,1,1.42,0v5.78a.66.66,0,0,1-.7.73.67.67,0,0,1-.72-.73v-.3h0a1.64,1.64,0,0,1-1.61,1C716.45,1330.89,715.63,1329.85,715.63,1328.18Zm3.78,0c0-1-.46-1.56-1.16-1.56s-1.16.6-1.16,1.56.44,1.55,1.16,1.55S719.41,1329.14,719.41,1328.19Z" transform="translate(-73.95 -775.96)"/><path class="cls-16" d="M840.1,1125.86v-5.5a.69.69,0,0,1,.74-.77h1.95c2.12,0,3.36,1.26,3.36,3.49s-1.24,3.55-3.36,3.55h-1.95A.69.69,0,0,1,840.1,1125.86Zm2.52-.45c1.32,0,2-.8,2-2.32s-.73-2.29-2-2.29h-1v4.61Z" transform="translate(-73.95 -775.96)"/><path class="cls-16" d="M847,1126v-4a.66.66,0,0,1,.69-.72.65.65,0,0,1,.67.72v.34h0a1.15,1.15,0,0,1,1.09-1,.64.64,0,0,1,.44.13.62.62,0,0,1,.21.53.64.64,0,0,1-.21.51.9.9,0,0,1-.62.18c-.65,0-.88.38-.88,1V1126a.71.71,0,1,1-1.42,0Z" transform="translate(-73.95 -775.96)"/><path class="cls-16" d="M850.25,1124a2.6,2.6,0,1,1,2.6,2.74A2.48,2.48,0,0,1,850.25,1124Zm3.74,0c0-1-.45-1.64-1.14-1.64s-1.15.6-1.15,1.64.44,1.64,1.15,1.64S854,1125.07,854,1124Z" transform="translate(-73.95 -775.96)"/><path class="cls-16" d="M856.17,1127.76V1122a.71.71,0,1,1,1.41,0v.28h0a1.7,1.7,0,0,1,1.62-1c1.33,0,2.14,1,2.14,2.7s-.81,2.7-2.12,2.7a1.7,1.7,0,0,1-1.62-1h0v2a.72.72,0,1,1-1.43,0Zm3.74-3.74c0-1-.45-1.56-1.16-1.56s-1.16.62-1.16,1.56.46,1.55,1.16,1.55S859.91,1125,859.91,1124Z" transform="translate(-73.95 -775.96)"/><path class="cls-17" d="M519.6,1144.24v-7.16a.9.9,0,0,1,1-1h2.54c2.75,0,4.36,1.64,4.36,4.55s-1.61,4.61-4.36,4.61h-2.54A.9.9,0,0,1,519.6,1144.24Zm3.27-.59c1.71,0,2.64-1,2.64-3s-1-3-2.64-3h-1.35v6Z" transform="translate(-73.95 -775.96)"/><path class="cls-17" d="M528.29,1141.87c0-2.19,1.27-3.58,3.29-3.58a3,3,0,0,1,3.22,3.17.73.73,0,0,1-.8.8h-3.89v.09a1.51,1.51,0,0,0,1.55,1.67,1.92,1.92,0,0,0,1.62-.82.76.76,0,0,1,.61-.28.67.67,0,0,1,.72.68.86.86,0,0,1-.13.45,3,3,0,0,1-2.81,1.34A3.17,3.17,0,0,1,528.29,1141.87Zm4.73-.74a1.41,1.41,0,0,0-1.42-1.47,1.47,1.47,0,0,0-1.47,1.47Z" transform="translate(-73.95 -775.96)"/><path class="cls-17" d="M536.25,1144.41v-4.58h-.36a.68.68,0,1,1,0-1.36h.36V1138a1.71,1.71,0,0,1,1.94-2c1,0,1.4.31,1.4.75a.47.47,0,0,1-.38.49l-.35,0c-.57,0-.8.25-.8.75v.43h.78a.68.68,0,1,1,0,1.36h-.74v4.58a.93.93,0,1,1-1.85,0Z" transform="translate(-73.95 -775.96)"/><path class="cls-17" d="M539.94,1141.87c0-2.19,1.28-3.58,3.29-3.58a3.06,3.06,0,0,1,3.23,3.17.73.73,0,0,1-.81.8h-3.88v.09a1.51,1.51,0,0,0,1.54,1.67,1.94,1.94,0,0,0,1.63-.82.74.74,0,0,1,.6-.28.68.68,0,0,1,.73.68,1,1,0,0,1-.13.45,3.07,3.07,0,0,1-2.82,1.34A3.17,3.17,0,0,1,539.94,1141.87Zm4.73-.74a1.41,1.41,0,0,0-1.42-1.47,1.48,1.48,0,0,0-1.47,1.47Z" transform="translate(-73.95 -775.96)"/><path class="cls-17" d="M547.41,1144.41v-5.18a.84.84,0,0,1,.89-.93.87.87,0,0,1,.93.94v.38h0a2.08,2.08,0,0,1,2.09-1.31,2.24,2.24,0,0,1,2.36,2.54v3.56a.93.93,0,1,1-1.85,0v-3.17c0-.89-.42-1.39-1.25-1.39a1.35,1.35,0,0,0-1.36,1.49v3.07a.93.93,0,1,1-1.85,0Z" transform="translate(-73.95 -775.96)"/><path class="cls-17" d="M554.65,1141.83c0-2.16,1.08-3.5,2.79-3.5a2.19,2.19,0,0,1,2.07,1.27h0v-2.69a.93.93,0,1,1,1.85,0v7.53a.93.93,0,1,1-1.85,0v-.4h0a2.15,2.15,0,0,1-2.1,1.31C555.72,1145.35,554.65,1144,554.65,1141.83Zm4.91,0c0-1.24-.59-2-1.51-2s-1.5.78-1.5,2,.57,2,1.5,2S559.56,1143.08,559.56,1141.84Z" transform="translate(-73.95 -775.96)"/><path class="cls-17" d="M562.4,1141.87c0-2.19,1.27-3.58,3.28-3.58a3.06,3.06,0,0,1,3.23,3.17.73.73,0,0,1-.81.8h-3.88v.09a1.51,1.51,0,0,0,1.55,1.67,1.92,1.92,0,0,0,1.62-.82.74.74,0,0,1,.6-.28.68.68,0,0,1,.73.68,1,1,0,0,1-.13.45,3.06,3.06,0,0,1-2.82,1.34C563.65,1145.39,562.4,1144.07,562.4,1141.87Zm4.72-.74a1.4,1.4,0,0,0-1.42-1.47,1.46,1.46,0,0,0-1.46,1.47Z" transform="translate(-73.95 -775.96)"/><path class="cls-17" d="M569.86,1144.41v-5.18a.89.89,0,1,1,1.77,0v.44h0a1.5,1.5,0,0,1,1.41-1.34.89.89,0,0,1,.58.17.82.82,0,0,1,.27.69.81.81,0,0,1-.27.66,1.21,1.21,0,0,1-.8.24c-.85,0-1.15.49-1.15,1.3v3a.93.93,0,1,1-1.85,0Z" transform="translate(-73.95 -775.96)"/><path class="cls-17" d="M577.2,1143.64a1.37,1.37,0,0,1-.1-.52.8.8,0,0,1,.84-.84.92.92,0,0,1,.88.56,1.9,1.9,0,0,0,1.89,1c1,0,1.73-.49,1.73-1.17s-.43-.94-1.58-1.18l-1-.19c-1.83-.36-2.72-1.24-2.72-2.6,0-1.68,1.46-2.79,3.49-2.79,1.68,0,2.94.71,3.35,1.9a1.38,1.38,0,0,1,.07.43.75.75,0,0,1-.82.76.93.93,0,0,1-.91-.56,1.67,1.67,0,0,0-1.69-1c-.94,0-1.57.45-1.57,1.12s.44.91,1.52,1.13l1,.2c1.94.38,2.78,1.16,2.78,2.55,0,1.79-1.4,2.92-3.69,2.92C578.78,1145.39,577.57,1144.64,577.2,1143.64Z" transform="translate(-73.95 -775.96)"/><path class="cls-17" d="M585.37,1146.7v-7.45a.86.86,0,0,1,.91-1,.87.87,0,0,1,.92,1v.36h0a2.22,2.22,0,0,1,2.11-1.29c1.73,0,2.79,1.31,2.79,3.51s-1.06,3.51-2.76,3.51a2.22,2.22,0,0,1-2.11-1.25h0v2.6a.93.93,0,1,1-1.85,0Zm4.86-4.86c0-1.23-.58-2-1.51-2s-1.51.81-1.51,2,.6,2,1.51,2S590.23,1143.08,590.23,1141.84Z" transform="translate(-73.95 -775.96)"/><path class="cls-17" d="M592.81,1143.29c0-1.24,1-2,2.66-2.06l1.71-.1v-.45c0-.64-.44-1-1.14-1a1.49,1.49,0,0,0-1.32.72.94.94,0,0,1-.74.34.71.71,0,0,1-.77-.71,1.06,1.06,0,0,1,.09-.42c.32-.81,1.41-1.31,2.82-1.31,1.75,0,2.88.9,2.88,2.27v3.88a.84.84,0,0,1-.9.93.82.82,0,0,1-.89-.82v-.35h0a2.36,2.36,0,0,1-2.08,1.15A2.11,2.11,0,0,1,592.81,1143.29Zm4.37-.54v-.5l-1.43.09c-.7.05-1.09.36-1.09.84s.42.83,1,.83A1.37,1.37,0,0,0,597.18,1142.75Z" transform="translate(-73.95 -775.96)"/><path class="cls-17" d="M601.27,1144.4l-1.37-4.74a1.9,1.9,0,0,1-.1-.57.82.82,0,0,1,.9-.79.86.86,0,0,1,.87.78l1,4.4h0l1.06-4.33a1.06,1.06,0,0,1,2.08,0l1.06,4.33h0l1-4.41a.85.85,0,0,1,.86-.77.8.8,0,0,1,.88.78,2,2,0,0,1-.11.57l-1.37,4.75a1.12,1.12,0,0,1-1.18,1,1.09,1.09,0,0,1-1.2-1l-1-4h0l-1,4a1.09,1.09,0,0,1-1.19,1A1.12,1.12,0,0,1,601.27,1144.4Z" transform="translate(-73.95 -775.96)"/><path class="cls-17" d="M610.43,1144.41v-5.18a.84.84,0,0,1,.9-.93.87.87,0,0,1,.93.94v.38h0a2.09,2.09,0,0,1,2.1-1.31,2.24,2.24,0,0,1,2.36,2.54v3.56a.93.93,0,1,1-1.85,0v-3.17c0-.89-.42-1.39-1.25-1.39a1.34,1.34,0,0,0-1.36,1.49v3.07a.93.93,0,1,1-1.86,0Z" transform="translate(-73.95 -775.96)"/><path class="cls-16" d="M134.1,1163.36v-5.15h-1.45a.61.61,0,1,1,0-1.22H137a.61.61,0,1,1,0,1.22h-1.46v5.15a.74.74,0,1,1-1.48,0Z" transform="translate(-73.95 -775.96)"/><path class="cls-16" d="M137,1161.41a2.6,2.6,0,1,1,2.6,2.74A2.48,2.48,0,0,1,137,1161.41Zm3.74,0c0-1-.45-1.64-1.14-1.64s-1.15.6-1.15,1.64.44,1.64,1.15,1.64S140.71,1162.47,140.71,1161.42Z" transform="translate(-73.95 -775.96)"/><path class="cls-16" d="M143.7,1163.39l-1.06-3.65a1.58,1.58,0,0,1-.08-.44.63.63,0,0,1,.69-.61.66.66,0,0,1,.67.61l.78,3.38h0l.81-3.33a.81.81,0,0,1,1.6,0l.81,3.33h0l.78-3.39a.66.66,0,0,1,.66-.6.62.62,0,0,1,.68.61,1.59,1.59,0,0,1-.08.43l-1.06,3.65a.87.87,0,0,1-.91.76.84.84,0,0,1-.92-.76l-.8-3.05h0l-.79,3.06a.84.84,0,0,1-.91.75C144.11,1164.14,143.85,1163.91,143.7,1163.39Z" transform="translate(-73.95 -775.96)"/><path class="cls-16" d="M150.48,1161.44a2.47,2.47,0,0,1,2.53-2.75,2.34,2.34,0,0,1,2.48,2.43.56.56,0,0,1-.62.62h-3v.07a1.16,1.16,0,0,0,1.19,1.28,1.47,1.47,0,0,0,1.25-.63.6.6,0,0,1,.47-.21.52.52,0,0,1,.55.52.67.67,0,0,1-.1.35,2.33,2.33,0,0,1-2.16,1A2.43,2.43,0,0,1,150.48,1161.44Zm3.64-.57a1.09,1.09,0,0,0-1.1-1.13,1.13,1.13,0,0,0-1.13,1.13Z" transform="translate(-73.95 -775.96)"/><path class="cls-16" d="M156.22,1163.39v-4a.66.66,0,0,1,.69-.72.65.65,0,0,1,.67.72v.34h0a1.15,1.15,0,0,1,1.09-1,.69.69,0,0,1,.45.13.65.65,0,0,1,.2.53.66.66,0,0,1-.2.51.94.94,0,0,1-.62.18c-.65,0-.88.38-.88,1v2.32a.72.72,0,1,1-1.43,0Z" transform="translate(-73.95 -775.96)"/><path class="cls-16" d="M699.19,846c0-2.26,1.29-3.63,3.36-3.63a3,3,0,0,1,2.8,1.5.94.94,0,0,1,.11.46.61.61,0,0,1-.64.63.77.77,0,0,1-.72-.43,1.66,1.66,0,0,0-1.55-.94c-1.16,0-1.86.89-1.86,2.39s.74,2.46,1.91,2.46a1.51,1.51,0,0,0,1.66-1.47v-.11h-1a.54.54,0,1,1,0-1.07H705a.69.69,0,0,1,.74.76v.11a2.85,2.85,0,0,1-3.13,3C700.48,849.67,699.19,848.3,699.19,846Z" transform="translate(-73.95 -775.96)"/><path class="cls-16" d="M706.3,848.05c0-.95.73-1.51,2-1.58l1.32-.08V846c0-.49-.34-.77-.88-.77a1.13,1.13,0,0,0-1,.55.72.72,0,0,1-.57.27.56.56,0,0,1-.6-.55.72.72,0,0,1,.08-.32c.24-.63,1.08-1,2.16-1,1.35,0,2.22.69,2.22,1.74v3a.65.65,0,0,1-.69.71.63.63,0,0,1-.69-.63v-.27h0a1.82,1.82,0,0,1-1.61.89A1.62,1.62,0,0,1,706.3,848.05Zm3.36-.42v-.38l-1.1.07c-.54,0-.84.28-.84.65s.32.63.8.63A1,1,0,0,0,709.66,847.63Z" transform="translate(-73.95 -775.96)"/><path class="cls-16" d="M712.36,845.39h-.27a.54.54,0,1,1,0-1.07h.27v-.58a.72.72,0,1,1,1.43,0v.58h.5a.54.54,0,1,1,0,1.07h-.5v2.51c0,.37.12.52.43.55h.09c.36,0,.55.18.55.52s-.41.63-1,.63h0a1.26,1.26,0,0,1-1.44-1.4Z" transform="translate(-73.95 -775.96)"/><path class="cls-16" d="M715.27,847a2.46,2.46,0,0,1,2.53-2.75,2.34,2.34,0,0,1,2.48,2.43.56.56,0,0,1-.62.62h-3v.07a1.16,1.16,0,0,0,1.19,1.28,1.48,1.48,0,0,0,1.25-.63.57.57,0,0,1,.47-.21.52.52,0,0,1,.55.52.79.79,0,0,1-.09.35,2.37,2.37,0,0,1-2.17,1A2.43,2.43,0,0,1,715.27,847Zm3.64-.57a1.08,1.08,0,0,0-1.1-1.13,1.13,1.13,0,0,0-1.12,1.13Z" transform="translate(-73.95 -775.96)"/><path class="cls-16" d="M407.86,1000.92v-5.51a.68.68,0,0,1,.73-.76h2.33c1.33,0,2.16.68,2.16,1.75a1.55,1.55,0,0,1-1.33,1.53v0a1.7,1.7,0,0,1,1.66,1.71c0,1.24-.93,2-2.43,2h-2.39A.68.68,0,0,1,407.86,1000.92Zm2.53-3.34c.79,0,1.24-.35,1.24-1s-.4-.88-1.09-.88h-1.21v1.83Zm.21,3c.85,0,1.31-.36,1.31-1s-.47-1-1.34-1h-1.24v2Z" transform="translate(-73.95 -775.96)"/><path class="cls-16" d="M413.94,999.1a2.47,2.47,0,0,1,2.53-2.75,2.34,2.34,0,0,1,2.48,2.43.56.56,0,0,1-.62.62h-3v.07a1.16,1.16,0,0,0,1.19,1.28,1.48,1.48,0,0,0,1.25-.63.57.57,0,0,1,.47-.21.52.52,0,0,1,.55.52.79.79,0,0,1-.09.35,2.37,2.37,0,0,1-2.17,1A2.43,2.43,0,0,1,413.94,999.1Zm3.64-.57a1.08,1.08,0,0,0-1.1-1.13,1.13,1.13,0,0,0-1.12,1.13Z" transform="translate(-73.95 -775.96)"/><path class="cls-16" d="M419.68,1001.05v-4a.65.65,0,0,1,.69-.72.66.66,0,0,1,.71.72v.3h0a1.61,1.61,0,0,1,1.61-1,1.72,1.72,0,0,1,1.82,2v2.73a.71.71,0,1,1-1.42,0v-2.43c0-.69-.33-1.08-1-1.08a1,1,0,0,0-1,1.15v2.36a.67.67,0,0,1-.71.74A.67.67,0,0,1,419.68,1001.05Z" transform="translate(-73.95 -775.96)"/><path class="cls-16" d="M425.25,999.08a2.47,2.47,0,0,1,2.57-2.73A2.26,2.26,0,0,1,430,997.6a.93.93,0,0,1,.08.35.56.56,0,0,1-.61.55.61.61,0,0,1-.6-.37,1.12,1.12,0,0,0-1-.67c-.73,0-1.17.6-1.17,1.61s.44,1.62,1.16,1.62a1.13,1.13,0,0,0,1-.62.7.7,0,0,1,.65-.42.56.56,0,0,1,.6.57,1,1,0,0,1-.09.37,2.37,2.37,0,0,1-2.21,1.21A2.46,2.46,0,0,1,425.25,999.08Z" transform="translate(-73.95 -775.96)"/><path class="cls-16" d="M430.93,1001.05v-5.78a.7.7,0,1,1,1.4,0v2.12h0a1.66,1.66,0,0,1,1.64-1,1.74,1.74,0,0,1,1.83,2v2.73a.67.67,0,0,1-.71.74.67.67,0,0,1-.72-.74v-2.42c0-.68-.33-1.09-1-1.09a1,1,0,0,0-1.07,1.16v2.35a.71.71,0,1,1-1.42,0Z" transform="translate(-73.95 -775.96)"/><path class="cls-16" d="M640.28,1362.49v-5.62a.68.68,0,0,1,.73-.76h2.15c1.62,0,2.55.85,2.55,2.24a2.06,2.06,0,0,1-1.21,2l1,1.75a.92.92,0,0,1,.15.51.69.69,0,0,1-.74.68c-.35,0-.51-.13-.75-.56l-1.17-2.12h-1.26v1.91a.74.74,0,1,1-1.47,0Zm2.74-3a1.07,1.07,0,0,0,1.18-1.13,1.08,1.08,0,0,0-1.19-1.12h-1.26v2.25Z" transform="translate(-73.95 -775.96)"/><path class="cls-16" d="M646.32,1360.53a2.59,2.59,0,1,1,2.59,2.74A2.47,2.47,0,0,1,646.32,1360.53Zm3.73,0c0-1-.45-1.64-1.14-1.64s-1.15.6-1.15,1.64.45,1.64,1.15,1.64S650.05,1361.59,650.05,1360.54Z" transform="translate(-73.95 -775.96)"/><path class="cls-16" d="M652.24,1364.28v-5.74a.7.7,0,1,1,1.4,0v.28h0a1.71,1.71,0,0,1,1.62-1c1.33,0,2.15,1,2.15,2.7s-.81,2.7-2.12,2.7a1.71,1.71,0,0,1-1.63-1h0v2a.71.71,0,1,1-1.42,0Zm3.74-3.74c0-1-.45-1.56-1.17-1.56s-1.15.62-1.15,1.56.46,1.55,1.15,1.55S656,1361.49,656,1360.54Z" transform="translate(-73.95 -775.96)"/><path class="cls-16" d="M658,1360.56a2.47,2.47,0,0,1,2.53-2.75,2.34,2.34,0,0,1,2.48,2.43.56.56,0,0,1-.62.62h-3v.07a1.16,1.16,0,0,0,1.19,1.28,1.48,1.48,0,0,0,1.25-.63.57.57,0,0,1,.46-.21.52.52,0,0,1,.56.52.67.67,0,0,1-.1.35,2.35,2.35,0,0,1-2.16,1A2.44,2.44,0,0,1,658,1360.56Zm3.64-.57a1.09,1.09,0,0,0-1.1-1.13,1.13,1.13,0,0,0-1.13,1.13Z" transform="translate(-73.95 -775.96)"/><path class="cls-16" d="M171.76,1401.25v-5.51a.69.69,0,0,1,.74-.76h2.33c1.32,0,2.15.68,2.15,1.75a1.54,1.54,0,0,1-1.32,1.53v0a1.71,1.71,0,0,1,1.66,1.71c0,1.24-.93,2-2.44,2H172.5A.69.69,0,0,1,171.76,1401.25Zm2.54-3.34c.78,0,1.23-.35,1.23-1s-.39-.88-1.08-.88h-1.21v1.83Zm.21,3c.85,0,1.3-.36,1.3-1s-.47-1-1.34-1h-1.23v2Z" transform="translate(-73.95 -775.96)"/><path class="cls-16" d="M180.14,1401.43v-5.6a.87.87,0,0,1,1-.95,1,1,0,0,1,1,.76l1.75,4.33h0l1.74-4.33a1,1,0,0,1,1-.76.87.87,0,0,1,.95.95v5.6a.66.66,0,1,1-1.32,0v-4.16h0l-1.74,4.26a.67.67,0,0,1-1.27,0l-1.74-4.26h0v4.16a.66.66,0,1,1-1.31,0Z" transform="translate(-73.95 -775.96)"/><path class="cls-16" d="M188.33,1400.52c0-1,.74-1.51,2-1.58l1.31-.08v-.35c0-.49-.34-.77-.88-.77a1.14,1.14,0,0,0-1,.55.72.72,0,0,1-.57.27.55.55,0,0,1-.59-.55.71.71,0,0,1,.07-.32c.24-.63,1.08-1,2.17-1,1.34,0,2.21.69,2.21,1.74v3a.65.65,0,0,1-.69.72.63.63,0,0,1-.68-.64v-.27h0a1.81,1.81,0,0,1-1.6.89A1.63,1.63,0,0,1,188.33,1400.52Zm3.36-.42v-.38l-1.1.07c-.53,0-.84.28-.84.65s.33.64.81.64A1,1,0,0,0,191.69,1400.1Z" transform="translate(-73.95 -775.96)"/><path class="cls-16" d="M194,1395.4a.76.76,0,1,1,.76.74A.74.74,0,0,1,194,1395.4Zm0,6v-4a.71.71,0,1,1,1.42,0v4a.71.71,0,1,1-1.42,0Z" transform="translate(-73.95 -775.96)"/><path class="cls-16" d="M196.41,1401.38v-4a.65.65,0,0,1,.69-.72.66.66,0,0,1,.71.72v.3h0a1.61,1.61,0,0,1,1.61-1,1.73,1.73,0,0,1,1.82,2v2.73a.72.72,0,1,1-1.43,0V1399c0-.69-.32-1.08-1-1.08a1,1,0,0,0-1,1.15v2.36a.72.72,0,1,1-1.43,0Z" transform="translate(-73.95 -775.96)"/><path class="cls-16" d="M746.67,984.16v-5.51a.69.69,0,0,1,.74-.77h2c2.12,0,3.36,1.26,3.36,3.5s-1.24,3.55-3.36,3.55h-2A.7.7,0,0,1,746.67,984.16Zm2.52-.45c1.31,0,2-.8,2-2.33s-.73-2.28-2-2.28h-1v4.61Z" transform="translate(-73.95 -775.96)"/><path class="cls-16" d="M753.52,978.31a.74.74,0,0,1,.76-.74.74.74,0,1,1,0,1.47A.73.73,0,0,1,753.52,978.31Zm.05,6v-4a.68.68,0,0,1,.71-.75.69.69,0,0,1,.72.75v4a.68.68,0,0,1-.72.74A.67.67,0,0,1,753.57,984.29Z" transform="translate(-73.95 -775.96)"/><path class="cls-16" d="M755.83,984a.65.65,0,0,1-.06-.26.54.54,0,0,1,.58-.55.82.82,0,0,1,.62.33,1.29,1.29,0,0,0,1.14.53c.52,0,.86-.22.86-.56s-.18-.44-.7-.55l-.88-.19c-1-.22-1.54-.74-1.54-1.51,0-1,.87-1.65,2.22-1.65a2,2,0,0,1,2,1.08,1,1,0,0,1,0,.21c0,.29-.18.49-.55.49a.7.7,0,0,1-.52-.22,1.25,1.25,0,0,0-1-.56c-.48,0-.82.23-.82.57s.2.45.73.56l.86.19c1.11.23,1.57.64,1.57,1.43,0,1-.93,1.71-2.31,1.71C756.88,985,756.08,984.61,755.83,984Z" transform="translate(-73.95 -775.96)"/><path class="cls-16" d="M761.13,984.29v-5.78a.7.7,0,1,1,1.4,0v2.12h0a1.67,1.67,0,0,1,1.65-1,1.75,1.75,0,0,1,1.82,2v2.73a.71.71,0,1,1-1.42,0v-2.43c0-.67-.34-1.08-1-1.08a1,1,0,0,0-1.07,1.16v2.35a.72.72,0,1,1-1.43,0Z" transform="translate(-73.95 -775.96)"/><path class="cls-16" d="M314.86,1555.32v-5.15h-1.45a.61.61,0,1,1,0-1.22h4.39a.61.61,0,1,1,0,1.22h-1.46v5.15a.74.74,0,1,1-1.48,0Z" transform="translate(-73.95 -775.96)"/><path class="cls-16" d="M318.41,1555.36v-4a.69.69,0,1,1,1.37,0v.34h0a1.16,1.16,0,0,1,1.09-1,.67.67,0,0,1,.45.13.65.65,0,0,1,.2.53.66.66,0,0,1-.2.51,1,1,0,0,1-.62.19c-.65,0-.88.37-.88,1v2.33a.67.67,0,0,1-.71.74A.68.68,0,0,1,318.41,1555.36Z" transform="translate(-73.95 -775.96)"/><path class="cls-16" d="M321.69,1553.4a2.47,2.47,0,0,1,2.53-2.75,2.35,2.35,0,0,1,2.48,2.44.57.57,0,0,1-.62.62h-3v.06a1.16,1.16,0,0,0,1.19,1.28,1.47,1.47,0,0,0,1.25-.63.6.6,0,0,1,.47-.21.52.52,0,0,1,.55.53.72.72,0,0,1-.09.34,2.35,2.35,0,0,1-2.17,1A2.43,2.43,0,0,1,321.69,1553.4Zm3.64-.57a1.08,1.08,0,0,0-1.1-1.12,1.11,1.11,0,0,0-1.12,1.12Z" transform="translate(-73.95 -775.96)"/><path class="cls-16" d="M327.24,1553.4a2.47,2.47,0,0,1,2.53-2.75,2.35,2.35,0,0,1,2.48,2.44.56.56,0,0,1-.62.62h-3v.06a1.16,1.16,0,0,0,1.19,1.28,1.45,1.45,0,0,0,1.25-.63.62.62,0,0,1,.47-.21.51.51,0,0,1,.55.53.72.72,0,0,1-.09.34,2.35,2.35,0,0,1-2.17,1A2.43,2.43,0,0,1,327.24,1553.4Zm3.64-.57a1.07,1.07,0,0,0-1.09-1.12,1.12,1.12,0,0,0-1.13,1.12Z" transform="translate(-73.95 -775.96)"/><path class="cls-16" d="M223.3,1060.66a1.73,1.73,0,0,1,.1-.47l1.92-5.23a1.17,1.17,0,0,1,2.24,0l1.93,5.24a1.32,1.32,0,0,1,.1.47.69.69,0,0,1-.74.7c-.42,0-.64-.19-.77-.65l-.37-1.12h-2.54l-.37,1.1c-.14.47-.36.67-.75.67A.68.68,0,0,1,223.3,1060.66Zm4.07-2.21-.93-2.88h0l-.91,2.88Z" transform="translate(-73.95 -775.96)"/><path class="cls-16" d="M230.36,1060.62v-4a.66.66,0,0,1,.69-.72.65.65,0,0,1,.67.72v.34h0a1.15,1.15,0,0,1,1.09-1,.64.64,0,0,1,.44.13.62.62,0,0,1,.21.53.64.64,0,0,1-.21.51.9.9,0,0,1-.62.18c-.65,0-.88.38-.88,1v2.32a.71.71,0,1,1-1.42,0Z" transform="translate(-73.95 -775.96)"/><path class="cls-16" d="M233.63,1058.65a2.47,2.47,0,0,1,2.57-2.73,2.26,2.26,0,0,1,2.21,1.25,1,1,0,0,1,.08.35.57.57,0,0,1-.61.56.62.62,0,0,1-.6-.38,1.12,1.12,0,0,0-1-.66c-.73,0-1.17.59-1.17,1.6s.44,1.62,1.16,1.62a1.13,1.13,0,0,0,1-.62.7.7,0,0,1,.65-.42.56.56,0,0,1,.6.57,1,1,0,0,1-.09.38,2.39,2.39,0,0,1-2.21,1.21A2.47,2.47,0,0,1,233.63,1058.65Z" transform="translate(-73.95 -775.96)"/><path class="cls-16" d="M239.07,1059.76c0-1,.73-1.5,2-1.58l1.32-.08v-.35c0-.49-.34-.77-.88-.77a1.15,1.15,0,0,0-1,.55.69.69,0,0,1-.56.27.56.56,0,0,1-.6-.55.92.92,0,0,1,.07-.32,2.2,2.2,0,0,1,2.17-1c1.35,0,2.22.69,2.22,1.75v3a.65.65,0,0,1-.69.72.64.64,0,0,1-.69-.64v-.27h0a1.79,1.79,0,0,1-1.6.89A1.62,1.62,0,0,1,239.07,1059.76Zm3.36-.42V1059l-1.11.07c-.53,0-.83.28-.83.65s.32.64.8.64A1.05,1.05,0,0,0,242.43,1059.34Z" transform="translate(-73.95 -775.96)"/><path class="cls-16" d="M244.56,1058.64c0-1.66.83-2.69,2.14-2.69a1.69,1.69,0,0,1,1.6,1h0v-2.07a.71.71,0,1,1,1.42,0v5.78a.71.71,0,1,1-1.42,0v-.3h0a1.64,1.64,0,0,1-1.61,1C245.38,1061.35,244.56,1060.31,244.56,1058.64Zm3.78,0c0-1-.46-1.56-1.17-1.56s-1.15.6-1.15,1.56.44,1.55,1.15,1.55S248.34,1059.6,248.34,1058.65Z" transform="translate(-73.95 -775.96)"/><path class="cls-16" d="M250.51,1058.67a2.47,2.47,0,0,1,2.53-2.75,2.34,2.34,0,0,1,2.48,2.43.56.56,0,0,1-.62.62h-3v.07a1.16,1.16,0,0,0,1.19,1.28,1.48,1.48,0,0,0,1.25-.63.58.58,0,0,1,.46-.21.52.52,0,0,1,.56.52.78.78,0,0,1-.1.35,2.35,2.35,0,0,1-2.17,1A2.44,2.44,0,0,1,250.51,1058.67Zm3.64-.57a1.08,1.08,0,0,0-1.09-1.13,1.13,1.13,0,0,0-1.13,1.13Z" transform="translate(-73.95 -775.96)"/><path class="cls-16" d="M119.62,1265.77v-16a2,2,0,0,1,2.14-2.22h6.75c3.84,0,6.25,2,6.25,5.09a4.52,4.52,0,0,1-3.84,4.44v.11a5,5,0,0,1,4.82,4.94c0,3.6-2.71,5.85-7.07,5.85h-6.91A2,2,0,0,1,119.62,1265.77Zm7.35-9.7c2.28,0,3.58-1,3.58-2.73s-1.14-2.58-3.14-2.58H123.9v5.31Zm.61,8.75c2.46,0,3.79-1,3.79-3s-1.37-2.93-3.89-2.93H123.9v5.93Z" transform="translate(-73.95 -775.96)"/><path class="cls-16" d="M958.31,1227.12c-1.13,0-1.77-.57-2.16-1.93l-1.08-3.18h-7.38l-1.07,3.22c-.38,1.34-1,1.89-2.23,1.89a2,2,0,0,1-2.13-2,3.71,3.71,0,0,1,.27-1.36l5.6-15.21a3.39,3.39,0,0,1,6.49,0l5.58,15.2a4.44,4.44,0,0,1,.28,1.36A2,2,0,0,1,958.31,1227.12Zm-4.17-8.43-2.65-8.37h-.1l-2.71,8.37Z" transform="translate(-73.95 -775.96)"/><path class="cls-16" d="M345.66,1318.4c0-2.27,1.3-3.64,3.32-3.64a3,3,0,0,1,2.83,1.6,1.32,1.32,0,0,1,.14.55.61.61,0,0,1-.65.64.72.72,0,0,1-.7-.49A1.68,1.68,0,0,0,349,1316c-1.11,0-1.83.93-1.83,2.42s.71,2.43,1.83,2.43a1.66,1.66,0,0,0,1.62-1,.69.69,0,0,1,1.34.19,1.28,1.28,0,0,1-.11.49,2.94,2.94,0,0,1-2.83,1.58C346.93,1322.05,345.66,1320.68,345.66,1318.4Z" transform="translate(-73.95 -775.96)"/><path class="cls-16" d="M352.66,1320.43c0-1,.73-1.51,2-1.59l1.32-.07v-.35c0-.49-.35-.77-.88-.77a1.15,1.15,0,0,0-1,.55.71.71,0,0,1-.57.26.54.54,0,0,1-.59-.54.75.75,0,0,1,.07-.33,2.22,2.22,0,0,1,2.17-1c1.34,0,2.22.7,2.22,1.75v3a.65.65,0,0,1-.7.72.63.63,0,0,1-.68-.63v-.27h0a1.8,1.8,0,0,1-1.6.88A1.61,1.61,0,0,1,352.66,1320.43ZM356,1320v-.38l-1.11.07c-.53,0-.83.28-.83.65s.32.63.8.63A1,1,0,0,0,356,1320Z" transform="translate(-73.95 -775.96)"/><path class="cls-16" d="M358.33,1321.29v-4a.65.65,0,0,1,.69-.71.67.67,0,0,1,.72.72v.29h0a1.58,1.58,0,0,1,1.61-1,1.72,1.72,0,0,1,1.81,2v2.74a.71.71,0,1,1-1.42,0v-2.44c0-.68-.32-1.07-1-1.07a1,1,0,0,0-1.05,1.15v2.36a.67.67,0,0,1-.71.74A.67.67,0,0,1,358.33,1321.29Z" transform="translate(-73.95 -775.96)"/><path class="cls-16" d="M364.48,1317.77h-.28a.51.51,0,0,1-.55-.54.5.5,0,0,1,.55-.53h.28v-.59a.71.71,0,1,1,1.42,0v.59h.51a.5.5,0,0,1,.54.53.5.5,0,0,1-.54.54h-.51v2.5c0,.37.13.53.44.56h.09c.35,0,.54.18.54.51s-.41.64-1,.64h0a1.26,1.26,0,0,1-1.43-1.4Z" transform="translate(-73.95 -775.96)"/><path class="cls-16" d="M367.39,1319.34a2.47,2.47,0,0,1,2.53-2.76,2.35,2.35,0,0,1,2.48,2.44.57.57,0,0,1-.62.62h-3v.06A1.17,1.17,0,0,0,370,1321a1.5,1.5,0,0,0,1.25-.63.57.57,0,0,1,.46-.21.51.51,0,0,1,.56.52.69.69,0,0,1-.1.35,2.34,2.34,0,0,1-2.16,1A2.43,2.43,0,0,1,367.39,1319.34Zm3.64-.57a1.08,1.08,0,0,0-1.1-1.13,1.13,1.13,0,0,0-1.13,1.13Z" transform="translate(-73.95 -775.96)"/><path class="cls-16" d="M372.94,1319.34a2.47,2.47,0,0,1,2.53-2.76A2.35,2.35,0,0,1,378,1319a.57.57,0,0,1-.62.62h-3v.06a1.17,1.17,0,0,0,1.19,1.29,1.49,1.49,0,0,0,1.25-.63.57.57,0,0,1,.47-.21.51.51,0,0,1,.55.52.79.79,0,0,1-.09.35,2.37,2.37,0,0,1-2.17,1A2.43,2.43,0,0,1,372.94,1319.34Zm3.64-.57a1.08,1.08,0,0,0-1.1-1.13,1.12,1.12,0,0,0-1.12,1.13Z" transform="translate(-73.95 -775.96)"/><path class="cls-16" d="M378.68,1321.29v-4a.65.65,0,0,1,.69-.71.66.66,0,0,1,.71.72v.29h0a1.6,1.6,0,0,1,1.61-1,1.72,1.72,0,0,1,1.82,2v2.74a.72.72,0,1,1-1.43,0v-2.44c0-.68-.32-1.07-1-1.07a1,1,0,0,0-1,1.15v2.36a.72.72,0,1,1-1.43,0Z" transform="translate(-73.95 -775.96)"/><path class="cls-16" d="M357.05,1098.52v-5.15h-1.46a.61.61,0,1,1,0-1.22H360a.61.61,0,1,1,0,1.22h-1.46v5.15a.74.74,0,1,1-1.47,0Z" transform="translate(-73.95 -775.96)"/><path class="cls-16" d="M360.59,1097.34v-2.74a.71.71,0,1,1,1.42,0V1097c0,.7.35,1.07,1,1.07a1,1,0,0,0,1-1.15v-2.36a.72.72,0,1,1,1.43,0v4a.69.69,0,1,1-1.38,0v-.33h0a1.56,1.56,0,0,1-1.57,1A1.78,1.78,0,0,1,360.59,1097.34Z" transform="translate(-73.95 -775.96)"/><path class="cls-16" d="M366.38,1098.56v-4a.65.65,0,0,1,.68-.72.68.68,0,0,1,.72.73v.29h0a1.59,1.59,0,0,1,1.61-1,1.73,1.73,0,0,1,1.81,2v2.74a.71.71,0,1,1-1.42,0v-2.44c0-.68-.32-1.07-1-1.07a1,1,0,0,0-1.05,1.14v2.37a.71.71,0,1,1-1.42,0Z" transform="translate(-73.95 -775.96)"/><path class="cls-16" d="M372.14,1098.56v-4a.65.65,0,0,1,.69-.72.68.68,0,0,1,.71.73v.29h0a1.6,1.6,0,0,1,1.61-1,1.73,1.73,0,0,1,1.82,2v2.74a.67.67,0,0,1-.72.74.67.67,0,0,1-.71-.74v-2.44c0-.68-.32-1.07-1-1.07a1,1,0,0,0-1.05,1.14v2.37a.71.71,0,1,1-1.42,0Z" transform="translate(-73.95 -775.96)"/><path class="cls-16" d="M377.71,1096.6a2.47,2.47,0,0,1,2.53-2.75,2.35,2.35,0,0,1,2.48,2.44.57.57,0,0,1-.62.62h-3v.06a1.16,1.16,0,0,0,1.19,1.28,1.47,1.47,0,0,0,1.25-.63.6.6,0,0,1,.46-.21.52.52,0,0,1,.56.53.63.63,0,0,1-.1.34,2.33,2.33,0,0,1-2.16,1A2.43,2.43,0,0,1,377.71,1096.6Zm3.64-.57a1.09,1.09,0,0,0-1.1-1.13,1.13,1.13,0,0,0-1.13,1.13Z" transform="translate(-73.95 -775.96)"/><path class="cls-16" d="M383.48,1098.56v-5.77a.68.68,0,0,1,.72-.75.67.67,0,0,1,.71.75v5.77a.67.67,0,0,1-.71.74A.67.67,0,0,1,383.48,1098.56Z" transform="translate(-73.95 -775.96)"/><path class="cls-16" d="M814.84,1489.86a1.65,1.65,0,0,1,.1-.47l1.92-5.24a1.17,1.17,0,0,1,2.24,0l1.93,5.24a1.28,1.28,0,0,1,.1.47.69.69,0,0,1-.74.69c-.42,0-.64-.19-.77-.65l-.37-1.11h-2.54l-.37,1.1c-.14.47-.36.66-.75.66A.67.67,0,0,1,814.84,1489.86Zm4.07-2.21-.93-2.89h0l-.91,2.89Z" transform="translate(-73.95 -775.96)"/><path class="cls-16" d="M824,1489.86v-5.59a.87.87,0,0,1,1-1,1,1,0,0,1,1,.76l1.75,4.33h0l1.74-4.33a1,1,0,0,1,1-.76.87.87,0,0,1,1,1v5.59a.66.66,0,1,1-1.32,0v-4.16h0l-1.75,4.27a.62.62,0,0,1-.63.45.64.64,0,0,1-.64-.45l-1.74-4.27h0v4.16a.66.66,0,1,1-1.31,0Z" transform="translate(-73.95 -775.96)"/><path class="cls-16" d="M832.2,1489c0-1,.73-1.51,2-1.59l1.31-.07V1487c0-.49-.34-.77-.87-.77a1.15,1.15,0,0,0-1,.55.71.71,0,0,1-.57.26.54.54,0,0,1-.59-.54.75.75,0,0,1,.07-.33,2.22,2.22,0,0,1,2.17-1c1.34,0,2.22.7,2.22,1.75v3a.65.65,0,0,1-.7.72.63.63,0,0,1-.68-.63v-.27h0a1.8,1.8,0,0,1-1.6.88A1.61,1.61,0,0,1,832.2,1489Zm3.35-.42v-.38l-1.1.07c-.53,0-.83.28-.83.65s.32.63.8.63A1,1,0,0,0,835.55,1488.54Z" transform="translate(-73.95 -775.96)"/><path class="cls-16" d="M837.85,1483.84a.76.76,0,1,1,.76.74A.74.74,0,0,1,837.85,1483.84Zm0,6v-4a.71.71,0,1,1,1.42,0v4a.71.71,0,1,1-1.42,0Z" transform="translate(-73.95 -775.96)"/><path class="cls-16" d="M840.27,1489.82v-4a.65.65,0,0,1,.69-.72.66.66,0,0,1,.71.72v.29h0a1.6,1.6,0,0,1,1.61-1,1.72,1.72,0,0,1,1.82,2v2.73a.72.72,0,1,1-1.43,0v-2.44c0-.68-.32-1.07-1-1.07a1,1,0,0,0-1,1.15v2.36a.72.72,0,1,1-1.43,0Z" transform="translate(-73.95 -775.96)"/><path class="cls-16" d="M676.46,1158.26a1.37,1.37,0,0,1,.1-.47l1.92-5.24a1.08,1.08,0,0,1,1.11-.83,1.09,1.09,0,0,1,1.13.83l1.93,5.24a1.25,1.25,0,0,1,.09.47.69.69,0,0,1-.74.69c-.41,0-.63-.19-.76-.65l-.37-1.11h-2.55l-.37,1.1c-.13.47-.35.66-.74.66A.67.67,0,0,1,676.46,1158.26Zm4.07-2.21-.94-2.89h0l-.91,2.89Z" transform="translate(-73.95 -775.96)"/><path class="cls-16" d="M685.61,1158.09v-5.6a.74.74,0,1,1,1.48,0v5.15h2.5a.61.61,0,1,1,0,1.22h-3.24A.69.69,0,0,1,685.61,1158.09Z" transform="translate(-73.95 -775.96)"/><path class="cls-16" d="M690.9,1152.24a.76.76,0,1,1,.76.74A.74.74,0,0,1,690.9,1152.24Zm.05,6v-4a.71.71,0,1,1,1.42,0v4a.71.71,0,1,1-1.42,0Z" transform="translate(-73.95 -775.96)"/><path class="cls-16" d="M693.32,1158.22v-4a.65.65,0,0,1,.69-.72.66.66,0,0,1,.71.72v.29h0a1.59,1.59,0,0,1,1.61-1,1.73,1.73,0,0,1,1.82,2v2.73a.67.67,0,0,1-.72.74.67.67,0,0,1-.71-.74v-2.44c0-.68-.32-1.07-1-1.07a1,1,0,0,0-1,1.15v2.36a.71.71,0,1,1-1.42,0Z" transform="translate(-73.95 -775.96)"/><path class="cls-16" d="M699.11,1158.22v-5.77a.67.67,0,0,1,.72-.74.67.67,0,0,1,.71.74v3.25h0l1.89-1.9a.74.74,0,0,1,.57-.28.62.62,0,0,1,.64.62.66.66,0,0,1-.27.53l-1.34,1.26,1.46,1.86a.77.77,0,0,1,.2.53.62.62,0,0,1-.67.64.75.75,0,0,1-.7-.44l-1.35-1.78-.45.42v1.06a.67.67,0,0,1-.71.74A.67.67,0,0,1,699.11,1158.22Z" transform="translate(-73.95 -775.96)"/><path class="cls-16" d="M365.67,848.78v-5.51a.69.69,0,0,1,.74-.76h2.33c1.32,0,2.15.68,2.15,1.75a1.54,1.54,0,0,1-1.32,1.53v0a1.7,1.7,0,0,1,1.66,1.71c0,1.24-.93,2-2.44,2h-2.38A.69.69,0,0,1,365.67,848.78Zm2.54-3.34c.79,0,1.23-.35,1.23-1s-.39-.89-1.08-.89h-1.21v1.84Zm.21,3c.85,0,1.31-.36,1.31-1s-.48-1-1.35-1h-1.23v2Z" transform="translate(-73.95 -775.96)"/><path class="cls-16" d="M374.05,848.78v-5.6a.74.74,0,1,1,1.47,0v5.15H378a.61.61,0,1,1,0,1.22h-3.23A.69.69,0,0,1,374.05,848.78Z" transform="translate(-73.95 -775.96)"/><path class="cls-16" d="M379.09,846.93a2.6,2.6,0,1,1,2.6,2.73A2.48,2.48,0,0,1,379.09,846.93Zm3.74,0c0-1-.45-1.65-1.14-1.65s-1.15.61-1.15,1.65.44,1.64,1.15,1.64S382.83,848,382.83,846.94Z" transform="translate(-73.95 -775.96)"/><path class="cls-16" d="M385,848.93v-5.78a.68.68,0,0,1,.72-.75.67.67,0,0,1,.71.75v2.08h0a1.71,1.71,0,0,1,1.62-1c1.32,0,2.13,1,2.13,2.71s-.81,2.7-2.13,2.7a1.73,1.73,0,0,1-1.64-1h0v.28a.71.71,0,1,1-1.41,0Zm3.75-2c0-1-.45-1.56-1.16-1.56s-1.16.62-1.16,1.56.47,1.55,1.16,1.55S388.79,847.89,388.79,846.94Z" transform="translate(-73.95 -775.96)"/><path class="cls-16" d="M391,848.93v-5.78a.71.71,0,1,1,1.42,0v2.08h0a1.72,1.72,0,0,1,1.62-1c1.32,0,2.13,1,2.13,2.71s-.8,2.7-2.13,2.7a1.75,1.75,0,0,1-1.64-1h0v.28a.65.65,0,0,1-.71.72A.64.64,0,0,1,391,848.93Zm3.74-2c0-1-.45-1.56-1.16-1.56s-1.16.62-1.16,1.56.47,1.55,1.16,1.55S394.76,847.89,394.76,846.94Z" transform="translate(-73.95 -775.96)"/><path class="cls-16" d="M396.76,850.82a.46.46,0,0,1,.52-.47h.25a.73.73,0,0,0,.69-.48l.07-.18-1.67-4.41a1.35,1.35,0,0,1-.08-.42.69.69,0,0,1,.74-.66c.37,0,.57.16.68.58l1.14,3.62h0l1.13-3.63a.66.66,0,0,1,.69-.57.65.65,0,0,1,.7.64,1.3,1.3,0,0,1-.08.42L400,849.64c-.49,1.35-1.09,1.85-2.24,1.85C397.1,851.49,396.76,851.25,396.76,850.82Z" transform="translate(-73.95 -775.96)"/></g></svg>