<svg xmlns="http://www.w3.org/2000/svg" viewBox="0 0 895.11 794.09"><defs><style>.cls-1{fill:#33353b}.cls-2{fill:#575548}.cls-3{fill:#b0adb0}.cls-4{fill:none;stroke:#b0adb0;stroke-miterlimit:10}.cls-6{fill:#d32027}.cls-7{fill:#fff}.cls-8{fill:#79c143}</style></defs><path id="body_merge" d="M1386.16 244H1181v-93H978l-27.09 9L937 186.09 925 230l-9 13v21H675v78H547v55h19v89h-60v84.86s4.23 30.74 34 34.12h137V709l36 36h1v29.84h-37V809l176 85h61v49h137V827h129V716h-48v-7h189V549h32l46-46V244ZM1354 405h-59v-15h59Zm0-43h-59v-3h59Zm-92-22v76h-22v-20h-23v-4h23v-37h-8v-56h-113v-15h121v56Zm-16 315h-20v-20h20Zm-198-171v36h-31v-86h-22v-7h95v-94h98v23l-7 9v15s17.94 13-4 32v72ZM873.26 327H966v-85h53v132h15v16h-22v-15h-54v52h15v7h-22v-40h-89v-67ZM719 397v-70h110v56h-80v92h-80v-63h-68v-15ZM543 549v-18h23v18Zm97-18v-15h94v15h57v-89h86v-22h29v29h-29v126h-78v15h-33v-52h-89v22h-37Zm237 311v-82H773v-14h11V634h166.92v34H891v92h54v8h-31v74Zm47-144v5h-5v-5Zm-5 30h5v5h-5Zm121.18 55H995V571h-52v23h-26v-48h200v-45h8v25h2l56 43h18v22h-23v3.84l-3 8.19-13 13.86-14 20.11-12.94 6.88L1132 657l-30 9v55.74L1085 750v33h-44.81ZM1353 470h-76v92h-8v-59h-31v-45h124v12Zm18.88-171H1291v-15h86v15Z" class="cls-1" data-name="body merge" transform="translate(-504.94 -149.95)"/><g id="Bombsite"><path d="M446.58 328.79v-58.74h-45.63v28.01h-29.89v49.99h134.5v-19.26h-58.98zM164.13 306.05v-44H60.36v74h6.7v45H60.8v17.52H111.06v-66.02h-1v-26.5h54.07zM872.06 149.05v-1H787.3l-31.24 43.42.35 1.41v72.17H894.7v-116Zm-23.48 60.42v2.32h-57.47v-2.32Zm-57.46 44.58v-13h57.47v13Z" class="cls-2"/><path d="M90.07 321.05v7.99h14.99v15.01h6.99v-23H90.07zM127.05 261.01h15v16.03h-15zM437.08 283.09h9.96v20.96h-9.96zM371.06 298.06h15.96v15.96h-15.96z" class="cls-1"/><path d="M371.07 313.04h8.97v8.97h-8.97zM811.99 254.01h15.02v15.98h-15.02zM856.99 148.08h15.07v15.93h-15.07z" class="cls-1"/></g><g id="Lines"><path d="M684.98 321.05v12h-12.92v-12h12.93m1-1h-14.93v14h14.93v-14ZM826.06 255.05v14h-13v-14h13m1-1h-15v16h15v-16ZM871.06 149.05v14h-13.07v-14h13.07m1-1h-15.07v16h15.07v-16ZM734.06 121.05v13h-13v-13h13m1-1h-15v15h15v-15ZM676.06 1.95v36h-15v-36h15m1-1h-17v38h17v-38Z" class="cls-3"/><path d="M676.06 25.05v12.9h-15v-12.9h15m1-1h-17v14.9h17v-14.9ZM446.06 284.05v19h-8v-19h8m1-1h-10v21h10v-21ZM386.06 299.05v14h-14v-14h14m1-1h-16v16h16v-16Z" class="cls-3"/><path d="M379.06 314.05v7h-7v-7h7m1-1h-9v9h9v-9ZM512.06 329.05v25h-6v-25h6m1-1h-8v27h8v-27ZM385.06 471.05v13h-12v-13h12m1-1h-14v15h14v-15ZM490.06 611.05v21h-14v-21h14m1-1h-16v23h16v-23ZM268.06 597.05v12h-14v-12h14m1-1h-16v14h16v-14ZM345.06 663.05v28h-13v-28h13m1-1h-15v30h15v-30ZM337.06 648.05v13h-5v-13h5m1-1h-7v15h7v-15ZM261.06 426.05v13h-14v-13h14m1-1h-16v15h16v-15ZM74.06 399.05v14h-12v-14h12m1-1h-14v16h14v-16ZM141.06 262.05v14h-13v-14h13m1-1h-15v16h15v-16ZM111.06 322.05v21h-5v-15h-15v-6h20m1-1h-22v8h15v15h7v-23ZM228.06 163.05v14h-13v-14h13m1-1h-15v16h15v-16ZM41.48 206.05h120.57v1H41.48z" class="cls-3"/><path d="M112.05 398.05v-54.69h-.99v54.69H73.61v1H112.05v-1z" class="cls-3"/><path d="m236.55 550.03 23.51-10.04 6.98-28.52-11.02-21.43-33.88-7.99-18.1 6.01-18 18.81 12.99 30.14 37.52 13.02z" class="cls-4"/><path d="M331.05 609.41h1v39.08h-1z" class="cls-3"/><path d="M641.55 1.09v13.74l19.2 15.37" class="cls-4"/><path d="M841.06 93.5h1v41.38h-1z" class="cls-3"/><path d="m787.12 148.16-30.74 42.77" class="cls-4"/><path d="M447.04 328.05v-24.39h-.98v25.39H505.84v-1h-58.8z" class="cls-3"/><path d="M447.54 328.55h-1v-24.86h-8.88c-13.44 7.09-23.17 21.43-23.17 37.59a42.54 42.54 0 0 0 85.08 0 45.33 45.33 0 0 0-1.82-12.73ZM771.53 338.5h9.5l4.55 4.11v7.05l-3.94 2.93h-10.21M665.48 457.02l11.09 33.61v9.47l-10.14 7.51h-5.36l-5.53-5.02v-2.5M676.57 495.45l-49.96 11.2M741 504.55h51.6l.94-19.01h-35.93l-7.05-1.99h-7.08l-3.13 2.69" class="cls-4"/></g><path id="Outlines" d="M1181 151v93h218v259l-46 46h-32v160h-189v7h48v111h-129v116H914v-49h-61l-176-85v-34.17h37V745h-1l-36-36V605H540c-29.74-3.38-34-34.12-34-34.12V486h60v-89h-19v-55h128v-78h241v-21l9-13 12-43.91L950.92 160l27.08-9h203M862 394h89v40h22v-7h-15v-52h54v15h22v-16h-15V242h-53v85H862v67m429-95h86v-15h-86v15m-172 0h113v56h8v37h-23v4h23v20h22v-76h-22v-56h-121v15M601 412h68v63h80v-92h80v-56H719v70H601v15m394 22h22v86h31v-36h129v-72c22-19 4-32 4-32v-15l7-9v-23h-98v94h-95v7m300-72h59v-3h-59v3m0 43h59v-15h-59v15M734 531v-15h-94v44h37v-22h89v52h33v-15h78V449h29v-29h-29v22h-86v89h-57m504-28h31v59h8v-92h85v-12h-124v45m-229.43 43H917v48h26v-23h52v212h90v-33l17-28.26V666l30-9 3.09-13.14L1148 637l14-20.12 13-13.88 3-8.19V591h23v-22h-18l-56-43h-2v-25h-8v45h-108.44M543 549h23v-18h-23v18m230 211h104v82h37v-74h31v-8h-54v-92h59.92v-34H784v112h-11v14m453-105h20v-20h-20v20m-307 48h5v-5h-5v5m0 30h5v-5h-5v5m263-583H977.84l-.17.05-27.08 9-.4.14-.19.36-14 26.09-.06.11v.11l-11.88 43.72-8.94 12.87-.19.27V263H674v78H546v57.1h19V485h-60v86a48.33 48.33 0 0 0 6 16.18A37.44 37.44 0 0 0 539.84 606H676v103.4l.31.3 36 36 .31.31h.38v27.74h-37v35.87l.6.29 176 85 .21.1H913v49h139v-116h129V715h-48v-5h189V550h30.5l.43.44.76-.74 46-46 .31-.31V243h-218v-93Zm-215 93.1h51V375h15v13.89h-19.89V374H957v54.1h15v4.9h-20v-40h-89v-64.94h104v-85Zm325 42h84v12.89h-84v-12.94Zm-172 0h119v56h22v73.89h-19.89V395h-23v-2h23v-39h-8v-56H1120v-12.9Zm-400 43h108V382h-80v92h-78v-63h-68v-12.9h118v-70Zm371 6h95.9v21.6l-6.76 8.74-.22.28v15.9l.44.31c.06.05 6.15 4.57 6.45 11.89.25 6-3.29 12.18-10.54 18.46l-.36.31V483H1047v36h-29v-86h-22v-4.9h95V334Zm205 26h57v.91h-57V360Zm0 31h57V404h-57v-13ZM878 421h27v27h-29v126h-78v15h-30.95v-52H676v22h-34.9v-41.95H733v15h59V443h86v-22Zm361 38h121.9v10h-85v92h-5.9v-59h-31v-43Zm-121 43h6v25h2.68l55.72 42.81.28.22H1200v19.89h-23v4.71l-2.83 7.81-12.9 13.7v.05l-.05.07-13.81 19.91-12.84 6.83-.42.22-.1.47-3 12.55-29.4 8.8-.75.23v56.23l-16.86 28-.15.25v32.24h-87.84V570h-54.13v22.94H918V547h200v-45Zm-574 30h21v16h-21v-16Zm241 103h164.87v32H890v94.12h54v5.86h-31v74h-35V759H774v-11.9h11v-112Zm442 1h18v18h-18v-17.9Zm-307 63h2.87v2.89H920V699Zm0 30h2.87v3H920v-3Z" style="fill:#656569" transform="translate(-504.94 -149.95)"/><g id="Callouts_copy" data-name="Callouts copy"><path d="M431.49 750.63a2.09 2.09 0 0 1 .13-.61l2.5-6.81a1.52 1.52 0 0 1 2.91 0l2.51 6.81a1.68 1.68 0 0 1 .12.61.89.89 0 0 1-1 .9c-.54 0-.82-.24-1-.84l-.48-1.45h-3.31l-.48 1.43c-.18.61-.47.86-1 .86a.88.88 0 0 1-.9-.9Zm5.29-2.87-1.21-3.71-1.18 3.75ZM440.72 746.05h-.36a.7.7 0 1 1 0-1.4h.36v-.76a.93.93 0 1 1 1.85 0v.76h.65a.7.7 0 1 1 0 1.4h-.65v3.25c0 .48.16.69.56.72h.13c.45 0 .7.24.7.67s-.53.83-1.31.83h-.07a1.63 1.63 0 0 1-1.86-1.82ZM445.34 746.05h-.36a.7.7 0 1 1 0-1.4h.36v-.76a.93.93 0 1 1 1.85 0v.76h.65a.7.7 0 1 1 0 1.4h-.65v3.25c0 .48.17.69.57.72h.12c.45 0 .7.24.7.67s-.53.83-1.31.83h-.07a1.64 1.64 0 0 1-1.86-1.82ZM449.13 749.46c0-1.24 1-2 2.66-2.06l1.71-.1v-.45c0-.63-.44-1-1.14-1a1.48 1.48 0 0 0-1.32.71 1 1 0 0 1-.74.35.72.72 0 0 1-.77-.71 1 1 0 0 1 .09-.42c.32-.82 1.41-1.32 2.82-1.32 1.75 0 2.88.9 2.88 2.28v3.87a.85.85 0 0 1-.9.94.82.82 0 0 1-.89-.83v-.35a2.34 2.34 0 0 1-2.08 1.15 2.11 2.11 0 0 1-2.32-2.06Zm4.37-.54v-.5l-1.43.09c-.7 0-1.09.36-1.09.85s.42.82 1 .82a1.36 1.36 0 0 0 1.52-1.26ZM456.27 748.05a3.21 3.21 0 0 1 3.34-3.55 3 3 0 0 1 2.87 1.63 1.36 1.36 0 0 1 .1.46.73.73 0 0 1-.8.72.82.82 0 0 1-.78-.48 1.44 1.44 0 0 0-1.34-.87c-.94 0-1.51.77-1.51 2.09s.57 2.1 1.5 2.1a1.45 1.45 0 0 0 1.33-.8.92.92 0 0 1 .85-.55.74.74 0 0 1 .78.74 1.25 1.25 0 0 1-.12.49 3.11 3.11 0 0 1-2.87 1.57 3.21 3.21 0 0 1-3.35-3.55ZM463.64 750.58v-7.53a.93.93 0 1 1 1.86 0v4.22l2.47-2.47a.94.94 0 0 1 .73-.37.8.8 0 0 1 .83.81.85.85 0 0 1-.35.69l-1.73 1.64 1.91 2.48a1 1 0 0 1 .26.68.82.82 0 0 1-.88.84c-.39 0-.61-.14-.91-.58l-1.77-2.33-.59.54v1.38a.93.93 0 1 1-1.86 0ZM470.06 748.05c0-2.19 1.28-3.58 3.29-3.58a3 3 0 0 1 3.22 3.17.73.73 0 0 1-.8.81h-3.89v.08a1.51 1.51 0 0 0 1.55 1.67 1.92 1.92 0 0 0 1.62-.82.78.78 0 0 1 .61-.27.67.67 0 0 1 .72.68 1 1 0 0 1-.12.45 3.09 3.09 0 0 1-2.82 1.33c-2.16-.01-3.38-1.32-3.38-3.52Zm4.73-.74a1.41 1.41 0 0 0-1.42-1.47 1.47 1.47 0 0 0-1.47 1.47ZM477.49 750.58v-5.18a.85.85 0 0 1 .9-.93.84.84 0 0 1 .88.93v.45a1.5 1.5 0 0 1 1.42-1.35.91.91 0 0 1 .58.17.85.85 0 0 1 .26.69.84.84 0 0 1-.26.66 1.24 1.24 0 0 1-.81.25c-.84 0-1.14.48-1.14 1.29v3a.93.93 0 1 1-1.86 0ZM484.83 749.81a1.55 1.55 0 0 1-.1-.52.8.8 0 0 1 .84-.84.92.92 0 0 1 .89.56 1.88 1.88 0 0 0 1.89 1c1 0 1.73-.49 1.73-1.16s-.44-.95-1.59-1.18l-1-.2c-1.82-.36-2.72-1.23-2.72-2.6 0-1.67 1.46-2.79 3.5-2.79 1.67 0 2.94.71 3.34 1.9a1.14 1.14 0 0 1 .07.43.75.75 0 0 1-.82.77 1 1 0 0 1-.91-.57 1.65 1.65 0 0 0-1.68-1c-1 0-1.58.45-1.58 1.12s.44.92 1.53 1.13l1 .2c1.94.38 2.78 1.17 2.78 2.56 0 1.79-1.4 2.92-3.69 2.92-1.9.03-3.11-.73-3.48-1.73ZM493 752.87v-7.45a.92.92 0 1 1 1.83 0v.37a2.22 2.22 0 0 1 2.11-1.3c1.72 0 2.78 1.31 2.78 3.51s-1.05 3.51-2.75 3.51a2.24 2.24 0 0 1-2.12-1.25v2.6a.93.93 0 1 1-1.85 0Zm4.86-4.86c0-1.23-.58-2-1.51-2s-1.5.8-1.5 2 .6 2 1.5 2 1.51-.76 1.51-1.96ZM500.45 749.46c0-1.24 1-2 2.65-2.06l1.71-.1v-.45c0-.63-.44-1-1.14-1a1.49 1.49 0 0 0-1.32.71.93.93 0 0 1-.73.35.72.72 0 0 1-.78-.71.9.9 0 0 1 .1-.42c.31-.82 1.41-1.32 2.81-1.32 1.75 0 2.89.9 2.89 2.28v3.87a.85.85 0 0 1-.91.94.81.81 0 0 1-.88-.83v-.35a2.34 2.34 0 0 1-2.08 1.15 2.1 2.1 0 0 1-2.32-2.06Zm4.36-.54v-.5l-1.43.09c-.69 0-1.09.36-1.09.85s.42.82 1 .82a1.35 1.35 0 0 0 1.52-1.26ZM508.91 750.58l-1.37-4.75a1.9 1.9 0 0 1-.1-.57.81.81 0 0 1 .89-.79.86.86 0 0 1 .87.79l1 4.4 1-4.34a1.06 1.06 0 0 1 2.08 0l1.06 4.34 1-4.42a.84.84 0 0 1 .85-.77.8.8 0 0 1 .88.79 1.89 1.89 0 0 1-.1.56l-1.37 4.75a1.14 1.14 0 0 1-1.19 1 1.09 1.09 0 0 1-1.2-1l-1-4-1 4a1.1 1.1 0 0 1-1.19 1c-.58-.02-.91-.32-1.11-.99ZM518.06 750.58v-5.18a.84.84 0 0 1 .89-.93.87.87 0 0 1 .93.94v.38a2.09 2.09 0 0 1 2.09-1.31 2.24 2.24 0 0 1 2.36 2.55v3.55a.93.93 0 1 1-1.85 0v-3.17c0-.88-.42-1.39-1.25-1.39a1.35 1.35 0 0 0-1.36 1.49v3.07a.93.93 0 1 1-1.85 0Z" class="cls-6"/><path d="M857.63 116.66v-5.51a.7.7 0 0 1 .74-.77h2c2.12 0 3.36 1.26 3.36 3.5s-1.24 3.55-3.36 3.55h-2a.69.69 0 0 1-.74-.77Zm2.52-.45c1.32 0 2-.8 2-2.32s-.73-2.29-2-2.29h-1v4.61ZM864.51 116.79v-4a.65.65 0 0 1 .69-.72.64.64 0 0 1 .67.72v.34a1.16 1.16 0 0 1 1.09-1 .64.64 0 0 1 .44.14.6.6 0 0 1 .21.52.64.64 0 0 1-.21.52 1 1 0 0 1-.62.18c-.65 0-.87.38-.87 1v2.32a.72.72 0 1 1-1.43 0ZM867.79 114.81a2.59 2.59 0 1 1 2.59 2.73 2.48 2.48 0 0 1-2.59-2.73Zm3.73 0c0-1-.45-1.64-1.14-1.64s-1.15.6-1.15 1.64.45 1.64 1.15 1.64 1.14-.59 1.14-1.64ZM873.7 118.55v-5.73a.71.71 0 1 1 1.41 0v.28a1.69 1.69 0 0 1 1.62-1c1.33 0 2.14 1 2.14 2.7s-.81 2.7-2.12 2.7a1.71 1.71 0 0 1-1.62-1v2a.67.67 0 0 1-.71.75.68.68 0 0 1-.72-.7Zm3.74-3.74c0-.94-.45-1.55-1.16-1.55s-1.16.62-1.16 1.55.46 1.56 1.16 1.56 1.16-.6 1.16-1.56ZM666.55 168.31a1.09 1.09 0 0 1-.07-.4.61.61 0 0 1 .64-.65.7.7 0 0 1 .68.43 1.46 1.46 0 0 0 1.46.79c.79 0 1.33-.39 1.33-.9s-.34-.73-1.22-.91l-.75-.15c-1.4-.28-2.09-1-2.09-2 0-1.29 1.12-2.14 2.69-2.14a2.49 2.49 0 0 1 2.57 1.46.79.79 0 0 1 .06.32.58.58 0 0 1-.63.59.73.73 0 0 1-.71-.43 1.27 1.27 0 0 0-1.29-.75c-.73 0-1.21.34-1.21.86s.34.7 1.17.87l.74.15c1.5.3 2.14.9 2.14 2 0 1.37-1.08 2.24-2.84 2.24-1.45-.03-2.38-.64-2.67-1.38ZM673.22 165.38h-.28a.5.5 0 0 1-.55-.53.51.51 0 0 1 .55-.54h.28v-.58a.71.71 0 1 1 1.42 0v.58h.51a.54.54 0 1 1 0 1.07h-.51v2.51c0 .37.13.53.44.55h.09c.35 0 .54.19.54.52s-.41.63-1 .63h-.05a1.25 1.25 0 0 1-1.43-1.39ZM676.14 168.05c0-.95.73-1.5 2-1.58l1.32-.08v-.34c0-.48-.34-.77-.88-.77a1.15 1.15 0 0 0-1 .55.69.69 0 0 1-.56.27.56.56 0 0 1-.6-.55.92.92 0 0 1 .07-.32 2.2 2.2 0 0 1 2.17-1c1.34 0 2.22.69 2.22 1.75v3a.65.65 0 0 1-.69.72.64.64 0 0 1-.69-.64v-.27a1.79 1.79 0 0 1-1.6.89 1.62 1.62 0 0 1-1.76-1.63Zm3.36-.41v-.39l-1.11.07c-.53 0-.83.28-.83.65s.32.64.8.64a1.06 1.06 0 0 0 1.14-.98ZM681.79 162.92a.73.73 0 0 1 .76-.73.74.74 0 0 1 .77.73.75.75 0 0 1-.77.74.74.74 0 0 1-.76-.74Zm0 6v-4a.68.68 0 0 1 .71-.75.69.69 0 0 1 .72.75v4a.68.68 0 0 1-.72.75.67.67 0 0 1-.66-.77ZM684.21 168.9v-4a.69.69 0 1 1 1.37 0v.34a1.14 1.14 0 0 1 1.08-1 .65.65 0 0 1 .45.13.62.62 0 0 1 .2.53.63.63 0 0 1-.2.51.92.92 0 0 1-.62.18c-.65 0-.88.38-.88 1v2.32a.67.67 0 0 1-.71.75.68.68 0 0 1-.69-.76ZM687.73 168.61a.85.85 0 0 1-.05-.26.54.54 0 0 1 .58-.55.81.81 0 0 1 .62.32 1.27 1.27 0 0 0 1.14.54c.52 0 .85-.22.85-.57s-.18-.43-.69-.54l-.88-.19c-1-.22-1.54-.74-1.54-1.52 0-1 .86-1.64 2.22-1.64a2 2 0 0 1 2 1.08.86.86 0 0 1 0 .21c0 .29-.18.49-.55.49a.69.69 0 0 1-.52-.22 1.22 1.22 0 0 0-1-.56c-.49 0-.82.23-.82.57s.2.45.72.56l.87.19c1.11.23 1.57.64 1.57 1.42 0 1-.93 1.72-2.31 1.72-1.16 0-1.96-.43-2.21-1.05ZM466.06 306.56v-3.88a.74.74 0 1 1 1.47 0v3.73a1.5 1.5 0 1 0 3 0v-3.73a.74.74 0 1 1 1.47 0v3.88c0 1.55-1.14 2.61-3 2.61s-2.94-1.06-2.94-2.61ZM472.98 310.17v-5.73a.67.67 0 0 1 .71-.73.66.66 0 0 1 .7.73v.29a1.69 1.69 0 0 1 1.62-1c1.33 0 2.14 1 2.14 2.7s-.81 2.7-2.12 2.7a1.71 1.71 0 0 1-1.62-1v2a.67.67 0 0 1-.71.74.67.67 0 0 1-.72-.7Zm3.74-3.74c0-.95-.45-1.56-1.16-1.56s-1.16.62-1.16 1.56.46 1.55 1.16 1.55 1.16-.6 1.16-1.55ZM478.92 310.17v-5.73a.7.7 0 1 1 1.4 0v.29a1.7 1.7 0 0 1 1.62-1c1.33 0 2.15 1 2.15 2.7s-.81 2.7-2.12 2.7a1.71 1.71 0 0 1-1.63-1v2a.71.71 0 1 1-1.42 0Zm3.74-3.74c0-.95-.45-1.56-1.17-1.56s-1.15.62-1.15 1.56.46 1.55 1.15 1.55 1.17-.6 1.17-1.55ZM484.66 306.46a2.47 2.47 0 0 1 2.53-2.76 2.35 2.35 0 0 1 2.48 2.44.57.57 0 0 1-.62.62h-3v.06a1.17 1.17 0 0 0 1.19 1.29 1.5 1.5 0 0 0 1.25-.63.57.57 0 0 1 .46-.21.51.51 0 0 1 .56.52.69.69 0 0 1-.1.35 2.34 2.34 0 0 1-2.16 1 2.43 2.43 0 0 1-2.59-2.68Zm3.64-.58a1.08 1.08 0 0 0-1.1-1.12 1.13 1.13 0 0 0-1.13 1.12ZM490.4 308.41v-4a.65.65 0 0 1 .69-.72.64.64 0 0 1 .67.72v.34a1.16 1.16 0 0 1 1.09-1 .7.7 0 0 1 .44.13.64.64 0 0 1 .21.53.61.61 0 0 1-.21.51 1 1 0 0 1-.62.19c-.64 0-.87.38-.87 1v2.32a.72.72 0 1 1-1.43 0ZM757.64 534.26v-5.62a.69.69 0 0 1 .74-.77h2.15c1.62 0 2.54.86 2.54 2.25a2 2 0 0 1-1.21 2l1 1.76a.94.94 0 0 1 .16.51.69.69 0 0 1-.75.67c-.35 0-.51-.12-.75-.55l-1.17-2.13h-1.26v1.92a.68.68 0 0 1-.73.76.69.69 0 0 1-.72-.8Zm2.74-3a1.05 1.05 0 0 0 1.18-1.12 1.08 1.08 0 0 0-1.19-1.12h-1.26v2.24ZM763.89 533.05v-2.73a.68.68 0 0 1 .72-.75.67.67 0 0 1 .71.75v2.43c0 .7.35 1.07 1 1.07a1 1 0 0 0 1-1.15v-2.35a.71.71 0 1 1 1.42 0v4a.69.69 0 1 1-1.37 0V534a1.56 1.56 0 0 1-1.57 1 1.8 1.8 0 0 1-1.91-1.95ZM769.72 534.3v-5.79a.71.71 0 1 1 1.42 0v2.08a1.71 1.71 0 0 1 1.62-1c1.32 0 2.13 1 2.13 2.7s-.81 2.7-2.13 2.7a1.72 1.72 0 0 1-1.64-1v.28a.66.66 0 0 1-.71.72.64.64 0 0 1-.69-.69Zm3.74-2c0-1-.45-1.55-1.16-1.55s-1.16.62-1.16 1.55.47 1.56 1.16 1.56 1.16-.6 1.16-1.56ZM775.69 534.3v-5.79a.71.71 0 1 1 1.42 0v2.08a1.72 1.72 0 0 1 1.62-1c1.32 0 2.13 1 2.13 2.7s-.8 2.7-2.13 2.7a1.74 1.74 0 0 1-1.64-1v.28a.7.7 0 1 1-1.4 0Zm3.74-2c0-1-.45-1.55-1.16-1.55s-1.16.62-1.16 1.55.47 1.56 1.16 1.56 1.16-.6 1.16-1.56ZM781.66 534.28v-5.77a.71.71 0 1 1 1.42 0v5.77a.71.71 0 1 1-1.42 0ZM783.86 532.33a2.47 2.47 0 0 1 2.53-2.76 2.35 2.35 0 0 1 2.48 2.44.56.56 0 0 1-.62.62h-3v.06a1.17 1.17 0 0 0 1.19 1.29 1.5 1.5 0 0 0 1.25-.63.57.57 0 0 1 .46-.21.51.51 0 0 1 .56.52.69.69 0 0 1-.1.35 2.37 2.37 0 0 1-2.17 1 2.43 2.43 0 0 1-2.58-2.68Zm3.63-.57a1.08 1.08 0 0 0-1.09-1.13 1.13 1.13 0 0 0-1.13 1.13ZM564.23 367.5a1.65 1.65 0 0 1 .1-.47l1.92-5.24a1.17 1.17 0 0 1 2.24 0l1.93 5.24a1.28 1.28 0 0 1 .1.47.69.69 0 0 1-.74.69c-.42 0-.64-.19-.77-.65l-.37-1.11h-2.58l-.37 1.1c-.14.47-.36.66-.75.66a.67.67 0 0 1-.71-.69Zm4.07-2.21-.93-2.89-.91 2.89ZM573.39 367.33v-5.6a.74.74 0 1 1 1.47 0v5.15h2.5a.61.61 0 1 1 0 1.22h-3.23a.69.69 0 0 1-.74-.77ZM578.67 361.48a.76.76 0 1 1 .76.74.74.74 0 0 1-.76-.74Zm.05 6v-3.95a.67.67 0 0 1 .71-.75.68.68 0 0 1 .72.75v3.95a.67.67 0 0 1-.72.74.67.67 0 0 1-.71-.76ZM581.06 367.46v-4a.65.65 0 0 1 .69-.72.66.66 0 0 1 .71.72v.29a1.62 1.62 0 0 1 1.62-1 1.72 1.72 0 0 1 1.81 2v2.73a.71.71 0 1 1-1.42 0v-2.43c0-.68-.33-1.07-1-1.07a1 1 0 0 0-1 1.15v2.36a.67.67 0 0 1-.71.74.67.67 0 0 1-.7-.77ZM586.89 367.46v-5.77a.71.71 0 1 1 1.42 0v3.25l1.9-1.9a.73.73 0 0 1 .57-.28.61.61 0 0 1 .63.62.65.65 0 0 1-.27.54l-1.33 1.26 1.46 1.86a.8.8 0 0 1 .2.52.63.63 0 0 1-.68.64c-.3 0-.47-.1-.7-.44l-1.34-1.78-.46.42v1.06a.71.71 0 1 1-1.42 0ZM648.61 491.38v-5.62a.69.69 0 0 1 .74-.76h2.15c1.62 0 2.55.85 2.55 2.24a2 2 0 0 1-1.21 2l1 1.76a.86.86 0 0 1 .16.51.68.68 0 0 1-.74.67c-.35 0-.51-.12-.75-.55l-1.18-2.13h-1.27v1.92a.74.74 0 1 1-1.48 0Zm2.75-3a1.06 1.06 0 0 0 1.18-1.12 1.08 1.08 0 0 0-1.2-1.12h-1.28v2.24ZM654.65 489.42a2.6 2.6 0 1 1 2.6 2.73 2.48 2.48 0 0 1-2.6-2.73Zm3.74 0c0-1-.45-1.64-1.14-1.64s-1.15.6-1.15 1.64.44 1.64 1.15 1.64 1.14-.59 1.14-1.64ZM660.38 489.42a2.6 2.6 0 1 1 2.6 2.73 2.48 2.48 0 0 1-2.6-2.73Zm3.74 0c0-1-.45-1.64-1.14-1.64s-1.15.6-1.15 1.64.44 1.64 1.15 1.64 1.14-.59 1.14-1.64ZM666.68 487.88h-.27a.54.54 0 1 1 0-1.07h.27v-.58a.72.72 0 1 1 1.43 0v.58h.5a.54.54 0 1 1 0 1.07h-.5v2.51c0 .37.12.52.43.55h.09c.36 0 .55.18.55.52s-.41.63-1 .63a1.26 1.26 0 0 1-1.44-1.4ZM683.36 379.26a1.37 1.37 0 0 1 .1-.47l1.92-5.24a1.17 1.17 0 0 1 2.24 0l1.93 5.24a1.29 1.29 0 0 1 .09.47.69.69 0 0 1-.73.7c-.42 0-.64-.19-.77-.65l-.37-1.12h-2.54l-.38 1.1c-.13.47-.35.67-.74.67a.68.68 0 0 1-.75-.7Zm4.07-2.21-.93-2.88-.91 2.88ZM692.52 379.27v-5.6a.87.87 0 0 1 1-1 1 1 0 0 1 1 .76l1.75 4.33 1.74-4.33a1 1 0 0 1 1-.76.87.87 0 0 1 1 1v5.6a.66.66 0 1 1-1.32 0v-4.16l-1.74 4.26a.63.63 0 0 1-.63.45.63.63 0 0 1-.64-.44l-1.74-4.27v4.16a.66.66 0 1 1-1.31 0ZM700.71 378.36c0-.95.74-1.5 2-1.58l1.31-.08v-.35c0-.49-.34-.77-.88-.77a1.14 1.14 0 0 0-1 .55.72.72 0 0 1-.57.27.55.55 0 0 1-.59-.55.71.71 0 0 1 .07-.32c.24-.63 1.08-1 2.17-1 1.34 0 2.22.69 2.22 1.74v3a.66.66 0 0 1-.7.72.63.63 0 0 1-.68-.64v-.3a1.81 1.81 0 0 1-1.6.89 1.63 1.63 0 0 1-1.75-1.58Zm3.36-.42v-.38l-1.1.07c-.53 0-.83.28-.83.65s.32.64.8.64a1 1 0 0 0 1.12-.98ZM706.37 373.24a.76.76 0 0 1 1.52 0 .76.76 0 0 1-1.52 0Zm0 6v-3.95a.71.71 0 1 1 1.42 0v3.95a.71.71 0 1 1-1.42 0ZM708.79 379.22v-4a.65.65 0 0 1 .69-.72.67.67 0 0 1 .71.72v.3a1.61 1.61 0 0 1 1.61-1 1.73 1.73 0 0 1 1.82 2v2.73a.72.72 0 1 1-1.43 0v-2.43c0-.69-.32-1.08-1-1.08a1 1 0 0 0-1 1.15v2.36a.72.72 0 1 1-1.43 0ZM813.19 361.53v-5.15h-1.46a.62.62 0 1 1 0-1.23h4.39a.62.62 0 1 1 0 1.23h-1.46v5.15a.74.74 0 1 1-1.47 0ZM816.74 361.56v-4a.65.65 0 0 1 .69-.72.64.64 0 0 1 .67.72v.34a1.16 1.16 0 0 1 1.09-1 .64.64 0 0 1 .44.14.6.6 0 0 1 .21.52.64.64 0 0 1-.21.52 1 1 0 0 1-.62.18c-.65 0-.88.38-.88 1v2.32a.71.71 0 1 1-1.42 0ZM820.06 359.61a2.47 2.47 0 0 1 2.52-2.76 2.35 2.35 0 0 1 2.48 2.44.56.56 0 0 1-.62.62h-3v.06a1.17 1.17 0 0 0 1.19 1.29 1.5 1.5 0 0 0 1.25-.63.57.57 0 0 1 .46-.21.51.51 0 0 1 .56.52.81.81 0 0 1-.1.35 2.37 2.37 0 0 1-2.17 1 2.43 2.43 0 0 1-2.57-2.68Zm3.63-.57a1.08 1.08 0 0 0-1.09-1.13 1.13 1.13 0 0 0-1.13 1.13ZM825.57 359.61a2.47 2.47 0 0 1 2.53-2.76 2.35 2.35 0 0 1 2.48 2.44.56.56 0 0 1-.62.62h-3v.06a1.17 1.17 0 0 0 1.19 1.29 1.5 1.5 0 0 0 1.25-.63.57.57 0 0 1 .46-.21.51.51 0 0 1 .56.52.69.69 0 0 1-.1.35 2.35 2.35 0 0 1-2.17 1 2.43 2.43 0 0 1-2.58-2.68Zm3.63-.57a1.07 1.07 0 0 0-1.09-1.13 1.13 1.13 0 0 0-1.13 1.13Z" class="cls-7"/><path d="M505.82 53.24v-7.19a.9.9 0 0 1 1-1h2.54c2.75 0 4.37 1.64 4.37 4.55s-1.62 4.61-4.37 4.61h-2.54a.9.9 0 0 1-1-.97Zm3.27-.59c1.71 0 2.64-1 2.64-3s-.95-3-2.64-3h-1.35v6ZM514.51 50.87c0-2.19 1.28-3.58 3.29-3.58a3 3 0 0 1 3.22 3.17.73.73 0 0 1-.8.8h-3.89v.08a1.51 1.51 0 0 0 1.55 1.67 1.93 1.93 0 0 0 1.63-.81.73.73 0 0 1 .6-.28.67.67 0 0 1 .72.68 1 1 0 0 1-.12.45 3.07 3.07 0 0 1-2.82 1.34 3.17 3.17 0 0 1-3.38-3.52Zm4.73-.74a1.41 1.41 0 0 0-1.42-1.47 1.48 1.48 0 0 0-1.47 1.47ZM522.47 53.41v-4.58h-.35a.68.68 0 1 1 0-1.36h.35v-.52a1.71 1.71 0 0 1 1.94-2c1 0 1.4.31 1.4.75a.48.48 0 0 1-.37.49l-.36.05c-.57 0-.8.24-.8.75v.43h.78a.68.68 0 1 1 0 1.36h-.74v4.58a.93.93 0 1 1-1.85 0ZM526.17 50.87c0-2.19 1.27-3.58 3.28-3.58a3.06 3.06 0 0 1 3.23 3.17.73.73 0 0 1-.81.8h-3.88v.08a1.51 1.51 0 0 0 1.55 1.67 1.91 1.91 0 0 0 1.62-.81.74.74 0 0 1 .6-.28.68.68 0 0 1 .73.68 1 1 0 0 1-.13.45 3.06 3.06 0 0 1-2.82 1.34c-2.12 0-3.37-1.34-3.37-3.52Zm4.72-.74a1.4 1.4 0 0 0-1.42-1.47 1.46 1.46 0 0 0-1.46 1.47ZM533.63 53.41v-5.18a.84.84 0 0 1 .9-.93.86.86 0 0 1 .92.93v.39a2.08 2.08 0 0 1 2.1-1.31 2.24 2.24 0 0 1 2.36 2.54v3.56a.93.93 0 1 1-1.86 0v-3.17c0-.89-.42-1.4-1.25-1.4a1.35 1.35 0 0 0-1.36 1.5v3.07a.93.93 0 1 1-1.85 0ZM540.87 50.82c0-2.15 1.08-3.49 2.79-3.49a2.2 2.2 0 0 1 2.08 1.27v-2.69a.93.93 0 1 1 1.86 0v7.52a.86.86 0 0 1-.92.94.87.87 0 0 1-.94-.94v-.38a2.14 2.14 0 0 1-2.09 1.31c-1.7-.01-2.78-1.31-2.78-3.54Zm4.92 0c0-1.24-.59-2-1.51-2s-1.51.78-1.51 2 .57 2 1.51 2 1.51-.77 1.51-1.98ZM548.62 50.87c0-2.19 1.27-3.58 3.29-3.58a3 3 0 0 1 3.22 3.17.73.73 0 0 1-.81.8h-3.88v.08a1.51 1.51 0 0 0 1.55 1.67 1.91 1.91 0 0 0 1.62-.81.76.76 0 0 1 .61-.28.67.67 0 0 1 .72.68 1 1 0 0 1-.13.45 3.06 3.06 0 0 1-2.82 1.34c-2.12 0-3.37-1.34-3.37-3.52Zm4.73-.74a1.41 1.41 0 0 0-1.43-1.47 1.46 1.46 0 0 0-1.46 1.47ZM556.06 53.41v-5.18a.85.85 0 0 1 .9-.93.84.84 0 0 1 .87.93v.44a1.5 1.5 0 0 1 1.42-1.34.83.83 0 0 1 .57.17 1 1 0 0 1 0 1.35 1.19 1.19 0 0 1-.8.24c-.85 0-1.14.49-1.14 1.3v3a.93.93 0 1 1-1.86 0ZM563.42 52.63a1.49 1.49 0 0 1-.1-.51.8.8 0 0 1 .84-.84.93.93 0 0 1 .89.55 1.88 1.88 0 0 0 1.89 1c1 0 1.72-.5 1.72-1.17s-.43-.94-1.58-1.18l-1-.19c-1.83-.36-2.72-1.24-2.72-2.6 0-1.68 1.46-2.79 3.5-2.79 1.67 0 2.93.71 3.34 1.9a1.12 1.12 0 0 1 .07.42.75.75 0 0 1-.82.77.93.93 0 0 1-.91-.56 1.67 1.67 0 0 0-1.68-1c-.95 0-1.58.44-1.58 1.12s.44.91 1.53 1.13l1 .19c1.94.39 2.78 1.17 2.78 2.56 0 1.79-1.4 2.92-3.69 2.92-1.9.04-3.11-.71-3.48-1.72ZM571.59 55.7v-7.45a.92.92 0 1 1 1.83 0v.37a2.2 2.2 0 0 1 2.1-1.29c1.73 0 2.79 1.31 2.79 3.51s-1 3.51-2.75 3.51a2.22 2.22 0 0 1-2.12-1.25v2.6a.93.93 0 1 1-1.85 0Zm4.86-4.86c0-1.23-.58-2-1.51-2s-1.5.81-1.5 2 .59 2 1.5 2 1.51-.79 1.51-2ZM579.06 52.28c0-1.23 1-1.95 2.65-2l1.71-.1v-.45c0-.64-.44-1-1.14-1a1.49 1.49 0 0 0-1.32.72.93.93 0 0 1-.74.34.71.71 0 0 1-.77-.71 1.06 1.06 0 0 1 .09-.42c.32-.81 1.41-1.31 2.82-1.31 1.75 0 2.88.9 2.88 2.27v3.88a.84.84 0 0 1-.9.93.82.82 0 0 1-.89-.82v-.35a2.37 2.37 0 0 1-2.09 1.15 2.1 2.1 0 0 1-2.3-2.13Zm4.36-.53v-.5l-1.43.09c-.69.05-1.09.36-1.09.84s.42.83 1 .83a1.36 1.36 0 0 0 1.5-1.26ZM587.5 53.4l-1.37-4.74a2 2 0 0 1-.11-.57.82.82 0 0 1 .9-.79.86.86 0 0 1 .87.78l1 4.4 1-4.33a1.06 1.06 0 0 1 2.08 0l1.06 4.33 1-4.41a.84.84 0 0 1 .85-.77.8.8 0 0 1 .88.78 2 2 0 0 1-.1.57l-1.37 4.75a1.13 1.13 0 0 1-1.19 1 1.09 1.09 0 0 1-1.2-1l-1-4-1 4a1.1 1.1 0 0 1-1.19 1 1.11 1.11 0 0 1-1.11-1ZM596.66 53.41v-5.18a.84.84 0 0 1 .89-.93.87.87 0 0 1 .93.93v.39a2.07 2.07 0 0 1 2.09-1.31 2.24 2.24 0 0 1 2.36 2.54v3.56a.93.93 0 1 1-1.85 0v-3.17c0-.89-.42-1.4-1.25-1.4a1.35 1.35 0 0 0-1.36 1.5v3.07a.93.93 0 1 1-1.85 0Z" class="cls-8"/><path d="m192.14 349.31-1.47-5.33a2.06 2.06 0 0 1-.08-.49.65.65 0 0 1 .73-.67.69.69 0 0 1 .71.64l1 4.56 1.19-4.54a.72.72 0 0 1 .76-.66.73.73 0 0 1 .75.65l1.18 4.55 1.06-4.56a.69.69 0 0 1 .71-.64.65.65 0 0 1 .73.67 2.14 2.14 0 0 1-.08.49l-1.47 5.34c-.15.51-.4.74-.86.74s-.73-.22-.87-.75l-1.07-4.16-1.17 4.16c-.14.52-.4.75-.86.75s-.74-.23-.89-.75ZM199.49 348.46c0-1 .73-1.5 2-1.58l1.32-.08v-.34c0-.49-.34-.78-.88-.78a1.17 1.17 0 0 0-1 .56.71.71 0 0 1-.56.26.55.55 0 0 1-.6-.55.76.76 0 0 1 .08-.32 2.2 2.2 0 0 1 2.16-1c1.35 0 2.22.69 2.22 1.75v3a.65.65 0 0 1-.69.72.64.64 0 0 1-.69-.64v-.26a1.81 1.81 0 0 1-1.6.88 1.62 1.62 0 0 1-1.76-1.62Zm3.36-.41v-.38l-1.1.07c-.54 0-.84.27-.84.64s.32.64.8.64a1 1 0 0 0 1.14-.97ZM205.55 345.81h-.27a.54.54 0 1 1 0-1.08h.27v-.58a.72.72 0 1 1 1.43 0v.58h.5a.54.54 0 1 1 0 1.08h-.5v2.5c0 .37.12.53.43.55h.09c.35 0 .54.19.54.52s-.41.64-1 .64h-.05a1.26 1.26 0 0 1-1.43-1.4ZM208.46 347.37a2.47 2.47 0 0 1 2.53-2.75 2.35 2.35 0 0 1 2.48 2.44.57.57 0 0 1-.62.62h-3v.06a1.16 1.16 0 0 0 1.21 1.31 1.47 1.47 0 0 0 1.25-.63.6.6 0 0 1 .47-.21.52.52 0 0 1 .55.53.72.72 0 0 1-.09.34 2.35 2.35 0 0 1-2.17 1 2.43 2.43 0 0 1-2.61-2.71Zm3.64-.57a1.09 1.09 0 0 0-1.1-1.13 1.12 1.12 0 0 0-1.12 1.13ZM214.2 349.33v-4a.66.66 0 0 1 .69-.72.65.65 0 0 1 .67.72v.34a1.15 1.15 0 0 1 1.09-1 .69.69 0 0 1 .45.13.65.65 0 0 1 .2.53.66.66 0 0 1-.2.51 1 1 0 0 1-.62.19c-.65 0-.88.37-.88 1v2.33a.72.72 0 1 1-1.43 0ZM218.24 349.33v-3.52h-.27a.53.53 0 0 1 0-1.05h.27v-.4a1.32 1.32 0 0 1 1.5-1.5c.76 0 1.07.24 1.07.57a.36.36 0 0 1-.29.38h-.27c-.44 0-.61.19-.61.57v.34h.6a.53.53 0 0 1 0 1.05h-.57v3.52a.72.72 0 1 1-1.43 0ZM220.95 348.46c0-1 .73-1.5 2-1.58l1.32-.08v-.34c0-.49-.34-.78-.88-.78a1.17 1.17 0 0 0-1 .56.71.71 0 0 1-.56.26.55.55 0 0 1-.6-.55.76.76 0 0 1 .08-.32 2.2 2.2 0 0 1 2.16-1c1.35 0 2.22.69 2.22 1.75v3a.65.65 0 0 1-.69.72.64.64 0 0 1-.69-.64v-.26a1.81 1.81 0 0 1-1.6.88 1.62 1.62 0 0 1-1.76-1.62Zm3.36-.41v-.38l-1.1.07c-.54 0-.84.27-.84.64s.32.64.8.64a1 1 0 0 0 1.14-.97ZM226.66 349.33v-5.77a.68.68 0 0 1 .72-.75.67.67 0 0 1 .71.75v5.77a.67.67 0 0 1-.71.74.67.67 0 0 1-.72-.74ZM229.06 349.33v-5.77a.68.68 0 0 1 .72-.75.67.67 0 0 1 .71.75v5.77a.67.67 0 0 1-.71.74.67.67 0 0 1-.72-.74ZM22.38 431.78v-5.51a.68.68 0 0 1 .73-.76h3.35a.59.59 0 0 1 .67.61.6.6 0 0 1-.67.61h-2.61v1.69h2.49a.55.55 0 0 1 .61.57.54.54 0 0 1-.61.56h-2.49v1.78h2.61a.61.61 0 1 1 0 1.22h-3.35a.68.68 0 0 1-.73-.77ZM28.06 431.91v-5.77a.72.72 0 1 1 1.43 0v5.77a.72.72 0 1 1-1.43 0ZM30.44 431.93v-5.79a.68.68 0 0 1 .72-.74.67.67 0 0 1 .71.74v2.08a1.71 1.71 0 0 1 1.62-1c1.32 0 2.12 1 2.12 2.7s-.8 2.7-2.12 2.7a1.72 1.72 0 0 1-1.64-1v.28a.66.66 0 0 1-.71.72.65.65 0 0 1-.7-.69Zm3.74-2c0-1-.44-1.55-1.15-1.55s-1.17.62-1.17 1.55.48 1.56 1.17 1.56 1.15-.6 1.15-1.56ZM36.19 429.93a2.6 2.6 0 1 1 2.59 2.73 2.48 2.48 0 0 1-2.59-2.73Zm3.74 0c0-1-.45-1.64-1.15-1.64s-1.14.6-1.14 1.64.44 1.64 1.14 1.64 1.15-.59 1.15-1.64ZM42.91 431.91l-1.05-3.65a1.65 1.65 0 0 1-.08-.44.63.63 0 0 1 .69-.61.65.65 0 0 1 .67.6l.78 3.39.82-3.34a.82.82 0 0 1 1.6 0l.81 3.34.78-3.4a.65.65 0 0 1 .66-.59.62.62 0 0 1 .68.6 1.65 1.65 0 0 1-.08.44l-1.06 3.65a.86.86 0 0 1-.91.75.83.83 0 0 1-.92-.75l-.8-3.05-.79 3.06a.83.83 0 0 1-.91.74c-.48 0-.74-.23-.89-.74ZM135.14 228.15v-5.7a.74.74 0 1 1 1.48 0v2.19h3.17v-2.19a.74.74 0 1 1 1.47 0v5.7a.74.74 0 1 1-1.47 0v-2.3h-3.17v2.3a.74.74 0 1 1-1.48 0ZM142 227.32c0-1 .73-1.51 2-1.58l1.32-.08v-.35c0-.49-.34-.77-.88-.77a1.13 1.13 0 0 0-1 .55.71.71 0 0 1-.57.26.55.55 0 0 1-.6-.54.72.72 0 0 1 .08-.32 2.18 2.18 0 0 1 2.16-1c1.35 0 2.22.7 2.22 1.75v3a.65.65 0 0 1-.69.71.63.63 0 0 1-.69-.63v-.27a1.81 1.81 0 0 1-1.61.88 1.62 1.62 0 0 1-1.74-1.61Zm3.36-.42v-.38l-1.1.07c-.54 0-.84.28-.84.65s.32.63.8.63a1 1 0 0 0 1.14-.97ZM147.71 228.18v-5.77a.68.68 0 0 1 .72-.74.67.67 0 0 1 .71.74v5.77a.67.67 0 0 1-.71.74.67.67 0 0 1-.72-.74ZM150.14 228.18v-5.77a.71.71 0 1 1 1.42 0v5.77a.71.71 0 1 1-1.42 0ZM237.75 651.05c0-2.28 1.3-3.65 3.32-3.65a3 3 0 0 1 2.83 1.6 1.32 1.32 0 0 1 .14.56.6.6 0 0 1-.65.63.72.72 0 0 1-.7-.49 1.68 1.68 0 0 0-1.6-1.08c-1.11 0-1.83.94-1.83 2.42s.71 2.43 1.83 2.43a1.66 1.66 0 0 0 1.62-1 .69.69 0 0 1 1.34.19 1.28 1.28 0 0 1-.11.49 2.94 2.94 0 0 1-2.83 1.58c-2.05-.04-3.36-1.41-3.36-3.68ZM247.06 653.8v-5.6a.74.74 0 1 1 1.48 0v5.15h2.52a.61.61 0 1 1 0 1.22h-3.24a.69.69 0 0 1-.76-.77ZM252.12 651.95a2.59 2.59 0 1 1 2.59 2.73 2.48 2.48 0 0 1-2.59-2.73Zm3.73 0c0-1-.45-1.64-1.14-1.64s-1.15.6-1.15 1.64.45 1.64 1.15 1.64 1.14-.54 1.14-1.64ZM258.06 653.95v-5.79a.72.72 0 1 1 1.43 0v2.08a1.69 1.69 0 0 1 1.61-1c1.33 0 2.13 1 2.13 2.7s-.8 2.7-2.12 2.7a1.72 1.72 0 0 1-1.64-1v.28a.66.66 0 0 1-.71.72.65.65 0 0 1-.7-.69Zm3.74-2c0-.95-.44-1.55-1.15-1.55s-1.17.62-1.17 1.55.48 1.56 1.17 1.56 1.16-.6 1.16-1.56ZM264.06 653.95v-5.79a.68.68 0 0 1 .72-.74.67.67 0 0 1 .71.74v2.08a1.7 1.7 0 0 1 1.61-1c1.33 0 2.13 1 2.13 2.7s-.8 2.7-2.12 2.7a1.72 1.72 0 0 1-1.64-1v.28a.66.66 0 0 1-.71.72.65.65 0 0 1-.7-.69Zm3.74-2c0-.95-.44-1.55-1.15-1.55s-1.17.62-1.17 1.55.48 1.56 1.17 1.56 1.13-.6 1.13-1.56ZM269.78 655.84a.46.46 0 0 1 .53-.47h.25a.72.72 0 0 0 .68-.48l.08-.18-1.67-4.41a1.14 1.14 0 0 1-.09-.42.69.69 0 0 1 .74-.66c.38 0 .57.16.69.57l1.14 3.63 1.14-3.63c.12-.4.32-.57.69-.57a.64.64 0 0 1 .69.64 1.3 1.3 0 0 1-.08.42l-1.6 4.37c-.49 1.35-1.1 1.85-2.24 1.85-.61.01-.95-.23-.95-.66ZM170.99 431.18c0-2.27 1.29-3.64 3.32-3.64a3 3 0 0 1 2.82 1.6 1.2 1.2 0 0 1 .15.55.61.61 0 0 1-.65.64.72.72 0 0 1-.71-.49 1.68 1.68 0 0 0-1.6-1.08c-1.11 0-1.83.93-1.83 2.42s.71 2.43 1.84 2.43a1.65 1.65 0 0 0 1.61-1 .65.65 0 0 1 .65-.47.64.64 0 0 1 .69.66 1.28 1.28 0 0 1-.11.49 2.93 2.93 0 0 1-2.82 1.58c-2.09-.04-3.36-1.41-3.36-3.69ZM180.31 434.11v-5.59a.87.87 0 0 1 1-1 1 1 0 0 1 1 .76l1.75 4.33 1.74-4.33a1 1 0 0 1 1-.76.87.87 0 0 1 1 1v5.59a.62.62 0 0 1-.66.69.61.61 0 0 1-.65-.69v-4.16l-1.75 4.27a.62.62 0 0 1-.63.45.65.65 0 0 1-.64-.45l-1.74-4.27v4.16a.66.66 0 1 1-1.31 0ZM188.51 433.21c0-1 .73-1.51 2-1.59l1.32-.07v-.35c0-.49-.35-.77-.88-.77a1.15 1.15 0 0 0-1 .55.75.75 0 0 1-.57.26.54.54 0 0 1-.59-.54.75.75 0 0 1 .07-.33 2.22 2.22 0 0 1 2.17-1c1.34 0 2.22.7 2.22 1.75v3a.65.65 0 0 1-.7.72.63.63 0 0 1-.68-.63v-.27a1.8 1.8 0 0 1-1.6.88 1.61 1.61 0 0 1-1.76-1.61Zm3.36-.42v-.38l-1.11.07c-.53 0-.83.28-.83.65s.32.63.8.63a1 1 0 0 0 1.14-.97ZM194.16 428.05a.76.76 0 1 1 .76.74.74.74 0 0 1-.76-.74Zm0 6v-4a.71.71 0 1 1 1.42 0v4a.71.71 0 1 1-1.42 0ZM196.58 434.05v-4a.65.65 0 0 1 .69-.72.66.66 0 0 1 .71.72v.29a1.6 1.6 0 0 1 1.61-1 1.72 1.72 0 0 1 1.82 2v2.71a.72.72 0 1 1-1.43 0v-2.44c0-.68-.32-1.07-1-1.07a1 1 0 0 0-1 1.15v2.36a.72.72 0 1 1-1.43 0ZM327.45 146.5c0-2.26 1.29-3.63 3.36-3.63a3 3 0 0 1 2.81 1.5 1 1 0 0 1 .1.46.61.61 0 0 1-.64.63.77.77 0 0 1-.71-.43 1.66 1.66 0 0 0-1.56-.93c-1.16 0-1.86.88-1.86 2.38s.75 2.46 1.92 2.46a1.52 1.52 0 0 0 1.66-1.47v-.11h-1a.53.53 0 0 1-.59-.54.52.52 0 0 1 .59-.53h1.72a.69.69 0 0 1 .74.76v.11a2.85 2.85 0 0 1-3.13 3c-2.12 0-3.41-1.37-3.41-3.66ZM334.82 149.4v-4a.65.65 0 0 1 .69-.72.64.64 0 0 1 .67.72v.34a1.15 1.15 0 0 1 1.09-1 .64.64 0 0 1 .44.13.6.6 0 0 1 .21.52.64.64 0 0 1-.21.52 1 1 0 0 1-.62.18c-.65 0-.88.38-.88 1v2.32a.71.71 0 1 1-1.42 0ZM338.13 148.54c0-.95.73-1.51 2-1.58l1.32-.08v-.35c0-.49-.34-.77-.88-.77a1.15 1.15 0 0 0-1 .55.69.69 0 0 1-.56.27.56.56 0 0 1-.6-.55.88.88 0 0 1 .07-.32 2.2 2.2 0 0 1 2.17-1c1.34 0 2.22.69 2.22 1.74v3a.65.65 0 0 1-.69.72.64.64 0 0 1-.69-.64v-.27a1.79 1.79 0 0 1-1.6.89 1.62 1.62 0 0 1-1.76-1.61Zm3.36-.42v-.38l-1.11.07c-.53 0-.83.28-.83.65s.32.64.8.64a1.06 1.06 0 0 0 1.14-.98ZM344.95 149.42l-1.36-3.65a1.22 1.22 0 0 1-.08-.43.65.65 0 0 1 .71-.64.68.68 0 0 1 .69.57l1 3.51 1.06-3.52a.69.69 0 0 1 1.37.08 1.42 1.42 0 0 1-.08.4l-1.36 3.68a1.07 1.07 0 0 1-2 0ZM348.72 147.45a2.47 2.47 0 0 1 2.53-2.75 2.34 2.34 0 0 1 2.48 2.43.56.56 0 0 1-.62.62h-3v.07a1.17 1.17 0 0 0 1.2 1.28 1.5 1.5 0 0 0 1.25-.63.56.56 0 0 1 .46-.21.52.52 0 0 1 .56.52.78.78 0 0 1-.1.35 2.37 2.37 0 0 1-2.17 1 2.44 2.44 0 0 1-2.59-2.68Zm3.64-.57a1.08 1.08 0 0 0-1.09-1.13 1.13 1.13 0 0 0-1.13 1.13ZM354.5 149.4v-5.76a.72.72 0 1 1 1.43 0v5.76a.72.72 0 1 1-1.43 0ZM285.7 262.26c0-2.27 1.29-3.65 3.32-3.65a2.94 2.94 0 0 1 2.82 1.61 1.14 1.14 0 0 1 .15.55.6.6 0 0 1-.65.63.7.7 0 0 1-.7-.49 1.7 1.7 0 0 0-1.6-1.07c-1.12 0-1.84.93-1.84 2.41s.71 2.43 1.84 2.43a1.65 1.65 0 0 0 1.62-1 .64.64 0 0 1 .65-.46.63.63 0 0 1 .68.65 1.09 1.09 0 0 1-.11.49 2.93 2.93 0 0 1-2.82 1.58c-2.09-.04-3.36-1.41-3.36-3.68ZM295.06 265.05v-5.6a.74.74 0 1 1 1.48 0v5.15h2.5a.61.61 0 1 1 0 1.22h-3.28a.69.69 0 0 1-.7-.77ZM300.3 259.16a.75.75 0 0 1 .77-.74.74.74 0 1 1 0 1.48.75.75 0 0 1-.77-.74Zm0 6v-3.95a.72.72 0 1 1 1.43 0v3.95a.72.72 0 1 1-1.43 0ZM302.73 265.14v-4a.65.65 0 0 1 .68-.72.67.67 0 0 1 .72.72v.3a1.6 1.6 0 0 1 1.61-1 1.72 1.72 0 0 1 1.81 2v2.73a.71.71 0 1 1-1.42 0v-2.43c0-.69-.32-1.08-1-1.08a1 1 0 0 0-1 1.15v2.36a.71.71 0 1 1-1.42 0ZM308.52 265.14v-5.76a.68.68 0 0 1 .72-.75.67.67 0 0 1 .71.75v3.24l1.89-1.9a.73.73 0 0 1 .57-.28.61.61 0 0 1 .63.62.64.64 0 0 1-.27.54l-1.33 1.26 1.46 1.86a.76.76 0 0 1 .2.52.64.64 0 0 1-.68.65c-.3 0-.47-.11-.69-.45l-1.35-1.78-.45.42v1.06a.67.67 0 0 1-.71.75.68.68 0 0 1-.7-.75ZM386.14 341.36v-16a2 2 0 0 1 2.14-2.22h6.78c3.84 0 6.24 2 6.24 5.1a4.51 4.51 0 0 1-3.83 4.43v.11a5 5 0 0 1 4.81 4.94c0 3.6-2.7 5.85-7.06 5.85h-6.91a2 2 0 0 1-2.17-2.21Zm7.35-9.7c2.28 0 3.58-1 3.58-2.74s-1.15-2.57-3.14-2.57h-3.52v5.31Zm.61 8.75c2.46 0 3.79-1.05 3.79-3s-1.37-2.93-3.89-2.93h-3.59v5.94ZM825.99 188.32c-1.13 0-1.77-.57-2.16-1.93l-1.08-3.18h-7.38l-1.07 3.23c-.38 1.33-1 1.88-2.23 1.88a2 2 0 0 1-2.13-2 3.71 3.71 0 0 1 .27-1.36l5.6-15.21a3.39 3.39 0 0 1 6.49 0l5.58 15.19a4.5 4.5 0 0 1 .28 1.36 2 2 0 0 1-2.17 2.02Zm-4.17-8.42-2.65-8.37h-.1l-2.71 8.37ZM71.44 287.79c0-6.58 3.75-10.56 9.63-10.56 3.82 0 6.78 1.7 8.18 4.64a3.51 3.51 0 0 1 .42 1.6 1.75 1.75 0 0 1-1.88 1.84 2.08 2.08 0 0 1-2-1.41 4.89 4.89 0 0 0-4.64-3.13c-3.23 0-5.31 2.7-5.31 7s2 7 5.32 7a4.8 4.8 0 0 0 4.69-3 1.89 1.89 0 0 1 1.88-1.34 1.84 1.84 0 0 1 2 1.89 3.42 3.42 0 0 1-.33 1.43c-1.27 2.83-4.32 4.58-8.18 4.58-6.1.03-9.78-3.94-9.78-10.54ZM214.65 518.68v-5.63a.87.87 0 0 1 .95-.95 1 1 0 0 1 1 .76l1.75 4.33 1.74-4.33a1 1 0 0 1 1-.76.87.87 0 0 1 .95.95v5.6a.66.66 0 1 1-1.32 0v-4.17l-1.66 4.3a.67.67 0 0 1-1.27 0l-1.74-4.27v4.17a.66.66 0 1 1-1.31 0ZM222.97 516.65a2.59 2.59 0 1 1 2.59 2.73 2.48 2.48 0 0 1-2.59-2.73Zm3.73 0c0-1-.45-1.64-1.14-1.64s-1.15.6-1.15 1.64.45 1.64 1.15 1.64 1.14-.59 1.14-1.64ZM228.86 517.41v-2.73a.72.72 0 1 1 1.43 0v2.43c0 .7.34 1.07 1 1.07a1 1 0 0 0 1-1.15v-2.35a.72.72 0 1 1 1.43 0v4a.69.69 0 1 1-1.38 0v-.32a1.55 1.55 0 0 1-1.57 1 1.79 1.79 0 0 1-1.91-1.95ZM234.65 518.63v-4a.64.64 0 0 1 .68-.72.67.67 0 0 1 .72.72v.29a1.6 1.6 0 0 1 1.61-1 1.72 1.72 0 0 1 1.81 2v2.73a.71.71 0 1 1-1.42 0v-2.44c0-.68-.32-1.07-1-1.07a1 1 0 0 0-1 1.15v2.36a.71.71 0 1 1-1.42 0ZM240.22 516.64c0-1.66.83-2.69 2.14-2.69a1.69 1.69 0 0 1 1.6 1v-2.07a.71.71 0 1 1 1.42 0v5.79a.71.71 0 1 1-1.42 0v-.3a1.64 1.64 0 0 1-1.61 1c-1.29-.02-2.13-1.05-2.13-2.73Zm3.78 0c0-1-.46-1.55-1.17-1.55s-1.15.6-1.15 1.55.44 1.56 1.15 1.56 1.17-.59 1.17-1.55ZM401.64 463.49v-5.51a.7.7 0 0 1 .74-.77h2.33c1.32 0 2.15.68 2.15 1.76a1.55 1.55 0 0 1-1.32 1.53 1.7 1.7 0 0 1 1.66 1.7c0 1.24-.93 2-2.44 2h-2.38a.69.69 0 0 1-.74-.71Zm2.54-3.35c.78 0 1.23-.34 1.23-.94s-.39-.89-1.08-.89h-1.21v1.83Zm.21 3c.85 0 1.31-.36 1.31-1s-.48-1-1.35-1h-1.23v2ZM410.06 463.66v-5.61a.87.87 0 0 1 .95-.95 1 1 0 0 1 1 .76l1.75 4.33 1.74-4.33a1 1 0 0 1 1-.76.87.87 0 0 1 .95.95v5.59a.66.66 0 1 1-1.31 0v-4.16l-1.75 4.27a.62.62 0 0 1-.63.45.65.65 0 0 1-.64-.45l-1.74-4.27v4.16a.66.66 0 1 1-1.31 0ZM418.22 462.76c0-1 .73-1.51 2-1.59l1.32-.07v-.35c0-.49-.35-.77-.88-.77a1.15 1.15 0 0 0-1 .55.7.7 0 0 1-.56.26.55.55 0 0 1-.6-.54.75.75 0 0 1 .07-.33 2.22 2.22 0 0 1 2.17-1c1.34 0 2.22.7 2.22 1.75v3a.65.65 0 0 1-.7.72.63.63 0 0 1-.68-.63v-.27a1.8 1.8 0 0 1-1.6.88 1.61 1.61 0 0 1-1.76-1.61Zm3.36-.42v-.38l-1.11.07c-.53 0-.83.28-.83.65s.32.63.8.63a1 1 0 0 0 1.14-.97ZM423.87 457.64a.76.76 0 1 1 .76.74.74.74 0 0 1-.76-.74Zm.05 6v-4a.67.67 0 0 1 .71-.75.68.68 0 0 1 .72.75v4a.68.68 0 0 1-.72.74.67.67 0 0 1-.71-.76ZM426.29 463.62v-4a.65.65 0 0 1 .69-.72.66.66 0 0 1 .71.72v.29a1.6 1.6 0 0 1 1.61-1 1.72 1.72 0 0 1 1.82 2v2.73a.71.71 0 1 1-1.42 0v-2.44c0-.68-.33-1.07-1-1.07a1 1 0 0 0-1 1.15v2.36a.67.67 0 0 1-.71.74.67.67 0 0 1-.7-.76ZM438.9 567.39v-5.6a.69.69 0 0 1 .74-.77h2.13a2.3 2.3 0 0 1 2.44 2.41 2.35 2.35 0 0 1-2.52 2.42h-1.31v1.54a.74.74 0 1 1-1.48 0Zm2.47-2.7a1.25 1.25 0 1 0 0-2.5h-1v2.5ZM444.93 561.45a.76.76 0 1 1 .76.73.74.74 0 0 1-.76-.73Zm0 6v-4a.67.67 0 0 1 .71-.74.68.68 0 0 1 .72.74v4a.68.68 0 0 1-.72.74.67.67 0 0 1-.66-.76ZM447.39 567.43v-5.77a.71.71 0 1 1 1.42 0v5.77a.71.71 0 1 1-1.42 0ZM449.81 567.43v-5.77a.71.71 0 1 1 1.42 0v5.77a.71.71 0 1 1-1.42 0ZM451.99 566.56c0-1 .73-1.5 2-1.58l1.32-.08v-.34c0-.49-.34-.77-.88-.77a1.13 1.13 0 0 0-1 .55.75.75 0 0 1-.57.26.55.55 0 0 1-.6-.55.76.76 0 0 1 .08-.32c.24-.62 1.08-1 2.17-1 1.34 0 2.21.7 2.21 1.75v3a.65.65 0 0 1-.69.72.62.62 0 0 1-.68-.63v-.27a1.83 1.83 0 0 1-1.61.88 1.62 1.62 0 0 1-1.75-1.62Zm3.36-.41v-.38l-1.1.07c-.53 0-.84.28-.84.65s.32.63.8.63a1 1 0 0 0 1.14-.97ZM457.67 567.43v-4a.65.65 0 0 1 .69-.71.64.64 0 0 1 .67.71v.35a1.16 1.16 0 0 1 1.09-1 .75.75 0 0 1 .45.13.66.66 0 0 1 .2.53.65.65 0 0 1-.2.51 1 1 0 0 1-.62.19c-.65 0-.88.37-.88 1v2.33a.72.72 0 1 1-1.43 0ZM461.19 567.14a1 1 0 0 1 0-.27.53.53 0 0 1 .57-.54.8.8 0 0 1 .62.32 1.29 1.29 0 0 0 1.15.53c.51 0 .85-.21.85-.56s-.18-.44-.69-.55l-.88-.18c-1-.22-1.54-.75-1.54-1.52 0-1 .86-1.65 2.22-1.65a2 2 0 0 1 2 1.09.76.76 0 0 1 0 .21c0 .28-.18.48-.54.48a.64.64 0 0 1-.52-.22 1.25 1.25 0 0 0-1-.56c-.48 0-.82.23-.82.57s.21.45.73.57l.86.18c1.12.24 1.58.65 1.58 1.43 0 1-.94 1.71-2.32 1.71-1.22 0-2.02-.43-2.27-1.04ZM612.2 628.35a1.37 1.37 0 0 1 .1-.47l1.92-5.24a1.17 1.17 0 0 1 2.24 0l1.93 5.24a1.25 1.25 0 0 1 .09.47.68.68 0 0 1-.73.69c-.42 0-.64-.19-.77-.65l-.37-1.11h-2.55l-.37 1.1c-.13.47-.35.66-.74.66a.67.67 0 0 1-.75-.69Zm4.07-2.21-.94-2.89-.91 2.89ZM621.35 628.18v-5.6a.74.74 0 1 1 1.48 0v5.15h2.5a.61.61 0 1 1 0 1.22h-3.27a.69.69 0 0 1-.71-.77ZM626.4 626.33a2.59 2.59 0 1 1 2.59 2.73 2.48 2.48 0 0 1-2.59-2.73Zm3.73 0c0-1-.44-1.64-1.14-1.64s-1.15.6-1.15 1.64.45 1.64 1.15 1.64 1.14-.59 1.14-1.64ZM632.35 628.33v-5.78a.72.72 0 1 1 1.43 0v2.08a1.7 1.7 0 0 1 1.61-1c1.33 0 2.13 1 2.13 2.7s-.8 2.7-2.12 2.7a1.72 1.72 0 0 1-1.64-1v.28a.66.66 0 0 1-.71.72.65.65 0 0 1-.7-.7Zm3.74-2c0-.95-.44-1.55-1.15-1.55s-1.17.62-1.17 1.55.48 1.56 1.17 1.56 1.12-.6 1.12-1.56ZM638.32 628.33v-5.78a.68.68 0 0 1 .72-.75.67.67 0 0 1 .71.75v2.08a1.71 1.71 0 0 1 1.61-1c1.33 0 2.13 1 2.13 2.7s-.8 2.7-2.12 2.7a1.72 1.72 0 0 1-1.64-1v.28a.66.66 0 0 1-.71.72.65.65 0 0 1-.7-.7Zm3.74-2c0-.95-.44-1.55-1.15-1.55s-1.17.62-1.17 1.55.48 1.56 1.17 1.56 1.15-.6 1.15-1.56ZM644.06 630.22a.47.47 0 0 1 .53-.47h.25a.72.72 0 0 0 .68-.48l.08-.18-1.67-4.41a1.11 1.11 0 0 1-.08-.42.68.68 0 0 1 .73-.66c.38 0 .57.16.69.58l1.14 3.62 1.14-3.63c.12-.4.32-.57.69-.57a.64.64 0 0 1 .69.64 1.3 1.3 0 0 1-.08.42l-1.6 4.37c-.49 1.35-1.1 1.85-2.24 1.85-.61.01-.95-.23-.95-.66ZM778.82 415.82a1.59 1.59 0 0 1 .09-.47l1.93-5.24a1.16 1.16 0 0 1 2.23 0l1.94 5.24a1.25 1.25 0 0 1 .09.47.69.69 0 0 1-.74.69c-.41 0-.63-.19-.76-.65l-.37-1.11h-2.55l-.37 1.1c-.14.47-.36.66-.75.66a.66.66 0 0 1-.74-.69Zm4.06-2.21-.93-2.89-.92 2.89ZM787.97 415.65v-5.51a.69.69 0 0 1 .74-.76h1.95c2.12 0 3.36 1.25 3.36 3.49s-1.24 3.55-3.36 3.55h-1.95a.69.69 0 0 1-.74-.77Zm2.52-.45c1.32 0 2-.8 2-2.32s-.73-2.29-2-2.29h-1v4.61ZM794.66 413.8a2.59 2.59 0 1 1 2.59 2.73 2.48 2.48 0 0 1-2.59-2.73Zm3.73 0c0-1-.45-1.64-1.14-1.64s-1.15.6-1.15 1.64.45 1.64 1.15 1.64 1.14-.59 1.14-1.64ZM800.38 413.8a2.6 2.6 0 1 1 2.6 2.73 2.48 2.48 0 0 1-2.6-2.73Zm3.74 0c0-1-.45-1.64-1.14-1.64s-1.15.6-1.15 1.64.44 1.64 1.15 1.64 1.14-.59 1.14-1.64ZM806.3 415.78v-4a.65.65 0 0 1 .69-.72.64.64 0 0 1 .67.72v.34a1.16 1.16 0 0 1 1.09-1 .69.69 0 0 1 .45.14.63.63 0 0 1 .2.52.67.67 0 0 1-.2.52 1 1 0 0 1-.62.18c-.65 0-.88.38-.88 1v2.32a.67.67 0 0 1-.71.74.67.67 0 0 1-.69-.76ZM279.51 462.35c0-2.27 1.29-3.64 3.32-3.64a3 3 0 0 1 2.82 1.6 1.2 1.2 0 0 1 .15.55.61.61 0 0 1-.65.64.72.72 0 0 1-.7-.49 1.7 1.7 0 0 0-1.61-1.08c-1.11 0-1.83.93-1.83 2.42s.71 2.43 1.84 2.43a1.66 1.66 0 0 0 1.62-1.05.64.64 0 0 1 .65-.46.63.63 0 0 1 .68.66 1.28 1.28 0 0 1-.11.49 3 3 0 0 1-2.82 1.58c-2.09.05-3.36-1.37-3.36-3.65ZM288.83 465.11v-5.51a.69.69 0 0 1 .74-.77h2c2.12 0 3.36 1.26 3.36 3.5s-1.24 3.55-3.36 3.55h-2a.69.69 0 0 1-.74-.77Zm2.52-.45c1.31 0 2-.8 2-2.33s-.74-2.28-2-2.28h-1v4.61ZM295.52 463.26a2.59 2.59 0 1 1 2.59 2.73 2.48 2.48 0 0 1-2.59-2.73Zm3.73 0c0-1-.45-1.64-1.14-1.64s-1.15.6-1.15 1.64.45 1.64 1.15 1.64 1.14-.59 1.14-1.64ZM301.24 463.26a2.6 2.6 0 1 1 2.6 2.73 2.48 2.48 0 0 1-2.6-2.73Zm3.74 0c0-1-.45-1.64-1.14-1.64s-1.15.6-1.15 1.64.44 1.64 1.15 1.64 1.14-.59 1.14-1.64ZM307.16 465.24v-4a.65.65 0 0 1 .69-.71.64.64 0 0 1 .67.71v.34a1.16 1.16 0 0 1 1.09-1 .69.69 0 0 1 .45.13.78.78 0 0 1 0 1 1 1 0 0 1-.62.19c-.65 0-.88.37-.88 1v2.33a.72.72 0 1 1-1.43 0Z" class="cls-7"/></g></svg>