<svg xmlns="http://www.w3.org/2000/svg" viewBox="0 0 844.04 956.02"><defs><style>.cls-1{fill:#33353b;}.cls-11,.cls-2,.cls-4,.cls-5,.cls-6,.cls-7,.cls-8,.cls-9{fill:none;}.cls-11,.cls-2{stroke:#656569;}.cls-3{fill:#575548;}.cls-4,.cls-5,.cls-6,.cls-7,.cls-8,.cls-9{stroke:#b0adb0;}.cls-11,.cls-4,.cls-5,.cls-6,.cls-7,.cls-8,.cls-9{stroke-miterlimit:10;}.cls-4{stroke-dasharray:4 3;}.cls-6{stroke-dasharray:3.36 2.52;}.cls-7{stroke-dasharray:3.76 2.82;}.cls-8{stroke-dasharray:4.21 3.16;}.cls-9{stroke-dasharray:4.71 3.53;}.cls-10{fill:#b0adb0;}.cls-12{fill:#d32027;}.cls-13{fill:#79c143;}.cls-14{fill:#fff;}</style></defs><title>Icebox Offence</title><g id="Body_Merge" data-name="Body Merge"><path class="cls-1" d="M178.92,1238.3h-26v156.28h0v58.64H273v24h49v-16H402v40.11h59v58h52v75.84H649.92v-29h5v42H517v34H624v123H725V1679.18h52v-32H700v-41h5v28H972v-26h1v-1h1.94v-101h-3v-19h24V1266.29H939v-15l57-20V1182h-.05v-106.8h-118v-11h4v-95l-19,6h-7l-16.93-2L785.9,951.22l-9.94-11-17,6h-4l-10.09,9h-9l-12-9H686V915.56l15-18.34v-47h-129v39l21,27v28H565l-9,19v14l-9,9-16,5v3l-1,2-22.95,13v24H451l-17,8H422l-15-10h-9v-1H350l-6-5h-4l-10,6h-6l-28-39h-2l-19,11v37H179l-16,27v75h17l37,31v35Zm627.17-51.09v52.15h26.85v52.94H740v194.91h49v11H731V1394.31h-93v-27h-24v-81.91h27v2.83H732v-101h74.07Zm-155.16-.94v-27h33v74h-33v-47Zm-76.92,224v33h45v81.06H543v-99H510v-51h-223v-78H435v26.9H542v87.1h32ZM386.93,1228.29h118v27.91h-118Zm156,75.89V1186.24H516v-5h31.95v122.93Zm-64-122.93H499v5h-177v-5Zm27,358v-67H449l-9,9h-5v-25H513v83Zm420-36h-88v-16h88Zm-150-48v-54h75v54Zm71.08-391v11H740.94v63H732v-74.06Zm-247.09,43v79H569v117.91H564V1181.25h27.18v-69H524l-43.12,22.09h-2.9v-27Zm-137,48.94v6.07h-168v22.94H269v-80H452v51Z" transform="translate(-152.43 -849.72)"/></g><g id="Lines_under_map" data-name="Lines under map"><rect class="cls-2" x="184.93" y="255.5" width="45.07" height="19.52"/><rect class="cls-2" x="184.93" y="275.01" width="45.07" height="17.89"/><rect class="cls-2" x="184.93" y="292.9" width="45.07" height="19.52"/><path class="cls-2" d="M382.44,1105.22l-45.07,19.52" transform="translate(-152.43 -849.72)"/><path class="cls-2" d="M382.44,1124.74l-45.07,17.89" transform="translate(-152.43 -849.72)"/><path class="cls-2" d="M382.44,1142.63l-45.07,18.7" transform="translate(-152.43 -849.72)"/><path class="cls-2" d="M382.44,1124.74l-45.07-19.52" transform="translate(-152.43 -849.72)"/><path class="cls-2" d="M382.44,1142.63l-45.07-17.89" transform="translate(-152.43 -849.72)"/><path class="cls-2" d="M382.44,1161.33l-45.07-18.7" transform="translate(-152.43 -849.72)"/></g><g id="Layer_10" data-name="Layer 10"><polygon class="cls-3" points="86.57 461.15 86.57 324.19 114.08 324.19 114.08 337.94 167.03 337.94 167.03 338.98 203.58 338.98 203.58 444.5 132.49 444.5 132.49 461.15 86.57 461.15"/><path class="cls-3" d="M264.52,1175.92v13.74h53v1H354v101.52H282.92v16.66H241v-133h23.52m4-4H237v141h49.92v-16.66H358V1186.7H321.47v-1h-53v-13.74Z" transform="translate(-152.43 -849.72)"/><rect class="cls-3" x="656.1" y="227.97" width="185.15" height="101.22"/><path class="cls-3" d="M991.68,1079.69v97.22H810.53v-97.22H991.68m4-4H806.53v105.22H995.68V1075.69Z" transform="translate(-152.43 -849.72)"/></g><g id="Hell_lines" data-name="Hell lines"><polyline class="cls-4" points="415.04 481.83 392.32 481.83 392.32 472.22"/><line class="cls-5" x1="409.75" y1="454.43" x2="407.75" y2="454.43"/><line class="cls-6" x1="405.23" y1="454.43" x2="400.6" y2="454.43"/><line class="cls-5" x1="399.34" y1="454.43" x2="397.34" y2="454.43"/><line class="cls-5" x1="112.42" y1="405.9" x2="112.42" y2="403.9"/><line class="cls-7" x1="112.42" y1="401.08" x2="112.42" y2="395.91"/><polyline class="cls-5" points="112.42 394.5 112.42 392.5 114.42 392.5"/><line class="cls-8" x1="117.58" y1="392.5" x2="174.98" y2="392.5"/><polyline class="cls-5" points="176.56 392.5 178.56 392.5 178.56 394.5"/><line class="cls-7" x1="178.56" y1="397.32" x2="178.56" y2="402.49"/><line class="cls-5" x1="178.56" y1="403.9" x2="178.56" y2="405.9"/><line class="cls-5" x1="212.82" y1="575.56" x2="212.82" y2="573.56"/><line class="cls-9" x1="212.82" y1="570.03" x2="212.82" y2="555.31"/><line class="cls-5" x1="212.82" y1="553.54" x2="212.82" y2="551.54"/><line class="cls-5" x1="282.48" y1="575.56" x2="282.48" y2="573.56"/><line class="cls-9" x1="282.48" y1="570.03" x2="282.48" y2="555.31"/><line class="cls-5" x1="282.48" y1="553.54" x2="282.48" y2="551.54"/></g><g id="Shapes_lighter" data-name="Shapes lighter"><rect class="cls-5" x="792.81" y="1293.36" width="13.98" height="16.51" transform="translate(1447.16 1753.51) rotate(180)"/><rect class="cls-5" x="762.67" y="1307.86" width="6.1" height="6.94" transform="translate(1379.02 1772.94) rotate(180)"/><rect class="cls-5" x="754.69" y="1307.86" width="7.99" height="6.94" transform="translate(1364.93 1772.94) rotate(180)"/><rect class="cls-5" x="740.97" y="1293.43" width="13.72" height="23.39" transform="translate(1343.22 1760.54) rotate(180)"/><rect class="cls-5" x="754.69" y="1293.43" width="14.09" height="14.43" transform="translate(1371.03 1751.57) rotate(180)"/><rect class="cls-5" x="840.51" y="1321.22" width="86.93" height="25.01" transform="translate(1615.51 1817.73) rotate(180)"/><rect class="cls-5" x="832.92" y="1239.95" width="57.91" height="51.98" transform="translate(1571.32 1682.15) rotate(180)"/><rect class="cls-5" x="833.86" y="1262.94" width="45.91" height="16.04" transform="translate(1561.21 1692.2) rotate(180)"/><rect class="cls-5" x="833.86" y="1253.97" width="43.08" height="8.97" transform="translate(1558.38 1667.19) rotate(180)"/><rect class="cls-5" x="854.39" y="1188.76" width="72.94" height="25.96" transform="translate(1629.3 1553.76) rotate(180)"/><rect class="cls-5" x="970.45" y="1163.69" width="24.51" height="14.02" transform="translate(1812.97 1491.67) rotate(180)"/><rect class="cls-5" x="889.31" y="1148.85" width="21.13" height="9.91" transform="translate(1647.33 1457.89) rotate(180)"/><rect class="cls-5" x="835.42" y="1120.74" width="87.98" height="28.11" transform="translate(1606.38 1419.87) rotate(180)"/><rect class="cls-5" x="790.99" y="1143.08" width="15.1" height="43.15" transform="translate(1444.65 1479.58) rotate(180)"/><rect class="cls-5" x="768.4" y="1499.04" width="11.93" height="6.1" transform="translate(1396.31 2154.47) rotate(180)"/><rect class="cls-5" x="722.36" y="1481.67" width="7.65" height="8.02" transform="translate(1299.94 2121.63) rotate(180)"/><rect class="cls-5" x="717.1" y="1467.71" width="12.91" height="13.96" transform="translate(1294.68 2099.66) rotate(180)"/><rect class="cls-5" x="709.11" y="1467.71" width="7.99" height="5.97" transform="translate(1273.78 2091.67) rotate(180)"/><rect class="cls-5" x="704.46" y="1395.31" width="25.55" height="72.4" transform="translate(1282.04 2013.3) rotate(180)"/><rect class="cls-5" x="620.04" y="1443.23" width="24.2" height="71.9" transform="translate(1111.84 2108.63) rotate(180)"/><rect class="cls-5" x="563.39" y="1525.24" width="8.02" height="6.17" transform="translate(982.38 2206.92) rotate(180)"/><rect class="cls-5" x="461.85" y="1501.31" width="13.48" height="12.94" transform="translate(784.75 2165.85) rotate(180)"/><polyline class="cls-5" points="357.53 575.56 209.07 575.56 136.06 575.56 136.06 551.54 209.12 551.54 284.05 551.54"/><rect class="cls-5" x="436.48" y="1375.19" width="72.51" height="50.07" transform="translate(793.05 1950.73) rotate(180)"/><rect class="cls-5" x="377.43" y="1375.22" width="14.97" height="13.45" transform="translate(617.39 1914.16) rotate(180)"/><rect class="cls-5" x="339.51" y="1425.28" width="13.96" height="14.97" transform="translate(540.53 2015.81) rotate(180)"/><rect class="cls-5" x="353.46" y="1425.28" width="6.07" height="8.09" transform="translate(560.56 2008.93) rotate(180)"/><rect class="cls-5" x="153.91" y="1431.91" width="7.45" height="9.05" transform="translate(162.84 2023.15) rotate(180)"/><rect class="cls-5" x="153.91" y="1440.96" width="15.54" height="11.51" transform="translate(170.93 2043.71) rotate(180)"/><rect class="cls-5" x="227.36" y="1337.75" width="14.97" height="14.02" transform="translate(317.25 1839.8) rotate(180)"/><rect class="cls-5" x="198.51" y="1337.75" width="28.85" height="73.01" transform="translate(273.43 1898.79) rotate(180)"/><rect class="cls-5" x="327.81" y="1225.69" width="7.08" height="9" transform="translate(510.26 1610.65) rotate(180)"/><polyline class="cls-5" points="169.51 334 169.48 375.95 189.54 375.95 189.54 405.89 101.46 405.89 101.46 375.95 149.39 375.95 149.39 338.67 149.39 335.49 142.38 335.49"/><rect class="cls-5" x="387.44" y="1214.03" width="15.02" height="13.3" transform="translate(637.46 1591.63) rotate(180)"/><rect class="cls-5" x="487.45" y="1187.26" width="15.02" height="14.01" transform="translate(837.48 1538.8) rotate(180)"/><rect class="cls-5" x="520.45" y="1175.69" width="8.02" height="4.65" transform="translate(896.49 1506.3) rotate(180)"/><rect class="cls-5" x="421.94" y="1281.24" width="13.04" height="14.06" transform="translate(704.49 1726.81) rotate(180)"/><rect class="cls-5" x="635.59" y="1623.16" width="13.4" height="11.12" transform="translate(1132.15 2407.72) rotate(180)"/><rect class="cls-5" x="605.61" y="1632.21" width="29.98" height="2.07" transform="translate(1088.77 2416.77) rotate(180)"/><rect class="cls-5" x="605.61" y="1606.22" width="29.98" height="25.99" transform="translate(1088.77 2388.71) rotate(180)"/><rect class="cls-5" x="635.59" y="1606.22" width="13.4" height="16.94" transform="translate(1132.15 2379.66) rotate(180)"/><rect class="cls-5" x="584.64" y="1606.22" width="20.97" height="15.02" transform="translate(1037.82 2377.74) rotate(180)"/><rect class="cls-5" x="584.64" y="1620.99" width="20.97" height="13.3" transform="translate(1037.82 2405.55) rotate(180)"/><rect class="cls-5" x="705.91" y="1611.76" width="20.49" height="21.44" transform="translate(1279.88 2395.23) rotate(180)"/><rect class="cls-5" x="743.49" y="1617.87" width="25.99" height="15.33" transform="translate(1360.54 2401.34) rotate(180)"/><rect class="cls-5" x="726.4" y="1617.87" width="17.09" height="15.33" transform="translate(1317.47 2401.34) rotate(180)"/><rect class="cls-5" x="726.4" y="1602.8" width="15.07" height="15.07" transform="translate(1315.44 2370.94) rotate(180)"/><rect class="cls-5" x="741.47" y="1603.71" width="19.01" height="14.16" transform="translate(1349.52 2371.85) rotate(180)"/><rect class="cls-5" x="760.48" y="1606.74" width="9" height="11.12" transform="translate(1377.53 2374.88) rotate(180)"/><polyline class="cls-5" points="562.07 762.04 562.07 756.01 557.02 753.99 554.99 748.05 547.62 748.05 547.62 755.04"/><rect class="cls-10" x="699.51" y="1538.31" width="1.09" height="67.89" transform="translate(1247.68 2294.79) rotate(180)"/><rect class="cls-10" x="654.45" y="1538.31" width="0.99" height="67.58" transform="translate(1157.44 2294.49) rotate(180)"/><rect class="cls-5" x="399.37" y="1163.24" width="6.17" height="4.8" transform="translate(652.48 1481.56) rotate(180)"/><polyline class="cls-5" points="326.12 239.5 326.12 251.06 297.94 251.06 297.94 188.1 326.12 188.1 326.12 193.41"/><line class="cls-5" x1="326.12" y1="183.5" x2="326.12" y2="188.1"/><line class="cls-5" x1="326.12" y1="226.37" x2="326.12" y2="205.59"/><line class="cls-5" x1="326.12" y1="257.54" x2="326.12" y2="251.26"/><rect class="cls-10" x="851.2" y="1454.7" width="96.74" height="1" transform="translate(1646.71 2060.68) rotate(180)"/><rect class="cls-10" x="862.96" y="1430.23" width="133.02" height="0.98" transform="translate(1706.5 2011.72) rotate(180)"/><polygon class="cls-10" points="821.13 441 820.52 441 787.07 441 787.07 416.33 786.07 416.33 786.07 441 786.07 441.5 786.07 441.99 820.52 441.99 820.52 527 775.51 527 775.51 496.51 773.54 496.51 773.54 527 771.52 527 771.02 527 770.52 527 770.52 551.02 698.81 551.02 698.81 551.98 771.52 551.98 771.52 551.5 771.52 551.02 771.52 527.99 821.52 527.99 821.52 527.5 821.52 527 821.52 441 821.13 441"/><rect class="cls-5" x="909.49" y="1387.26" width="13.96" height="13.96" transform="translate(1680.51 1938.76) rotate(180)"/><circle class="cls-5" cx="753.06" cy="547.48" r="3.07"/><circle class="cls-5" cx="767.03" cy="533.54" r="3.07"/><circle class="cls-5" cx="817" cy="523.53" r="3.07"/><circle class="cls-5" cx="817" cy="516.38" r="3.07"/><circle class="cls-5" cx="590.23" cy="469.68" r="1.74"/><circle class="cls-5" cx="594.71" cy="469.68" r="1.74"/><circle class="cls-5" cx="590.23" cy="474.04" r="1.74"/><circle class="cls-5" cx="637.62" cy="445.38" r="1.74"/><circle class="cls-5" cx="619.05" cy="446.32" r="1.74"/><circle class="cls-5" cx="619.05" cy="450.77" r="1.74"/><polyline class="cls-5" points="818.02 327.99 786.03 327.99 786.03 365 774.9 365 689.08 365 689.08 330.61"/><line class="cls-5" x1="638.97" y1="293.35" x2="624.51" y2="293.35"/><rect class="cls-10" x="740.94" y="1095.22" width="254.74" height="0.99" transform="translate(1584.19 1341.7) rotate(180)"/><rect class="cls-5" x="954.24" y="1118.09" width="14.2" height="14.2" transform="translate(1663.09 1484.01) rotate(-174.74)"/><polyline class="cls-5" points="176.15 181.34 176.15 222.6 239.05 222.6 239.05 180.49"/><line class="cls-5" x1="297.94" y1="255.02" x2="297.94" y2="183.77"/><line class="cls-5" x1="354.03" y1="210.02" x2="354.03" y2="183.5"/><polyline class="cls-5" points="403.17 235.04 354 235.04 354 231.99"/><polyline class="cls-5" points="440.47 95.52 440.47 108.92 409.09 108.92 409.09 101.71"/><rect class="cls-5" x="574.45" y="944.23" width="18.45" height="14.41" transform="translate(1014.93 1053.15) rotate(180)"/><rect class="cls-5" x="685.99" y="947.19" width="32.46" height="13.08" transform="translate(1252.01 1057.73) rotate(180)"/><rect class="cls-5" x="551.02" y="102.55" width="15" height="7.99"/><rect class="cls-5" x="703.45" y="947.19" width="8.93" height="5.09" transform="translate(1263.4 1049.74) rotate(180)"/><line class="cls-5" x1="533.56" y1="109.02" x2="533.56" y2="154.46"/><line class="cls-5" x1="440.47" y1="108.92" x2="440.47" y2="154.52"/><line class="cls-5" x1="354" y1="229.51" x2="354" y2="235.04"/><line class="cls-5" x1="354.03" y1="210.02" x2="354.03" y2="211.46"/><rect class="cls-5" x="983.43" y="1473.11" width="11.55" height="13.15" transform="translate(1825.98 2109.63) rotate(180)"/><rect class="cls-5" x="989.21" y="1466.96" width="5.78" height="6.15" transform="translate(1831.76 2090.34) rotate(180)"/><circle class="cls-5" cx="826.98" cy="633.46" r="3.07"/><rect class="cls-5" x="599.94" y="1159.24" width="50.98" height="27.03" transform="translate(1098.44 1495.78) rotate(180)"/><polyline class="cls-5" points="475.98 268.89 475.98 309.51 447.06 309.51"/><rect class="cls-5" x="628.42" y="1142.79" width="33.27" height="16.45" transform="translate(1137.67 1452.3) rotate(180)"/><rect class="cls-5" x="715.38" y="1272.69" width="15.62" height="14.51" transform="translate(1293.96 1710.17) rotate(180)"/><rect class="cls-5" x="700.37" y="1272.69" width="15.02" height="14.51" transform="translate(1263.31 1710.17) rotate(180)"/><polyline class="cls-5" points="390.56 453.92 390.56 539 416.59 539 416.59 453.92"/><polygon class="cls-10" points="336.77 280.34 339.65 285.89 339.65 285.89 340.14 286.83 373.79 269.5 430.55 269.5 430.55 309.26 422.26 331.3 423.16 331.63 431.51 309.44 431.51 309.44 431.51 268.44 431.03 268.44 430.55 268.44 373.53 268.44 373.53 268.44 373.53 268.44 340.6 285.4 337.71 279.85 336.77 280.34"/><rect class="cls-5" x="876.67" y="1014.7" width="4.38" height="6.07" transform="translate(1605.3 1185.74) rotate(180)"/><rect class="cls-5" x="867.78" y="1020.76" width="13.28" height="15.92" transform="translate(1596.4 1207.72) rotate(180)"/><line class="cls-5" x1="716.99" y1="186.96" x2="609.6" y2="186.96"/><polyline class="cls-5" points="594.69 103.56 597.97 108.18 607.24 105.14 608.12 101.2 603.53 96.45"/><polyline class="cls-5" points="608.12 101.2 609.97 99.78 610.95 95.84 616.14 105.88 620.59 107.03 625.92 106.22 630.03 104.27 631.73 99.58"/><path class="cls-5" d="M803.13,958.34l8.42,8.44h3.24L817,964.7a.4.4,0,0,1,.64.33l-1,7.62,3.64,1.82,3.18,1.46,2-1.11,2-2.58,1.72-2.78" transform="translate(-152.43 -849.72)"/><polyline class="cls-5" points="691.32 124.01 693.8 129.34 697.9 131.37 703.66 132.18 707.4 131.37 708.97 128.84 708.97 125.48"/><path class="cls-5" d="M859.32,981.2l3.8,2.06,2.08,4.2s2.88,1.26,3,1.42,3.54,1.82,3.54,1.82l2.48-.86,4.09-1.87,3.61-2.52" transform="translate(-152.43 -849.72)"/><polyline class="cls-5" points="122.52 185.01 136.21 152.75 136.21 149.74 133.85 146.87"/><polyline class="cls-5" points="122.52 165.22 127.11 164.65 129.99 162.92 131.46 159.99 130.54 154.52 127.31 150.69"/><polyline class="cls-5" points="130.77 155.85 133.78 153.41 136.21 149.67"/><polyline class="cls-5" points="147.21 147.64 145.11 150.07 141.87 151.9 138.74 151.9 136.21 150.69"/><polyline class="cls-5" points="10.54 228.4 14.93 226.32 16.48 223.15 16.07 216.82 15.47 214.32 13.31 212.84"/><line class="cls-5" x1="211.24" y1="575" x2="211.24" y2="550.98"/><line class="cls-5" x1="689.08" y1="327.98" x2="689.08" y2="331.83"/></g><g id="Outline_Darker" data-name="Outline Darker"><path class="cls-11" d="M178.92,1238.3h-26v156.28h0v58.64H273v24h49v-16H402v40.11h59v58h52v75.84H649.92v-29h5v42H517v34H624v123H725V1679.18h52v-32H700v-41h5v28H972v-26h1v-1h1.94v-101h-3v-19h24V1266.29H939v-15l57-20V1182h-.05v-106.8h-118v-11h4v-95l-19,6h-7l-16.93-2L785.9,951.22l-9.94-11-17,6h-4l-10.09,9h-9l-12-9H686V915.56l15-18.34v-47h-129v39l21,27v28H565l-9,19v14l-9,9-16,5v3l-1,2-22.95,13v24H451l-17,8H422l-15-10h-9v-1H350l-6-5h-4l-10,6h-6l-28-39h-2l-19,11v37H179l-16,27v75h17l37,31v35Zm627.17-51.09v52.15h26.85v52.94H740v194.91h49v11H731V1394.31h-93v-27h-24v-81.91h27v2.83H732v-101h74.07Zm-155.16-.94v-27h33v74h-33v-47Zm-76.92,224v33h45v81.06H543v-99H510v-51h-223v-78H435v26.9H542v87.1h32ZM386.93,1228.29h118v27.91h-118Zm156,75.89V1186.24H516v-5h31.95v122.93Zm-64-122.93H499v5h-177v-5Zm27,358v-67H449l-9,9h-5v-25H513v83Zm420-36h-88v-16h88Zm-150-48v-54h75v54Zm71.08-391v11H740.94v63H732v-74.06Zm-247.09,43v79H569v117.91H564V1181.25h27.18v-69H524l-43.12,22.09h-2.9v-27Zm-137,48.94v6.07h-168v22.94H269v-80H452v51Z" transform="translate(-152.43 -849.72)"/></g><g id="Callouts_outline" data-name="Callouts outline"><path class="cls-12" d="M628.16,1761.78a1.81,1.81,0,0,1,.13-.61l2.5-6.81a1.52,1.52,0,0,1,2.9,0l2.52,6.82a1.92,1.92,0,0,1,.12.61.89.89,0,0,1-1,.9c-.54,0-.83-.25-1-.84l-.48-1.45h-3.31l-.48,1.43c-.18.61-.46.86-1,.86A.87.87,0,0,1,628.16,1761.78Zm5.29-2.87-1.22-3.76h0l-1.19,3.76Z" transform="translate(-152.43 -849.72)"/><path class="cls-12" d="M637.38,1757.15H637a.7.7,0,1,1,0-1.39h.35V1755a.93.93,0,1,1,1.85,0v.76h.66a.7.7,0,1,1,0,1.39h-.66v3.26c0,.48.17.69.57.72h.12c.46,0,.71.24.71.67s-.54.83-1.32.83h-.06a1.64,1.64,0,0,1-1.87-1.82Z" transform="translate(-152.43 -849.72)"/><path class="cls-12" d="M642,1757.15h-.35a.7.7,0,1,1,0-1.39H642V1755a.93.93,0,1,1,1.86,0v.76h.65a.7.7,0,1,1,0,1.39h-.65v3.26c0,.48.16.69.56.72h.12c.46,0,.71.24.71.67s-.54.83-1.32.83h-.06a1.64,1.64,0,0,1-1.87-1.82Z" transform="translate(-152.43 -849.72)"/><path class="cls-12" d="M645.8,1760.61c0-1.24,1-2,2.65-2.06l1.72-.1V1758c0-.64-.45-1-1.15-1a1.51,1.51,0,0,0-1.32.72.92.92,0,0,1-.73.34.72.72,0,0,1-.78-.71.92.92,0,0,1,.1-.42c.31-.81,1.41-1.31,2.82-1.31,1.74,0,2.88.9,2.88,2.27v3.88a.85.85,0,0,1-.9.94.81.81,0,0,1-.89-.83v-.35h0a2.36,2.36,0,0,1-2.08,1.15A2.1,2.1,0,0,1,645.8,1760.61Zm4.37-.54v-.5l-1.44.09c-.69,0-1.09.36-1.09.84s.42.83,1.05.83A1.37,1.37,0,0,0,650.17,1760.07Z" transform="translate(-152.43 -849.72)"/><path class="cls-12" d="M652.93,1759.16a3.22,3.22,0,0,1,3.34-3.55,3,3,0,0,1,2.87,1.63,1.31,1.31,0,0,1,.1.45.73.73,0,0,1-.79.73.81.81,0,0,1-.78-.49,1.46,1.46,0,0,0-1.34-.87c-.94,0-1.52.78-1.52,2.09s.58,2.1,1.51,2.1a1.45,1.45,0,0,0,1.33-.8c.25-.38.45-.54.84-.54a.73.73,0,0,1,.78.74,1,1,0,0,1-.12.48,3.07,3.07,0,0,1-2.87,1.58A3.21,3.21,0,0,1,652.93,1759.16Z" transform="translate(-152.43 -849.72)"/><path class="cls-12" d="M660.31,1761.73v-7.5a.93.93,0,1,1,1.85,0v4.23h0l2.46-2.47a.94.94,0,0,1,.74-.37.79.79,0,0,1,.82.8.84.84,0,0,1-.35.7l-1.73,1.64,1.9,2.42a1,1,0,0,1,.26.68.82.82,0,0,1-.88.84c-.4,0-.62-.15-.91-.58l-1.75-2.31-.59.54v1.38a.93.93,0,1,1-1.85,0Z" transform="translate(-152.43 -849.72)"/><path class="cls-12" d="M666.69,1759.19c0-2.19,1.28-3.58,3.29-3.58a3.06,3.06,0,0,1,3.23,3.17.73.73,0,0,1-.81.8h-3.88v.09a1.51,1.51,0,0,0,1.54,1.67,1.94,1.94,0,0,0,1.63-.82.74.74,0,0,1,.6-.28.68.68,0,0,1,.73.68,1,1,0,0,1-.13.46,3.08,3.08,0,0,1-2.82,1.33A3.17,3.17,0,0,1,666.69,1759.19Zm4.73-.74A1.41,1.41,0,0,0,670,1757a1.46,1.46,0,0,0-1.46,1.47Z" transform="translate(-152.43 -849.72)"/><path class="cls-12" d="M674.16,1761.73v-5.18a.89.89,0,1,1,1.77,0v.44h0a1.5,1.5,0,0,1,1.41-1.34.89.89,0,0,1,.58.17.82.82,0,0,1,.27.69.81.81,0,0,1-.27.66,1.21,1.21,0,0,1-.8.24c-.85,0-1.15.49-1.15,1.3v3a.93.93,0,1,1-1.85,0Z" transform="translate(-152.43 -849.72)"/><path class="cls-12" d="M681.5,1761a1.37,1.37,0,0,1-.1-.52.79.79,0,0,1,.84-.84.92.92,0,0,1,.88.56,1.9,1.9,0,0,0,1.89,1c1,0,1.73-.49,1.73-1.17s-.43-.94-1.58-1.18l-1-.19c-1.83-.36-2.73-1.24-2.73-2.6,0-1.68,1.47-2.79,3.5-2.79,1.68,0,2.94.71,3.35,1.9a1.38,1.38,0,0,1,.07.43.75.75,0,0,1-.82.76,1,1,0,0,1-.92-.56,1.65,1.65,0,0,0-1.68-1c-.94,0-1.57.45-1.57,1.12s.44.91,1.52,1.13l1,.2c1.94.38,2.78,1.16,2.78,2.55,0,1.79-1.41,2.92-3.69,2.92C683.08,1762.71,681.87,1762,681.5,1761Z" transform="translate(-152.43 -849.72)"/><path class="cls-12" d="M689.67,1764v-7.45a.91.91,0,1,1,1.82,0v.36h0a2.22,2.22,0,0,1,2.11-1.29c1.73,0,2.79,1.31,2.79,3.51s-1.06,3.51-2.76,3.51a2.22,2.22,0,0,1-2.11-1.25h0v2.6a.93.93,0,1,1-1.85,0Zm4.86-4.86c0-1.23-.58-2-1.51-2s-1.51.81-1.51,2,.6,2,1.51,2S694.53,1760.4,694.53,1759.16Z" transform="translate(-152.43 -849.72)"/><path class="cls-12" d="M697.11,1760.61c0-1.24.95-2,2.66-2.06l1.71-.1V1758c0-.64-.44-1-1.14-1a1.49,1.49,0,0,0-1.32.72.94.94,0,0,1-.74.34.71.71,0,0,1-.77-.71,1.06,1.06,0,0,1,.09-.42c.32-.81,1.41-1.31,2.82-1.31,1.75,0,2.88.9,2.88,2.27v3.88a.85.85,0,0,1-.9.94.82.82,0,0,1-.89-.83v-.35h0a2.36,2.36,0,0,1-2.08,1.15A2.11,2.11,0,0,1,697.11,1760.61Zm4.37-.54v-.5l-1.44.09c-.69,0-1.08.36-1.08.84s.42.83,1,.83A1.37,1.37,0,0,0,701.48,1760.07Z" transform="translate(-152.43 -849.72)"/><path class="cls-12" d="M705.57,1761.72,704.2,1757a1.9,1.9,0,0,1-.1-.57.82.82,0,0,1,.9-.79.86.86,0,0,1,.87.78l1,4.4h0l1.06-4.33a1.06,1.06,0,0,1,2.08,0l1.06,4.33h0l1-4.41a.85.85,0,0,1,.86-.77.8.8,0,0,1,.88.78,2,2,0,0,1-.11.57l-1.37,4.75a1.13,1.13,0,0,1-1.18,1,1.1,1.1,0,0,1-1.2-1l-1-4h0l-1,4a1.1,1.1,0,0,1-1.19,1C706.11,1762.7,705.77,1762.4,705.57,1761.72Z" transform="translate(-152.43 -849.72)"/><path class="cls-12" d="M714.73,1761.73v-5.18a.84.84,0,0,1,.9-.93.86.86,0,0,1,.92.94v.38h0a2.09,2.09,0,0,1,2.1-1.31,2.24,2.24,0,0,1,2.36,2.55v3.55a.93.93,0,1,1-1.85,0v-3.17c0-.89-.42-1.39-1.25-1.39a1.34,1.34,0,0,0-1.36,1.49v3.07a.93.93,0,1,1-1.86,0Z" transform="translate(-152.43 -849.72)"/><path class="cls-13" d="M587.36,874.68v-7.16a.89.89,0,0,1,1-1h2.54c2.75,0,4.37,1.63,4.37,4.54s-1.62,4.62-4.37,4.62h-2.54A.9.9,0,0,1,587.36,874.68Zm3.27-.58c1.72,0,2.64-1,2.64-3s-.95-3-2.64-3h-1.35v6Z" transform="translate(-152.43 -849.72)"/><path class="cls-13" d="M596.05,872.31c0-2.18,1.28-3.58,3.29-3.58a3.06,3.06,0,0,1,3.23,3.17.74.74,0,0,1-.81.81h-3.88v.08a1.51,1.51,0,0,0,1.54,1.67,1.94,1.94,0,0,0,1.63-.82.76.76,0,0,1,.6-.27.68.68,0,0,1,.73.68,1,1,0,0,1-.13.45,3.06,3.06,0,0,1-2.82,1.33C597.3,875.83,596.05,874.52,596.05,872.31Zm4.73-.74a1.4,1.4,0,0,0-1.42-1.46,1.47,1.47,0,0,0-1.47,1.46Z" transform="translate(-152.43 -849.72)"/><path class="cls-13" d="M604,874.85v-4.57h-.35a.69.69,0,0,1,0-1.37H604v-.51a1.72,1.72,0,0,1,2-2c1,0,1.39.31,1.39.75a.47.47,0,0,1-.37.49,1.25,1.25,0,0,1-.36.05c-.57,0-.8.25-.8.75v.43h.78a.69.69,0,0,1,0,1.37h-.73v4.57a.93.93,0,1,1-1.86,0Z" transform="translate(-152.43 -849.72)"/><path class="cls-13" d="M607.71,872.31c0-2.18,1.27-3.58,3.29-3.58a3.05,3.05,0,0,1,3.22,3.17.73.73,0,0,1-.81.81h-3.88v.08a1.51,1.51,0,0,0,1.55,1.67,1.92,1.92,0,0,0,1.62-.82.78.78,0,0,1,.61-.27.67.67,0,0,1,.72.68.89.89,0,0,1-.13.45,3.05,3.05,0,0,1-2.82,1.33C609,875.83,607.71,874.52,607.71,872.31Zm4.73-.74a1.4,1.4,0,0,0-1.42-1.46,1.46,1.46,0,0,0-1.47,1.46Z" transform="translate(-152.43 -849.72)"/><path class="cls-13" d="M615.17,874.85v-5.18a.85.85,0,0,1,.9-.93.87.87,0,0,1,.92.94v.38h0a2.09,2.09,0,0,1,2.1-1.31,2.25,2.25,0,0,1,2.36,2.55v3.55a.93.93,0,1,1-1.86,0v-3.16c0-.89-.41-1.4-1.25-1.4a1.34,1.34,0,0,0-1.35,1.49v3.07a.93.93,0,1,1-1.86,0Z" transform="translate(-152.43 -849.72)"/><path class="cls-13" d="M622.42,872.27c0-2.16,1.07-3.5,2.78-3.5a2.18,2.18,0,0,1,2.08,1.28h0v-2.69a.93.93,0,1,1,1.85,0v7.52a.86.86,0,0,1-.92.94.87.87,0,0,1-.93-.94v-.39h0a2.12,2.12,0,0,1-2.09,1.3C623.49,875.79,622.42,874.45,622.42,872.27Zm4.91,0c0-1.23-.59-2-1.51-2s-1.51.78-1.51,2,.57,2,1.51,2S627.33,873.53,627.33,872.28Z" transform="translate(-152.43 -849.72)"/><path class="cls-13" d="M630.16,872.31c0-2.18,1.28-3.58,3.29-3.58a3.05,3.05,0,0,1,3.22,3.17.73.73,0,0,1-.8.81H632v.08a1.51,1.51,0,0,0,1.55,1.67,2,2,0,0,0,1.63-.82.75.75,0,0,1,.6-.27.67.67,0,0,1,.72.68,1,1,0,0,1-.12.45,3.07,3.07,0,0,1-2.82,1.33C631.41,875.83,630.16,874.52,630.16,872.31Zm4.73-.74a1.4,1.4,0,0,0-1.42-1.46,1.46,1.46,0,0,0-1.47,1.46Z" transform="translate(-152.43 -849.72)"/><path class="cls-13" d="M637.63,874.85v-5.18a.89.89,0,1,1,1.77,0v.45h0a1.5,1.5,0,0,1,1.42-1.35.91.91,0,0,1,.58.17.85.85,0,0,1,.26.69.87.87,0,0,1-.26.67,1.3,1.3,0,0,1-.81.24c-.84,0-1.14.49-1.14,1.29v3a.93.93,0,1,1-1.85,0Z" transform="translate(-152.43 -849.72)"/><path class="cls-13" d="M645,874.08a1.54,1.54,0,0,1-.1-.51.81.81,0,0,1,.85-.85.92.92,0,0,1,.88.56,1.89,1.89,0,0,0,1.89,1c1,0,1.73-.5,1.73-1.17s-.44-1-1.58-1.18l-1-.19c-1.82-.37-2.72-1.24-2.72-2.61,0-1.67,1.46-2.78,3.5-2.78,1.67,0,2.94.7,3.34,1.9a1.09,1.09,0,0,1,.07.42.75.75,0,0,1-.82.77.94.94,0,0,1-.91-.57,1.65,1.65,0,0,0-1.68-1c-.95,0-1.58.44-1.58,1.11s.44.92,1.53,1.13l1,.2c1.95.39,2.78,1.17,2.78,2.56,0,1.79-1.4,2.92-3.69,2.92C646.54,875.84,645.33,875.08,645,874.08Z" transform="translate(-152.43 -849.72)"/><path class="cls-13" d="M653.13,877.15v-7.46a.92.92,0,1,1,1.83,0v.37h0a2.22,2.22,0,0,1,2.11-1.3c1.72,0,2.78,1.32,2.78,3.51s-1,3.51-2.75,3.51a2.23,2.23,0,0,1-2.12-1.25h0v2.61a.93.93,0,1,1-1.86,0Zm4.86-4.87c0-1.23-.58-2-1.51-2s-1.5.8-1.5,2,.6,2,1.5,2S658,873.52,658,872.28Z" transform="translate(-152.43 -849.72)"/><path class="cls-13" d="M660.58,873.73c0-1.24.95-2,2.65-2.06l1.72-.1v-.45c0-.63-.45-1-1.15-1a1.48,1.48,0,0,0-1.32.72,1,1,0,0,1-.73.34.71.71,0,0,1-.78-.71.9.9,0,0,1,.1-.42c.31-.81,1.41-1.32,2.81-1.32,1.75,0,2.89.91,2.89,2.28v3.88a.85.85,0,0,1-.9.93A.81.81,0,0,1,665,875v-.35h0a2.34,2.34,0,0,1-2.08,1.15A2.1,2.1,0,0,1,660.58,873.73Zm4.37-.54v-.49l-1.44.08c-.69.06-1.09.37-1.09.85s.42.82,1.05.82A1.36,1.36,0,0,0,665,873.19Z" transform="translate(-152.43 -849.72)"/><path class="cls-13" d="M669,874.85l-1.37-4.74a2,2,0,0,1-.1-.58.81.81,0,0,1,.89-.79.86.86,0,0,1,.87.79l1,4.4h0l1-4.34a1.06,1.06,0,0,1,2.08,0l1.06,4.34h0l1-4.41a.85.85,0,0,1,.85-.78.8.8,0,0,1,.88.79,1.89,1.89,0,0,1-.1.56l-1.37,4.75a1.14,1.14,0,0,1-1.19,1,1.09,1.09,0,0,1-1.2-1l-1-4h0l-1,4a1.1,1.1,0,0,1-1.19,1C669.57,875.82,669.24,875.52,669,874.85Z" transform="translate(-152.43 -849.72)"/><path class="cls-13" d="M678.2,874.85v-5.18a.85.85,0,0,1,.89-.93.87.87,0,0,1,.93.94v.38h0a2.09,2.09,0,0,1,2.09-1.31,2.25,2.25,0,0,1,2.36,2.55v3.55a.93.93,0,1,1-1.85,0v-3.16c0-.89-.42-1.4-1.25-1.4a1.35,1.35,0,0,0-1.36,1.49v3.07a.93.93,0,1,1-1.85,0Z" transform="translate(-152.43 -849.72)"/><path class="cls-14" d="M949.35,1406.75v-6a.76.76,0,0,1,.81-.85h2.56c1.46,0,2.37.75,2.37,1.94a1.72,1.72,0,0,1-1.46,1.68v0a1.88,1.88,0,0,1,1.83,1.87c0,1.37-1,2.22-2.68,2.22h-2.62A.76.76,0,0,1,949.35,1406.75Zm2.78-3.67c.87,0,1.36-.39,1.36-1s-.43-1-1.19-1H951v2Zm.24,3.31c.93,0,1.43-.39,1.43-1.13s-.52-1.12-1.47-1.12H951v2.25Z" transform="translate(-152.43 -849.72)"/><path class="cls-14" d="M956,1404.75a2.72,2.72,0,0,1,2.78-3,2.58,2.58,0,0,1,2.73,2.68.62.62,0,0,1-.68.68h-3.29v.07a1.29,1.29,0,0,0,1.31,1.42,1.65,1.65,0,0,0,1.38-.7.63.63,0,0,1,.51-.23.57.57,0,0,1,.61.58.82.82,0,0,1-.11.38,2.58,2.58,0,0,1-2.38,1.13A2.68,2.68,0,0,1,956,1404.75Zm4-.63a1.18,1.18,0,0,0-1.2-1.24,1.24,1.24,0,0,0-1.24,1.24Z" transform="translate(-152.43 -849.72)"/><path class="cls-14" d="M962.39,1406.9v-6.34a.79.79,0,1,1,1.57,0v6.34a.79.79,0,1,1-1.57,0Z" transform="translate(-152.43 -849.72)"/><path class="cls-14" d="M965.44,1403h-.3a.59.59,0,1,1,0-1.18h.3v-.64a.79.79,0,1,1,1.57,0v.64h.55a.59.59,0,1,1,0,1.18H967v2.75c0,.41.14.58.48.61h.1c.38,0,.59.2.59.57s-.45.7-1.11.7H967a1.38,1.38,0,0,1-1.58-1.54Z" transform="translate(-152.43 -849.72)"/><path class="cls-14" d="M942,1336.46a1.69,1.69,0,0,1-.13-.66.71.71,0,0,1,.75-.76.73.73,0,0,1,.77.64,1,1,0,0,0,1,.81c.68,0,1-.42,1-1.2v-4.55a.82.82,0,1,1,1.63,0v4.56a2.39,2.39,0,0,1-2.65,2.58A2.46,2.46,0,0,1,942,1336.46Z" transform="translate(-152.43 -849.72)"/><path class="cls-14" d="M948.05,1336.1c0-1,.81-1.65,2.25-1.74l1.45-.09v-.38c0-.53-.38-.85-1-.85a1.24,1.24,0,0,0-1.11.61.83.83,0,0,1-.63.29.6.6,0,0,1-.65-.6.76.76,0,0,1,.08-.36,2.43,2.43,0,0,1,2.38-1.11c1.48,0,2.44.76,2.44,1.92v3.29a.72.72,0,0,1-.76.79.69.69,0,0,1-.75-.7v-.3h0a2,2,0,0,1-1.76,1A1.79,1.79,0,0,1,948.05,1336.1Zm3.7-.46v-.42l-1.21.08c-.59,0-.92.31-.92.71s.35.7.88.7A1.15,1.15,0,0,0,951.75,1335.64Z" transform="translate(-152.43 -849.72)"/><path class="cls-14" d="M954.27,1330.47a.84.84,0,1,1,.84.81A.81.81,0,0,1,954.27,1330.47Zm.06,6.58v-4.35a.79.79,0,1,1,1.57,0v4.35a.79.79,0,1,1-1.57,0Z" transform="translate(-152.43 -849.72)"/><path class="cls-14" d="M957,1337.05v-6.34a.78.78,0,1,1,1.56,0v6.34a.78.78,0,1,1-1.56,0Z" transform="translate(-152.43 -849.72)"/><path class="cls-14" d="M872.5,1337v-6.33a.74.74,0,0,1,.82-.81.91.91,0,0,1,.8.47l3.35,4.68h0v-4.34a.78.78,0,1,1,1.55,0v6.36a.72.72,0,0,1-.8.79.91.91,0,0,1-.81-.47l-3.36-4.71h-.05V1337a.78.78,0,1,1-1.55,0Z" transform="translate(-152.43 -849.72)"/><path class="cls-14" d="M880,1334.9a2.72,2.72,0,0,1,2.79-3,2.59,2.59,0,0,1,2.73,2.68.62.62,0,0,1-.69.68h-3.28v.07a1.28,1.28,0,0,0,1.31,1.42,1.63,1.63,0,0,0,1.37-.7.65.65,0,0,1,.51-.23.57.57,0,0,1,.61.58.8.8,0,0,1-.1.38,2.6,2.6,0,0,1-2.39,1.13A2.68,2.68,0,0,1,880,1334.9Zm4-.63a1.2,1.2,0,0,0-1.21-1.24,1.25,1.25,0,0,0-1.24,1.24Z" transform="translate(-152.43 -849.72)"/><path class="cls-14" d="M886.2,1336.73a.83.83,0,0,1-.06-.29.59.59,0,0,1,.64-.6.9.9,0,0,1,.68.35,1.4,1.4,0,0,0,1.25.59c.58,0,.95-.24.95-.62s-.2-.48-.77-.6l-1-.21c-1.13-.24-1.7-.81-1.7-1.67,0-1.1.95-1.81,2.44-1.81a2.24,2.24,0,0,1,2.26,1.19,1.09,1.09,0,0,1,0,.24c0,.31-.2.53-.61.53a.74.74,0,0,1-.57-.24,1.34,1.34,0,0,0-1.14-.62c-.54,0-.91.26-.91.63s.23.5.8.62l1,.2c1.23.26,1.73.71,1.73,1.57,0,1.15-1,1.89-2.54,1.89C887.36,1337.88,886.48,1337.4,886.2,1336.73Z" transform="translate(-152.43 -849.72)"/><path class="cls-14" d="M892.42,1333.18h-.3a.59.59,0,1,1,0-1.18h.3v-.64a.78.78,0,1,1,1.56,0v.64h.56a.59.59,0,1,1,0,1.18H894v2.75c0,.41.14.58.48.61h.1c.39,0,.6.2.6.57s-.45.7-1.11.7h0a1.38,1.38,0,0,1-1.58-1.54Z" transform="translate(-152.43 -849.72)"/><path class="cls-14" d="M842.16,1273.62v-6.16a.76.76,0,0,1,.81-.84h2.34a2.53,2.53,0,0,1,2.69,2.65,2.57,2.57,0,0,1-2.77,2.65h-1.45v1.7a.81.81,0,1,1-1.62,0Zm2.72-3a1.38,1.38,0,1,0,0-2.75h-1.1v2.75Z" transform="translate(-152.43 -849.72)"/><path class="cls-14" d="M848.79,1267.08a.84.84,0,1,1,.84.81A.82.82,0,0,1,848.79,1267.08Zm.06,6.58v-4.35a.79.79,0,1,1,1.57,0v4.35a.79.79,0,1,1-1.57,0Z" transform="translate(-152.43 -849.72)"/><path class="cls-14" d="M851.46,1275.6v-6.31a.73.73,0,0,1,.77-.8.74.74,0,0,1,.78.81v.31h0a1.88,1.88,0,0,1,1.78-1.09c1.46,0,2.36,1.11,2.36,3s-.89,3-2.33,3a1.89,1.89,0,0,1-1.79-1.06h0v2.2a.79.79,0,1,1-1.57,0Zm4.11-4.11c0-1-.49-1.72-1.28-1.72s-1.27.69-1.27,1.72.51,1.7,1.27,1.7S855.57,1272.53,855.57,1271.49Z" transform="translate(-152.43 -849.72)"/><path class="cls-14" d="M857.78,1271.51a2.71,2.71,0,0,1,2.78-3,2.59,2.59,0,0,1,2.73,2.68.63.63,0,0,1-.69.69h-3.28v.07a1.28,1.28,0,0,0,1.31,1.41,1.65,1.65,0,0,0,1.37-.69.63.63,0,0,1,.51-.24.58.58,0,0,1,.62.58.82.82,0,0,1-.11.38,2.6,2.6,0,0,1-2.39,1.13A2.67,2.67,0,0,1,857.78,1271.51Zm4-.63a1.2,1.2,0,0,0-1.21-1.24,1.25,1.25,0,0,0-1.24,1.24Z" transform="translate(-152.43 -849.72)"/><path class="cls-14" d="M864,1273.34a.83.83,0,0,1-.06-.29.59.59,0,0,1,.64-.6.9.9,0,0,1,.68.35,1.4,1.4,0,0,0,1.26.59c.56,0,.94-.24.94-.62s-.2-.48-.77-.6l-1-.21c-1.13-.24-1.7-.81-1.7-1.67,0-1.1,1-1.81,2.44-1.81a2.23,2.23,0,0,1,2.26,1.2.93.93,0,0,1,0,.23c0,.31-.2.53-.6.53a.73.73,0,0,1-.57-.24,1.37,1.37,0,0,0-1.15-.62c-.53,0-.91.26-.91.63s.23.5.8.62l1,.21c1.23.25,1.73.7,1.73,1.56,0,1.15-1,1.89-2.54,1.89C865.12,1274.49,864.24,1274,864,1273.34Z" transform="translate(-152.43 -849.72)"/><path class="cls-14" d="M883.65,1205.25v-.74h-2.89a.9.9,0,0,1-1-.91,2.07,2.07,0,0,1,.34-1.06c.53-1,1.3-2.14,2.15-3.39.53-.82.93-1.09,1.58-1.09.82,0,1.34.45,1.34,1.17v4h.44a.65.65,0,1,1,0,1.3h-.44v.74a.77.77,0,1,1-1.54,0Zm0-5.89h0a38.32,38.32,0,0,0-2.45,3.85v0h2.48Z" transform="translate(-152.43 -849.72)"/><path class="cls-14" d="M887.1,1202.78a.67.67,0,0,1,.74-.69h2.24a.69.69,0,1,1,0,1.37h-2.24A.67.67,0,0,1,887.1,1202.78Z" transform="translate(-152.43 -849.72)"/><path class="cls-14" d="M893.63,1205.23v-5.55h0l-1.13.79a.65.65,0,0,1-.43.15.55.55,0,0,1-.57-.58.7.7,0,0,1,.35-.61l1.54-1.06a1.48,1.48,0,0,1,1-.31.84.84,0,0,1,.92.91v6.26a.8.8,0,1,1-1.6,0Z" transform="translate(-152.43 -849.72)"/><path class="cls-14" d="M896.87,1202c0-2.5,1.21-4,3.17-4s3.15,1.53,3.15,4-1.19,4.06-3.15,4.06S896.87,1204.55,896.87,1202Zm4.67,0c0-1.77-.55-2.74-1.5-2.74s-1.52,1-1.52,2.74.56,2.76,1.52,2.76S901.54,1203.82,901.54,1202Z" transform="translate(-152.43 -849.72)"/><path class="cls-14" d="M746,1169.07a1.32,1.32,0,0,1-.08-.44.67.67,0,0,1,.71-.71.8.8,0,0,1,.75.47,1.6,1.6,0,0,0,1.6.86c.87,0,1.46-.42,1.46-1s-.37-.8-1.34-1l-.82-.16c-1.55-.3-2.31-1-2.31-2.2,0-1.42,1.24-2.36,3-2.36a2.77,2.77,0,0,1,2.84,1.61,1.3,1.3,0,0,1,0,.36.63.63,0,0,1-.69.65.8.8,0,0,1-.77-.48,1.42,1.42,0,0,0-1.43-.83c-.79,0-1.33.38-1.33,1s.37.77,1.29,1l.82.17c1.64.33,2.35,1,2.35,2.17,0,1.51-1.19,2.47-3.12,2.47C747.33,1170.56,746.3,1169.92,746,1169.07Z" transform="translate(-152.43 -849.72)"/><path class="cls-14" d="M752.7,1167.55a2.71,2.71,0,0,1,2.82-3,2.49,2.49,0,0,1,2.43,1.37,1.23,1.23,0,0,1,.08.39.62.62,0,0,1-.67.61.68.68,0,0,1-.66-.41,1.22,1.22,0,0,0-1.13-.73c-.8,0-1.28.65-1.28,1.76s.48,1.78,1.27,1.78a1.24,1.24,0,0,0,1.13-.68c.21-.32.38-.46.71-.46a.62.62,0,0,1,.66.63,1,1,0,0,1-.1.41,2.62,2.62,0,0,1-2.43,1.33A2.71,2.71,0,0,1,752.7,1167.55Z" transform="translate(-152.43 -849.72)"/><path class="cls-14" d="M758.9,1169.72v-4.38a.72.72,0,0,1,.76-.79.71.71,0,0,1,.74.79v.38h0a1.26,1.26,0,0,1,1.2-1.14.79.79,0,0,1,.49.14.86.86,0,0,1,0,1.15,1,1,0,0,1-.69.2c-.71,0-1,.42-1,1.1v2.55a.79.79,0,1,1-1.57,0Z" transform="translate(-152.43 -849.72)"/><path class="cls-14" d="M762.5,1167.58a2.72,2.72,0,0,1,2.79-3,2.57,2.57,0,0,1,2.72,2.68.62.62,0,0,1-.68.68H764v.07a1.29,1.29,0,0,0,1.32,1.41,1.62,1.62,0,0,0,1.37-.69.65.65,0,0,1,.51-.23.56.56,0,0,1,.61.57.9.9,0,0,1-.1.38,2.61,2.61,0,0,1-2.39,1.13A2.68,2.68,0,0,1,762.5,1167.58Zm4-.63a1.18,1.18,0,0,0-1.2-1.24,1.23,1.23,0,0,0-1.24,1.24Z" transform="translate(-152.43 -849.72)"/><path class="cls-14" d="M768.61,1167.58a2.71,2.71,0,0,1,2.78-3,2.58,2.58,0,0,1,2.73,2.68.62.62,0,0,1-.68.68h-3.29v.07a1.28,1.28,0,0,0,1.31,1.41,1.64,1.64,0,0,0,1.38-.69.63.63,0,0,1,.51-.23.56.56,0,0,1,.61.57.79.79,0,0,1-.11.38,2.58,2.58,0,0,1-2.38,1.13A2.68,2.68,0,0,1,768.61,1167.58Zm4-.63a1.18,1.18,0,0,0-1.2-1.24,1.23,1.23,0,0,0-1.24,1.24Z" transform="translate(-152.43 -849.72)"/><path class="cls-14" d="M774.93,1169.72v-4.38a.71.71,0,0,1,.75-.79.74.74,0,0,1,.79.8v.32h0a1.76,1.76,0,0,1,1.77-1.11,1.9,1.9,0,0,1,2,2.16v3a.79.79,0,1,1-1.57,0V1167c0-.75-.35-1.18-1.06-1.18a1.14,1.14,0,0,0-1.15,1.26v2.6a.78.78,0,1,1-1.56,0Z" transform="translate(-152.43 -849.72)"/><path class="cls-14" d="M849.43,1088.66v-6.17a.76.76,0,0,1,.81-.85h2.36c1.78,0,2.8.94,2.8,2.47a2.24,2.24,0,0,1-1.33,2.16l1.12,1.94a1,1,0,0,1,.17.56.76.76,0,0,1-.82.74c-.38,0-.56-.14-.82-.62l-1.29-2.33h-1.38v2.1a.81.81,0,1,1-1.62,0Zm3-3.28a1.16,1.16,0,0,0,1.29-1.23,1.19,1.19,0,0,0-1.31-1.24h-1.38v2.47Z" transform="translate(-152.43 -849.72)"/><path class="cls-14" d="M856.08,1087.74c0-1,.81-1.66,2.25-1.74l1.45-.09v-.38c0-.54-.38-.85-1-.85a1.27,1.27,0,0,0-1.12.61.8.8,0,0,1-.62.29.61.61,0,0,1-.66-.6.9.9,0,0,1,.08-.36,2.45,2.45,0,0,1,2.39-1.11c1.48,0,2.44.76,2.44,1.93v3.28a.72.72,0,0,1-.77.79.7.7,0,0,1-.75-.7v-.3h0a2,2,0,0,1-1.76,1A1.77,1.77,0,0,1,856.08,1087.74Zm3.7-.46v-.42l-1.22.08c-.58,0-.92.31-.92.71s.36.7.89.7A1.15,1.15,0,0,0,859.78,1087.28Z" transform="translate(-152.43 -849.72)"/><path class="cls-14" d="M862.75,1088.69v-3.87h-.3a.58.58,0,1,1,0-1.16h.3v-.43a1.45,1.45,0,0,1,1.64-1.66c.83,0,1.18.27,1.18.64a.39.39,0,0,1-.32.41,1.21,1.21,0,0,1-.3,0c-.48,0-.67.21-.67.64v.36h.66a.58.58,0,0,1,0,1.16h-.63v3.87a.78.78,0,1,1-1.56,0Z" transform="translate(-152.43 -849.72)"/><path class="cls-14" d="M866.66,1084.82h-.3a.59.59,0,1,1,0-1.18h.3V1083a.79.79,0,1,1,1.57,0v.64h.55a.59.59,0,1,1,0,1.18h-.55v2.75c0,.41.14.58.48.61h.1c.39,0,.6.2.6.57s-.45.7-1.12.7h0a1.38,1.38,0,0,1-1.58-1.54Z" transform="translate(-152.43 -849.72)"/><path class="cls-14" d="M869.86,1086.54a2.72,2.72,0,0,1,2.79-3,2.58,2.58,0,0,1,2.72,2.68.61.61,0,0,1-.68.68H871.4v.07a1.29,1.29,0,0,0,1.31,1.42,1.63,1.63,0,0,0,1.38-.7.65.65,0,0,1,.51-.23.57.57,0,0,1,.61.58.8.8,0,0,1-.1.38,2.61,2.61,0,0,1-2.39,1.13A2.68,2.68,0,0,1,869.86,1086.54Zm4-.63a1.2,1.2,0,0,0-1.21-1.24,1.24,1.24,0,0,0-1.24,1.24Z" transform="translate(-152.43 -849.72)"/><path class="cls-14" d="M876.18,1088.69v-4.38a.72.72,0,0,1,.76-.79.71.71,0,0,1,.74.79v.37h0a1.27,1.27,0,0,1,1.2-1.14.74.74,0,0,1,.49.15.85.85,0,0,1,0,1.14,1.09,1.09,0,0,1-.69.21c-.71,0-1,.41-1,1.09v2.56a.79.79,0,1,1-1.57,0Z" transform="translate(-152.43 -849.72)"/><path class="cls-14" d="M880.05,1088.37a.83.83,0,0,1-.06-.29.59.59,0,0,1,.64-.6.9.9,0,0,1,.68.35,1.42,1.42,0,0,0,1.26.59c.56,0,.94-.24.94-.62s-.2-.48-.77-.6l-1-.21c-1.13-.24-1.7-.81-1.7-1.67,0-1.1.95-1.81,2.44-1.81a2.23,2.23,0,0,1,2.26,1.19,1.09,1.09,0,0,1,0,.24c0,.31-.2.53-.61.53a.72.72,0,0,1-.56-.24,1.37,1.37,0,0,0-1.15-.62c-.54,0-.91.26-.91.63s.23.5.8.62l1,.2c1.23.26,1.73.71,1.73,1.57,0,1.15-1,1.89-2.54,1.89C881.21,1089.52,880.33,1089,880.05,1088.37Z" transform="translate(-152.43 -849.72)"/><path class="cls-14" d="M610.63,1174.9v-6.05a.76.76,0,0,1,.81-.85H614c1.45,0,2.37.75,2.37,1.94a1.73,1.73,0,0,1-1.46,1.68v0a1.88,1.88,0,0,1,1.83,1.87c0,1.37-1,2.22-2.68,2.22h-2.62A.76.76,0,0,1,610.63,1174.9Zm2.78-3.67c.87,0,1.36-.39,1.36-1s-.43-1-1.19-1h-1.33v2Zm.23,3.31c.94,0,1.44-.39,1.44-1.13s-.52-1.12-1.47-1.12h-1.36v2.25Z" transform="translate(-152.43 -849.72)"/><path class="cls-14" d="M617.32,1172.87a2.85,2.85,0,1,1,2.85,3A2.73,2.73,0,0,1,617.32,1172.87Zm4.11,0c0-1.14-.5-1.8-1.26-1.8s-1.26.66-1.26,1.8.49,1.81,1.26,1.81S621.43,1174,621.43,1172.87Z" transform="translate(-152.43 -849.72)"/><path class="cls-14" d="M623.8,1168.47a.84.84,0,1,1,.84.81A.81.81,0,0,1,623.8,1168.47Zm.05,6.58v-4.35a.79.79,0,1,1,1.57,0v4.35a.79.79,0,1,1-1.57,0Z" transform="translate(-152.43 -849.72)"/><path class="cls-14" d="M626.5,1175.05v-6.34a.79.79,0,1,1,1.57,0v6.34a.79.79,0,1,1-1.57,0Z" transform="translate(-152.43 -849.72)"/><path class="cls-14" d="M628.92,1172.9a2.72,2.72,0,0,1,2.78-3,2.59,2.59,0,0,1,2.73,2.68.62.62,0,0,1-.68.68h-3.29v.07a1.29,1.29,0,0,0,1.31,1.42,1.65,1.65,0,0,0,1.38-.7.63.63,0,0,1,.51-.23.58.58,0,0,1,.61.58.82.82,0,0,1-.11.38,2.58,2.58,0,0,1-2.38,1.13A2.68,2.68,0,0,1,628.92,1172.9Zm4-.63a1.19,1.19,0,0,0-1.2-1.24,1.24,1.24,0,0,0-1.24,1.24Z" transform="translate(-152.43 -849.72)"/><path class="cls-14" d="M635.23,1175.05v-4.38a.72.72,0,0,1,.76-.79.71.71,0,0,1,.74.79v.37h0a1.27,1.27,0,0,1,1.19-1.14.72.72,0,0,1,.49.15.82.82,0,0,1,0,1.14,1.06,1.06,0,0,1-.68.21c-.71,0-1,.41-1,1.09v2.56a.74.74,0,0,1-.78.82A.75.75,0,0,1,635.23,1175.05Z" transform="translate(-152.43 -849.72)"/><path class="cls-14" d="M702,1270.2V1264a.76.76,0,0,1,.81-.85h2.34a2.54,2.54,0,0,1,2.69,2.66,2.57,2.57,0,0,1-2.77,2.65h-1.45v1.7a.81.81,0,1,1-1.62,0Zm2.72-3a1.38,1.38,0,1,0,0-2.75h-1.1v2.75Z" transform="translate(-152.43 -849.72)"/><path class="cls-14" d="M708.08,1269.29c0-1,.8-1.66,2.24-1.74l1.45-.09v-.38c0-.54-.37-.85-1-.85a1.27,1.27,0,0,0-1.12.61.8.8,0,0,1-.62.29.61.61,0,0,1-.66-.6.9.9,0,0,1,.08-.36,2.45,2.45,0,0,1,2.39-1.11c1.47,0,2.44.76,2.44,1.92v3.29a.72.72,0,0,1-.77.79.7.7,0,0,1-.75-.7v-.3h0a2,2,0,0,1-1.76,1A1.78,1.78,0,0,1,708.08,1269.29Zm3.69-.46v-.42l-1.21.08c-.59,0-.92.3-.92.71s.36.7.88.7A1.15,1.15,0,0,0,711.77,1268.83Z" transform="translate(-152.43 -849.72)"/><path class="cls-14" d="M714.36,1270.24v-6.34a.79.79,0,1,1,1.57,0v6.34a.79.79,0,1,1-1.57,0Z" transform="translate(-152.43 -849.72)"/><path class="cls-14" d="M717,1270.24v-6.34a.79.79,0,1,1,1.57,0v6.34a.79.79,0,1,1-1.57,0Z" transform="translate(-152.43 -849.72)"/><path class="cls-14" d="M719.44,1268.09a2.72,2.72,0,0,1,2.79-3,2.59,2.59,0,0,1,2.73,2.68.62.62,0,0,1-.69.68H721v.07a1.28,1.28,0,0,0,1.31,1.42,1.63,1.63,0,0,0,1.37-.7.65.65,0,0,1,.51-.23.57.57,0,0,1,.61.58.8.8,0,0,1-.1.38,2.61,2.61,0,0,1-2.39,1.13A2.68,2.68,0,0,1,719.44,1268.09Zm4-.63a1.2,1.2,0,0,0-1.21-1.24,1.25,1.25,0,0,0-1.24,1.24Z" transform="translate(-152.43 -849.72)"/><path class="cls-14" d="M726.18,1266.37h-.3a.59.59,0,1,1,0-1.18h.3v-.64a.79.79,0,1,1,1.57,0v.64h.55a.59.59,0,1,1,0,1.18h-.55v2.75c0,.41.14.58.48.61h.1c.38,0,.59.2.59.57s-.45.7-1.11.7h0a1.38,1.38,0,0,1-1.58-1.54Z" transform="translate(-152.43 -849.72)"/><path class="cls-14" d="M546.09,1347v-5.67h-1.6a.67.67,0,1,1,0-1.34h4.83a.67.67,0,1,1,0,1.34h-1.61V1347a.81.81,0,1,1-1.62,0Z" transform="translate(-152.43 -849.72)"/><path class="cls-14" d="M550,1345.68v-3a.78.78,0,1,1,1.56,0v2.68c0,.77.39,1.17,1.08,1.17a1.12,1.12,0,0,0,1.13-1.26v-2.59a.79.79,0,1,1,1.57,0v4.37a.76.76,0,1,1-1.52,0v-.36h0a1.7,1.7,0,0,1-1.72,1.15A2,2,0,0,1,550,1345.68Z" transform="translate(-152.43 -849.72)"/><path class="cls-14" d="M556.39,1347.05v-6.37a.79.79,0,1,1,1.57,0V1343h0a1.88,1.88,0,0,1,1.78-1.09c1.45,0,2.34,1.11,2.34,3s-.88,3-2.34,3a1.9,1.9,0,0,1-1.8-1.08h0v.31a.77.77,0,1,1-1.54,0Zm4.11-2.2c0-1-.49-1.71-1.27-1.71s-1.28.68-1.28,1.71.52,1.71,1.28,1.71S560.5,1345.9,560.5,1344.85Z" transform="translate(-152.43 -849.72)"/><path class="cls-14" d="M562.71,1344.88a2.72,2.72,0,0,1,2.78-3,2.58,2.58,0,0,1,2.73,2.68.62.62,0,0,1-.68.68h-3.29v.07a1.28,1.28,0,0,0,1.31,1.41,1.64,1.64,0,0,0,1.38-.69.63.63,0,0,1,.51-.23.56.56,0,0,1,.61.57.82.82,0,0,1-.11.39,2.58,2.58,0,0,1-2.38,1.12A2.68,2.68,0,0,1,562.71,1344.88Zm4-.63a1.18,1.18,0,0,0-1.2-1.24,1.23,1.23,0,0,0-1.24,1.24Z" transform="translate(-152.43 -849.72)"/><path class="cls-14" d="M514.59,1153.37v-6.27a.81.81,0,1,1,1.62,0v2.69h0l2.92-3.19a.9.9,0,0,1,.69-.35.75.75,0,0,1,.77.75.83.83,0,0,1-.29.62l-2.14,2.24,2.33,2.82a1.27,1.27,0,0,1,.35.76.77.77,0,0,1-.79.78.94.94,0,0,1-.81-.45l-2.31-2.84-.77.81v1.63a.81.81,0,1,1-1.62,0Z" transform="translate(-152.43 -849.72)"/><path class="cls-14" d="M521.69,1146.83a.84.84,0,1,1,.84.81A.81.81,0,0,1,521.69,1146.83Zm.06,6.58v-4.35a.79.79,0,1,1,1.57,0v4.35a.79.79,0,1,1-1.57,0Z" transform="translate(-152.43 -849.72)"/><path class="cls-14" d="M524.78,1149.54h-.3a.6.6,0,1,1,0-1.19h.3v-.63a.79.79,0,1,1,1.57,0v.63h.55a.56.56,0,0,1,.6.6.55.55,0,0,1-.6.59h-.55v2.75c0,.41.14.58.47.61h.11c.38,0,.59.2.59.57s-.45.7-1.11.7h0a1.38,1.38,0,0,1-1.58-1.54Z" transform="translate(-152.43 -849.72)"/><path class="cls-14" d="M528,1151.23a2.71,2.71,0,0,1,2.82-3,2.5,2.5,0,0,1,2.43,1.38,1,1,0,0,1,.09.38.61.61,0,0,1-.67.61.68.68,0,0,1-.66-.4,1.23,1.23,0,0,0-1.14-.74c-.79,0-1.28.66-1.28,1.77s.49,1.78,1.27,1.78a1.23,1.23,0,0,0,1.13-.68c.21-.33.38-.46.71-.46a.62.62,0,0,1,.66.63.94.94,0,0,1-.1.4,2.6,2.6,0,0,1-2.43,1.34A2.71,2.71,0,0,1,528,1151.23Z" transform="translate(-152.43 -849.72)"/><path class="cls-14" d="M534.22,1153.41v-6.36a.77.77,0,1,1,1.54,0v2.33h0a1.84,1.84,0,0,1,1.81-1.13,1.91,1.91,0,0,1,2,2.16v3a.79.79,0,1,1-1.57,0v-2.67c0-.74-.36-1.19-1.08-1.19a1.14,1.14,0,0,0-1.17,1.28v2.58a.79.79,0,1,1-1.57,0Z" transform="translate(-152.43 -849.72)"/><path class="cls-14" d="M540.4,1151.26a2.72,2.72,0,0,1,2.78-3,2.58,2.58,0,0,1,2.73,2.68.61.61,0,0,1-.68.68h-3.29v.07a1.29,1.29,0,0,0,1.31,1.42,1.63,1.63,0,0,0,1.38-.7.65.65,0,0,1,.51-.23.57.57,0,0,1,.61.58.82.82,0,0,1-.11.38,2.58,2.58,0,0,1-2.38,1.13A2.68,2.68,0,0,1,540.4,1151.26Zm4-.63a1.18,1.18,0,0,0-1.2-1.24,1.24,1.24,0,0,0-1.24,1.24Z" transform="translate(-152.43 -849.72)"/><path class="cls-14" d="M546.72,1153.41V1149a.71.71,0,0,1,.76-.79.73.73,0,0,1,.78.79v.32h0a1.77,1.77,0,0,1,1.77-1.1,1.9,1.9,0,0,1,2,2.15v3a.79.79,0,1,1-1.57,0v-2.68c0-.75-.35-1.18-1-1.18a1.13,1.13,0,0,0-1.15,1.26v2.6a.79.79,0,1,1-1.57,0Z" transform="translate(-152.43 -849.72)"/><path class="cls-14" d="M360.55,1175v-6.27a.81.81,0,1,1,1.62,0v2.41h3.49v-2.41a.81.81,0,1,1,1.62,0V1175a.81.81,0,1,1-1.62,0v-2.52h-3.49V1175a.81.81,0,1,1-1.62,0Z" transform="translate(-152.43 -849.72)"/><path class="cls-14" d="M368.09,1174.1c0-1,.81-1.66,2.25-1.74l1.45-.09v-.38c0-.54-.38-.85-1-.85a1.27,1.27,0,0,0-1.12.61.8.8,0,0,1-.62.29.6.6,0,0,1-.65-.6.76.76,0,0,1,.08-.36,2.42,2.42,0,0,1,2.38-1.11c1.48,0,2.44.76,2.44,1.92v3.29a.72.72,0,0,1-.76.79.7.7,0,0,1-.76-.7v-.3h0a2,2,0,0,1-1.76,1A1.78,1.78,0,0,1,368.09,1174.1Zm3.7-.46v-.42l-1.22.08c-.58,0-.91.3-.91.71s.35.7.88.7A1.15,1.15,0,0,0,371.79,1173.64Z" transform="translate(-152.43 -849.72)"/><path class="cls-14" d="M374.38,1175.05v-6.34a.79.79,0,1,1,1.57,0v6.34a.79.79,0,1,1-1.57,0Z" transform="translate(-152.43 -849.72)"/><path class="cls-14" d="M377,1175.05v-6.34a.79.79,0,1,1,1.57,0v6.34a.79.79,0,1,1-1.57,0Z" transform="translate(-152.43 -849.72)"/><path class="cls-14" d="M187.65,1092.71a1.31,1.31,0,0,1-.08-.43.68.68,0,0,1,.71-.72.78.78,0,0,1,.75.47,1.58,1.58,0,0,0,1.6.86c.87,0,1.46-.41,1.46-1s-.36-.8-1.34-1l-.82-.16c-1.54-.31-2.3-1-2.3-2.21,0-1.41,1.23-2.35,3-2.35a2.75,2.75,0,0,1,2.83,1.6,1,1,0,0,1,.06.36.64.64,0,0,1-.7.65.79.79,0,0,1-.77-.48,1.41,1.41,0,0,0-1.42-.82c-.8,0-1.33.37-1.33.94s.37.77,1.28,1l.82.16c1.64.33,2.35,1,2.35,2.17,0,1.51-1.18,2.47-3.12,2.47C189,1094.2,188,1093.56,187.65,1092.71Z" transform="translate(-152.43 -849.72)"/><path class="cls-14" d="M194.57,1093.37V1089a.71.71,0,0,1,.75-.79.74.74,0,0,1,.79.8v.32h0a1.77,1.77,0,0,1,1.77-1.1,1.9,1.9,0,0,1,2,2.15v3a.79.79,0,1,1-1.57,0v-2.68c0-.76-.35-1.19-1.05-1.19a1.14,1.14,0,0,0-1.15,1.27v2.6a.79.79,0,1,1-1.57,0Z" transform="translate(-152.43 -849.72)"/><path class="cls-14" d="M200.7,1091.19a2.85,2.85,0,1,1,2.85,3A2.72,2.72,0,0,1,200.7,1091.19Zm4.1,0c0-1.14-.49-1.8-1.25-1.8s-1.26.66-1.26,1.8.48,1.81,1.26,1.81S204.8,1092.35,204.8,1091.19Z" transform="translate(-152.43 -849.72)"/><path class="cls-14" d="M208.09,1093.36l-1.16-4a1.55,1.55,0,0,1-.08-.48.69.69,0,0,1,.75-.68.73.73,0,0,1,.74.67l.85,3.72h0l.89-3.67a.9.9,0,0,1,1.76,0l.9,3.67h0l.86-3.73a.72.72,0,0,1,.72-.66.68.68,0,0,1,.74.67,1.59,1.59,0,0,1-.08.48l-1.16,4a1,1,0,0,1-1,.82.91.91,0,0,1-1-.83L211,1090h0l-.87,3.36a.92.92,0,0,1-1,.82C208.54,1094.18,208.26,1093.93,208.09,1093.36Z" transform="translate(-152.43 -849.72)"/><path class="cls-14" d="M215.84,1093.37V1089a.76.76,0,1,1,1.52,0v.36h0a1.68,1.68,0,0,1,1.64-1.14,1.52,1.52,0,0,1,1.61,1.18h0a1.82,1.82,0,0,1,1.79-1.18,1.8,1.8,0,0,1,1.88,1.93v3.23a.78.78,0,1,1-1.56,0v-2.84c0-.67-.34-1-.94-1a1,1,0,0,0-1,1.07v2.8a.76.76,0,1,1-1.51,0v-2.89a.88.88,0,0,0-.93-1,1,1,0,0,0-1,1.1v2.77a.79.79,0,1,1-1.57,0Z" transform="translate(-152.43 -849.72)"/><path class="cls-14" d="M225.11,1092.42c0-1.05.81-1.66,2.25-1.74l1.45-.09v-.38c0-.54-.38-.85-1-.85a1.27,1.27,0,0,0-1.12.61.8.8,0,0,1-.62.29.6.6,0,0,1-.65-.6.76.76,0,0,1,.08-.36c.26-.69,1.19-1.11,2.38-1.11,1.48,0,2.44.76,2.44,1.92v3.28a.72.72,0,0,1-.76.79.7.7,0,0,1-.76-.7v-.29h0a2,2,0,0,1-1.76,1A1.78,1.78,0,0,1,225.11,1092.42Zm3.7-.46v-.42l-1.22.08c-.58,0-.91.3-.91.71s.35.7.88.7A1.16,1.16,0,0,0,228.81,1092Z" transform="translate(-152.43 -849.72)"/><path class="cls-14" d="M231.36,1093.37V1089a.72.72,0,0,1,.76-.79.74.74,0,0,1,.78.8v.32h0a1.77,1.77,0,0,1,1.78-1.1,1.89,1.89,0,0,1,2,2.15v3a.78.78,0,1,1-1.56,0v-2.68c0-.76-.36-1.19-1.06-1.19a1.14,1.14,0,0,0-1.15,1.27v2.6a.79.79,0,1,1-1.57,0Z" transform="translate(-152.43 -849.72)"/><path class="cls-14" d="M159.54,1384v-2.15l-2.37-3.66a1,1,0,0,1-.16-.54.81.81,0,0,1,1.56-.27l1.77,2.92h0l1.78-2.92a.8.8,0,0,1,.74-.5.77.77,0,0,1,.8.76,1,1,0,0,1-.18.55l-2.36,3.66V1384a.81.81,0,1,1-1.62,0Z" transform="translate(-152.43 -849.72)"/><path class="cls-14" d="M163.13,1381.91a2.72,2.72,0,0,1,2.78-3,2.59,2.59,0,0,1,2.73,2.68.62.62,0,0,1-.69.68h-3.28v.07a1.27,1.27,0,0,0,1.31,1.41,1.62,1.62,0,0,0,1.37-.69.65.65,0,0,1,.51-.23.58.58,0,0,1,.62.58.82.82,0,0,1-.11.38,2.58,2.58,0,0,1-2.39,1.12A2.67,2.67,0,0,1,163.13,1381.91Zm4-.63a1.19,1.19,0,0,0-1.21-1.24,1.25,1.25,0,0,0-1.24,1.24Z" transform="translate(-152.43 -849.72)"/><path class="cls-14" d="M169.48,1384.06v-6.35a.79.79,0,1,1,1.57,0v6.35a.79.79,0,1,1-1.57,0Z" transform="translate(-152.43 -849.72)"/><path class="cls-14" d="M172.14,1384.06v-6.35a.79.79,0,1,1,1.57,0v6.35a.79.79,0,1,1-1.57,0Z" transform="translate(-152.43 -849.72)"/><path class="cls-14" d="M174.56,1381.88a2.86,2.86,0,1,1,2.85,3A2.73,2.73,0,0,1,174.56,1381.88Zm4.11,0c0-1.14-.49-1.8-1.26-1.8s-1.26.66-1.26,1.8.49,1.81,1.26,1.81S178.67,1383,178.67,1381.88Z" transform="translate(-152.43 -849.72)"/><path class="cls-14" d="M182,1384.05l-1.16-4a1.59,1.59,0,0,1-.09-.48.69.69,0,0,1,.76-.67.72.72,0,0,1,.73.66l.86,3.72h0l.89-3.66a.84.84,0,0,1,.89-.72.82.82,0,0,1,.87.72l.9,3.66h0l.86-3.73a.72.72,0,0,1,.73-.65.68.68,0,0,1,.74.66,1.59,1.59,0,0,1-.09.48l-1.16,4a1,1,0,0,1-1,.83.93.93,0,0,1-1-.84l-.87-3.35h0l-.87,3.36a1,1,0,0,1-2,0Z" transform="translate(-152.43 -849.72)"/><path class="cls-14" d="M750.27,1473.78a1.62,1.62,0,0,1,.1-.52l2.12-5.76a1.28,1.28,0,0,1,2.46,0l2.13,5.77a1.58,1.58,0,0,1,.1.52.76.76,0,0,1-.81.76c-.46,0-.7-.21-.85-.71l-.4-1.23h-2.8l-.41,1.21c-.15.52-.39.73-.82.73A.73.73,0,0,1,750.27,1473.78Zm4.47-2.43-1-3.18h0l-1,3.18Z" transform="translate(-152.43 -849.72)"/><path class="cls-14" d="M760.34,1473.78v-6.15a1,1,0,0,1,1-1.05,1.09,1.09,0,0,1,1.12.84l1.92,4.76h0l1.92-4.76a1.09,1.09,0,0,1,1.12-.84,1,1,0,0,1,1,1.05v6.15a.72.72,0,1,1-1.44,0v-4.57h0l-1.92,4.69a.69.69,0,0,1-.69.49.7.7,0,0,1-.71-.49l-1.92-4.69h0v4.57a.72.72,0,1,1-1.44,0Z" transform="translate(-152.43 -849.72)"/><path class="cls-14" d="M769.36,1472.79c0-1,.8-1.66,2.24-1.75l1.45-.08v-.38c0-.54-.38-.85-1-.85a1.24,1.24,0,0,0-1.11.61.82.82,0,0,1-.63.29.6.6,0,0,1-.65-.61.74.74,0,0,1,.08-.35,2.41,2.41,0,0,1,2.38-1.11c1.48,0,2.44.76,2.44,1.92v3.28a.71.71,0,0,1-.76.79.68.68,0,0,1-.75-.7v-.29h0a2,2,0,0,1-1.76,1A1.78,1.78,0,0,1,769.36,1472.79Zm3.69-.46v-.42l-1.21.07c-.59,0-.92.31-.92.72s.35.7.88.7A1.15,1.15,0,0,0,773.05,1472.33Z" transform="translate(-152.43 -849.72)"/><path class="cls-14" d="M775.57,1467.16a.84.84,0,1,1,.84.81A.81.81,0,0,1,775.57,1467.16Zm.06,6.58v-4.36a.79.79,0,1,1,1.57,0v4.36a.74.74,0,0,1-.79.81A.73.73,0,0,1,775.63,1473.74Z" transform="translate(-152.43 -849.72)"/><path class="cls-14" d="M778.24,1473.74v-4.39a.71.71,0,0,1,.76-.79.74.74,0,0,1,.78.8v.32h0a1.78,1.78,0,0,1,1.77-1.11,1.9,1.9,0,0,1,2,2.16v3a.79.79,0,1,1-1.57,0v-2.68c0-.76-.35-1.19-1-1.19a1.14,1.14,0,0,0-1.15,1.27v2.6a.79.79,0,1,1-1.57,0Z" transform="translate(-152.43 -849.72)"/><path class="cls-14" d="M585.09,1337.1v-6.16a1,1,0,0,1,1-1,1.09,1.09,0,0,1,1.12.84l1.92,4.77h0l1.92-4.77a1.1,1.1,0,0,1,1.12-.84,1,1,0,0,1,1,1v6.16a.72.72,0,1,1-1.44,0v-4.58h0l-1.92,4.69a.69.69,0,0,1-.69.5.71.71,0,0,1-.71-.49l-1.91-4.7h-.05v4.58a.72.72,0,1,1-1.44,0Z" transform="translate(-152.43 -849.72)"/><path class="cls-14" d="M594.42,1330.47a.84.84,0,1,1,.84.81A.81.81,0,0,1,594.42,1330.47Zm.06,6.58v-4.35a.78.78,0,1,1,1.56,0v4.35a.78.78,0,1,1-1.56,0Z" transform="translate(-152.43 -849.72)"/><path class="cls-14" d="M596.88,1334.86c0-1.82.91-3,2.36-3A1.84,1.84,0,0,1,601,1333h0v-2.27a.79.79,0,1,1,1.57,0v6.36a.79.79,0,1,1-1.57,0v-.33h0a1.82,1.82,0,0,1-1.78,1.1C597.79,1337.84,596.88,1336.71,596.88,1334.86Zm4.16,0c0-1-.5-1.71-1.28-1.71s-1.28.66-1.28,1.71.49,1.71,1.28,1.71S601,1335.93,601,1334.87Z" transform="translate(-152.43 -849.72)"/><path class="cls-14" d="M464.93,1524.42c0-2.48,1.42-4,3.7-4a3.27,3.27,0,0,1,3.08,1.64,1,1,0,0,1,.12.5.66.66,0,0,1-.71.7.84.84,0,0,1-.78-.47,1.83,1.83,0,0,0-1.71-1c-1.28,0-2,1-2,2.62s.81,2.71,2.1,2.71a1.68,1.68,0,0,0,1.83-1.61v-.13h-1.13a.59.59,0,1,1,0-1.18h1.9a.76.76,0,0,1,.81.84v.12a3.13,3.13,0,0,1-3.44,3.3C466.35,1528.45,464.93,1526.94,464.93,1524.42Z" transform="translate(-152.43 -849.72)"/><path class="cls-14" d="M472.76,1526.67c0-1.05.8-1.66,2.24-1.74l1.45-.09v-.38c0-.54-.37-.85-1-.85a1.27,1.27,0,0,0-1.12.61.8.8,0,0,1-.62.29.61.61,0,0,1-.66-.6.9.9,0,0,1,.08-.36c.27-.69,1.19-1.11,2.39-1.11,1.47,0,2.43.76,2.43,1.92v3.28a.71.71,0,0,1-.76.79.69.69,0,0,1-.75-.7v-.29h0a2,2,0,0,1-1.76,1A1.78,1.78,0,0,1,472.76,1526.67Zm3.69-.46v-.42l-1.21.08c-.59,0-.92.3-.92.71s.35.7.88.7A1.15,1.15,0,0,0,476.45,1526.21Z" transform="translate(-152.43 -849.72)"/><path class="cls-14" d="M479,1527.62v-4.39a.72.72,0,0,1,.76-.79.71.71,0,0,1,.74.79v.38h0a1.28,1.28,0,0,1,1.2-1.14.72.72,0,0,1,.49.15.68.68,0,0,1,.23.58.71.71,0,0,1-.23.56,1,1,0,0,1-.68.2c-.72,0-1,.42-1,1.1v2.56a.79.79,0,1,1-1.57,0Z" transform="translate(-152.43 -849.72)"/><path class="cls-14" d="M482.65,1526.67c0-1.05.8-1.66,2.24-1.74l1.45-.09v-.38c0-.54-.38-.85-1-.85a1.26,1.26,0,0,0-1.11.61.82.82,0,0,1-.63.29.6.6,0,0,1-.65-.6.76.76,0,0,1,.08-.36,2.41,2.41,0,0,1,2.38-1.11c1.48,0,2.44.76,2.44,1.92v3.28a.72.72,0,0,1-.76.79.68.68,0,0,1-.75-.7v-.29h0a2,2,0,0,1-1.76,1A1.78,1.78,0,0,1,482.65,1526.67Zm3.69-.46v-.42l-1.21.08c-.59,0-.92.3-.92.71s.35.7.88.7A1.15,1.15,0,0,0,486.34,1526.21Z" transform="translate(-152.43 -849.72)"/><path class="cls-14" d="M489,1529.43a.91.91,0,0,1-.12-.44.58.58,0,0,1,.64-.57.76.76,0,0,1,.55.22,1.9,1.9,0,0,0,1.35.63,1.18,1.18,0,0,0,1.36-1.19v-.91h0a1.87,1.87,0,0,1-1.77,1c-1.44,0-2.34-1.1-2.34-2.86s.88-2.87,2.37-2.87a1.87,1.87,0,0,1,1.75,1.09h0v-.32a.74.74,0,0,1,.79-.8.73.73,0,0,1,.78.8v4.85c0,1.5-1.08,2.41-2.94,2.39A2.79,2.79,0,0,1,489,1529.43Zm3.8-4.06c0-1-.51-1.71-1.29-1.71s-1.26.66-1.26,1.7.48,1.67,1.26,1.67S492.84,1526.41,492.84,1525.37Z" transform="translate(-152.43 -849.72)"/><path class="cls-14" d="M495.21,1525.47a2.72,2.72,0,0,1,2.78-3,2.59,2.59,0,0,1,2.73,2.68.62.62,0,0,1-.68.68h-3.29v.07a1.28,1.28,0,0,0,1.31,1.41,1.65,1.65,0,0,0,1.38-.69.63.63,0,0,1,.51-.23.57.57,0,0,1,.61.57.82.82,0,0,1-.11.39,2.58,2.58,0,0,1-2.38,1.12A2.68,2.68,0,0,1,495.21,1525.47Zm4-.63a1.19,1.19,0,0,0-1.2-1.24,1.23,1.23,0,0,0-1.24,1.24Z" transform="translate(-152.43 -849.72)"/><path class="cls-14" d="M385.31,1412.71c0-2.49,1.42-4,3.7-4a3.29,3.29,0,0,1,3.09,1.65,1.08,1.08,0,0,1,.11.5.67.67,0,0,1-.7.7.86.86,0,0,1-.79-.48,1.83,1.83,0,0,0-1.71-1c-1.27,0-2,1-2,2.62s.81,2.71,2.1,2.71a1.67,1.67,0,0,0,1.83-1.61v-.12h-1.12a.58.58,0,0,1-.65-.6.57.57,0,0,1,.65-.59h1.89a.76.76,0,0,1,.81.85v.12a3.12,3.12,0,0,1-3.43,3.29C386.73,1416.73,385.31,1415.22,385.31,1412.71Z" transform="translate(-152.43 -849.72)"/><path class="cls-14" d="M393.42,1415.9v-4.38a.75.75,0,1,1,1.5,0v.37h0a1.26,1.26,0,0,1,1.2-1.13.73.73,0,0,1,.49.14.69.69,0,0,1,.22.58.68.68,0,0,1-.22.56,1.11,1.11,0,0,1-.69.21c-.71,0-1,.41-1,1.09v2.56a.79.79,0,1,1-1.57,0Z" transform="translate(-152.43 -849.72)"/><path class="cls-14" d="M397,1413.75a2.72,2.72,0,0,1,2.78-3,2.58,2.58,0,0,1,2.73,2.68.62.62,0,0,1-.68.69h-3.29v.07a1.28,1.28,0,0,0,1.31,1.41,1.64,1.64,0,0,0,1.38-.69.63.63,0,0,1,.51-.24.57.57,0,0,1,.61.58.82.82,0,0,1-.11.38,2.58,2.58,0,0,1-2.38,1.13A2.68,2.68,0,0,1,397,1413.75Zm4-.63a1.18,1.18,0,0,0-1.2-1.24,1.24,1.24,0,0,0-1.24,1.24Z" transform="translate(-152.43 -849.72)"/><path class="cls-14" d="M403.13,1413.75a2.72,2.72,0,0,1,2.78-3,2.59,2.59,0,0,1,2.73,2.68.62.62,0,0,1-.68.69h-3.29v.07a1.28,1.28,0,0,0,1.31,1.41,1.64,1.64,0,0,0,1.38-.69.61.61,0,0,1,.51-.24.58.58,0,0,1,.61.58.82.82,0,0,1-.11.38,2.58,2.58,0,0,1-2.38,1.13A2.68,2.68,0,0,1,403.13,1413.75Zm4-.63a1.19,1.19,0,0,0-1.2-1.24,1.24,1.24,0,0,0-1.24,1.24Z" transform="translate(-152.43 -849.72)"/><path class="cls-14" d="M409.45,1415.9v-4.38a.71.71,0,0,1,.75-.79.74.74,0,0,1,.79.79v.33h0a1.76,1.76,0,0,1,1.77-1.11,1.9,1.9,0,0,1,2,2.15v3a.79.79,0,1,1-1.57,0v-2.68c0-.75-.35-1.18-1.06-1.18a1.14,1.14,0,0,0-1.15,1.26v2.6a.78.78,0,1,1-1.56,0Z" transform="translate(-152.43 -849.72)"/><path class="cls-14" d="M707,1432v-6.06a.76.76,0,0,1,.81-.84h2.56c1.46,0,2.37.75,2.37,1.93a1.7,1.7,0,0,1-1.45,1.68v0a1.87,1.87,0,0,1,1.82,1.87c0,1.36-1,2.22-2.68,2.22h-2.62A.76.76,0,0,1,707,1432Zm2.79-3.68c.86,0,1.36-.38,1.36-1s-.44-1-1.19-1h-1.34v2Zm.23,3.32c.93,0,1.44-.4,1.44-1.14s-.52-1.11-1.48-1.11h-1.36v2.25Z" transform="translate(-152.43 -849.72)"/><path class="cls-14" d="M713.89,1432.13v-6.35a.79.79,0,1,1,1.57,0v6.35a.79.79,0,1,1-1.57,0Z" transform="translate(-152.43 -849.72)"/><path class="cls-14" d="M716.49,1430.78v-3a.79.79,0,1,1,1.57,0v2.68c0,.76.38,1.17,1.07,1.17a1.13,1.13,0,0,0,1.14-1.26v-2.59a.78.78,0,1,1,1.56,0v4.37a.71.71,0,0,1-.75.79.71.71,0,0,1-.76-.79v-.36h0a1.72,1.72,0,0,1-1.73,1.15A2,2,0,0,1,716.49,1430.78Z" transform="translate(-152.43 -849.72)"/><path class="cls-14" d="M722.65,1430a2.71,2.71,0,0,1,2.78-3,2.58,2.58,0,0,1,2.73,2.68.62.62,0,0,1-.69.68h-3.28v.07a1.28,1.28,0,0,0,1.31,1.41,1.62,1.62,0,0,0,1.37-.69.65.65,0,0,1,.51-.23.57.57,0,0,1,.62.57.76.76,0,0,1-.11.38,2.59,2.59,0,0,1-2.39,1.13A2.67,2.67,0,0,1,722.65,1430Zm4-.63a1.19,1.19,0,0,0-1.21-1.24,1.25,1.25,0,0,0-1.24,1.24Z" transform="translate(-152.43 -849.72)"/><path class="cls-14" d="M483.5,1071.06v-6.27a.81.81,0,1,1,1.62,0v2.4h3.49v-2.4a.82.82,0,1,1,1.63,0v6.27a.82.82,0,1,1-1.63,0v-2.53h-3.49v2.53a.81.81,0,1,1-1.62,0Z" transform="translate(-152.43 -849.72)"/><path class="cls-14" d="M491.36,1069.75v-3a.79.79,0,1,1,1.57,0v2.68c0,.77.38,1.18,1.08,1.18a1.12,1.12,0,0,0,1.13-1.26v-2.6a.79.79,0,1,1,1.57,0v4.38a.76.76,0,1,1-1.52,0v-.36h0a1.7,1.7,0,0,1-1.72,1.15A2,2,0,0,1,491.36,1069.75Z" transform="translate(-152.43 -849.72)"/><path class="cls-14" d="M498.15,1067.22h-.3a.59.59,0,1,1,0-1.18h.3v-.64a.79.79,0,1,1,1.57,0v.64h.55a.59.59,0,1,1,0,1.18h-.55V1070c0,.41.14.58.47.6h.11c.38.05.59.21.59.57s-.45.7-1.11.7h0a1.38,1.38,0,0,1-1.58-1.53Z" transform="translate(-152.43 -849.72)"/><path class="cls-14" d="M973.35,1155.34c0-2.48,1.42-4,3.7-4a3.29,3.29,0,0,1,3.09,1.65,1.1,1.1,0,0,1,.12.5.67.67,0,0,1-.71.7.87.87,0,0,1-.79-.47,1.82,1.82,0,0,0-1.71-1c-1.27,0-2,1-2,2.63s.81,2.7,2.1,2.7a1.67,1.67,0,0,0,1.83-1.61v-.12h-1.13a.59.59,0,1,1,0-1.18h1.89a.76.76,0,0,1,.81.84v.12a3.12,3.12,0,0,1-3.43,3.3C974.77,1159.37,973.35,1157.86,973.35,1155.34Z" transform="translate(-152.43 -849.72)"/><path class="cls-14" d="M981.25,1156.38a2.72,2.72,0,0,1,2.78-3,2.59,2.59,0,0,1,2.73,2.69.62.62,0,0,1-.68.68h-3.29v.07a1.28,1.28,0,0,0,1.31,1.41,1.64,1.64,0,0,0,1.38-.69.6.6,0,0,1,.51-.23.56.56,0,0,1,.61.57.82.82,0,0,1-.11.38,2.58,2.58,0,0,1-2.38,1.13A2.68,2.68,0,0,1,981.25,1156.38Zm4-.62a1.18,1.18,0,0,0-1.2-1.24,1.23,1.23,0,0,0-1.24,1.24Z" transform="translate(-152.43 -849.72)"/><path class="cls-14" d="M987.57,1158.53v-4.38a.71.71,0,0,1,.75-.79.74.74,0,0,1,.79.8v.32h0a1.76,1.76,0,0,1,1.77-1.11,1.9,1.9,0,0,1,2,2.15v3a.79.79,0,1,1-1.57,0v-2.68c0-.75-.35-1.18-1.06-1.18a1.14,1.14,0,0,0-1.15,1.26v2.6a.78.78,0,1,1-1.56,0Z" transform="translate(-152.43 -849.72)"/><path class="cls-14" d="M479.32,1219.83c0-2.47,1.44-4,3.74-4s3.74,1.54,3.74,4-1.44,4-3.74,4S479.32,1222.3,479.32,1219.83Zm5.82,0c0-1.62-.81-2.65-2.08-2.65s-2.08,1-2.08,2.65.81,2.65,2.08,2.65S485.14,1221.46,485.14,1219.83Z" transform="translate(-152.43 -849.72)"/><path class="cls-14" d="M487.71,1223v-4.38a.75.75,0,1,1,1.5,0v.38h0a1.26,1.26,0,0,1,1.2-1.14.79.79,0,0,1,.49.14.69.69,0,0,1,.22.58.71.71,0,0,1-.22.57,1,1,0,0,1-.69.2c-.71,0-1,.41-1,1.1V1223a.79.79,0,1,1-1.57,0Z" transform="translate(-152.43 -849.72)"/><path class="cls-14" d="M491.35,1222.05c0-1,.81-1.65,2.25-1.74l1.45-.08v-.39c0-.53-.38-.84-1-.84a1.26,1.26,0,0,0-1.12.6.77.77,0,0,1-.62.29.61.61,0,0,1-.66-.6.85.85,0,0,1,.08-.35,2.43,2.43,0,0,1,2.39-1.11c1.48,0,2.44.76,2.44,1.92V1223a.72.72,0,0,1-.77.79.7.7,0,0,1-.75-.7v-.29h0a2,2,0,0,1-1.76,1A1.78,1.78,0,0,1,491.35,1222.05Zm3.7-.45v-.42l-1.22.07c-.58,0-.92.31-.92.72s.36.69.88.69A1.15,1.15,0,0,0,495.05,1221.6Z" transform="translate(-152.43 -849.72)"/><path class="cls-14" d="M497.6,1223v-4.38a.71.71,0,0,1,.75-.79.74.74,0,0,1,.79.8v.32h0a1.76,1.76,0,0,1,1.77-1.11,1.9,1.9,0,0,1,2,2.16v3a.79.79,0,1,1-1.57,0v-2.68c0-.75-.35-1.18-1.06-1.18a1.14,1.14,0,0,0-1.14,1.26v2.6a.79.79,0,1,1-1.57,0Z" transform="translate(-152.43 -849.72)"/><path class="cls-14" d="M504.08,1224.81a.86.86,0,0,1-.11-.43.58.58,0,0,1,.64-.58.77.77,0,0,1,.54.23,1.94,1.94,0,0,0,1.35.63c.86,0,1.37-.47,1.37-1.19v-.92h0a1.85,1.85,0,0,1-1.77,1c-1.43,0-2.33-1.09-2.33-2.85s.88-2.87,2.36-2.87a1.85,1.85,0,0,1,1.75,1.08h0v-.31a.79.79,0,1,1,1.57,0v4.85c0,1.5-1.09,2.4-2.94,2.39A2.79,2.79,0,0,1,504.08,1224.81Zm3.8-4.06c0-1-.5-1.7-1.29-1.7s-1.26.66-1.26,1.7.48,1.67,1.26,1.67S507.88,1221.79,507.88,1220.75Z" transform="translate(-152.43 -849.72)"/><path class="cls-14" d="M510.25,1220.85a2.71,2.71,0,0,1,2.78-3,2.58,2.58,0,0,1,2.73,2.68.62.62,0,0,1-.68.68h-3.29v.07a1.28,1.28,0,0,0,1.31,1.41,1.64,1.64,0,0,0,1.38-.69.6.6,0,0,1,.51-.23.56.56,0,0,1,.61.57.82.82,0,0,1-.11.38,2.58,2.58,0,0,1-2.38,1.13A2.68,2.68,0,0,1,510.25,1220.85Zm4-.62a1.18,1.18,0,0,0-1.2-1.24,1.23,1.23,0,0,0-1.24,1.24Z" transform="translate(-152.43 -849.72)"/><path class="cls-14" d="M397.44,1277.37v-5.66h-1.6a.68.68,0,1,1,0-1.35h4.83a.68.68,0,1,1,0,1.35h-1.6v5.66a.82.82,0,1,1-1.63,0Z" transform="translate(-152.43 -849.72)"/><path class="cls-14" d="M400.53,1276.46c0-1,.81-1.66,2.25-1.74l1.45-.09v-.38c0-.54-.38-.85-1-.85a1.27,1.27,0,0,0-1.12.61.8.8,0,0,1-.62.29.6.6,0,0,1-.65-.6.76.76,0,0,1,.08-.36,2.42,2.42,0,0,1,2.38-1.11c1.48,0,2.44.76,2.44,1.92v3.29a.72.72,0,0,1-.76.79.7.7,0,0,1-.76-.7v-.3h0a2,2,0,0,1-1.76,1A1.78,1.78,0,0,1,400.53,1276.46Zm3.7-.46v-.42l-1.22.08c-.58,0-.91.3-.91.71s.35.7.88.7A1.15,1.15,0,0,0,404.23,1276Z" transform="translate(-152.43 -849.72)"/><path class="cls-14" d="M406.82,1277.41v-6.34a.78.78,0,1,1,1.56,0v6.34a.78.78,0,1,1-1.56,0Z" transform="translate(-152.43 -849.72)"/><path class="cls-14" d="M409.48,1277.41v-6.34a.79.79,0,1,1,1.57,0v6.34a.79.79,0,1,1-1.57,0Z" transform="translate(-152.43 -849.72)"/><path class="cls-14" d="M414.42,1277.26v-6a.76.76,0,0,1,.81-.85h2.56c1.46,0,2.37.75,2.37,1.94a1.73,1.73,0,0,1-1.46,1.68v0a1.88,1.88,0,0,1,1.83,1.87c0,1.37-1,2.22-2.68,2.22h-2.62A.76.76,0,0,1,414.42,1277.26Zm2.78-3.67c.87,0,1.36-.39,1.36-1s-.43-1-1.19-1H416v2Zm.24,3.31c.93,0,1.43-.39,1.43-1.13s-.52-1.12-1.47-1.12H416v2.25Z" transform="translate(-152.43 -849.72)"/><path class="cls-14" d="M421.11,1275.23a2.85,2.85,0,1,1,2.85,3A2.73,2.73,0,0,1,421.11,1275.23Zm4.11,0c0-1.14-.5-1.8-1.26-1.8s-1.26.66-1.26,1.8.49,1.81,1.26,1.81S425.22,1276.39,425.22,1275.23Z" transform="translate(-152.43 -849.72)"/><path class="cls-14" d="M427.34,1277.59a.84.84,0,0,1,.21-.54l1.35-1.8-1.35-1.84a.78.78,0,0,1-.16-.49.7.7,0,0,1,.75-.68c.32,0,.48.11.69.44l1.08,1.62h0l1.05-1.61c.21-.32.38-.45.67-.45a.66.66,0,0,1,.73.66.85.85,0,0,1-.21.55l-1.31,1.75,1.34,1.85a.83.83,0,0,1,.17.48.69.69,0,0,1-.75.7.67.67,0,0,1-.63-.4l-1.15-1.71h0l-1.12,1.68c-.22.33-.37.43-.65.43A.65.65,0,0,1,427.34,1277.59Z" transform="translate(-152.43 -849.72)"/><path class="cls-14" d="M934,1160.4a4.56,4.56,0,0,1,.28-1.36l5.58-15.19a3.39,3.39,0,0,1,6.49,0l5.6,15.21a3.75,3.75,0,0,1,.27,1.36,2,2,0,0,1-2.14,2c-1.2,0-1.84-.55-2.22-1.88l-1.07-3.23h-7.38l-1.08,3.19c-.39,1.36-1,1.92-2.16,1.92A2,2,0,0,1,934,1160.4Zm11.79-6.41-2.7-8.37H943L940.3,1154Z" transform="translate(-152.43 -849.72)"/><path class="cls-14" d="M264,1213.46v-16a2,2,0,0,1,2.14-2.23h6.75c3.84,0,6.25,2,6.25,5.1a4.5,4.5,0,0,1-3.84,4.43v.12a4.94,4.94,0,0,1,4.81,4.94c0,3.6-2.7,5.85-7.06,5.85h-6.91A2,2,0,0,1,264,1213.46Zm7.35-9.7c2.28,0,3.58-1,3.58-2.73s-1.15-2.58-3.14-2.58h-3.51v5.31Zm.61,8.75c2.46,0,3.79-1,3.79-3s-1.37-2.93-3.89-2.93h-3.58v5.93Z" transform="translate(-152.43 -849.72)"/></g></svg>