<svg xmlns="http://www.w3.org/2000/svg" viewBox="0 0 895.11 794.09"><defs><style>.cls-1{fill:#33353b;}.cls-2{fill:#575548;}.cls-3{fill:#b0adb0;}.cls-4{fill:none;stroke:#b0adb0;stroke-miterlimit:10;}.cls-5{fill:#656569;}.cls-6{fill:#d32027;}.cls-7{fill:#fff;}.cls-8{fill:#79c143;}</style></defs><title>Lotus Offence</title><g id="body_merge" data-name="body merge"><path class="cls-1" d="M1386.16,244H1181V151H978l-27.09,9L937,186.09,925,230l-9,13v21H675v78H547v55h19v89H506v84.86s4.23,30.74,34,34.12H677V709l36,36h1v29.84H677V809l176,85h61v49h137V827h129V716h-48v-7h189V549h32l46-46V244ZM1354,405h-59V390h59Zm0-43h-59v-3h59Zm-92-22v76h-22V396h-23v-4h23V355h-8V299H1119V284h121v56Zm-16,315h-20V635h20ZM1048,484v36h-31V434H995v-7h95V333h98v23l-7,9v15s17.94,13-4,32v72ZM873.26,327H966V242h53V374h15v16h-22V375H958v52h15v7H951V394H862V327ZM719,397V327H829v56H749v92H669V412H601V397ZM543,549V531h23v18Zm97-18V516h94v15h57V442h86V420h29v29H877V575H799v15H766V538H677v22H640ZM877,842V760H773V746h11V634H950.92v34H891v82h0v10h54v8H914v74Zm47-144v5h-5v-5Zm-5,30h5v5h-5Zm121.18,55H995V571H943V594H917V546h200V501h8v25h2l56,43h18v22h-23v3.84l-3,8.19-13,13.86L1148,637l-12.94,6.88L1132,657l-30,9v55.74L1085,750v33h-44.81ZM1353,470h-76v92h-8V503h-31V458h124v12Zm18.88-171H1291V284h86v15Z" transform="translate(-504.94 -149.95)"/></g><g id="Bombsite"><polygon class="cls-2" points="446.58 328.79 446.58 270.05 400.95 270.05 400.95 298.06 371.06 298.06 371.06 348.05 400.95 348.05 402.9 348.05 429.6 348.05 446.58 348.05 505.56 348.05 505.56 328.79 446.58 328.79"/><polygon class="cls-2" points="164.13 306.05 164.13 262.05 60.36 262.05 60.36 305.33 60.36 306.05 60.36 336.05 67.06 336.05 67.06 381.05 60.8 381.05 60.8 398.57 67.06 398.57 70 398.57 111.06 398.57 111.06 332.55 110.06 332.55 110.06 306.05 164.13 306.05"/><path class="cls-2" d="M1377,299v-1h-84.76L1261,341.42l.35,1.41V415h138.29V299Zm-23.48,60.42v2.32h-57.47v-2.32ZM1296.06,404V391h57.47v13Z" transform="translate(-504.94 -149.95)"/><polygon class="cls-1" points="90.07 321.05 90.07 329.04 105.06 329.04 105.06 344.05 112.05 344.05 112.05 329.04 112.05 328.04 112.05 321.05 90.07 321.05"/><rect class="cls-1" x="127.05" y="261.01" width="15" height="16.03"/><rect class="cls-1" x="437.08" y="283.09" width="9.96" height="20.96"/><rect class="cls-1" x="371.06" y="298.06" width="15.96" height="15.96"/><rect class="cls-1" x="371.07" y="313.04" width="8.97" height="8.97"/><rect class="cls-1" x="811.99" y="254.01" width="15.02" height="15.98"/><rect class="cls-1" x="856.99" y="148.08" width="15.07" height="15.93"/></g><g id="Lines"><path class="cls-3" d="M1189.92,471v12H1177V471h12.93m1-1H1176v14h14.93V470Z" transform="translate(-504.94 -149.95)"/><path class="cls-3" d="M1331,405v14h-13V405h13m1-1h-15v16h15V404Z" transform="translate(-504.94 -149.95)"/><path class="cls-3" d="M1376,299v14h-13.07V299H1376m1-1h-15.07v16H1377V298Z" transform="translate(-504.94 -149.95)"/><path class="cls-3" d="M1239,271v13h-13V271h13m1-1h-15v15h15V270Z" transform="translate(-504.94 -149.95)"/><path class="cls-3" d="M1181,151.9v36h-15v-36h15m1-1h-17v38h17v-38Z" transform="translate(-504.94 -149.95)"/><path class="cls-3" d="M1181,175v12.9h-15V175h15m1-1h-17v14.9h17V174Z" transform="translate(-504.94 -149.95)"/><path class="cls-3" d="M951,434v19h-8V434h8m1-1H942v21h10V433Z" transform="translate(-504.94 -149.95)"/><path class="cls-3" d="M891,449v14H877V449h14m1-1H876v16h16V448Z" transform="translate(-504.94 -149.95)"/><path class="cls-3" d="M884,464v7h-7v-7h7m1-1h-9v9h9v-9Z" transform="translate(-504.94 -149.95)"/><path class="cls-3" d="M1017,479v25h-6V479h6m1-1h-8v27h8V478Z" transform="translate(-504.94 -149.95)"/><path class="cls-3" d="M890,621v13H878V621h12m1-1H877v15h14V620Z" transform="translate(-504.94 -149.95)"/><path class="cls-3" d="M995,761v21H981V761h14m1-1H980v23h16V760Z" transform="translate(-504.94 -149.95)"/><path class="cls-3" d="M773,747v12H759V747h14m1-1H758v14h16V746Z" transform="translate(-504.94 -149.95)"/><path class="cls-3" d="M850,813v28H837V813h13m1-1H836v30h15V812Z" transform="translate(-504.94 -149.95)"/><path class="cls-3" d="M842,798v13h-5V798h5m1-1h-7v15h7V797Z" transform="translate(-504.94 -149.95)"/><path class="cls-3" d="M766,576v13H752V576h14m1-1H751v15h16V575Z" transform="translate(-504.94 -149.95)"/><path class="cls-3" d="M579,549v14H567V549h12m1-1H566v16h14V548Z" transform="translate(-504.94 -149.95)"/><path class="cls-3" d="M646,412v14H633V412h13m1-1H632v16h15V411Z" transform="translate(-504.94 -149.95)"/><path class="cls-3" d="M616,472v21h-5V478H596v-6h20m1-1H595v8h15v15h7V471Z" transform="translate(-504.94 -149.95)"/><path class="cls-3" d="M733,313v14H720V313h13m1-1H719v16h15V312Z" transform="translate(-504.94 -149.95)"/><rect class="cls-3" x="41.48" y="206.05" width="120.57" height="1"/><polygon class="cls-3" points="112.05 398.05 112.05 343.36 111.06 343.36 111.06 398.05 73.61 398.05 73.61 399.05 111.06 399.05 112.05 399.05 112.05 399.05 112.05 398.05 112.05 398.05"/><polygon class="cls-4" points="236.55 550.03 260.06 539.99 267.04 511.47 256.02 490.04 222.14 482.05 204.04 488.06 186.04 506.87 199.03 537.01 236.55 550.03"/><rect class="cls-3" x="331.05" y="609.41" width="1" height="39.08"/><polyline class="cls-4" points="641.55 1.09 641.55 14.83 660.75 30.2"/><rect class="cls-3" x="841.06" y="93.5" width="1" height="41.38"/><line class="cls-4" x1="787.12" y1="148.16" x2="756.38" y2="190.93"/><path class="cls-4" d="M942,454" transform="translate(-504.94 -149.95)"/><polygon class="cls-3" points="447.04 328.05 447.04 303.66 446.06 303.66 446.06 328.05 446.06 329.05 447.04 329.05 505.84 329.05 505.84 328.05 447.04 328.05"/><path class="cls-4" d="M952.48,478.5h-1V453.64h-8.88c-13.44,7.09-23.17,21.43-23.17,37.59a42.54,42.54,0,0,0,85.08,0,45.33,45.33,0,0,0-1.82-12.73Z" transform="translate(-504.94 -149.95)"/><polyline class="cls-4" points="771.53 338.5 781.03 338.5 785.58 342.61 785.58 349.66 781.64 352.59 771.43 352.59"/><polyline class="cls-4" points="665.48 457.02 676.57 490.63 676.57 500.1 666.43 507.61 661.07 507.61 655.54 502.59 655.54 500.09"/><line class="cls-4" x1="676.57" y1="495.45" x2="626.61" y2="506.65"/><path class="cls-4" d="M1299,635" transform="translate(-504.94 -149.95)"/><polyline class="cls-4" points="741 504.55 792.6 504.55 793.54 485.54 757.61 485.54 750.56 483.55 743.48 483.55 740.35 486.24"/></g><g id="Outlines"><path class="cls-5" d="M1181,151v93h218V503l-46,46h-32V709H1132v7h48V827H1051V943H914V894H853L677,809V774.83h37V745h-1l-36-36V605H540c-29.74-3.38-34-34.12-34-34.12V486h60V397H547V342H675V264H916V243l9-13L937,186.09,950.92,160,978,151h203M862,394h89v40h22v-7H958V375h54v15h22V374h-15V242H966v85H862v67m429-95h86V284h-86v15m-172,0h113v56h8v37h-23v4h23v20h22V340h-22V284H1119v15M601,412h68v63h80V383h80V327H719v70H601v15m394,22h22v86h31V484h129V412c22-19,4-32,4-32V365l7-9V333h-98v94H995v7m300-72h59v-3h-59v3m0,43h59V390h-59v15M734,531V516H640v44h37V538h89v52h33V575h78V449h29V420H877v22H791v89H734m504-28h31v59h8V470h85V458H1238v45m-229.43,43H917v48h26V571h52V783h90V750l17-28.26V666l30-9,3.09-13.14L1148,637l14-20.12L1175,603l3-8.19V591h23V569h-18l-56-43h-2V501h-8v45H1008.56M543,549h23V531H543v18M773,760H877v82h37V768h31v-8H891V750h0V668h59.92V634H784V746H773v14m453-105h20V635h-20v20M919,703h5v-5h-5v5m0,30h5v-5h-5v5m263-583H977.84l-.17.05-27.08,9-.4.14-.19.36-14,26.09-.06.11,0,.11-11.88,43.72-8.94,12.87-.19.27V263H674v78H546v57.1h19V485h-60V571a48.33,48.33,0,0,0,6,16.18A37.44,37.44,0,0,0,539.84,606H676v103.4l.31.3,36,36,.31.31H713v27.74H676v35.87l.6.29,176,85,.21.1H913v49H1052v-116h129V715h-48V710h189V550h30.5l.43.44.76-.74,46-46,.31-.31V243H1182V150Zm-215,93.1H1018V375h15v13.89h-19.89V374H957v54.1h15V433H952V393H863V328.06H967v-85Zm325,42H1376v12.89H1292V285.05Zm-172,0H1239v56h22v73.89h-19.89V395h-23V393h23V354h-8V298H1120v-12.9Zm-400,43H828V382h-80v92H670V411h-68v-12.9h118v-70Zm371,6h95.9v21.6l-6.76,8.74-.22.28v15.9l.44.31c.06.05,6.15,4.57,6.45,11.89.25,6-3.29,12.18-10.54,18.46l-.36.31V483H1047v36H1018V433H996v-4.9h95V334Zm205,26H1353v.91H1296V360Zm0,31H1353V404H1296V391ZM878,421H905V448H876V574H798v15H767.05V537H676v22h-34.9V517.05H733v15H792V443h86V421Zm361,38h121.9V469h-85v92H1270V502h-31V459Zm-121,43H1124v25h2.68l55.72,42.81.28.22H1200v19.89h-23v4.71l-2.83,7.81-12.9,13.7,0,.05-.05.07-13.81,19.91L1134.57,643l-.42.22-.1.47-3,12.55-29.4,8.8-.75.23v56.23l-16.86,28-.15.25v32.24H996.05V570H941.92v22.94H918V547h200v-45ZM544,532H565V548H544V532Zm241,103H949.87V667H890v84.12h0v10h54v5.86H913v74H878V759h-104v-11.9h11v-112Zm442,1H1245V654H1227v-17.9Zm-307,63h2.87v2.89h-2.87v-2.89Zm0,30h2.87V732h-2.87V729Z" transform="translate(-504.94 -149.95)"/></g><g id="Callouts_copy" data-name="Callouts copy"><path class="cls-6" d="M936.43,900.58a2.09,2.09,0,0,1,.13-.61l2.5-6.81a1.52,1.52,0,0,1,2.91,0l2.51,6.81a1.68,1.68,0,0,1,.12.61.89.89,0,0,1-1,.9c-.54,0-.82-.24-1-.84l-.48-1.45h-3.31l-.48,1.43c-.18.61-.47.86-1,.86A.88.88,0,0,1,936.43,900.58Zm5.29-2.87L940.51,894h0l-1.18,3.75Z" transform="translate(-504.94 -149.95)"/><path class="cls-6" d="M945.66,896h-.36a.7.7,0,1,1,0-1.4h.36v-.76a.93.93,0,1,1,1.85,0v.76h.65a.7.7,0,1,1,0,1.4h-.65v3.25c0,.48.16.69.56.72h.13c.45,0,.7.24.7.67s-.53.83-1.31.83h-.07a1.63,1.63,0,0,1-1.86-1.82Z" transform="translate(-504.94 -149.95)"/><path class="cls-6" d="M950.28,896h-.36a.7.7,0,1,1,0-1.4h.36v-.76a.93.93,0,1,1,1.85,0v.76h.65a.7.7,0,1,1,0,1.4h-.65v3.25c0,.48.17.69.57.72h.12c.45,0,.7.24.7.67s-.53.83-1.31.83h-.07a1.64,1.64,0,0,1-1.86-1.82Z" transform="translate(-504.94 -149.95)"/><path class="cls-6" d="M954.07,899.41c0-1.24,1-2,2.66-2.06l1.71-.1v-.45c0-.63-.44-1-1.14-1a1.48,1.48,0,0,0-1.32.71,1,1,0,0,1-.74.35.72.72,0,0,1-.77-.71,1,1,0,0,1,.09-.42c.32-.82,1.41-1.32,2.82-1.32,1.75,0,2.88.9,2.88,2.28v3.87a.85.85,0,0,1-.9.94.82.82,0,0,1-.89-.83v-.35h0a2.34,2.34,0,0,1-2.08,1.15A2.11,2.11,0,0,1,954.07,899.41Zm4.37-.54v-.5l-1.43.09c-.7,0-1.09.36-1.09.85s.42.82,1,.82A1.36,1.36,0,0,0,958.44,898.87Z" transform="translate(-504.94 -149.95)"/><path class="cls-6" d="M961.21,898a3.21,3.21,0,0,1,3.34-3.55,3,3,0,0,1,2.87,1.63,1.36,1.36,0,0,1,.1.46.73.73,0,0,1-.8.72.82.82,0,0,1-.78-.48,1.44,1.44,0,0,0-1.34-.87c-.94,0-1.51.77-1.51,2.09s.57,2.1,1.5,2.1a1.45,1.45,0,0,0,1.33-.8.92.92,0,0,1,.85-.55.74.74,0,0,1,.78.74,1.25,1.25,0,0,1-.12.49,3.11,3.11,0,0,1-2.87,1.57A3.21,3.21,0,0,1,961.21,898Z" transform="translate(-504.94 -149.95)"/><path class="cls-6" d="M968.58,900.53V893a.93.93,0,1,1,1.86,0v4.22h0l2.47-2.47a.94.94,0,0,1,.73-.37.8.8,0,0,1,.83.81.85.85,0,0,1-.35.69l-1.73,1.64L974.3,900a1,1,0,0,1,.26.68.82.82,0,0,1-.88.84c-.39,0-.61-.14-.91-.58L971,898.61l-.59.54v1.38a.93.93,0,1,1-1.86,0Z" transform="translate(-504.94 -149.95)"/><path class="cls-6" d="M975,898c0-2.19,1.28-3.58,3.29-3.58a3,3,0,0,1,3.22,3.17.73.73,0,0,1-.8.81h-3.89v.08a1.51,1.51,0,0,0,1.55,1.67,1.92,1.92,0,0,0,1.62-.82.78.78,0,0,1,.61-.27.67.67,0,0,1,.72.68,1,1,0,0,1-.12.45,3.09,3.09,0,0,1-2.82,1.33C976.22,901.51,975,900.2,975,898Zm4.73-.74a1.41,1.41,0,0,0-1.42-1.47,1.47,1.47,0,0,0-1.47,1.47Z" transform="translate(-504.94 -149.95)"/><path class="cls-6" d="M982.43,900.53v-5.18a.85.85,0,0,1,.9-.93.84.84,0,0,1,.88.93v.45h0a1.5,1.5,0,0,1,1.42-1.35.91.91,0,0,1,.58.17.85.85,0,0,1,.26.69.84.84,0,0,1-.26.66,1.24,1.24,0,0,1-.81.25c-.84,0-1.14.48-1.14,1.29v3a.93.93,0,1,1-1.86,0Z" transform="translate(-504.94 -149.95)"/><path class="cls-6" d="M989.77,899.76a1.55,1.55,0,0,1-.1-.52.8.8,0,0,1,.84-.84.92.92,0,0,1,.89.56,1.88,1.88,0,0,0,1.89,1c1,0,1.73-.49,1.73-1.16s-.44-.95-1.59-1.18l-1-.2c-1.82-.36-2.72-1.23-2.72-2.6,0-1.67,1.46-2.79,3.5-2.79,1.67,0,2.94.71,3.34,1.9a1.14,1.14,0,0,1,.07.43.75.75,0,0,1-.82.77,1,1,0,0,1-.91-.57,1.65,1.65,0,0,0-1.68-1c-1,0-1.58.45-1.58,1.12s.44.92,1.53,1.13l1,.2c1.94.38,2.78,1.17,2.78,2.56,0,1.79-1.4,2.92-3.69,2.92C991.35,901.52,990.14,900.76,989.77,899.76Z" transform="translate(-504.94 -149.95)"/><path class="cls-6" d="M997.94,902.82v-7.45a.92.92,0,1,1,1.83,0v.37h0a2.22,2.22,0,0,1,2.11-1.3c1.72,0,2.78,1.31,2.78,3.51s-1.05,3.51-2.75,3.51a2.24,2.24,0,0,1-2.12-1.25h0v2.6a.93.93,0,1,1-1.85,0Zm4.86-4.86c0-1.23-.58-2-1.51-2s-1.5.8-1.5,2,.6,2,1.5,2S1002.8,899.2,1002.8,898Z" transform="translate(-504.94 -149.95)"/><path class="cls-6" d="M1005.39,899.41c0-1.24,1-2,2.65-2.06l1.71-.1v-.45c0-.63-.44-1-1.14-1a1.49,1.49,0,0,0-1.32.71.93.93,0,0,1-.73.35.72.72,0,0,1-.78-.71.9.9,0,0,1,.1-.42c.31-.82,1.41-1.32,2.81-1.32,1.75,0,2.89.9,2.89,2.28v3.87a.85.85,0,0,1-.91.94.81.81,0,0,1-.88-.83v-.35h0a2.34,2.34,0,0,1-2.08,1.15A2.1,2.1,0,0,1,1005.39,899.41Zm4.36-.54v-.5l-1.43.09c-.69,0-1.09.36-1.09.85s.42.82,1,.82A1.35,1.35,0,0,0,1009.75,898.87Z" transform="translate(-504.94 -149.95)"/><path class="cls-6" d="M1013.85,900.53l-1.37-4.75a1.9,1.9,0,0,1-.1-.57.81.81,0,0,1,.89-.79.86.86,0,0,1,.87.79l1,4.4h0l1-4.34a1.06,1.06,0,0,1,2.08,0l1.06,4.34h0l1-4.42a.84.84,0,0,1,.85-.77.8.8,0,0,1,.88.79,1.89,1.89,0,0,1-.1.56l-1.37,4.75a1.14,1.14,0,0,1-1.19,1,1.09,1.09,0,0,1-1.2-1l-1-4h0l-1,4a1.1,1.1,0,0,1-1.19,1C1014.38,901.5,1014.05,901.2,1013.85,900.53Z" transform="translate(-504.94 -149.95)"/><path class="cls-6" d="M1023,900.53v-5.18a.84.84,0,0,1,.89-.93.87.87,0,0,1,.93.94v.38h0a2.09,2.09,0,0,1,2.09-1.31,2.24,2.24,0,0,1,2.36,2.55v3.55a.93.93,0,1,1-1.85,0v-3.17c0-.88-.42-1.39-1.25-1.39a1.35,1.35,0,0,0-1.36,1.49v3.07a.93.93,0,1,1-1.85,0Z" transform="translate(-504.94 -149.95)"/><path class="cls-7" d="M1362.57,266.61V261.1a.7.7,0,0,1,.74-.77h2c2.12,0,3.36,1.26,3.36,3.5s-1.24,3.55-3.36,3.55h-2A.69.69,0,0,1,1362.57,266.61Zm2.52-.45c1.32,0,2-.8,2-2.32s-.73-2.29-2-2.29h-1v4.61Z" transform="translate(-504.94 -149.95)"/><path class="cls-7" d="M1369.45,266.74v-4a.65.65,0,0,1,.69-.72.64.64,0,0,1,.67.72v.34h0a1.16,1.16,0,0,1,1.09-1,.64.64,0,0,1,.44.14.6.6,0,0,1,.21.52.64.64,0,0,1-.21.52,1,1,0,0,1-.62.18c-.65,0-.87.38-.87,1v2.32a.72.72,0,1,1-1.43,0Z" transform="translate(-504.94 -149.95)"/><path class="cls-7" d="M1372.73,264.76a2.59,2.59,0,1,1,2.59,2.73A2.48,2.48,0,0,1,1372.73,264.76Zm3.73,0c0-1-.45-1.64-1.14-1.64s-1.15.6-1.15,1.64.45,1.64,1.15,1.64S1376.46,265.81,1376.46,264.76Z" transform="translate(-504.94 -149.95)"/><path class="cls-7" d="M1378.64,268.5v-5.73a.71.71,0,1,1,1.41,0v.28h0a1.69,1.69,0,0,1,1.62-1c1.33,0,2.14,1,2.14,2.7s-.81,2.7-2.12,2.7a1.71,1.71,0,0,1-1.62-1h0v2a.67.67,0,0,1-.71.75A.68.68,0,0,1,1378.64,268.5Zm3.74-3.74c0-.94-.45-1.55-1.16-1.55s-1.16.62-1.16,1.55.46,1.56,1.16,1.56S1382.38,265.72,1382.38,264.76Z" transform="translate(-504.94 -149.95)"/><path class="cls-7" d="M1171.49,318.26a1.09,1.09,0,0,1-.07-.4.61.61,0,0,1,.64-.65.7.7,0,0,1,.68.43,1.46,1.46,0,0,0,1.46.79c.79,0,1.33-.39,1.33-.9s-.34-.73-1.22-.91l-.75-.15c-1.4-.28-2.09-1-2.09-2,0-1.29,1.12-2.14,2.69-2.14a2.49,2.49,0,0,1,2.57,1.46.79.79,0,0,1,.06.32.58.58,0,0,1-.63.59.73.73,0,0,1-.71-.43,1.27,1.27,0,0,0-1.29-.75c-.73,0-1.21.34-1.21.86s.34.7,1.17.87l.74.15c1.5.3,2.14.9,2.14,2,0,1.37-1.08,2.24-2.84,2.24C1172.71,319.61,1171.78,319,1171.49,318.26Z" transform="translate(-504.94 -149.95)"/><path class="cls-7" d="M1178.16,315.33h-.28a.5.5,0,0,1-.55-.53.51.51,0,0,1,.55-.54h.28v-.58a.71.71,0,1,1,1.42,0v.58h.51a.54.54,0,1,1,0,1.07h-.51v2.51c0,.37.13.53.44.55h.09c.35,0,.54.19.54.52s-.41.63-1,.63h-.05a1.25,1.25,0,0,1-1.43-1.39Z" transform="translate(-504.94 -149.95)"/><path class="cls-7" d="M1181.08,318c0-.95.73-1.5,2-1.58l1.32-.08V316c0-.48-.34-.77-.88-.77a1.15,1.15,0,0,0-1,.55.69.69,0,0,1-.56.27.56.56,0,0,1-.6-.55.92.92,0,0,1,.07-.32,2.2,2.2,0,0,1,2.17-1c1.34,0,2.22.69,2.22,1.75v3a.65.65,0,0,1-.69.72.64.64,0,0,1-.69-.64v-.27h0a1.79,1.79,0,0,1-1.6.89A1.62,1.62,0,0,1,1181.08,318Zm3.36-.41v-.39l-1.11.07c-.53,0-.83.28-.83.65s.32.64.8.64A1.06,1.06,0,0,0,1184.44,317.58Z" transform="translate(-504.94 -149.95)"/><path class="cls-7" d="M1186.73,312.87a.73.73,0,0,1,.76-.73.74.74,0,0,1,.77.73.75.75,0,0,1-.77.74A.74.74,0,0,1,1186.73,312.87Zm0,6v-4a.68.68,0,0,1,.71-.75.69.69,0,0,1,.72.75v4a.68.68,0,0,1-.72.75A.67.67,0,0,1,1186.78,318.85Z" transform="translate(-504.94 -149.95)"/><path class="cls-7" d="M1189.15,318.85v-4a.69.69,0,1,1,1.37,0v.34h0a1.14,1.14,0,0,1,1.08-1,.65.65,0,0,1,.45.13.62.62,0,0,1,.2.53.63.63,0,0,1-.2.51.92.92,0,0,1-.62.18c-.65,0-.88.38-.88,1v2.32a.67.67,0,0,1-.71.75A.68.68,0,0,1,1189.15,318.85Z" transform="translate(-504.94 -149.95)"/><path class="cls-7" d="M1192.67,318.56a.85.85,0,0,1-.05-.26.54.54,0,0,1,.58-.55.81.81,0,0,1,.62.32,1.27,1.27,0,0,0,1.14.54c.52,0,.85-.22.85-.57s-.18-.43-.69-.54l-.88-.19c-1-.22-1.54-.74-1.54-1.52,0-1,.86-1.64,2.22-1.64a2,2,0,0,1,2,1.08.86.86,0,0,1,0,.21c0,.29-.18.49-.55.49a.69.69,0,0,1-.52-.22,1.22,1.22,0,0,0-1-.56c-.49,0-.82.23-.82.57s.2.45.72.56l.87.19c1.11.23,1.57.64,1.57,1.42,0,1-.93,1.72-2.31,1.72C1193.72,319.61,1192.92,319.18,1192.67,318.56Z" transform="translate(-504.94 -149.95)"/><path class="cls-7" d="M971,456.51v-3.88a.74.74,0,1,1,1.47,0v3.73a1.48,1.48,0,1,0,3,0v-3.73a.74.74,0,1,1,1.47,0v3.88c0,1.55-1.14,2.61-3,2.61S971,458.06,971,456.51Z" transform="translate(-504.94 -149.95)"/><path class="cls-7" d="M977.92,460.12v-5.73a.67.67,0,0,1,.71-.73.66.66,0,0,1,.7.73v.29h0a1.69,1.69,0,0,1,1.62-1c1.33,0,2.14,1,2.14,2.7s-.81,2.7-2.12,2.7a1.71,1.71,0,0,1-1.62-1h0v2a.67.67,0,0,1-.71.74A.67.67,0,0,1,977.92,460.12Zm3.74-3.74c0-.95-.45-1.56-1.16-1.56s-1.16.62-1.16,1.56.46,1.55,1.16,1.55S981.66,457.33,981.66,456.38Z" transform="translate(-504.94 -149.95)"/><path class="cls-7" d="M983.86,460.12v-5.73a.7.7,0,1,1,1.4,0v.29h0a1.7,1.7,0,0,1,1.62-1c1.33,0,2.15,1,2.15,2.7s-.81,2.7-2.12,2.7a1.71,1.71,0,0,1-1.63-1h0v2a.71.71,0,1,1-1.42,0Zm3.74-3.74c0-.95-.45-1.56-1.17-1.56s-1.15.62-1.15,1.56.46,1.55,1.15,1.55S987.6,457.33,987.6,456.38Z" transform="translate(-504.94 -149.95)"/><path class="cls-7" d="M989.6,456.41a2.47,2.47,0,0,1,2.53-2.76,2.35,2.35,0,0,1,2.48,2.44.57.57,0,0,1-.62.62h-3v.06a1.17,1.17,0,0,0,1.19,1.29,1.5,1.5,0,0,0,1.25-.63.57.57,0,0,1,.46-.21.51.51,0,0,1,.56.52.69.69,0,0,1-.1.35,2.34,2.34,0,0,1-2.16,1A2.43,2.43,0,0,1,989.6,456.41Zm3.64-.58a1.08,1.08,0,0,0-1.1-1.12,1.13,1.13,0,0,0-1.13,1.12Z" transform="translate(-504.94 -149.95)"/><path class="cls-7" d="M995.34,458.36v-4a.65.65,0,0,1,.69-.72.64.64,0,0,1,.67.72v.34h0a1.16,1.16,0,0,1,1.09-1,.7.7,0,0,1,.44.13.64.64,0,0,1,.21.53.61.61,0,0,1-.21.51,1,1,0,0,1-.62.19c-.64,0-.87.38-.87,1v2.32a.72.72,0,1,1-1.43,0Z" transform="translate(-504.94 -149.95)"/><path class="cls-7" d="M1262.58,684.21v-5.62a.69.69,0,0,1,.74-.77h2.15c1.62,0,2.54.86,2.54,2.25a2,2,0,0,1-1.21,2l1,1.76a.94.94,0,0,1,.16.51.69.69,0,0,1-.75.67c-.35,0-.51-.12-.75-.55l-1.17-2.13h-1.26v1.92a.68.68,0,0,1-.73.76A.69.69,0,0,1,1262.58,684.21Zm2.74-3a1.05,1.05,0,0,0,1.18-1.12,1.08,1.08,0,0,0-1.19-1.12h-1.26v2.24Z" transform="translate(-504.94 -149.95)"/><path class="cls-7" d="M1268.83,683v-2.73a.68.68,0,0,1,.72-.75.67.67,0,0,1,.71.75v2.43c0,.7.35,1.07,1,1.07a1,1,0,0,0,1-1.15v-2.35a.71.71,0,1,1,1.42,0v4a.69.69,0,1,1-1.37,0v-.32h0a1.56,1.56,0,0,1-1.57,1A1.8,1.8,0,0,1,1268.83,683Z" transform="translate(-504.94 -149.95)"/><path class="cls-7" d="M1274.66,684.25v-5.79a.71.71,0,1,1,1.42,0v2.08h0a1.71,1.71,0,0,1,1.62-1c1.32,0,2.13,1,2.13,2.7s-.81,2.7-2.13,2.7a1.72,1.72,0,0,1-1.64-1h0v.28a.66.66,0,0,1-.71.72A.64.64,0,0,1,1274.66,684.25Zm3.74-2c0-1-.45-1.55-1.16-1.55s-1.16.62-1.16,1.55.47,1.56,1.16,1.56S1278.4,683.21,1278.4,682.25Z" transform="translate(-504.94 -149.95)"/><path class="cls-7" d="M1280.63,684.25v-5.79a.71.71,0,1,1,1.42,0v2.08h0a1.72,1.72,0,0,1,1.62-1c1.32,0,2.13,1,2.13,2.7s-.8,2.7-2.13,2.7a1.74,1.74,0,0,1-1.64-1h0v.28a.7.7,0,1,1-1.4,0Zm3.74-2c0-1-.45-1.55-1.16-1.55s-1.16.62-1.16,1.55.47,1.56,1.16,1.56S1284.37,683.21,1284.37,682.25Z" transform="translate(-504.94 -149.95)"/><path class="cls-7" d="M1286.6,684.23v-5.77a.71.71,0,1,1,1.42,0v5.77a.71.71,0,1,1-1.42,0Z" transform="translate(-504.94 -149.95)"/><path class="cls-7" d="M1288.8,682.28a2.47,2.47,0,0,1,2.53-2.76,2.35,2.35,0,0,1,2.48,2.44.56.56,0,0,1-.62.62h-3v.06a1.17,1.17,0,0,0,1.19,1.29,1.5,1.5,0,0,0,1.25-.63.57.57,0,0,1,.46-.21.51.51,0,0,1,.56.52.69.69,0,0,1-.1.35,2.37,2.37,0,0,1-2.17,1A2.43,2.43,0,0,1,1288.8,682.28Zm3.63-.57a1.08,1.08,0,0,0-1.09-1.13,1.13,1.13,0,0,0-1.13,1.13Z" transform="translate(-504.94 -149.95)"/><path class="cls-7" d="M1069.17,517.45a1.65,1.65,0,0,1,.1-.47l1.92-5.24a1.17,1.17,0,0,1,2.24,0l1.93,5.24a1.28,1.28,0,0,1,.1.47.69.69,0,0,1-.74.69c-.42,0-.64-.19-.77-.65l-.37-1.11H1071l-.37,1.1c-.14.47-.36.66-.75.66A.67.67,0,0,1,1069.17,517.45Zm4.07-2.21-.93-2.89h0l-.91,2.89Z" transform="translate(-504.94 -149.95)"/><path class="cls-7" d="M1078.33,517.28v-5.6a.74.74,0,1,1,1.47,0v5.15h2.5a.61.61,0,1,1,0,1.22h-3.23A.69.69,0,0,1,1078.33,517.28Z" transform="translate(-504.94 -149.95)"/><path class="cls-7" d="M1083.61,511.43a.76.76,0,1,1,.76.74A.74.74,0,0,1,1083.61,511.43Zm.05,6v-3.95a.67.67,0,0,1,.71-.75.68.68,0,0,1,.72.75v3.95a.67.67,0,0,1-.72.74A.67.67,0,0,1,1083.66,517.41Z" transform="translate(-504.94 -149.95)"/><path class="cls-7" d="M1086,517.41v-4a.65.65,0,0,1,.69-.72.66.66,0,0,1,.71.72v.29h0a1.62,1.62,0,0,1,1.62-1,1.72,1.72,0,0,1,1.81,2v2.73a.71.71,0,1,1-1.42,0V515c0-.68-.33-1.07-1-1.07a1,1,0,0,0-1,1.15v2.36a.67.67,0,0,1-.71.74A.67.67,0,0,1,1086,517.41Z" transform="translate(-504.94 -149.95)"/><path class="cls-7" d="M1091.83,517.41v-5.77a.71.71,0,1,1,1.42,0v3.25h0l1.9-1.9a.73.73,0,0,1,.57-.28.61.61,0,0,1,.63.62.65.65,0,0,1-.27.54l-1.33,1.26,1.46,1.86a.8.8,0,0,1,.2.52.63.63,0,0,1-.68.64c-.3,0-.47-.1-.7-.44l-1.34-1.78-.46.42v1.06a.71.71,0,1,1-1.42,0Z" transform="translate(-504.94 -149.95)"/><path class="cls-7" d="M1153.55,641.33v-5.62a.69.69,0,0,1,.74-.76h2.15c1.62,0,2.55.85,2.55,2.24a2,2,0,0,1-1.21,2l1,1.76a.86.86,0,0,1,.16.51.68.68,0,0,1-.74.67c-.35,0-.51-.12-.75-.55l-1.18-2.13H1155v1.92a.74.74,0,1,1-1.48,0Zm2.75-3a1.06,1.06,0,0,0,1.18-1.12,1.08,1.08,0,0,0-1.2-1.12H1155v2.24Z" transform="translate(-504.94 -149.95)"/><path class="cls-7" d="M1159.59,639.37a2.6,2.6,0,1,1,2.6,2.73A2.48,2.48,0,0,1,1159.59,639.37Zm3.74,0c0-1-.45-1.64-1.14-1.64s-1.15.6-1.15,1.64.44,1.64,1.15,1.64S1163.33,640.42,1163.33,639.37Z" transform="translate(-504.94 -149.95)"/><path class="cls-7" d="M1165.32,639.37a2.6,2.6,0,1,1,2.6,2.73A2.48,2.48,0,0,1,1165.32,639.37Zm3.74,0c0-1-.45-1.64-1.14-1.64s-1.15.6-1.15,1.64.44,1.64,1.15,1.64S1169.06,640.42,1169.06,639.37Z" transform="translate(-504.94 -149.95)"/><path class="cls-7" d="M1171.62,637.83h-.27a.54.54,0,1,1,0-1.07h.27v-.58a.72.72,0,1,1,1.43,0v.58h.5a.54.54,0,1,1,0,1.07h-.5v2.51c0,.37.12.52.43.55h.09c.36,0,.55.18.55.52s-.41.63-1,.63h0a1.26,1.26,0,0,1-1.44-1.4Z" transform="translate(-504.94 -149.95)"/><path class="cls-7" d="M1188.3,529.21a1.37,1.37,0,0,1,.1-.47l1.92-5.24a1.17,1.17,0,0,1,2.24,0l1.93,5.24a1.29,1.29,0,0,1,.09.47.69.69,0,0,1-.73.7c-.42,0-.64-.19-.77-.65l-.37-1.12h-2.54l-.38,1.1c-.13.47-.35.67-.74.67A.68.68,0,0,1,1188.3,529.21Zm4.07-2.21-.93-2.88h0l-.91,2.88Z" transform="translate(-504.94 -149.95)"/><path class="cls-7" d="M1197.46,529.22v-5.6a.87.87,0,0,1,1-1,1,1,0,0,1,1,.76l1.75,4.33h0l1.74-4.33a1,1,0,0,1,1-.76.87.87,0,0,1,1,1v5.6a.66.66,0,1,1-1.32,0v-4.16h0l-1.74,4.26a.63.63,0,0,1-.63.45.63.63,0,0,1-.64-.44l-1.74-4.27h0v4.16a.66.66,0,1,1-1.31,0Z" transform="translate(-504.94 -149.95)"/><path class="cls-7" d="M1205.65,528.31c0-.95.74-1.5,2-1.58l1.31-.08v-.35c0-.49-.34-.77-.88-.77a1.14,1.14,0,0,0-1,.55.72.72,0,0,1-.57.27.55.55,0,0,1-.59-.55.71.71,0,0,1,.07-.32c.24-.63,1.08-1,2.17-1,1.34,0,2.22.69,2.22,1.74v3a.66.66,0,0,1-.7.72.63.63,0,0,1-.68-.64V529h0a1.81,1.81,0,0,1-1.6.89A1.63,1.63,0,0,1,1205.65,528.31Zm3.36-.42v-.38l-1.1.07c-.53,0-.83.28-.83.65s.32.64.8.64A1,1,0,0,0,1209,527.89Z" transform="translate(-504.94 -149.95)"/><path class="cls-7" d="M1211.31,523.19a.76.76,0,0,1,1.52,0,.76.76,0,0,1-1.52,0Zm0,6v-3.95a.71.71,0,1,1,1.42,0v3.95a.71.71,0,1,1-1.42,0Z" transform="translate(-504.94 -149.95)"/><path class="cls-7" d="M1213.73,529.17v-4a.65.65,0,0,1,.69-.72.67.67,0,0,1,.71.72v.3h0a1.61,1.61,0,0,1,1.61-1,1.73,1.73,0,0,1,1.82,2v2.73a.72.72,0,1,1-1.43,0v-2.43c0-.69-.32-1.08-1-1.08a1,1,0,0,0-1,1.15v2.36a.72.72,0,1,1-1.43,0Z" transform="translate(-504.94 -149.95)"/><path class="cls-7" d="M1318.13,511.48v-5.15h-1.46a.62.62,0,1,1,0-1.23h4.39a.62.62,0,1,1,0,1.23h-1.46v5.15a.74.74,0,1,1-1.47,0Z" transform="translate(-504.94 -149.95)"/><path class="cls-7" d="M1321.68,511.51v-4a.65.65,0,0,1,.69-.72.64.64,0,0,1,.67.72v.34h0a1.16,1.16,0,0,1,1.09-1,.64.64,0,0,1,.44.14.6.6,0,0,1,.21.52.64.64,0,0,1-.21.52,1,1,0,0,1-.62.18c-.65,0-.88.38-.88,1v2.32a.71.71,0,1,1-1.42,0Z" transform="translate(-504.94 -149.95)"/><path class="cls-7" d="M1325,509.56a2.47,2.47,0,0,1,2.52-2.76,2.35,2.35,0,0,1,2.48,2.44.56.56,0,0,1-.62.62h-3v.06a1.17,1.17,0,0,0,1.19,1.29,1.5,1.5,0,0,0,1.25-.63.57.57,0,0,1,.46-.21.51.51,0,0,1,.56.52.81.81,0,0,1-.1.35,2.37,2.37,0,0,1-2.17,1A2.43,2.43,0,0,1,1325,509.56Zm3.63-.57a1.08,1.08,0,0,0-1.09-1.13,1.13,1.13,0,0,0-1.13,1.13Z" transform="translate(-504.94 -149.95)"/><path class="cls-7" d="M1330.51,509.56a2.47,2.47,0,0,1,2.53-2.76,2.35,2.35,0,0,1,2.48,2.44.56.56,0,0,1-.62.62h-3v.06a1.17,1.17,0,0,0,1.19,1.29,1.5,1.5,0,0,0,1.25-.63.57.57,0,0,1,.46-.21.51.51,0,0,1,.56.52.69.69,0,0,1-.1.35,2.35,2.35,0,0,1-2.17,1A2.43,2.43,0,0,1,1330.51,509.56Zm3.63-.57a1.07,1.07,0,0,0-1.09-1.13,1.13,1.13,0,0,0-1.13,1.13Z" transform="translate(-504.94 -149.95)"/><path class="cls-8" d="M1010.76,203.19V196a.9.9,0,0,1,1-1h2.54c2.75,0,4.37,1.64,4.37,4.55s-1.62,4.61-4.37,4.61h-2.54A.9.9,0,0,1,1010.76,203.19Zm3.27-.59c1.71,0,2.64-1,2.64-3s-.95-3-2.64-3h-1.35v6Z" transform="translate(-504.94 -149.95)"/><path class="cls-8" d="M1019.45,200.82c0-2.19,1.28-3.58,3.29-3.58a3,3,0,0,1,3.22,3.17.73.73,0,0,1-.8.8h-3.89v.08a1.51,1.51,0,0,0,1.55,1.67,1.93,1.93,0,0,0,1.63-.81.73.73,0,0,1,.6-.28.67.67,0,0,1,.72.68,1,1,0,0,1-.12.45,3.07,3.07,0,0,1-2.82,1.34A3.17,3.17,0,0,1,1019.45,200.82Zm4.73-.74a1.41,1.41,0,0,0-1.42-1.47,1.48,1.48,0,0,0-1.47,1.47Z" transform="translate(-504.94 -149.95)"/><path class="cls-8" d="M1027.41,203.36v-4.58h-.35a.68.68,0,1,1,0-1.36h.35v-.52a1.71,1.71,0,0,1,1.94-2c1,0,1.4.31,1.4.75a.48.48,0,0,1-.37.49l-.36.05c-.57,0-.8.24-.8.75v.43h.78a.68.68,0,1,1,0,1.36h-.74v4.58a.93.93,0,1,1-1.85,0Z" transform="translate(-504.94 -149.95)"/><path class="cls-8" d="M1031.11,200.82c0-2.19,1.27-3.58,3.28-3.58a3.06,3.06,0,0,1,3.23,3.17.73.73,0,0,1-.81.8h-3.88v.08a1.51,1.51,0,0,0,1.55,1.67,1.91,1.91,0,0,0,1.62-.81.74.74,0,0,1,.6-.28.68.68,0,0,1,.73.68,1,1,0,0,1-.13.45,3.06,3.06,0,0,1-2.82,1.34C1032.36,204.34,1031.11,203,1031.11,200.82Zm4.72-.74a1.4,1.4,0,0,0-1.42-1.47,1.46,1.46,0,0,0-1.46,1.47Z" transform="translate(-504.94 -149.95)"/><path class="cls-8" d="M1038.57,203.36v-5.18a.84.84,0,0,1,.9-.93.86.86,0,0,1,.92.93v.39h0a2.08,2.08,0,0,1,2.1-1.31,2.24,2.24,0,0,1,2.36,2.54v3.56a.93.93,0,1,1-1.86,0v-3.17c0-.89-.42-1.4-1.25-1.4a1.35,1.35,0,0,0-1.36,1.5v3.07a.93.93,0,1,1-1.85,0Z" transform="translate(-504.94 -149.95)"/><path class="cls-8" d="M1045.81,200.77c0-2.15,1.08-3.49,2.79-3.49a2.2,2.2,0,0,1,2.08,1.27h0v-2.69a.93.93,0,1,1,1.86,0v7.52a.86.86,0,0,1-.92.94.87.87,0,0,1-.94-.94V203h0a2.14,2.14,0,0,1-2.09,1.31C1046.89,204.3,1045.81,203,1045.81,200.77Zm4.92,0c0-1.24-.59-2-1.51-2s-1.51.78-1.51,2,.57,2,1.51,2S1050.73,202,1050.73,200.79Z" transform="translate(-504.94 -149.95)"/><path class="cls-8" d="M1053.56,200.82c0-2.19,1.27-3.58,3.29-3.58a3,3,0,0,1,3.22,3.17.73.73,0,0,1-.81.8h-3.88v.08a1.51,1.51,0,0,0,1.55,1.67,1.91,1.91,0,0,0,1.62-.81.76.76,0,0,1,.61-.28.67.67,0,0,1,.72.68,1,1,0,0,1-.13.45,3.06,3.06,0,0,1-2.82,1.34C1054.81,204.34,1053.56,203,1053.56,200.82Zm4.73-.74a1.41,1.41,0,0,0-1.43-1.47,1.46,1.46,0,0,0-1.46,1.47Z" transform="translate(-504.94 -149.95)"/><path class="cls-8" d="M1061,203.36v-5.18a.85.85,0,0,1,.9-.93.84.84,0,0,1,.87.93v.44h0a1.5,1.5,0,0,1,1.42-1.34.83.83,0,0,1,.57.17,1,1,0,0,1,0,1.35,1.19,1.19,0,0,1-.8.24c-.85,0-1.14.49-1.14,1.3v3a.93.93,0,1,1-1.86,0Z" transform="translate(-504.94 -149.95)"/><path class="cls-8" d="M1068.36,202.58a1.49,1.49,0,0,1-.1-.51.8.8,0,0,1,.84-.84.93.93,0,0,1,.89.55,1.88,1.88,0,0,0,1.89,1c1,0,1.72-.5,1.72-1.17s-.43-.94-1.58-1.18l-1-.19c-1.83-.36-2.72-1.24-2.72-2.6,0-1.68,1.46-2.79,3.5-2.79,1.67,0,2.93.71,3.34,1.9a1.12,1.12,0,0,1,.07.42.75.75,0,0,1-.82.77.93.93,0,0,1-.91-.56,1.67,1.67,0,0,0-1.68-1c-.95,0-1.58.44-1.58,1.12s.44.91,1.53,1.13l1,.19c1.94.39,2.78,1.17,2.78,2.56,0,1.79-1.4,2.92-3.69,2.92C1069.94,204.34,1068.73,203.59,1068.36,202.58Z" transform="translate(-504.94 -149.95)"/><path class="cls-8" d="M1076.53,205.65V198.2a.92.92,0,1,1,1.83,0v.37h0a2.2,2.2,0,0,1,2.1-1.29c1.73,0,2.79,1.31,2.79,3.51s-1,3.51-2.75,3.51a2.22,2.22,0,0,1-2.12-1.25h0v2.6a.93.93,0,1,1-1.85,0Zm4.86-4.86c0-1.23-.58-2-1.51-2s-1.5.81-1.5,2,.59,2,1.5,2S1081.39,202,1081.39,200.79Z" transform="translate(-504.94 -149.95)"/><path class="cls-8" d="M1084,202.23c0-1.23,1-1.95,2.65-2l1.71-.1v-.45c0-.64-.44-1-1.14-1a1.49,1.49,0,0,0-1.32.72.93.93,0,0,1-.74.34.71.71,0,0,1-.77-.71,1.06,1.06,0,0,1,.09-.42c.32-.81,1.41-1.31,2.82-1.31,1.75,0,2.88.9,2.88,2.27v3.88a.84.84,0,0,1-.9.93.82.82,0,0,1-.89-.82v-.35h0a2.37,2.37,0,0,1-2.09,1.15A2.1,2.1,0,0,1,1084,202.23Zm4.36-.53v-.5l-1.43.09c-.69.05-1.09.36-1.09.84s.42.83,1,.83A1.36,1.36,0,0,0,1088.34,201.7Z" transform="translate(-504.94 -149.95)"/><path class="cls-8" d="M1092.44,203.35l-1.37-4.74a2,2,0,0,1-.11-.57.82.82,0,0,1,.9-.79.86.86,0,0,1,.87.78l1,4.4h0l1-4.33a1.06,1.06,0,0,1,2.08,0l1.06,4.33h0l1-4.41a.84.84,0,0,1,.85-.77.8.8,0,0,1,.88.78,2,2,0,0,1-.1.57l-1.37,4.75a1.13,1.13,0,0,1-1.19,1,1.09,1.09,0,0,1-1.2-1l-1-4h0l-1,4a1.1,1.1,0,0,1-1.19,1A1.11,1.11,0,0,1,1092.44,203.35Z" transform="translate(-504.94 -149.95)"/><path class="cls-8" d="M1101.6,203.36v-5.18a.84.84,0,0,1,.89-.93.87.87,0,0,1,.93.93v.39h0a2.07,2.07,0,0,1,2.09-1.31,2.24,2.24,0,0,1,2.36,2.54v3.56a.93.93,0,1,1-1.85,0v-3.17c0-.89-.42-1.4-1.25-1.4a1.35,1.35,0,0,0-1.36,1.5v3.07a.93.93,0,1,1-1.85,0Z" transform="translate(-504.94 -149.95)"/><path class="cls-7" d="M697.08,499.26l-1.47-5.33a2.06,2.06,0,0,1-.08-.49.65.65,0,0,1,.73-.67.69.69,0,0,1,.71.64l1,4.56h0l1.19-4.54a.72.72,0,0,1,.76-.66.73.73,0,0,1,.75.65l1.18,4.55h0l1.06-4.56a.69.69,0,0,1,.71-.64.65.65,0,0,1,.73.67,2.14,2.14,0,0,1-.08.49l-1.47,5.34c-.15.51-.4.74-.86.74s-.73-.22-.87-.75L700,495.1h0l-1.17,4.16c-.14.52-.4.75-.86.75S697.23,499.78,697.08,499.26Z" transform="translate(-504.94 -149.95)"/><path class="cls-7" d="M704.43,498.41c0-1,.73-1.5,2-1.58l1.32-.08v-.34c0-.49-.34-.78-.88-.78a1.17,1.17,0,0,0-1,.56.71.71,0,0,1-.56.26.55.55,0,0,1-.6-.55.76.76,0,0,1,.08-.32,2.2,2.2,0,0,1,2.16-1c1.35,0,2.22.69,2.22,1.75v3a.65.65,0,0,1-.69.72.64.64,0,0,1-.69-.64v-.26h0a1.81,1.81,0,0,1-1.6.88A1.62,1.62,0,0,1,704.43,498.41Zm3.36-.41v-.38l-1.1.07c-.54,0-.84.27-.84.64s.32.64.8.64A1,1,0,0,0,707.79,498Z" transform="translate(-504.94 -149.95)"/><path class="cls-7" d="M710.49,495.76h-.27a.54.54,0,1,1,0-1.08h.27v-.58a.72.72,0,1,1,1.43,0v.58h.5a.54.54,0,1,1,0,1.08h-.5v2.5c0,.37.12.53.43.55h.09c.35,0,.54.19.54.52s-.41.64-1,.64h-.05a1.26,1.26,0,0,1-1.43-1.4Z" transform="translate(-504.94 -149.95)"/><path class="cls-7" d="M713.4,497.32a2.47,2.47,0,0,1,2.53-2.75,2.35,2.35,0,0,1,2.48,2.44.57.57,0,0,1-.62.62h-3v.06A1.16,1.16,0,0,0,716,499a1.47,1.47,0,0,0,1.25-.63.6.6,0,0,1,.47-.21.52.52,0,0,1,.55.53.72.72,0,0,1-.09.34,2.35,2.35,0,0,1-2.17,1A2.43,2.43,0,0,1,713.4,497.32Zm3.64-.57a1.09,1.09,0,0,0-1.1-1.13,1.12,1.12,0,0,0-1.12,1.13Z" transform="translate(-504.94 -149.95)"/><path class="cls-7" d="M719.14,499.28v-4a.66.66,0,0,1,.69-.72.65.65,0,0,1,.67.72v.34h0a1.15,1.15,0,0,1,1.09-1,.69.69,0,0,1,.45.13.65.65,0,0,1,.2.53.66.66,0,0,1-.2.51,1,1,0,0,1-.62.19c-.65,0-.88.37-.88,1v2.33a.72.72,0,1,1-1.43,0Z" transform="translate(-504.94 -149.95)"/><path class="cls-7" d="M723.18,499.28v-3.52h-.27a.53.53,0,0,1,0-1.05h.27v-.4a1.32,1.32,0,0,1,1.5-1.5c.76,0,1.07.24,1.07.57a.36.36,0,0,1-.29.38l-.27,0c-.44,0-.61.19-.61.57v.34h.6a.53.53,0,0,1,0,1.05h-.57v3.52a.72.72,0,1,1-1.43,0Z" transform="translate(-504.94 -149.95)"/><path class="cls-7" d="M725.89,498.41c0-1,.73-1.5,2-1.58l1.32-.08v-.34c0-.49-.34-.78-.88-.78a1.17,1.17,0,0,0-1,.56.71.71,0,0,1-.56.26.55.55,0,0,1-.6-.55.76.76,0,0,1,.08-.32,2.2,2.2,0,0,1,2.16-1c1.35,0,2.22.69,2.22,1.75v3a.65.65,0,0,1-.69.72.64.64,0,0,1-.69-.64v-.26h0a1.81,1.81,0,0,1-1.6.88A1.62,1.62,0,0,1,725.89,498.41Zm3.36-.41v-.38l-1.1.07c-.54,0-.84.27-.84.64s.32.64.8.64A1,1,0,0,0,729.25,498Z" transform="translate(-504.94 -149.95)"/><path class="cls-7" d="M731.6,499.28v-5.77a.68.68,0,0,1,.72-.75.67.67,0,0,1,.71.75v5.77a.67.67,0,0,1-.71.74A.67.67,0,0,1,731.6,499.28Z" transform="translate(-504.94 -149.95)"/><path class="cls-7" d="M734,499.28v-5.77a.68.68,0,0,1,.72-.75.67.67,0,0,1,.71.75v5.77a.67.67,0,0,1-.71.74A.67.67,0,0,1,734,499.28Z" transform="translate(-504.94 -149.95)"/><path class="cls-7" d="M527.32,581.73v-5.51a.68.68,0,0,1,.73-.76h3.35a.59.59,0,0,1,.67.61.6.6,0,0,1-.67.61h-2.61v1.69h2.49a.55.55,0,0,1,.61.57.54.54,0,0,1-.61.56h-2.49v1.78h2.61a.61.61,0,1,1,0,1.22h-3.35A.68.68,0,0,1,527.32,581.73Z" transform="translate(-504.94 -149.95)"/><path class="cls-7" d="M533,581.86v-5.77a.72.72,0,1,1,1.43,0v5.77a.72.72,0,1,1-1.43,0Z" transform="translate(-504.94 -149.95)"/><path class="cls-7" d="M535.38,581.88v-5.79a.68.68,0,0,1,.72-.74.67.67,0,0,1,.71.74v2.08h0a1.71,1.71,0,0,1,1.62-1c1.32,0,2.12,1,2.12,2.7s-.8,2.7-2.12,2.7a1.72,1.72,0,0,1-1.64-1h0v.28a.66.66,0,0,1-.71.72A.65.65,0,0,1,535.38,581.88Zm3.74-2c0-1-.44-1.55-1.15-1.55s-1.17.62-1.17,1.55.48,1.56,1.17,1.56S539.12,580.84,539.12,579.88Z" transform="translate(-504.94 -149.95)"/><path class="cls-7" d="M541.13,579.88a2.6,2.6,0,1,1,2.59,2.73A2.48,2.48,0,0,1,541.13,579.88Zm3.74,0c0-1-.45-1.64-1.15-1.64s-1.14.6-1.14,1.64.44,1.64,1.14,1.64S544.87,580.93,544.87,579.88Z" transform="translate(-504.94 -149.95)"/><path class="cls-7" d="M547.85,581.86l-1.05-3.65a1.65,1.65,0,0,1-.08-.44.63.63,0,0,1,.69-.61.65.65,0,0,1,.67.6l.78,3.39h0l.82-3.34a.82.82,0,0,1,1.6,0l.81,3.34h0l.78-3.4a.65.65,0,0,1,.66-.59.62.62,0,0,1,.68.6,1.65,1.65,0,0,1-.08.44l-1.06,3.65a.86.86,0,0,1-.91.75.83.83,0,0,1-.92-.75l-.8-3.05h0l-.79,3.06a.83.83,0,0,1-.91.74C548.26,582.6,548,582.37,547.85,581.86Z" transform="translate(-504.94 -149.95)"/><path class="cls-7" d="M640.08,378.1v-5.7a.74.74,0,1,1,1.48,0v2.19h3.17V372.4a.74.74,0,1,1,1.47,0v5.7a.74.74,0,1,1-1.47,0v-2.3h-3.17v2.3a.74.74,0,1,1-1.48,0Z" transform="translate(-504.94 -149.95)"/><path class="cls-7" d="M646.94,377.27c0-1,.73-1.51,2-1.58l1.32-.08v-.35c0-.49-.34-.77-.88-.77a1.13,1.13,0,0,0-1,.55.71.71,0,0,1-.57.26.55.55,0,0,1-.6-.54.72.72,0,0,1,.08-.32,2.18,2.18,0,0,1,2.16-1c1.35,0,2.22.7,2.22,1.75v3a.65.65,0,0,1-.69.71.63.63,0,0,1-.69-.63V378h0a1.81,1.81,0,0,1-1.61.88A1.62,1.62,0,0,1,646.94,377.27Zm3.36-.42v-.38l-1.1.07c-.54,0-.84.28-.84.65s.32.63.8.63A1,1,0,0,0,650.3,376.85Z" transform="translate(-504.94 -149.95)"/><path class="cls-7" d="M652.65,378.13v-5.77a.68.68,0,0,1,.72-.74.67.67,0,0,1,.71.74v5.77a.67.67,0,0,1-.71.74A.67.67,0,0,1,652.65,378.13Z" transform="translate(-504.94 -149.95)"/><path class="cls-7" d="M655.08,378.13v-5.77a.71.71,0,1,1,1.42,0v5.77a.71.71,0,1,1-1.42,0Z" transform="translate(-504.94 -149.95)"/><path class="cls-7" d="M742.69,801c0-2.28,1.3-3.65,3.32-3.65a3,3,0,0,1,2.83,1.6,1.32,1.32,0,0,1,.14.56.6.6,0,0,1-.65.63.72.72,0,0,1-.7-.49,1.68,1.68,0,0,0-1.6-1.08c-1.11,0-1.83.94-1.83,2.42s.71,2.43,1.83,2.43a1.66,1.66,0,0,0,1.62-1,.69.69,0,0,1,1.34.19,1.28,1.28,0,0,1-.11.49,2.94,2.94,0,0,1-2.83,1.58C744,804.64,742.69,803.27,742.69,801Z" transform="translate(-504.94 -149.95)"/><path class="cls-7" d="M752,803.75v-5.6a.74.74,0,1,1,1.48,0v5.15H756a.61.61,0,1,1,0,1.22h-3.24A.69.69,0,0,1,752,803.75Z" transform="translate(-504.94 -149.95)"/><path class="cls-7" d="M757.06,801.9a2.59,2.59,0,1,1,2.59,2.73A2.48,2.48,0,0,1,757.06,801.9Zm3.73,0c0-1-.45-1.64-1.14-1.64s-1.15.6-1.15,1.64.45,1.64,1.15,1.64S760.79,803,760.79,801.9Z" transform="translate(-504.94 -149.95)"/><path class="cls-7" d="M763,803.9v-5.79a.72.72,0,1,1,1.43,0v2.08h0a1.69,1.69,0,0,1,1.61-1c1.33,0,2.13,1,2.13,2.7s-.8,2.7-2.12,2.7a1.72,1.72,0,0,1-1.64-1h0v.28a.66.66,0,0,1-.71.72A.65.65,0,0,1,763,803.9Zm3.74-2c0-.95-.44-1.55-1.15-1.55s-1.17.62-1.17,1.55.48,1.56,1.17,1.56S766.75,802.86,766.75,801.9Z" transform="translate(-504.94 -149.95)"/><path class="cls-7" d="M769,803.9v-5.79a.68.68,0,0,1,.72-.74.67.67,0,0,1,.71.74v2.08h0a1.7,1.7,0,0,1,1.61-1c1.33,0,2.13,1,2.13,2.7s-.8,2.7-2.12,2.7a1.72,1.72,0,0,1-1.64-1h0v.28a.66.66,0,0,1-.71.72A.65.65,0,0,1,769,803.9Zm3.74-2c0-.95-.44-1.55-1.15-1.55s-1.17.62-1.17,1.55.48,1.56,1.17,1.56S772.72,802.86,772.72,801.9Z" transform="translate(-504.94 -149.95)"/><path class="cls-7" d="M774.72,805.79a.46.46,0,0,1,.53-.47h.25a.72.72,0,0,0,.68-.48l.08-.18-1.67-4.41a1.14,1.14,0,0,1-.09-.42.69.69,0,0,1,.74-.66c.38,0,.57.16.69.57l1.14,3.63h0l1.14-3.63c.12-.4.32-.57.69-.57a.64.64,0,0,1,.69.64,1.3,1.3,0,0,1-.08.42l-1.6,4.37c-.49,1.35-1.1,1.85-2.24,1.85C775.06,806.46,774.72,806.22,774.72,805.79Z" transform="translate(-504.94 -149.95)"/><path class="cls-7" d="M675.93,581.13c0-2.27,1.29-3.64,3.32-3.64a3,3,0,0,1,2.82,1.6,1.2,1.2,0,0,1,.15.55.61.61,0,0,1-.65.64.72.72,0,0,1-.71-.49,1.68,1.68,0,0,0-1.6-1.08c-1.11,0-1.83.93-1.83,2.42s.71,2.43,1.84,2.43a1.65,1.65,0,0,0,1.61-1,.65.65,0,0,1,.65-.47.64.64,0,0,1,.69.66,1.28,1.28,0,0,1-.11.49,2.93,2.93,0,0,1-2.82,1.58C677.2,584.78,675.93,583.41,675.93,581.13Z" transform="translate(-504.94 -149.95)"/><path class="cls-7" d="M685.25,584.06v-5.59a.87.87,0,0,1,1-1,1,1,0,0,1,1,.76l1.75,4.33h0l1.74-4.33a1,1,0,0,1,1-.76.87.87,0,0,1,1,1v5.59a.62.62,0,0,1-.66.69.61.61,0,0,1-.65-.69V579.9h0l-1.75,4.27a.62.62,0,0,1-.63.45.65.65,0,0,1-.64-.45l-1.74-4.27h0v4.16a.66.66,0,1,1-1.31,0Z" transform="translate(-504.94 -149.95)"/><path class="cls-7" d="M693.45,583.16c0-1,.73-1.51,2-1.59l1.32-.07v-.35c0-.49-.35-.77-.88-.77a1.15,1.15,0,0,0-1,.55.75.75,0,0,1-.57.26.54.54,0,0,1-.59-.54.75.75,0,0,1,.07-.33,2.22,2.22,0,0,1,2.17-1c1.34,0,2.22.7,2.22,1.75v3a.65.65,0,0,1-.7.72.63.63,0,0,1-.68-.63v-.27h0a1.8,1.8,0,0,1-1.6.88A1.61,1.61,0,0,1,693.45,583.16Zm3.36-.42v-.38l-1.11.07c-.53,0-.83.28-.83.65s.32.63.8.63A1,1,0,0,0,696.81,582.74Z" transform="translate(-504.94 -149.95)"/><path class="cls-7" d="M699.1,578a.76.76,0,1,1,.76.74A.74.74,0,0,1,699.1,578Zm0,6v-4a.71.71,0,1,1,1.42,0v4a.71.71,0,1,1-1.42,0Z" transform="translate(-504.94 -149.95)"/><path class="cls-7" d="M701.52,584v-4a.65.65,0,0,1,.69-.72.66.66,0,0,1,.71.72v.29h0a1.6,1.6,0,0,1,1.61-1,1.72,1.72,0,0,1,1.82,2V584a.72.72,0,1,1-1.43,0v-2.44c0-.68-.32-1.07-1-1.07a1,1,0,0,0-1,1.15V584a.72.72,0,1,1-1.43,0Z" transform="translate(-504.94 -149.95)"/><path class="cls-7" d="M832.39,296.45c0-2.26,1.29-3.63,3.36-3.63a3,3,0,0,1,2.81,1.5,1,1,0,0,1,.1.46.61.61,0,0,1-.64.63.77.77,0,0,1-.71-.43,1.66,1.66,0,0,0-1.56-.93c-1.16,0-1.86.88-1.86,2.38s.75,2.46,1.92,2.46a1.52,1.52,0,0,0,1.66-1.47v-.11h-1a.53.53,0,0,1-.59-.54.52.52,0,0,1,.59-.53h1.72a.69.69,0,0,1,.74.76v.11a2.85,2.85,0,0,1-3.13,3C833.68,300.11,832.39,298.74,832.39,296.45Z" transform="translate(-504.94 -149.95)"/><path class="cls-7" d="M839.76,299.35v-4a.65.65,0,0,1,.69-.72.64.64,0,0,1,.67.72v.34h0a1.15,1.15,0,0,1,1.09-1,.64.64,0,0,1,.44.13.6.6,0,0,1,.21.52.64.64,0,0,1-.21.52,1,1,0,0,1-.62.18c-.65,0-.88.38-.88,1v2.32a.71.71,0,1,1-1.42,0Z" transform="translate(-504.94 -149.95)"/><path class="cls-7" d="M843.07,298.49c0-.95.73-1.51,2-1.58l1.32-.08v-.35c0-.49-.34-.77-.88-.77a1.15,1.15,0,0,0-1,.55.69.69,0,0,1-.56.27.56.56,0,0,1-.6-.55.88.88,0,0,1,.07-.32,2.2,2.2,0,0,1,2.17-1c1.34,0,2.22.69,2.22,1.74v3a.65.65,0,0,1-.69.72.64.64,0,0,1-.69-.64v-.27h0a1.79,1.79,0,0,1-1.6.89A1.62,1.62,0,0,1,843.07,298.49Zm3.36-.42v-.38l-1.11.07c-.53,0-.83.28-.83.65s.32.64.8.64A1.06,1.06,0,0,0,846.43,298.07Z" transform="translate(-504.94 -149.95)"/><path class="cls-7" d="M849.89,299.37l-1.36-3.65a1.22,1.22,0,0,1-.08-.43.65.65,0,0,1,.71-.64.68.68,0,0,1,.69.57l1,3.51h0l1.06-3.52a.69.69,0,0,1,1.37.08,1.42,1.42,0,0,1-.08.4l-1.36,3.68a1.07,1.07,0,0,1-2,0Z" transform="translate(-504.94 -149.95)"/><path class="cls-7" d="M853.66,297.4a2.47,2.47,0,0,1,2.53-2.75,2.34,2.34,0,0,1,2.48,2.43.56.56,0,0,1-.62.62h-3v.07a1.17,1.17,0,0,0,1.2,1.28,1.5,1.5,0,0,0,1.25-.63.56.56,0,0,1,.46-.21.52.52,0,0,1,.56.52.78.78,0,0,1-.1.35,2.37,2.37,0,0,1-2.17,1A2.44,2.44,0,0,1,853.66,297.4Zm3.64-.57a1.08,1.08,0,0,0-1.09-1.13,1.13,1.13,0,0,0-1.13,1.13Z" transform="translate(-504.94 -149.95)"/><path class="cls-7" d="M859.44,299.35v-5.76a.72.72,0,1,1,1.43,0v5.76a.72.72,0,1,1-1.43,0Z" transform="translate(-504.94 -149.95)"/><path class="cls-7" d="M790.64,412.21c0-2.27,1.29-3.65,3.32-3.65a2.94,2.94,0,0,1,2.82,1.61,1.14,1.14,0,0,1,.15.55.6.6,0,0,1-.65.63.7.7,0,0,1-.7-.49,1.7,1.7,0,0,0-1.6-1.07c-1.12,0-1.84.93-1.84,2.41s.71,2.43,1.84,2.43a1.65,1.65,0,0,0,1.62-1,.64.64,0,0,1,.65-.46.63.63,0,0,1,.68.65,1.09,1.09,0,0,1-.11.49,2.93,2.93,0,0,1-2.82,1.58C791.91,415.85,790.64,414.48,790.64,412.21Z" transform="translate(-504.94 -149.95)"/><path class="cls-7" d="M800,415v-5.6a.74.74,0,1,1,1.48,0v5.15h2.5a.61.61,0,1,1,0,1.22H800.7A.69.69,0,0,1,800,415Z" transform="translate(-504.94 -149.95)"/><path class="cls-7" d="M805.24,409.11a.75.75,0,0,1,.77-.74.74.74,0,1,1,0,1.48A.75.75,0,0,1,805.24,409.11Zm0,6v-3.95a.72.72,0,1,1,1.43,0v3.95a.72.72,0,1,1-1.43,0Z" transform="translate(-504.94 -149.95)"/><path class="cls-7" d="M807.67,415.09v-4a.65.65,0,0,1,.68-.72.67.67,0,0,1,.72.72v.3h0a1.6,1.6,0,0,1,1.61-1,1.72,1.72,0,0,1,1.81,2v2.73a.71.71,0,1,1-1.42,0v-2.43c0-.69-.32-1.08-1-1.08a1,1,0,0,0-1,1.15v2.36a.71.71,0,1,1-1.42,0Z" transform="translate(-504.94 -149.95)"/><path class="cls-7" d="M813.46,415.09v-5.76a.68.68,0,0,1,.72-.75.67.67,0,0,1,.71.75v3.24h0l1.89-1.9a.73.73,0,0,1,.57-.28.61.61,0,0,1,.63.62.64.64,0,0,1-.27.54l-1.33,1.26,1.46,1.86a.76.76,0,0,1,.2.52.64.64,0,0,1-.68.65c-.3,0-.47-.11-.69-.45l-1.35-1.78-.45.42v1.06a.67.67,0,0,1-.71.75A.68.68,0,0,1,813.46,415.09Z" transform="translate(-504.94 -149.95)"/><path class="cls-7" d="M891.08,491.31v-16a2,2,0,0,1,2.14-2.22H900c3.84,0,6.24,2,6.24,5.1a4.51,4.51,0,0,1-3.83,4.43v.11a5,5,0,0,1,4.81,4.94c0,3.6-2.7,5.85-7.06,5.85h-6.91A2,2,0,0,1,891.08,491.31Zm7.35-9.7c2.28,0,3.58-1,3.58-2.74s-1.15-2.57-3.14-2.57h-3.52v5.31Zm.61,8.75c2.46,0,3.79-1.05,3.79-3s-1.37-2.93-3.89-2.93h-3.59v5.94Z" transform="translate(-504.94 -149.95)"/><path class="cls-7" d="M1330.93,338.27c-1.13,0-1.77-.57-2.16-1.93l-1.08-3.18h-7.38l-1.07,3.23c-.38,1.33-1,1.88-2.23,1.88a2,2,0,0,1-2.13-2,3.71,3.71,0,0,1,.27-1.36l5.6-15.21a3.39,3.39,0,0,1,6.49,0l5.58,15.19a4.5,4.5,0,0,1,.28,1.36A2,2,0,0,1,1330.93,338.27Zm-4.17-8.42-2.65-8.37h-.1l-2.71,8.37Z" transform="translate(-504.94 -149.95)"/><path class="cls-7" d="M576.38,437.74c0-6.58,3.75-10.56,9.63-10.56,3.82,0,6.78,1.7,8.18,4.64a3.51,3.51,0,0,1,.42,1.6,1.75,1.75,0,0,1-1.88,1.84,2.08,2.08,0,0,1-2-1.41,4.89,4.89,0,0,0-4.64-3.13c-3.23,0-5.31,2.7-5.31,7s2,7,5.32,7a4.8,4.8,0,0,0,4.69-3,1.89,1.89,0,0,1,1.88-1.34,1.84,1.84,0,0,1,2,1.89,3.42,3.42,0,0,1-.33,1.43c-1.27,2.83-4.32,4.58-8.18,4.58C580.06,448.31,576.38,444.34,576.38,437.74Z" transform="translate(-504.94 -149.95)"/><path class="cls-7" d="M719.59,668.63V663a.87.87,0,0,1,.95-.95,1,1,0,0,1,1,.76l1.75,4.33h0l1.74-4.33a1,1,0,0,1,1-.76.87.87,0,0,1,.95.95v5.6a.66.66,0,1,1-1.32,0v-4.17h0L724,668.73a.67.67,0,0,1-1.27,0l-1.74-4.27h0v4.17a.66.66,0,1,1-1.31,0Z" transform="translate(-504.94 -149.95)"/><path class="cls-7" d="M727.91,666.6a2.59,2.59,0,1,1,2.59,2.73A2.48,2.48,0,0,1,727.91,666.6Zm3.73,0c0-1-.45-1.64-1.14-1.64s-1.15.6-1.15,1.64.45,1.64,1.15,1.64S731.64,667.65,731.64,666.6Z" transform="translate(-504.94 -149.95)"/><path class="cls-7" d="M733.8,667.36v-2.73a.72.72,0,1,1,1.43,0v2.43c0,.7.34,1.07,1,1.07a1,1,0,0,0,1-1.15v-2.35a.72.72,0,1,1,1.43,0v4a.69.69,0,1,1-1.38,0v-.32h0a1.55,1.55,0,0,1-1.57,1A1.79,1.79,0,0,1,733.8,667.36Z" transform="translate(-504.94 -149.95)"/><path class="cls-7" d="M739.59,668.58v-4a.64.64,0,0,1,.68-.72.67.67,0,0,1,.72.72v.29h0a1.6,1.6,0,0,1,1.61-1,1.72,1.72,0,0,1,1.81,2v2.73a.71.71,0,1,1-1.42,0v-2.44c0-.68-.32-1.07-1-1.07a1,1,0,0,0-1,1.15v2.36a.71.71,0,1,1-1.42,0Z" transform="translate(-504.94 -149.95)"/><path class="cls-7" d="M745.16,666.59c0-1.66.83-2.69,2.14-2.69a1.69,1.69,0,0,1,1.6,1h0v-2.07a.71.71,0,1,1,1.42,0v5.79a.71.71,0,1,1-1.42,0v-.3h0a1.64,1.64,0,0,1-1.61,1C746,669.3,745.16,668.27,745.16,666.59Zm3.78,0c0-1-.46-1.55-1.17-1.55s-1.15.6-1.15,1.55.44,1.56,1.15,1.56S748.94,667.56,748.94,666.6Z" transform="translate(-504.94 -149.95)"/><path class="cls-7" d="M906.58,613.44v-5.51a.7.7,0,0,1,.74-.77h2.33c1.32,0,2.15.68,2.15,1.76a1.55,1.55,0,0,1-1.32,1.53v0a1.7,1.7,0,0,1,1.66,1.7c0,1.24-.93,2-2.44,2h-2.38A.69.69,0,0,1,906.58,613.44Zm2.54-3.35c.78,0,1.23-.34,1.23-.94s-.39-.89-1.08-.89h-1.21v1.83Zm.21,3c.85,0,1.31-.36,1.31-1s-.48-1-1.35-1h-1.23v2Z" transform="translate(-504.94 -149.95)"/><path class="cls-7" d="M915,613.61V608a.87.87,0,0,1,.95-.95,1,1,0,0,1,1,.76l1.75,4.33h0l1.74-4.33a1,1,0,0,1,1-.76.87.87,0,0,1,.95.95v5.59a.66.66,0,1,1-1.31,0v-4.16h0l-1.75,4.27a.62.62,0,0,1-.63.45.65.65,0,0,1-.64-.45l-1.74-4.27h0v4.16a.66.66,0,1,1-1.31,0Z" transform="translate(-504.94 -149.95)"/><path class="cls-7" d="M923.16,612.71c0-1,.73-1.51,2-1.59l1.32-.07v-.35c0-.49-.35-.77-.88-.77a1.15,1.15,0,0,0-1,.55.7.7,0,0,1-.56.26.55.55,0,0,1-.6-.54.75.75,0,0,1,.07-.33,2.22,2.22,0,0,1,2.17-1c1.34,0,2.22.7,2.22,1.75v3a.65.65,0,0,1-.7.72.63.63,0,0,1-.68-.63v-.27h0a1.8,1.8,0,0,1-1.6.88A1.61,1.61,0,0,1,923.16,612.71Zm3.36-.42v-.38l-1.11.07c-.53,0-.83.28-.83.65s.32.63.8.63A1,1,0,0,0,926.52,612.29Z" transform="translate(-504.94 -149.95)"/><path class="cls-7" d="M928.81,607.59a.76.76,0,1,1,.76.74A.74.74,0,0,1,928.81,607.59Zm.05,6v-4a.67.67,0,0,1,.71-.75.68.68,0,0,1,.72.75v4a.68.68,0,0,1-.72.74A.67.67,0,0,1,928.86,613.57Z" transform="translate(-504.94 -149.95)"/><path class="cls-7" d="M931.23,613.57v-4a.65.65,0,0,1,.69-.72.66.66,0,0,1,.71.72v.29h0a1.6,1.6,0,0,1,1.61-1,1.72,1.72,0,0,1,1.82,2v2.73a.71.71,0,1,1-1.42,0v-2.44c0-.68-.33-1.07-1-1.07a1,1,0,0,0-1,1.15v2.36a.67.67,0,0,1-.71.74A.67.67,0,0,1,931.23,613.57Z" transform="translate(-504.94 -149.95)"/><path class="cls-7" d="M943.84,717.34v-5.6a.69.69,0,0,1,.74-.77h2.13a2.3,2.3,0,0,1,2.44,2.41,2.35,2.35,0,0,1-2.52,2.42h-1.31v1.54a.74.74,0,1,1-1.48,0Zm2.47-2.7a1.25,1.25,0,1,0,0-2.5h-1v2.5Z" transform="translate(-504.94 -149.95)"/><path class="cls-7" d="M949.87,711.4a.76.76,0,1,1,.76.73A.74.74,0,0,1,949.87,711.4Zm0,6v-4a.67.67,0,0,1,.71-.74.68.68,0,0,1,.72.74v4a.68.68,0,0,1-.72.74A.67.67,0,0,1,949.92,717.38Z" transform="translate(-504.94 -149.95)"/><path class="cls-7" d="M952.33,717.38v-5.77a.71.71,0,1,1,1.42,0v5.77a.71.71,0,1,1-1.42,0Z" transform="translate(-504.94 -149.95)"/><path class="cls-7" d="M954.75,717.38v-5.77a.71.71,0,1,1,1.42,0v5.77a.71.71,0,1,1-1.42,0Z" transform="translate(-504.94 -149.95)"/><path class="cls-7" d="M956.93,716.51c0-1,.73-1.5,2-1.58l1.32-.08v-.34c0-.49-.34-.77-.88-.77a1.13,1.13,0,0,0-1,.55.75.75,0,0,1-.57.26.55.55,0,0,1-.6-.55.76.76,0,0,1,.08-.32c.24-.62,1.08-1,2.17-1,1.34,0,2.21.7,2.21,1.75v3a.65.65,0,0,1-.69.72.62.62,0,0,1-.68-.63v-.27h0a1.83,1.83,0,0,1-1.61.88A1.62,1.62,0,0,1,956.93,716.51Zm3.36-.41v-.38l-1.1.07c-.53,0-.84.28-.84.65s.32.63.8.63A1,1,0,0,0,960.29,716.1Z" transform="translate(-504.94 -149.95)"/><path class="cls-7" d="M962.61,717.38v-4a.65.65,0,0,1,.69-.71.64.64,0,0,1,.67.71v.35h0a1.16,1.16,0,0,1,1.09-1,.75.75,0,0,1,.45.13.66.66,0,0,1,.2.53.65.65,0,0,1-.2.51,1,1,0,0,1-.62.19c-.65,0-.88.37-.88,1v2.33a.72.72,0,1,1-1.43,0Z" transform="translate(-504.94 -149.95)"/><path class="cls-7" d="M966.13,717.09a1,1,0,0,1,0-.27.53.53,0,0,1,.57-.54.8.8,0,0,1,.62.32,1.29,1.29,0,0,0,1.15.53c.51,0,.85-.21.85-.56s-.18-.44-.69-.55l-.88-.18c-1-.22-1.54-.75-1.54-1.52,0-1,.86-1.65,2.22-1.65a2,2,0,0,1,2,1.09.76.76,0,0,1,0,.21c0,.28-.18.48-.54.48a.64.64,0,0,1-.52-.22,1.25,1.25,0,0,0-1-.56c-.48,0-.82.23-.82.57s.21.45.73.57l.86.18c1.12.24,1.58.65,1.58,1.43,0,1-.94,1.71-2.32,1.71C967.18,718.13,966.38,717.7,966.13,717.09Z" transform="translate(-504.94 -149.95)"/><path class="cls-7" d="M1117.14,778.3a1.37,1.37,0,0,1,.1-.47l1.92-5.24a1.17,1.17,0,0,1,2.24,0l1.93,5.24a1.25,1.25,0,0,1,.09.47.68.68,0,0,1-.73.69c-.42,0-.64-.19-.77-.65l-.37-1.11H1119l-.37,1.1c-.13.47-.35.66-.74.66A.67.67,0,0,1,1117.14,778.3Zm4.07-2.21-.94-2.89h0l-.91,2.89Z" transform="translate(-504.94 -149.95)"/><path class="cls-7" d="M1126.29,778.13v-5.6a.74.74,0,1,1,1.48,0v5.15h2.5a.61.61,0,1,1,0,1.22H1127A.69.69,0,0,1,1126.29,778.13Z" transform="translate(-504.94 -149.95)"/><path class="cls-7" d="M1131.34,776.28a2.59,2.59,0,1,1,2.59,2.73A2.48,2.48,0,0,1,1131.34,776.28Zm3.73,0c0-1-.44-1.64-1.14-1.64s-1.15.6-1.15,1.64.45,1.64,1.15,1.64S1135.07,777.33,1135.07,776.28Z" transform="translate(-504.94 -149.95)"/><path class="cls-7" d="M1137.29,778.28V772.5a.72.72,0,1,1,1.43,0v2.08h0a1.7,1.7,0,0,1,1.61-1c1.33,0,2.13,1,2.13,2.7s-.8,2.7-2.12,2.7a1.72,1.72,0,0,1-1.64-1h0v.28a.66.66,0,0,1-.71.72A.65.65,0,0,1,1137.29,778.28Zm3.74-2c0-.95-.44-1.55-1.15-1.55s-1.17.62-1.17,1.55.48,1.56,1.17,1.56S1141,777.24,1141,776.28Z" transform="translate(-504.94 -149.95)"/><path class="cls-7" d="M1143.26,778.28V772.5a.68.68,0,0,1,.72-.75.67.67,0,0,1,.71.75v2.08h0a1.71,1.71,0,0,1,1.61-1c1.33,0,2.13,1,2.13,2.7s-.8,2.7-2.12,2.7a1.72,1.72,0,0,1-1.64-1h0v.28a.66.66,0,0,1-.71.72A.65.65,0,0,1,1143.26,778.28Zm3.74-2c0-.95-.44-1.55-1.15-1.55s-1.17.62-1.17,1.55.48,1.56,1.17,1.56S1147,777.24,1147,776.28Z" transform="translate(-504.94 -149.95)"/><path class="cls-7" d="M1149,780.17a.47.47,0,0,1,.53-.47h.25a.72.72,0,0,0,.68-.48l.08-.18-1.67-4.41a1.11,1.11,0,0,1-.08-.42.68.68,0,0,1,.73-.66c.38,0,.57.16.69.58l1.14,3.62h0l1.14-3.63c.12-.4.32-.57.69-.57a.64.64,0,0,1,.69.64,1.3,1.3,0,0,1-.08.42l-1.6,4.37c-.49,1.35-1.1,1.85-2.24,1.85C1149.34,780.84,1149,780.6,1149,780.17Z" transform="translate(-504.94 -149.95)"/><path class="cls-7" d="M1283.76,565.77a1.59,1.59,0,0,1,.09-.47l1.93-5.24a1.16,1.16,0,0,1,2.23,0l1.94,5.24a1.25,1.25,0,0,1,.09.47.69.69,0,0,1-.74.69c-.41,0-.63-.19-.76-.65l-.37-1.11h-2.55l-.37,1.1c-.14.47-.36.66-.75.66A.66.66,0,0,1,1283.76,565.77Zm4.06-2.21-.93-2.89h0l-.92,2.89Z" transform="translate(-504.94 -149.95)"/><path class="cls-7" d="M1292.91,565.6v-5.51a.69.69,0,0,1,.74-.76h1.95c2.12,0,3.36,1.25,3.36,3.49s-1.24,3.55-3.36,3.55h-1.95A.69.69,0,0,1,1292.91,565.6Zm2.52-.45c1.32,0,2-.8,2-2.32s-.73-2.29-2-2.29h-1v4.61Z" transform="translate(-504.94 -149.95)"/><path class="cls-7" d="M1299.6,563.75a2.59,2.59,0,1,1,2.59,2.73A2.48,2.48,0,0,1,1299.6,563.75Zm3.73,0c0-1-.45-1.64-1.14-1.64s-1.15.6-1.15,1.64.45,1.64,1.15,1.64S1303.33,564.8,1303.33,563.75Z" transform="translate(-504.94 -149.95)"/><path class="cls-7" d="M1305.32,563.75a2.6,2.6,0,1,1,2.6,2.73A2.48,2.48,0,0,1,1305.32,563.75Zm3.74,0c0-1-.45-1.64-1.14-1.64s-1.15.6-1.15,1.64.44,1.64,1.15,1.64S1309.06,564.8,1309.06,563.75Z" transform="translate(-504.94 -149.95)"/><path class="cls-7" d="M1311.24,565.73v-4a.65.65,0,0,1,.69-.72.64.64,0,0,1,.67.72v.34h0a1.16,1.16,0,0,1,1.09-1,.69.69,0,0,1,.45.14.63.63,0,0,1,.2.52.67.67,0,0,1-.2.52,1,1,0,0,1-.62.18c-.65,0-.88.38-.88,1v2.32a.67.67,0,0,1-.71.74A.67.67,0,0,1,1311.24,565.73Z" transform="translate(-504.94 -149.95)"/><path class="cls-7" d="M784.45,612.3c0-2.27,1.29-3.64,3.32-3.64a3,3,0,0,1,2.82,1.6,1.2,1.2,0,0,1,.15.55.61.61,0,0,1-.65.64.72.72,0,0,1-.7-.49,1.7,1.7,0,0,0-1.61-1.08c-1.11,0-1.83.93-1.83,2.42s.71,2.43,1.84,2.43a1.66,1.66,0,0,0,1.62-1.05.64.64,0,0,1,.65-.46.63.63,0,0,1,.68.66,1.28,1.28,0,0,1-.11.49,3,3,0,0,1-2.82,1.58C785.72,616,784.45,614.58,784.45,612.3Z" transform="translate(-504.94 -149.95)"/><path class="cls-7" d="M793.77,615.06v-5.51a.69.69,0,0,1,.74-.77h2c2.12,0,3.36,1.26,3.36,3.5s-1.24,3.55-3.36,3.55h-2A.69.69,0,0,1,793.77,615.06Zm2.52-.45c1.31,0,2-.8,2-2.33s-.74-2.28-2-2.28h-1v4.61Z" transform="translate(-504.94 -149.95)"/><path class="cls-7" d="M800.46,613.21a2.59,2.59,0,1,1,2.59,2.73A2.48,2.48,0,0,1,800.46,613.21Zm3.73,0c0-1-.45-1.64-1.14-1.64s-1.15.6-1.15,1.64.45,1.64,1.15,1.64S804.19,614.26,804.19,613.21Z" transform="translate(-504.94 -149.95)"/><path class="cls-7" d="M806.18,613.21a2.6,2.6,0,1,1,2.6,2.73A2.48,2.48,0,0,1,806.18,613.21Zm3.74,0c0-1-.45-1.64-1.14-1.64s-1.15.6-1.15,1.64.44,1.64,1.15,1.64S809.92,614.26,809.92,613.21Z" transform="translate(-504.94 -149.95)"/><path class="cls-7" d="M812.1,615.19v-4a.65.65,0,0,1,.69-.71.64.64,0,0,1,.67.71v.34h0a1.16,1.16,0,0,1,1.09-1,.69.69,0,0,1,.45.13.78.78,0,0,1,0,1,1,1,0,0,1-.62.19c-.65,0-.88.37-.88,1v2.33a.72.72,0,1,1-1.43,0Z" transform="translate(-504.94 -149.95)"/></g></svg>