<svg xmlns="http://www.w3.org/2000/svg" viewBox="0 0 1014.1 946.26"><defs><style>.cls-1{fill:#33353b;}.cls-2{fill:#575548;}.cls-3{fill:#b0adb0;}.cls-4{fill:none;stroke:#b0adb0;stroke-miterlimit:10;}.cls-5{fill:#656569;}.cls-6{fill:#d32027;}.cls-7{fill:#fff;}.cls-8{fill:#79c143;}</style></defs><title>Pearl Offence</title><g id="Body_Merge" data-name="Body Merge"><path class="cls-1" d="M1410,481h-73v24h-18V455h72V377h-32v-6h48V270L1276,139H1090.93v-6.82c0-36.09-26.4-65.35-59-65.35s-59,29.26-59,65.35V231H869l-97.06,34H721v30h0V415H711v-2h8V375h-8V311H561v64H493V574.61L453,614v27h40V747H465v78H635V793h52V901H874l23,23.09V1011h194V877h73l87-86.87V667h56V651h26v16h74l58-83V536Zm-286,18v48H1021v52H987V503H923V457h14l65-32h29V409h6v72h104v18Zm65.07-134L1150,345h-27V451h-56V392.58L1053,364V309l-4-12V285h34V201h10v20h72l6-4h10v41l2.56,2.56v0L1203,280l11-11,13,13-11,11,24,24h9v48ZM1165,180h-43v-2h84v2Zm82-11,14,21v23l48,48h28v18h-81l-26-26,10-10-19-19v-1h-2V169h28ZM721,453v24h40V295h10v80h-8v38h58V317h38v20h88V285h70V261h8V201h10v56h28v10h-36V290.4a1.33,1.33,0,0,0-.29.47l-22.05,70a5.19,5.19,0,0,1-2.56,3,1.33,1.33,0,0,1-.24.1l-99.92,28.69a1.31,1.31,0,0,0-.47.28H901V503H829v28H711V453ZM681,341v34H587V341ZM551,642H529V601h22ZM690.94,747H587V609h8V559h-7.83V497H683v22H667v58h79.15L780,601h63V569H953.08L967,575.15V578l-13.91,13H917v80h-7l-15-16H825V855H787V747Zm407,60H941v73l-22,22h-2l-21-21v-2l11-10V765H887V697h37l43,44h58v10h-2v46h96v26h-12.61Zm141.57-194H1163V807.9L1154.92,823H1141V751h-74V717h32V629h-32V588h10v11h134V550l-20-19V411h74v45h9v49h-24v29.94L1365,575v18l-78,20h-47.46Z" transform="translate(-451.95 -65.78)"/></g><g id="Bombsite"><polygon class="cls-2" points="939.97 310.42 907.71 310.42 907.71 250.76 902.56 250.76 902.56 236.72 907.97 236.72 885.04 213.11 885.04 212.53 880.51 212.53 813.05 212.53 813.05 345.22 885.04 345.22 885.04 345.21 939.97 345.21 939.97 310.42"/><rect class="cls-2" x="135.05" y="309.22" width="96" height="122.85"/><polygon class="cls-1" points="875.56 266.74 828.26 266.74 828.26 286.76 828.43 286.76 828.43 302.13 843.4 302.13 843.4 286.76 875.56 286.76 875.56 266.74"/><rect class="cls-1" x="151.41" y="308.6" width="16.99" height="16.08"/><rect class="cls-1" x="209.42" y="358.56" width="26.56" height="19.08"/><rect class="cls-1" x="174.63" y="416.47" width="14.9" height="15.3"/></g><g id="Lines"><path class="cls-3" d="M1167,565v14h-14V565h14m1-1h-16v16h16V564Z" transform="translate(-451.95 -65.78)"/><path class="cls-3" d="M1027.92,547v51h-7V547h7m1-1h-9v53h9V546Z" transform="translate(-451.95 -65.78)"/><path class="cls-3" d="M1011.91,599v52.91H996V599h15.9m1-1H995v54.91h17.9V598Z" transform="translate(-451.95 -65.78)"/><line class="cls-4" x1="516.3" y1="530.87" x2="535.77" y2="523"/><path class="cls-3" d="M887,749v15H873V749h14m1-1H872v17h16V748Z" transform="translate(-451.95 -65.78)"/><path class="cls-3" d="M907,765v7h-7v-7h7m1-1h-9v9h9v-9Z" transform="translate(-451.95 -65.78)"/><path class="cls-3" d="M902.93,939v19h-6V939h6m1-1h-8v21h8V938Z" transform="translate(-451.95 -65.78)"/><path class="cls-3" d="M961,994v17H897V994h64m1-1H896v19h66V993Z" transform="translate(-451.95 -65.78)"/><path class="cls-3" d="M1091,994v17h-81V994h81m1-1h-83v19h83V993Z" transform="translate(-451.95 -65.78)"/><path class="cls-3" d="M1091,942v19h-5V942h5m1-1h-7v21h7V941Z" transform="translate(-451.95 -65.78)"/><polyline class="cls-4" points="738.53 724.21 738.53 675.73 710.13 675.73"/><path class="cls-3" d="M1251,730v15.9h-15V730h15m1-1h-17v17.9h17V729Z" transform="translate(-451.95 -65.78)"/><line class="cls-4" x1="735.56" y1="568.22" x2="735.56" y2="645.24"/><path class="cls-3" d="M1415.13,558.78l12.93,7.46-18.43,31.93-12.93-7.46,18.43-31.93m-.37-1.37-19.43,33.66,14.67,8.47,19.43-33.66-14.67-8.47Z" transform="translate(-451.95 -65.78)"/><path class="cls-3" d="M1327,333v19h-32v15h-14V333h46m1-1h-48v35.93h16v-15h32V332Z" transform="translate(-451.95 -65.78)"/><path class="cls-3" d="M1363,303v68h-3V316h-5V303h8m1-1h-10v15h5v55h5V302Z" transform="translate(-451.95 -65.78)"/><rect class="cls-3" x="911.87" y="236.22" width="7.17" height="1"/><path class="cls-3" d="M1219,170v9h-14v-9h14m1-1h-16v11h16V169Z" transform="translate(-451.95 -65.78)"/><path class="cls-3" d="M1219,180v6.92h-7V180h7m1-1h-9v8.92h9V179Z" transform="translate(-451.95 -65.78)"/><path class="cls-3" d="M1061.9,235v22H1035V235h26.93m1-1H1034v24h28.93V234Z" transform="translate(-451.95 -65.78)"/><path class="cls-3" d="M1191,412v15h-14V412h14m1-1h-16v17h16V411Z" transform="translate(-451.95 -65.78)"/><polyline class="cls-4" points="632.46 384.44 632.46 406.59 639.68 415.94"/><rect class="cls-3" x="372.67" y="464.21" width="67.37" height="1.01"/><polygon class="cls-3" points="328.04 472.22 328.04 464.2 327.05 464.2 327.05 473.2 327.26 473.2 328.04 473.2 419.05 473.2 419.05 472.22 328.04 472.22"/><path class="cls-3" d="M971.94,503v14H957V503h15m1-1H956v16h17V502Z" transform="translate(-451.95 -65.78)"/><path class="cls-3" d="M838,303v14H822V303h16m1-1H821v16h18V302Z" transform="translate(-451.95 -65.78)"/><path class="cls-3" d="M845,311v6h-6v-6h6m1-1h-8v8h8v-8Z" transform="translate(-451.95 -65.78)"/><path class="cls-3" d="M711,425v18H662V425h49m1-1H661v20h51V424Z" transform="translate(-451.95 -65.78)"/><path class="cls-3" d="M711,425v18H681V425h30m1-1H680v20h32V424Z" transform="translate(-451.95 -65.78)"/><rect class="cls-3" x="259.05" y="348.67" width="0.99" height="39.14"/><path class="cls-3" d="M620,375v15H604V375h16m1-1H603v17h18V374Z" transform="translate(-451.95 -65.78)"/><path class="cls-3" d="M524,439v15H493V439h31m1-1H492v17h33V438Z" transform="translate(-451.95 -65.78)"/><path class="cls-3" d="M640.89,483v14H627V483h13.88m1-1H626v16h15.88V482Z" transform="translate(-451.95 -65.78)"/><path class="cls-3" d="M492,627v14h-7V627h7m1-1h-9v16h9V626Z" transform="translate(-451.95 -65.78)"/><path class="cls-3" d="M727.89,531v14H712V531h15.89m1-1H711v16h17.89V530Z" transform="translate(-451.95 -65.78)"/><path class="cls-3" d="M748,778a10,10,0,1,1-10,10,10,10,0,0,1,10-10m0-1a11,11,0,1,0,11,11,11,11,0,0,0-11-11Z" transform="translate(-451.95 -65.78)"/><rect class="cls-3" x="294.04" y="680.5" width="1" height="31.24"/><rect class="cls-3" x="285.04" y="680.5" width="1" height="40.66"/><rect class="cls-3" x="285.05" y="723.22" width="0.99" height="54.99"/><path class="cls-3" d="M564,770v16H516V770h48m1-1H515v18h50V769Z" transform="translate(-451.95 -65.78)"/><rect class="cls-3" x="63.05" y="720.41" width="0.99" height="15.8"/><rect class="cls-3" x="112.05" y="720.41" width="0.99" height="15.8"/><rect class="cls-3" x="420.06" y="698.89" width="0.96" height="93.34"/></g><g id="Outlines"><path class="cls-5" d="M1032,66.83c32.57,0,59,29.26,59,65.35V139H1276l131,131V371h-48v6h32v78h-72v50h18V481h73l55,55v48l-58,83h-74V651h-26v16h-56V790.12L1164,877h-73v134H897v-86.9L874,901H687V793H635v32H465V747h28V641H453V614l40-39.39V375h68V311H711v64h8v38h-8v2h10V295h0V265h50.93L869,231H973V132.18c0-36.09,26.4-65.35,59-65.35M1219,223h2v1l19,19-10,10,26,26h81V261h-28l-48-48V190l-14-21h-28v54m-97-43h84v-2h-84v2M859,337V317H821v96H763V375h8V295H761V477H721V453H711v78H829V503h72V393h.47a1.31,1.31,0,0,1,.47-.28L1001.86,364a1.33,1.33,0,0,0,.24-.1,5.19,5.19,0,0,0,2.56-3l22.05-70a1.33,1.33,0,0,1,.29-.47V267h36V257h-28V201h-10v60h-8v24H947v52H859m208,114h56V345h27l39.07,20H1249V317h-9l-24-24,11-11-13-13-11,11-19.45-19.45v0L1181,258V217h-10l-6,4h-72V201h-10v84h-34v12l4,12v55l14,28.58V451M587,375h94V341H587v34M923,503h64v96h34V547h103V499h17V481H1037V409h-6v16h-29l-65,32H923v46m154,96V588h-10v41h32v88h-32v34h74v72h13.92L1163,807.9V613h124l78-20V575l-115-40.06V505h24V456h-9V411h-74V531l20,19v49H1077M587.17,559H595v50h-8V747H787V855h38V655h70l15,16h7V591h36.07L967,578v-2.89L953.08,569H843v32H780l-33.85-24H667V519h16V497H587.17v62M529,642h22V601H529v41M887,765h20V869l-11,10v2l21,21h2l22-22V807h157l8.42,16H1119V797h-96V751h2V741H967l-43-44H887v68M1032,65.78c-33.09,0-60,29.79-60,66.4V230H868.81l-.17.06L771.75,264H720v32.1h0V374h-7.9V310H560v64H492V574.17l-39.69,39.08-.31.31v28.49h40V746h-28v80.1H636.05v-32H686v108h187.6l22.38,22.47V1012H1092V878h72.4l.3-.31,87-86.87.31-.31V668.05h56v-16H1332v16h75.6l.31-.45,58-83,.19-.27V535.56l-.31-.3-55-55-.31-.31H1336v24H1320v-47.9h72V376h-32v-3.9h48V269.56l-.31-.31-131-131-.3-.31H1092v-5.77c0-36.61-26.93-66.4-60-66.4ZM1220.05,170h26.4l13.5,20.29v23.12l.31.3,48,48,.3.31H1336V278h-79.52l-25-25,9.26-9.26.74-.74-.74-.74-18.69-18.7V222h-2V170Zm-194,32h7.9v56h28V266h-36v24.09a2.38,2.38,0,0,0-.24.51l-22.06,70a4.09,4.09,0,0,1-2,2.42l-100,28.72a1.84,1.84,0,0,0-.52.23H900V502H828v28H712.05V454.06H720v24h42.1v-64h60v-96H858v20h90.1v-52h70v-24h8v-60Zm58,0h7.9v20h73.36l.26-.17,5.78-3.83h8.59V258.4l.31.3,1.81,1.82.73.76,19.46,19.46.74.74.75-.74L1214,270.48,1225.51,282l-10.27,10.27-.74.74.74.74,24,24,.31.31H1248V364h-58.63l-38.84-19.88-.23-.12H1122V450H1068V392.34l-.11-.22-13.88-28.36V308.83l-.06-.16-3.94-11.88V286.05h34v-84Zm-322,94h7.89V374h-7.89v-77.9Zm-174,46H680V374h-91.9v-31.9Zm444,68h3.9v72h104V498h-17v48H1020v52h-31.9V502h-64V458h13.18l.22-.11,64.82-31.88h29.78v-16Zm160,2H1264v45h9V504h-24v31.74l.7.24L1364,575.75v16.44L1286.86,612H1162V807.64l-7.66,14.28h-12.24v-72h-74V718h32v-90.1h-32V589.05H1076v11h136.08v-50.5l-.33-.31-19.67-18.69V412.06ZM588.22,498h93.72V518H666v60.1h79.86l33.58,23.8.27.2h64.39v-32H952.86l13.08,5.78v1.76l-13.27,12.35H916v80h-5.51l-14.72-15.7-.31-.33H824V854h-35.9V746h-200V610.05h8V558h-7.83V498Zm-58.17,104H550V641h-19.9v-38.9Zm358,96h35.5l42.7,43.69.31.32h57.38v7.88h-2v48.11h96v23.87H1107l-8.14-15.45-.29-.56H940v73.65L918.56,901h-1.13l-20.38-20.39v-1.09l10.65-9.7.35-.31V764h-20v-65.9Z" transform="translate(-451.95 -65.78)"/></g><g id="CAllouts_copy" data-name="CAllouts copy"><path class="cls-6" d="M948.39,950.71a1.85,1.85,0,0,1,.13-.61l2.5-6.81a1.51,1.51,0,0,1,2.9,0l2.52,6.81a1.68,1.68,0,0,1,.12.61.9.9,0,0,1-1,.91c-.54,0-.83-.25-1-.85l-.48-1.45h-3.31l-.48,1.43c-.18.61-.46.87-1,.87A.87.87,0,0,1,948.39,950.71Zm5.29-2.87-1.22-3.75h0l-1.19,3.75Z" transform="translate(-451.95 -65.78)"/><path class="cls-6" d="M957.61,946.09h-.35a.7.7,0,1,1,0-1.4h.35v-.76a.93.93,0,1,1,1.86,0v.76h.65a.7.7,0,1,1,0,1.4h-.65v3.25c0,.49.16.69.56.72h.12c.46,0,.71.24.71.68s-.54.82-1.32.82h-.06a1.63,1.63,0,0,1-1.87-1.81Z" transform="translate(-451.95 -65.78)"/><path class="cls-6" d="M962.23,946.09h-.35a.7.7,0,1,1,0-1.4h.35v-.76a.93.93,0,1,1,1.86,0v.76h.65a.7.7,0,1,1,0,1.4h-.65v3.25c0,.49.16.69.56.72h.12c.46,0,.71.24.71.68s-.54.82-1.32.82h-.06a1.63,1.63,0,0,1-1.87-1.81Z" transform="translate(-451.95 -65.78)"/><path class="cls-6" d="M966,949.54c0-1.24,1-2,2.65-2.06l1.72-.1v-.45c0-.63-.45-1-1.15-1a1.49,1.49,0,0,0-1.32.72.94.94,0,0,1-.73.34.72.72,0,0,1-.78-.71.9.9,0,0,1,.1-.42c.31-.81,1.41-1.32,2.82-1.32,1.74,0,2.88.91,2.88,2.28v3.88a.85.85,0,0,1-.9.93.82.82,0,0,1-.89-.83v-.35h0a2.34,2.34,0,0,1-2.08,1.15A2.1,2.1,0,0,1,966,949.54Zm4.37-.54v-.5l-1.44.09c-.69,0-1.08.37-1.08.85s.41.82,1,.82A1.36,1.36,0,0,0,970.4,949Z" transform="translate(-451.95 -65.78)"/><path class="cls-6" d="M973.16,948.09a3.22,3.22,0,0,1,3.34-3.55,3,3,0,0,1,2.87,1.63,1.16,1.16,0,0,1,.1.46.72.72,0,0,1-.79.72.82.82,0,0,1-.78-.48,1.45,1.45,0,0,0-1.34-.87c-.94,0-1.52.77-1.52,2.09s.58,2.1,1.51,2.1a1.47,1.47,0,0,0,1.33-.8c.25-.39.45-.55.84-.55a.73.73,0,0,1,.78.74,1.1,1.1,0,0,1-.12.49,3.08,3.08,0,0,1-2.86,1.57A3.21,3.21,0,0,1,973.16,948.09Z" transform="translate(-451.95 -65.78)"/><path class="cls-6" d="M980.54,950.66v-7.49a.93.93,0,1,1,1.85,0v4.22h0l2.46-2.47a1,1,0,0,1,.74-.37.8.8,0,0,1,.82.81.81.81,0,0,1-.35.69l-1.73,1.64,1.9,2.42a1,1,0,0,1,.26.68.82.82,0,0,1-.88.84c-.4,0-.62-.14-.91-.58L983,948.74l-.59.55v1.37a.93.93,0,1,1-1.85,0Z" transform="translate(-451.95 -65.78)"/><path class="cls-6" d="M986.93,948.12c0-2.19,1.27-3.58,3.28-3.58a3.06,3.06,0,0,1,3.23,3.17.73.73,0,0,1-.81.81h-3.88v.08a1.51,1.51,0,0,0,1.55,1.67,1.92,1.92,0,0,0,1.62-.82.76.76,0,0,1,.6-.27.68.68,0,0,1,.73.68,1,1,0,0,1-.13.45,3.05,3.05,0,0,1-2.82,1.33C988.18,951.64,986.93,950.33,986.93,948.12Zm4.72-.74a1.39,1.39,0,0,0-1.42-1.46,1.45,1.45,0,0,0-1.46,1.46Z" transform="translate(-451.95 -65.78)"/><path class="cls-6" d="M994.39,950.66v-5.18a.85.85,0,0,1,.9-.93.84.84,0,0,1,.87.93v.45h0a1.5,1.5,0,0,1,1.42-1.35.88.88,0,0,1,.57.17.82.82,0,0,1,.27.69.85.85,0,0,1-.27.67,1.27,1.27,0,0,1-.8.24c-.85,0-1.15.49-1.15,1.29v3a.93.93,0,1,1-1.85,0Z" transform="translate(-451.95 -65.78)"/><path class="cls-6" d="M1001.73,949.89a1.54,1.54,0,0,1-.1-.51.81.81,0,0,1,.84-.85.91.91,0,0,1,.88.56,1.89,1.89,0,0,0,1.9,1c1,0,1.72-.49,1.72-1.16s-.43-1-1.58-1.18l-1-.19c-1.83-.37-2.72-1.24-2.72-2.61,0-1.67,1.46-2.78,3.49-2.78,1.68,0,2.94.7,3.35,1.89a1.38,1.38,0,0,1,.07.43.75.75,0,0,1-.82.77.93.93,0,0,1-.91-.57,1.67,1.67,0,0,0-1.69-1c-.94,0-1.57.44-1.57,1.11s.44.92,1.52,1.13l1,.2c1.94.39,2.78,1.17,2.78,2.56,0,1.79-1.4,2.92-3.69,2.92C1003.31,951.65,1002.1,950.89,1001.73,949.89Z" transform="translate(-451.95 -65.78)"/><path class="cls-6" d="M1009.9,953V945.5a.86.86,0,0,1,.91-1,.87.87,0,0,1,.92,1v.37h0a2.23,2.23,0,0,1,2.11-1.3c1.73,0,2.79,1.32,2.79,3.51s-1.06,3.51-2.76,3.51a2.22,2.22,0,0,1-2.11-1.25h0V953a.93.93,0,1,1-1.85,0Zm4.86-4.87c0-1.23-.58-2-1.51-2s-1.5.8-1.5,2,.59,2,1.5,2S1014.76,949.33,1014.76,948.09Z" transform="translate(-451.95 -65.78)"/><path class="cls-6" d="M1017.34,949.54c0-1.24,1-2,2.66-2.06l1.71-.1v-.45c0-.63-.44-1-1.14-1a1.47,1.47,0,0,0-1.32.72,1,1,0,0,1-.74.34.71.71,0,0,1-.77-.71,1,1,0,0,1,.09-.42c.32-.81,1.41-1.32,2.82-1.32,1.75,0,2.88.91,2.88,2.28v3.88a.84.84,0,0,1-.9.93.82.82,0,0,1-.89-.83v-.35h0a2.34,2.34,0,0,1-2.08,1.15A2.11,2.11,0,0,1,1017.34,949.54Zm4.37-.54v-.5l-1.43.09c-.7,0-1.09.37-1.09.85s.42.82,1,.82A1.36,1.36,0,0,0,1021.71,949Z" transform="translate(-451.95 -65.78)"/><path class="cls-6" d="M1025.8,950.66l-1.37-4.74a2,2,0,0,1-.1-.58.82.82,0,0,1,.9-.79.86.86,0,0,1,.87.79l1,4.4h0l1.06-4.34a1.06,1.06,0,0,1,2.08,0l1.06,4.34h0l1-4.41a.85.85,0,0,1,.86-.78.8.8,0,0,1,.88.79,2.29,2.29,0,0,1-.1.56l-1.38,4.75a1.13,1.13,0,0,1-1.18,1,1.09,1.09,0,0,1-1.2-1l-1-4h0l-1,4a1.1,1.1,0,0,1-1.19,1A1.12,1.12,0,0,1,1025.8,950.66Z" transform="translate(-451.95 -65.78)"/><path class="cls-6" d="M1035,950.66v-5.18a.85.85,0,0,1,.9-.93.87.87,0,0,1,.93.94v.38h0a2.1,2.1,0,0,1,2.1-1.31,2.25,2.25,0,0,1,2.36,2.55v3.55a.93.93,0,1,1-1.85,0V947.5c0-.89-.42-1.4-1.25-1.4a1.34,1.34,0,0,0-1.36,1.49v3.07a.93.93,0,1,1-1.86,0Z" transform="translate(-451.95 -65.78)"/><path class="cls-7" d="M1298.69,221.68a1.14,1.14,0,0,1-.08-.4.62.62,0,0,1,.65-.65.72.72,0,0,1,.68.43,1.45,1.45,0,0,0,1.45.78c.8,0,1.33-.38,1.33-.9s-.33-.72-1.21-.9l-.75-.15c-1.41-.28-2.09-.95-2.09-2,0-1.29,1.12-2.15,2.69-2.15a2.51,2.51,0,0,1,2.57,1.46,1.09,1.09,0,0,1,0,.33.58.58,0,0,1-.63.59.73.73,0,0,1-.7-.43,1.27,1.27,0,0,0-1.29-.75c-.73,0-1.22.34-1.22.85s.34.71,1.18.87l.74.16c1.49.29,2.14.89,2.14,2,0,1.38-1.08,2.25-2.84,2.25C1299.91,223,1299,222.45,1298.69,221.68Z" transform="translate(-451.95 -65.78)"/><path class="cls-7" d="M1304.78,220.32a2.46,2.46,0,0,1,2.53-2.75,2.34,2.34,0,0,1,2.48,2.43.56.56,0,0,1-.62.62h-3v.07a1.17,1.17,0,0,0,1.2,1.28,1.5,1.5,0,0,0,1.25-.63.56.56,0,0,1,.46-.21.52.52,0,0,1,.56.52.81.81,0,0,1-.1.35,2.37,2.37,0,0,1-2.17,1A2.44,2.44,0,0,1,1304.78,220.32Zm3.64-.57a1.08,1.08,0,0,0-1.09-1.13,1.13,1.13,0,0,0-1.13,1.13Z" transform="translate(-451.95 -65.78)"/><path class="cls-7" d="M1310.33,220.29a2.47,2.47,0,0,1,2.57-2.72,2.26,2.26,0,0,1,2.21,1.25.93.93,0,0,1,.08.35.55.55,0,0,1-.61.55.61.61,0,0,1-.6-.37,1.12,1.12,0,0,0-1-.67c-.73,0-1.17.6-1.17,1.61s.44,1.62,1.16,1.62a1.11,1.11,0,0,0,1-.62.7.7,0,0,1,.65-.42.56.56,0,0,1,.6.57,1,1,0,0,1-.09.37,2.37,2.37,0,0,1-2.21,1.21A2.47,2.47,0,0,1,1310.33,220.29Z" transform="translate(-451.95 -65.78)"/><path class="cls-7" d="M1316,222.27v-4a.69.69,0,1,1,1.37,0v.34h0a1.15,1.15,0,0,1,1.09-1,.64.64,0,0,1,.44.14.6.6,0,0,1,.2.52.64.64,0,0,1-.2.52,1,1,0,0,1-.62.18c-.65,0-.88.38-.88,1v2.32a.67.67,0,0,1-.71.74A.67.67,0,0,1,1316,222.27Z" transform="translate(-451.95 -65.78)"/><path class="cls-7" d="M1319.25,220.32a2.46,2.46,0,0,1,2.53-2.75,2.34,2.34,0,0,1,2.48,2.43.56.56,0,0,1-.62.62h-3v.07a1.16,1.16,0,0,0,1.19,1.28,1.48,1.48,0,0,0,1.25-.63.59.59,0,0,1,.47-.21.51.51,0,0,1,.55.52.79.79,0,0,1-.09.35,2.37,2.37,0,0,1-2.17,1A2.43,2.43,0,0,1,1319.25,220.32Zm3.64-.57a1.08,1.08,0,0,0-1.1-1.13,1.13,1.13,0,0,0-1.12,1.13Z" transform="translate(-451.95 -65.78)"/><path class="cls-7" d="M1325.37,218.75h-.27a.54.54,0,1,1,0-1.07h.27v-.58a.72.72,0,1,1,1.43,0v.58h.5a.54.54,0,1,1,0,1.07h-.5v2.51c0,.37.13.52.43.55h.1c.35,0,.54.18.54.52s-.41.63-1,.63h0a1.26,1.26,0,0,1-1.44-1.4Z" transform="translate(-451.95 -65.78)"/><path class="cls-7" d="M525.54,581.22v-5.51a.69.69,0,0,1,.74-.77h2.33c1.32,0,2.15.68,2.15,1.76a1.56,1.56,0,0,1-1.32,1.53v0a1.71,1.71,0,0,1,1.66,1.7c0,1.24-.93,2-2.44,2h-2.38A.69.69,0,0,1,525.54,581.22Zm2.54-3.35c.78,0,1.23-.34,1.23-.94s-.39-.89-1.08-.89H527v1.83Zm.21,3c.84,0,1.3-.36,1.3-1s-.47-1-1.34-1H527v2Z" transform="translate(-451.95 -65.78)"/><path class="cls-7" d="M533.92,581.39V575.8a.87.87,0,0,1,1-.95,1,1,0,0,1,1,.76l1.75,4.33h0l1.74-4.33a1,1,0,0,1,1-.76.87.87,0,0,1,1,.95v5.59a.66.66,0,1,1-1.32,0v-4.16h0l-1.74,4.27a.63.63,0,0,1-.63.45.64.64,0,0,1-.64-.45l-1.74-4.27h0v4.16a.66.66,0,1,1-1.31,0Z" transform="translate(-451.95 -65.78)"/><path class="cls-7" d="M542.11,580.48c0-1,.74-1.5,2-1.58l1.32-.08v-.34c0-.49-.34-.77-.88-.77a1.14,1.14,0,0,0-1,.55.75.75,0,0,1-.57.26.55.55,0,0,1-.59-.55.74.74,0,0,1,.07-.32c.24-.62,1.08-1,2.17-1,1.34,0,2.21.7,2.21,1.75v3a.64.64,0,0,1-.69.72.62.62,0,0,1-.68-.63v-.27h0a1.83,1.83,0,0,1-1.6.88A1.62,1.62,0,0,1,542.11,580.48Zm3.36-.41v-.38l-1.1.07c-.53,0-.84.28-.84.65s.33.63.8.63A1,1,0,0,0,545.47,580.07Z" transform="translate(-451.95 -65.78)"/><path class="cls-7" d="M547.77,575.37a.76.76,0,1,1,.76.74A.74.74,0,0,1,547.77,575.37Zm.05,6v-4a.71.71,0,1,1,1.42,0v4a.71.71,0,1,1-1.42,0Z" transform="translate(-451.95 -65.78)"/><path class="cls-7" d="M550.19,581.35v-4a.65.65,0,0,1,.69-.72.66.66,0,0,1,.71.72v.29h0a1.6,1.6,0,0,1,1.61-1,1.73,1.73,0,0,1,1.82,2v2.73a.72.72,0,1,1-1.43,0v-2.44c0-.68-.32-1.07-1-1.07a1,1,0,0,0-1,1.15v2.36a.72.72,0,1,1-1.43,0Z" transform="translate(-451.95 -65.78)"/><path class="cls-7" d="M502.22,409.76a1,1,0,0,1-.08-.39.62.62,0,0,1,.65-.65.71.71,0,0,1,.68.43,1.46,1.46,0,0,0,1.45.78c.79,0,1.33-.38,1.33-.9s-.33-.73-1.21-.91l-.75-.14c-1.41-.28-2.1-1-2.1-2,0-1.29,1.13-2.14,2.69-2.14a2.51,2.51,0,0,1,2.58,1.46,1.09,1.09,0,0,1,.05.33.58.58,0,0,1-.63.59.71.71,0,0,1-.7-.44,1.29,1.29,0,0,0-1.3-.75c-.72,0-1.21.34-1.21.86s.34.7,1.17.87l.75.15c1.49.3,2.14.9,2.14,2,0,1.38-1.08,2.25-2.84,2.25C503.43,411.12,502.5,410.53,502.22,409.76Z" transform="translate(-451.95 -65.78)"/><path class="cls-7" d="M508.31,408.38a2.48,2.48,0,0,1,2.57-2.73,2.29,2.29,0,0,1,2.21,1.25,1,1,0,0,1,.08.35.57.57,0,0,1-.62.56.63.63,0,0,1-.6-.37,1.1,1.1,0,0,0-1-.67c-.72,0-1.16.6-1.16,1.61s.44,1.61,1.15,1.61a1.12,1.12,0,0,0,1-.61.7.7,0,0,1,.65-.42.56.56,0,0,1,.6.57,1,1,0,0,1-.09.37,2.4,2.4,0,0,1-2.21,1.21A2.46,2.46,0,0,1,508.31,408.38Z" transform="translate(-451.95 -65.78)"/><path class="cls-7" d="M514,410.36v-4a.65.65,0,0,1,.69-.71.64.64,0,0,1,.67.71v.35h0a1.16,1.16,0,0,1,1.09-1,.69.69,0,0,1,.45.13.66.66,0,0,1,.2.53.65.65,0,0,1-.2.51,1,1,0,0,1-.62.19c-.65,0-.88.37-.88,1v2.33a.72.72,0,1,1-1.43,0Z" transform="translate(-451.95 -65.78)"/><path class="cls-7" d="M517.23,408.41a2.47,2.47,0,0,1,2.53-2.76,2.35,2.35,0,0,1,2.48,2.44.57.57,0,0,1-.62.62h-3v.06a1.17,1.17,0,0,0,1.19,1.29,1.5,1.5,0,0,0,1.25-.63.57.57,0,0,1,.46-.21.51.51,0,0,1,.56.52.63.63,0,0,1-.1.34,2.33,2.33,0,0,1-2.16,1A2.43,2.43,0,0,1,517.23,408.41Zm3.64-.58a1.08,1.08,0,0,0-1.1-1.12,1.13,1.13,0,0,0-1.13,1.12Z" transform="translate(-451.95 -65.78)"/><path class="cls-7" d="M522.78,408.41a2.47,2.47,0,0,1,2.53-2.76,2.35,2.35,0,0,1,2.48,2.44.57.57,0,0,1-.62.62h-3v.06a1.17,1.17,0,0,0,1.19,1.29,1.49,1.49,0,0,0,1.25-.63.57.57,0,0,1,.47-.21.51.51,0,0,1,.55.52.63.63,0,0,1-.1.34,2.33,2.33,0,0,1-2.16,1A2.43,2.43,0,0,1,522.78,408.41Zm3.64-.58a1.08,1.08,0,0,0-1.1-1.12,1.12,1.12,0,0,0-1.12,1.12Z" transform="translate(-451.95 -65.78)"/><path class="cls-7" d="M528.52,410.36v-4a.65.65,0,0,1,.69-.71.66.66,0,0,1,.71.72v.29h0a1.6,1.6,0,0,1,1.61-1,1.72,1.72,0,0,1,1.82,1.95v2.74a.72.72,0,1,1-1.43,0v-2.44c0-.68-.32-1.07-1-1.07a1,1,0,0,0-1,1.15v2.36a.72.72,0,1,1-1.43,0Z" transform="translate(-451.95 -65.78)"/><path class="cls-7" d="M626.6,329.07v-5.7a.74.74,0,1,1,1.47,0v2.18h3.18v-2.18a.74.74,0,1,1,1.47,0v5.7a.74.74,0,1,1-1.47,0v-2.3h-3.18v2.3a.74.74,0,1,1-1.47,0Z" transform="translate(-451.95 -65.78)"/><path class="cls-7" d="M633.46,328.24c0-1,.73-1.51,2-1.59l1.32-.07v-.35c0-.49-.35-.77-.88-.77a1.15,1.15,0,0,0-1,.55.73.73,0,0,1-.56.26.55.55,0,0,1-.6-.54.75.75,0,0,1,.07-.33,2.22,2.22,0,0,1,2.17-1c1.34,0,2.22.7,2.22,1.75v3a.65.65,0,0,1-.7.72.63.63,0,0,1-.68-.63v-.27h0a1.8,1.8,0,0,1-1.6.88A1.61,1.61,0,0,1,633.46,328.24Zm3.36-.42v-.38l-1.11.07c-.53,0-.83.28-.83.65s.32.63.8.63A1,1,0,0,0,636.82,327.82Z" transform="translate(-451.95 -65.78)"/><path class="cls-7" d="M639.17,329.1v-5.77a.72.72,0,1,1,1.43,0v5.77a.72.72,0,1,1-1.43,0Z" transform="translate(-451.95 -65.78)"/><path class="cls-7" d="M641.59,329.1v-5.77a.72.72,0,1,1,1.43,0v5.77a.72.72,0,1,1-1.43,0Z" transform="translate(-451.95 -65.78)"/><path class="cls-7" d="M1154.74,545.36a1.41,1.41,0,0,1,.1-.47l1.92-5.23a1.17,1.17,0,0,1,2.24,0l1.93,5.24a1.29,1.29,0,0,1,.09.47.69.69,0,0,1-.73.7c-.42,0-.64-.19-.77-.65l-.37-1.12h-2.54l-.38,1.1c-.13.47-.35.67-.74.67A.68.68,0,0,1,1154.74,545.36Zm4.07-2.21-.93-2.88h0l-.91,2.88Z" transform="translate(-451.95 -65.78)"/><path class="cls-7" d="M1161.8,545.32v-4a.68.68,0,1,1,1.36,0v.34h0a1.14,1.14,0,0,1,1.09-1,.64.64,0,0,1,.44.13.62.62,0,0,1,.21.53.64.64,0,0,1-.21.51.92.92,0,0,1-.62.18c-.65,0-.88.38-.88,1v2.32a.71.71,0,1,1-1.42,0Z" transform="translate(-451.95 -65.78)"/><path class="cls-7" d="M1165.81,541.8h-.27a.54.54,0,1,1,0-1.07h.27v-.58a.72.72,0,1,1,1.43,0v.58h.5a.54.54,0,1,1,0,1.07h-.5v2.51c0,.37.13.53.43.55h.1c.35,0,.54.19.54.52s-.41.63-1,.63h0a1.26,1.26,0,0,1-1.44-1.39Z" transform="translate(-451.95 -65.78)"/><path class="cls-7" d="M1138.86,392.46a1.59,1.59,0,0,1,.1-.47l1.92-5.24a1.17,1.17,0,0,1,2.24,0l1.93,5.25a1.28,1.28,0,0,1,.1.47.69.69,0,0,1-.74.69c-.41,0-.63-.19-.77-.65l-.37-1.11h-2.54l-.37,1.09c-.14.47-.36.67-.75.67A.67.67,0,0,1,1138.86,392.46Zm4.07-2.22-.93-2.88h0l-.91,2.88Z" transform="translate(-451.95 -65.78)"/><path class="cls-7" d="M1148,392.28v-5.6a.74.74,0,1,1,1.47,0v5.16h2.5a.61.61,0,1,1,0,1.22h-3.23A.7.7,0,0,1,1148,392.28Z" transform="translate(-451.95 -65.78)"/><path class="cls-7" d="M1153.3,386.44a.74.74,0,0,1,.76-.74.74.74,0,1,1,0,1.47A.73.73,0,0,1,1153.3,386.44Zm0,6v-4a.68.68,0,0,1,.71-.75.69.69,0,0,1,.72.75v4a.68.68,0,0,1-.72.74A.67.67,0,0,1,1153.35,392.42Z" transform="translate(-451.95 -65.78)"/><path class="cls-7" d="M1155.72,392.42v-4a.65.65,0,0,1,.69-.72.68.68,0,0,1,.72.73v.29h0a1.61,1.61,0,0,1,1.62-1,1.73,1.73,0,0,1,1.81,2v2.74a.71.71,0,1,1-1.42,0V390c0-.68-.33-1.07-1-1.07a1,1,0,0,0-1,1.14v2.37a.67.67,0,0,1-.71.74A.68.68,0,0,1,1155.72,392.42Z" transform="translate(-451.95 -65.78)"/><path class="cls-7" d="M1161.52,392.42v-5.77a.72.72,0,1,1,1.43,0v3.25h0l1.9-1.9a.74.74,0,0,1,.57-.29.61.61,0,0,1,.63.62.64.64,0,0,1-.27.54l-1.33,1.26,1.46,1.86a.76.76,0,0,1,.2.52.63.63,0,0,1-.68.65c-.3,0-.47-.11-.7-.45l-1.34-1.77-.45.42v1.06a.72.72,0,1,1-1.43,0Z" transform="translate(-451.95 -65.78)"/><path class="cls-7" d="M1401,545.35a1.32,1.32,0,0,1,.1-.46l1.92-5.24a1.17,1.17,0,0,1,2.24,0l1.93,5.25a1.24,1.24,0,0,1,.09.46.69.69,0,0,1-.73.7c-.42,0-.64-.19-.77-.65l-.37-1.11h-2.54l-.38,1.09c-.13.47-.35.67-.74.67A.68.68,0,0,1,1401,545.35Zm4.07-2.21-.94-2.88h0l-.91,2.88Z" transform="translate(-451.95 -65.78)"/><path class="cls-7" d="M1410.12,545.36v-5.6a.87.87,0,0,1,1-1,1,1,0,0,1,1,.76l1.75,4.33h0l1.74-4.33a1,1,0,0,1,1-.76.87.87,0,0,1,.95,1v5.6a.66.66,0,1,1-1.32,0V541.2h0l-1.74,4.26a.63.63,0,0,1-.63.45.63.63,0,0,1-.64-.44l-1.74-4.27h0v4.16a.66.66,0,1,1-1.31,0Z" transform="translate(-451.95 -65.78)"/><path class="cls-7" d="M1418.31,544.45c0-1,.74-1.5,2-1.58l1.32-.08v-.35c0-.48-.34-.77-.88-.77a1.14,1.14,0,0,0-1,.55.72.72,0,0,1-.57.27.55.55,0,0,1-.59-.55.74.74,0,0,1,.07-.32c.24-.63,1.08-1,2.17-1,1.34,0,2.21.69,2.21,1.75v3a.65.65,0,0,1-.69.72.63.63,0,0,1-.68-.64v-.27h0a1.81,1.81,0,0,1-1.6.89A1.63,1.63,0,0,1,1418.31,544.45Zm3.36-.41v-.38l-1.1.06c-.53,0-.84.28-.84.65s.33.64.81.64A1,1,0,0,0,1421.67,544Z" transform="translate(-451.95 -65.78)"/><path class="cls-7" d="M1424,539.33a.76.76,0,0,1,1.52,0,.76.76,0,0,1-1.52,0Zm0,6v-4a.71.71,0,1,1,1.42,0v4a.71.71,0,1,1-1.42,0Z" transform="translate(-451.95 -65.78)"/><path class="cls-7" d="M1426.39,545.32v-4a.65.65,0,0,1,.69-.72.67.67,0,0,1,.71.73v.29h0a1.61,1.61,0,0,1,1.61-1,1.73,1.73,0,0,1,1.82,2v2.74a.72.72,0,1,1-1.43,0v-2.44c0-.68-.32-1.08-1-1.08a1,1,0,0,0-1,1.15v2.37a.72.72,0,1,1-1.43,0Z" transform="translate(-451.95 -65.78)"/><path class="cls-8" d="M984,127.85v-7.16a.9.9,0,0,1,1-1h2.54c2.75,0,4.37,1.64,4.37,4.54s-1.62,4.62-4.37,4.62H985A.9.9,0,0,1,984,127.85Zm3.27-.59c1.72,0,2.64-1,2.64-3s-.95-3-2.64-3h-1.35v6Z" transform="translate(-451.95 -65.78)"/><path class="cls-8" d="M992.69,125.48c0-2.19,1.28-3.58,3.29-3.58a3.06,3.06,0,0,1,3.23,3.17.73.73,0,0,1-.81.8h-3.88V126a1.51,1.51,0,0,0,1.54,1.66,1.93,1.93,0,0,0,1.63-.81.74.74,0,0,1,.6-.28.68.68,0,0,1,.73.68,1,1,0,0,1-.13.45,3.07,3.07,0,0,1-2.82,1.34A3.17,3.17,0,0,1,992.69,125.48Zm4.73-.74a1.41,1.41,0,0,0-1.42-1.47,1.48,1.48,0,0,0-1.47,1.47Z" transform="translate(-451.95 -65.78)"/><path class="cls-8" d="M1000.65,128v-4.58h-.35a.68.68,0,1,1,0-1.36h.35v-.52a1.72,1.72,0,0,1,2-2c1,0,1.39.31,1.39.75a.47.47,0,0,1-.37.49l-.36.05c-.57,0-.8.24-.8.75v.43h.78a.68.68,0,0,1,0,1.36h-.73V128a.93.93,0,1,1-1.86,0Z" transform="translate(-451.95 -65.78)"/><path class="cls-8" d="M1004.35,125.48c0-2.19,1.27-3.58,3.29-3.58a3,3,0,0,1,3.22,3.17.73.73,0,0,1-.81.8h-3.88V126a1.51,1.51,0,0,0,1.55,1.66,1.91,1.91,0,0,0,1.62-.81.76.76,0,0,1,.61-.28.67.67,0,0,1,.72.68.86.86,0,0,1-.13.45,3.06,3.06,0,0,1-2.82,1.34C1005.6,129,1004.35,127.68,1004.35,125.48Zm4.73-.74a1.41,1.41,0,0,0-1.43-1.47,1.46,1.46,0,0,0-1.46,1.47Z" transform="translate(-451.95 -65.78)"/><path class="cls-8" d="M1011.81,128v-5.18a.84.84,0,0,1,.9-.93.86.86,0,0,1,.92.93v.39h0a2.08,2.08,0,0,1,2.1-1.31,2.24,2.24,0,0,1,2.36,2.54V128a.93.93,0,1,1-1.85,0v-3.17c0-.89-.42-1.4-1.26-1.4a1.35,1.35,0,0,0-1.35,1.5V128a.93.93,0,1,1-1.86,0Z" transform="translate(-451.95 -65.78)"/><path class="cls-8" d="M1019.05,125.43c0-2.15,1.08-3.49,2.79-3.49a2.19,2.19,0,0,1,2.08,1.27h0v-2.69a.93.93,0,1,1,1.85,0V128a.93.93,0,1,1-1.85,0v-.39h0a2.12,2.12,0,0,1-2.09,1.31C1020.13,129,1019.05,127.61,1019.05,125.43Zm4.92,0c0-1.24-.59-2-1.51-2s-1.51.78-1.51,2,.57,2,1.51,2S1024,126.69,1024,125.45Z" transform="translate(-451.95 -65.78)"/><path class="cls-8" d="M1026.8,125.48c0-2.19,1.28-3.58,3.29-3.58a3,3,0,0,1,3.22,3.17.73.73,0,0,1-.8.8h-3.89V126a1.51,1.51,0,0,0,1.55,1.66,1.91,1.91,0,0,0,1.62-.81.76.76,0,0,1,.61-.28.67.67,0,0,1,.72.68.86.86,0,0,1-.13.45,3,3,0,0,1-2.81,1.34A3.17,3.17,0,0,1,1026.8,125.48Zm4.73-.74a1.41,1.41,0,0,0-1.42-1.47,1.47,1.47,0,0,0-1.47,1.47Z" transform="translate(-451.95 -65.78)"/><path class="cls-8" d="M1034.26,128v-5.18a.85.85,0,0,1,.9-.93.84.84,0,0,1,.88.93v.44h0a1.5,1.5,0,0,1,1.42-1.34.85.85,0,0,1,.58.17,1,1,0,0,1,0,1.35,1.24,1.24,0,0,1-.81.24c-.84,0-1.14.49-1.14,1.3v3a.93.93,0,1,1-1.86,0Z" transform="translate(-451.95 -65.78)"/><path class="cls-8" d="M1041.6,127.24a1.49,1.49,0,0,1-.1-.51.8.8,0,0,1,.84-.84.93.93,0,0,1,.89.55,1.89,1.89,0,0,0,1.89,1c1,0,1.73-.5,1.73-1.17s-.44-.94-1.59-1.18l-1-.19c-1.83-.36-2.72-1.24-2.72-2.6,0-1.68,1.46-2.79,3.5-2.79,1.67,0,2.94.71,3.34,1.9a1.12,1.12,0,0,1,.07.42.75.75,0,0,1-.82.77.94.94,0,0,1-.91-.56,1.65,1.65,0,0,0-1.68-1c-1,0-1.58.44-1.58,1.12s.44.91,1.53,1.13l1,.19c1.94.39,2.78,1.17,2.78,2.56,0,1.79-1.4,2.92-3.69,2.92C1043.18,129,1042,128.25,1041.6,127.24Z" transform="translate(-451.95 -65.78)"/><path class="cls-8" d="M1049.77,130.31v-7.45a.92.92,0,1,1,1.83,0v.37h0a2.21,2.21,0,0,1,2.11-1.29c1.72,0,2.78,1.31,2.78,3.51s-1,3.51-2.75,3.51a2.24,2.24,0,0,1-2.12-1.25h0v2.6a.93.93,0,1,1-1.86,0Zm4.86-4.86c0-1.23-.58-2-1.51-2s-1.5.81-1.5,2,.59,2,1.5,2S1054.63,126.69,1054.63,125.45Z" transform="translate(-451.95 -65.78)"/><path class="cls-8" d="M1057.22,126.89c0-1.23,1-2,2.65-2l1.71-.1v-.45c0-.64-.44-1-1.14-1a1.5,1.5,0,0,0-1.32.72.93.93,0,0,1-.74.34.71.71,0,0,1-.77-.71.92.92,0,0,1,.1-.42c.31-.81,1.41-1.31,2.81-1.31,1.75,0,2.89.9,2.89,2.27v3.88a.85.85,0,0,1-.91.93.81.81,0,0,1-.88-.82v-.35h0a2.36,2.36,0,0,1-2.08,1.15A2.1,2.1,0,0,1,1057.22,126.89Zm4.36-.54v-.49l-1.43.09c-.69,0-1.09.36-1.09.84s.42.83,1,.83A1.36,1.36,0,0,0,1061.58,126.35Z" transform="translate(-451.95 -65.78)"/><path class="cls-8" d="M1065.68,128l-1.37-4.74a1.9,1.9,0,0,1-.1-.57.81.81,0,0,1,.89-.79.86.86,0,0,1,.87.78l1,4.4h0l1-4.33a1.06,1.06,0,0,1,2.08,0l1.06,4.33h0l1-4.41a.84.84,0,0,1,.86-.77.79.79,0,0,1,.87.78,2,2,0,0,1-.1.57l-1.37,4.75a1.13,1.13,0,0,1-1.19,1,1.09,1.09,0,0,1-1.2-1l-1-4h0l-1,4a1.1,1.1,0,0,1-1.19,1C1066.21,129,1065.88,128.68,1065.68,128Z" transform="translate(-451.95 -65.78)"/><path class="cls-8" d="M1074.84,128v-5.18a.84.84,0,0,1,.89-.93.87.87,0,0,1,.93.93v.39h0a2.08,2.08,0,0,1,2.09-1.31,2.24,2.24,0,0,1,2.36,2.54V128a.93.93,0,1,1-1.85,0v-3.17c0-.89-.42-1.4-1.25-1.4a1.35,1.35,0,0,0-1.36,1.5V128a.93.93,0,1,1-1.85,0Z" transform="translate(-451.95 -65.78)"/><path class="cls-7" d="M720.27,436.79v-5.7a.74.74,0,1,1,1.48,0v2.19h3.17v-2.19a.74.74,0,1,1,1.47,0v5.7a.74.74,0,1,1-1.47,0V434.5h-3.17v2.29a.74.74,0,1,1-1.48,0Z" transform="translate(-451.95 -65.78)"/><path class="cls-7" d="M727.25,434.87a2.47,2.47,0,0,1,2.53-2.75,2.35,2.35,0,0,1,2.48,2.44.56.56,0,0,1-.62.62h-3v.06a1.16,1.16,0,0,0,1.2,1.28,1.48,1.48,0,0,0,1.25-.63.58.58,0,0,1,.46-.21.52.52,0,0,1,.56.53.74.74,0,0,1-.1.34,2.35,2.35,0,0,1-2.17,1A2.43,2.43,0,0,1,727.25,434.87Zm3.64-.57a1.08,1.08,0,0,0-1.09-1.13,1.13,1.13,0,0,0-1.13,1.13Z" transform="translate(-451.95 -65.78)"/><path class="cls-7" d="M732.79,436c0-.95.73-1.5,2-1.58l1.32-.08V434c0-.49-.34-.78-.88-.78a1.17,1.17,0,0,0-1,.56.71.71,0,0,1-.56.26.56.56,0,0,1-.6-.55.76.76,0,0,1,.08-.32,2.2,2.2,0,0,1,2.16-1c1.35,0,2.22.69,2.22,1.75v3a.65.65,0,0,1-.69.72.64.64,0,0,1-.69-.64v-.26h0a1.81,1.81,0,0,1-1.6.88A1.62,1.62,0,0,1,732.79,436Zm3.36-.41v-.38l-1.1.06c-.54,0-.84.28-.84.65s.32.64.8.64A1,1,0,0,0,736.15,435.55Z" transform="translate(-451.95 -65.78)"/><path class="cls-7" d="M739.61,436.84l-1.36-3.65a1.49,1.49,0,0,1-.08-.43.66.66,0,0,1,.71-.64.68.68,0,0,1,.69.58l1.06,3.51h0l1.06-3.53a.65.65,0,0,1,.66-.56.66.66,0,0,1,.7.64,1.35,1.35,0,0,1-.08.4l-1.36,3.68a1.07,1.07,0,0,1-2,0Z" transform="translate(-451.95 -65.78)"/><path class="cls-7" d="M743.39,434.87a2.47,2.47,0,0,1,2.53-2.75,2.35,2.35,0,0,1,2.48,2.44.57.57,0,0,1-.62.62h-3v.06a1.16,1.16,0,0,0,1.19,1.28,1.48,1.48,0,0,0,1.25-.63.6.6,0,0,1,.46-.21.52.52,0,0,1,.56.53.74.74,0,0,1-.1.34,2.35,2.35,0,0,1-2.17,1A2.43,2.43,0,0,1,743.39,434.87Zm3.63-.57a1.08,1.08,0,0,0-1.09-1.13,1.13,1.13,0,0,0-1.13,1.13Z" transform="translate(-451.95 -65.78)"/><path class="cls-7" d="M749.13,436.83v-4a.65.65,0,0,1,.69-.72.67.67,0,0,1,.71.73v.29h0a1.6,1.6,0,0,1,1.61-1,1.73,1.73,0,0,1,1.82,2v2.74a.68.68,0,0,1-.72.74.67.67,0,0,1-.71-.74v-2.44c0-.68-.32-1.07-1-1.07a1,1,0,0,0-1.05,1.14v2.37a.71.71,0,1,1-1.42,0Z" transform="translate(-451.95 -65.78)"/><path class="cls-7" d="M1044.89,278.71l-1.47-5.33a2,2,0,0,1-.08-.49.65.65,0,0,1,.73-.66.69.69,0,0,1,.71.63l1,4.57h0l1.19-4.55c.11-.45.34-.65.75-.65a.72.72,0,0,1,.75.65l1.19,4.55h0l1-4.57a.7.7,0,0,1,.72-.63.65.65,0,0,1,.73.66,2.06,2.06,0,0,1-.08.49l-1.48,5.34c-.14.52-.4.74-.85.74s-.73-.22-.88-.75l-1.17-4.16h0l-1.17,4.16c-.14.52-.4.75-.87.75S1045,279.24,1044.89,278.71Z" transform="translate(-451.95 -65.78)"/><path class="cls-7" d="M1052.24,277.87c0-1,.73-1.51,2-1.59l1.32-.07v-.35c0-.49-.35-.77-.88-.77a1.15,1.15,0,0,0-1,.55.75.75,0,0,1-.57.26.54.54,0,0,1-.59-.54.75.75,0,0,1,.07-.33,2.22,2.22,0,0,1,2.17-1c1.34,0,2.22.7,2.22,1.75v3a.65.65,0,0,1-.7.72.63.63,0,0,1-.68-.63v-.27h0a1.8,1.8,0,0,1-1.6.88A1.61,1.61,0,0,1,1052.24,277.87Zm3.36-.42v-.38l-1.11.07c-.53,0-.83.28-.83.65s.32.63.8.63A1,1,0,0,0,1055.6,277.45Z" transform="translate(-451.95 -65.78)"/><path class="cls-7" d="M1058.3,275.21H1058a.54.54,0,1,1,0-1.08h.28v-.58a.71.71,0,1,1,1.42,0v.58h.5a.54.54,0,1,1,0,1.08h-.5v2.5c0,.37.13.53.44.56h.09c.35,0,.54.18.54.51s-.41.64-1,.64h0a1.26,1.26,0,0,1-1.43-1.4Z" transform="translate(-451.95 -65.78)"/><path class="cls-7" d="M1061.21,276.78a2.47,2.47,0,0,1,2.53-2.76,2.35,2.35,0,0,1,2.48,2.44.57.57,0,0,1-.62.62h-3v.06a1.17,1.17,0,0,0,1.19,1.29,1.5,1.5,0,0,0,1.25-.63.57.57,0,0,1,.46-.21.51.51,0,0,1,.56.52.69.69,0,0,1-.1.35,2.36,2.36,0,0,1-2.17,1A2.43,2.43,0,0,1,1061.21,276.78Zm3.63-.57a1.07,1.07,0,0,0-1.09-1.13,1.13,1.13,0,0,0-1.13,1.13Z" transform="translate(-451.95 -65.78)"/><path class="cls-7" d="M1067,278.73v-4a.65.65,0,0,1,.69-.72.64.64,0,0,1,.67.72v.34h0a1.16,1.16,0,0,1,1.09-1,.7.7,0,0,1,.44.13.64.64,0,0,1,.21.53.61.61,0,0,1-.21.51,1,1,0,0,1-.62.19c-.65,0-.88.38-.88,1v2.32a.71.71,0,1,1-1.42,0Z" transform="translate(-451.95 -65.78)"/><path class="cls-7" d="M782,395.62v-5.15h-1.45a.61.61,0,1,1,0-1.22h4.39a.61.61,0,1,1,0,1.22h-1.46v5.15a.74.74,0,1,1-1.48,0Z" transform="translate(-451.95 -65.78)"/><path class="cls-7" d="M785.5,394.43V391.7a.72.72,0,1,1,1.43,0v2.43c0,.7.34,1.07,1,1.07a1,1,0,0,0,1-1.14V391.7a.68.68,0,0,1,.72-.75.67.67,0,0,1,.71.75v4a.69.69,0,1,1-1.38,0v-.32h0a1.55,1.55,0,0,1-1.56,1A1.79,1.79,0,0,1,785.5,394.43Z" transform="translate(-451.95 -65.78)"/><path class="cls-7" d="M791.29,395.65v-4A.65.65,0,0,1,792,391a.66.66,0,0,1,.71.72v.3h0a1.6,1.6,0,0,1,1.61-1,1.73,1.73,0,0,1,1.82,2v2.73a.67.67,0,0,1-.72.74.67.67,0,0,1-.71-.74v-2.43c0-.69-.32-1.08-1-1.08a1,1,0,0,0-1,1.15v2.36a.71.71,0,1,1-1.42,0Z" transform="translate(-451.95 -65.78)"/><path class="cls-7" d="M797.05,395.65v-4a.65.65,0,0,1,.69-.72.66.66,0,0,1,.71.72v.3h0a1.61,1.61,0,0,1,1.61-1,1.73,1.73,0,0,1,1.82,2v2.73a.67.67,0,0,1-.72.74.67.67,0,0,1-.71-.74v-2.43c0-.69-.32-1.08-1-1.08a1,1,0,0,0-1,1.15v2.36a.71.71,0,1,1-1.42,0Z" transform="translate(-451.95 -65.78)"/><path class="cls-7" d="M802.62,393.7a2.46,2.46,0,0,1,2.53-2.75,2.34,2.34,0,0,1,2.48,2.43.56.56,0,0,1-.62.62h-3v.07a1.16,1.16,0,0,0,1.19,1.28,1.48,1.48,0,0,0,1.25-.63.57.57,0,0,1,.47-.21.52.52,0,0,1,.55.52.79.79,0,0,1-.09.35,2.37,2.37,0,0,1-2.17,1A2.43,2.43,0,0,1,802.62,393.7Zm3.64-.57a1.08,1.08,0,0,0-1.1-1.13,1.12,1.12,0,0,0-1.12,1.13Z" transform="translate(-451.95 -65.78)"/><path class="cls-7" d="M808.4,395.65v-5.76a.71.71,0,1,1,1.42,0v5.76a.71.71,0,1,1-1.42,0Z" transform="translate(-451.95 -65.78)"/><path class="cls-7" d="M996.68,680.43v-5.6a.87.87,0,0,1,1-1,1,1,0,0,1,1,.76l1.75,4.33h0l1.74-4.33a1,1,0,0,1,1-.76.87.87,0,0,1,.95,1v5.6a.66.66,0,1,1-1.32,0v-4.16h0l-1.75,4.26a.62.62,0,0,1-.63.45.63.63,0,0,1-.64-.45L998,676.27h0v4.16a.66.66,0,1,1-1.31,0Z" transform="translate(-451.95 -65.78)"/><path class="cls-7" d="M1005.16,674.4a.77.77,0,1,1,.76.74A.75.75,0,0,1,1005.16,674.4Zm.05,6v-4a.67.67,0,0,1,.71-.75.68.68,0,0,1,.72.75v4a.68.68,0,0,1-.72.75A.67.67,0,0,1,1005.21,680.38Z" transform="translate(-451.95 -65.78)"/><path class="cls-7" d="M1007.39,678.4c0-1.66.83-2.69,2.15-2.69a1.68,1.68,0,0,1,1.59,1h0v-2.07a.68.68,0,0,1,.72-.75.67.67,0,0,1,.71.75v5.78a.66.66,0,0,1-.71.73.67.67,0,0,1-.72-.73v-.3h0a1.65,1.65,0,0,1-1.61,1C1008.22,681.11,1007.39,680.07,1007.39,678.4Zm3.78,0c0-1-.45-1.56-1.16-1.56s-1.16.6-1.16,1.56.44,1.55,1.16,1.55S1011.17,679.36,1011.17,678.41Z" transform="translate(-451.95 -65.78)"/><path class="cls-7" d="M1190.79,248.38v-5.61a.68.68,0,0,1,.74-.76h3.29a.59.59,0,0,1,.67.61.6.6,0,0,1-.67.61h-2.56v1.88h2.32a.59.59,0,1,1,0,1.17h-2.32v2.1a.74.74,0,1,1-1.47,0Z" transform="translate(-451.95 -65.78)"/><path class="cls-7" d="M1196.18,248.41v-5.76a.68.68,0,0,1,.72-.75.67.67,0,0,1,.71.75v5.76a.67.67,0,0,1-.71.74A.67.67,0,0,1,1196.18,248.41Z" transform="translate(-451.95 -65.78)"/><path class="cls-7" d="M1198.38,246.43a2.6,2.6,0,1,1,2.59,2.73A2.48,2.48,0,0,1,1198.38,246.43Zm3.74,0c0-1-.45-1.64-1.15-1.64s-1.14.6-1.14,1.64.44,1.64,1.14,1.64S1202.12,247.48,1202.12,246.43Z" transform="translate(-451.95 -65.78)"/><path class="cls-7" d="M1205.1,248.41l-1-3.65a1.65,1.65,0,0,1-.08-.44.63.63,0,0,1,.69-.61.65.65,0,0,1,.67.6l.78,3.39h0l.82-3.34a.82.82,0,0,1,1.6,0l.81,3.34h0l.78-3.39a.65.65,0,0,1,.66-.6.62.62,0,0,1,.68.6,1.65,1.65,0,0,1-.08.44l-1.06,3.65a.86.86,0,0,1-.91.75.83.83,0,0,1-.92-.75l-.8-3.05h0l-.79,3.06a.83.83,0,0,1-.91.74C1205.51,249.15,1205.26,248.92,1205.1,248.41Z" transform="translate(-451.95 -65.78)"/><path class="cls-7" d="M1211.89,246.46a2.47,2.47,0,0,1,2.53-2.76,2.35,2.35,0,0,1,2.48,2.44.56.56,0,0,1-.62.62h-3v.06a1.17,1.17,0,0,0,1.19,1.29,1.5,1.5,0,0,0,1.25-.63.57.57,0,0,1,.46-.21.51.51,0,0,1,.56.52.69.69,0,0,1-.1.35,2.35,2.35,0,0,1-2.17,1A2.43,2.43,0,0,1,1211.89,246.46Zm3.63-.57a1.07,1.07,0,0,0-1.09-1.13,1.13,1.13,0,0,0-1.13,1.13Z" transform="translate(-451.95 -65.78)"/><path class="cls-7" d="M1217.63,248.41v-4a.65.65,0,0,1,.69-.72.64.64,0,0,1,.67.72v.34h0a1.16,1.16,0,0,1,1.09-1,.64.64,0,0,1,.44.14.6.6,0,0,1,.21.52.64.64,0,0,1-.21.52,1,1,0,0,1-.62.18c-.65,0-.88.38-.88,1v2.32a.71.71,0,1,1-1.42,0Z" transform="translate(-451.95 -65.78)"/><path class="cls-7" d="M1221.15,248.12a.91.91,0,0,1-.05-.27.53.53,0,0,1,.57-.54.8.8,0,0,1,.62.32,1.26,1.26,0,0,0,1.14.53c.52,0,.86-.21.86-.56s-.18-.43-.69-.55l-.88-.18c-1-.22-1.55-.74-1.55-1.52,0-1,.87-1.65,2.23-1.65a2,2,0,0,1,2,1.09.76.76,0,0,1,0,.21c0,.29-.18.49-.55.49a.67.67,0,0,1-.51-.22,1.24,1.24,0,0,0-1.05-.56c-.48,0-.82.23-.82.56s.21.46.73.57l.86.18c1.12.24,1.57.65,1.57,1.43,0,1-.93,1.71-2.31,1.71C1222.2,249.16,1221.4,248.73,1221.15,248.12Z" transform="translate(-451.95 -65.78)"/><path class="cls-7" d="M999.68,390.41c0-2.27,1.29-3.65,3.32-3.65a2.94,2.94,0,0,1,2.82,1.61,1.14,1.14,0,0,1,.15.55.6.6,0,0,1-.65.63.7.7,0,0,1-.7-.49A1.7,1.7,0,0,0,1003,388c-1.12,0-1.83.93-1.83,2.41s.7,2.43,1.83,2.43a1.65,1.65,0,0,0,1.62-1,.64.64,0,0,1,.65-.46.63.63,0,0,1,.68.65,1.09,1.09,0,0,1-.11.49,2.93,2.93,0,0,1-2.82,1.58C1001,394.05,999.68,392.68,999.68,390.41Z" transform="translate(-451.95 -65.78)"/><path class="cls-7" d="M1006.71,391.31a2.6,2.6,0,1,1,2.59,2.73A2.48,2.48,0,0,1,1006.71,391.31Zm3.74,0c0-1-.45-1.65-1.15-1.65s-1.14.61-1.14,1.65.44,1.64,1.14,1.64S1010.45,392.37,1010.45,391.32Z" transform="translate(-451.95 -65.78)"/><path class="cls-7" d="M1012.63,393.29v-4a.65.65,0,0,1,.69-.72.66.66,0,0,1,.71.72v.3h0a1.61,1.61,0,0,1,1.61-1,1.73,1.73,0,0,1,1.82,2v2.73a.72.72,0,1,1-1.43,0v-2.43c0-.69-.32-1.08-1-1.08a1,1,0,0,0-1,1.15v2.36a.72.72,0,1,1-1.43,0Z" transform="translate(-451.95 -65.78)"/><path class="cls-7" d="M1018.39,393.29v-4a.65.65,0,0,1,.69-.72.66.66,0,0,1,.71.72v.3h0a1.61,1.61,0,0,1,1.61-1,1.72,1.72,0,0,1,1.82,2v2.73a.72.72,0,1,1-1.43,0v-2.43c0-.69-.32-1.08-1-1.08a1,1,0,0,0-1,1.15v2.36a.67.67,0,0,1-.71.75A.68.68,0,0,1,1018.39,393.29Z" transform="translate(-451.95 -65.78)"/><path class="cls-7" d="M1024,391.34a2.47,2.47,0,0,1,2.53-2.75A2.34,2.34,0,0,1,1029,391a.56.56,0,0,1-.62.62h-3v.07a1.16,1.16,0,0,0,1.19,1.28,1.5,1.5,0,0,0,1.25-.63.56.56,0,0,1,.46-.21.52.52,0,0,1,.56.52.78.78,0,0,1-.1.35,2.37,2.37,0,0,1-2.17,1A2.44,2.44,0,0,1,1024,391.34Zm3.64-.57a1.08,1.08,0,0,0-1.09-1.13,1.13,1.13,0,0,0-1.13,1.13Z" transform="translate(-451.95 -65.78)"/><path class="cls-7" d="M1029.52,391.32a2.46,2.46,0,0,1,2.56-2.73,2.26,2.26,0,0,1,2.21,1.25.93.93,0,0,1,.08.35.55.55,0,0,1-.61.55.61.61,0,0,1-.6-.37,1.12,1.12,0,0,0-1-.67c-.73,0-1.17.6-1.17,1.61s.44,1.62,1.16,1.62a1.11,1.11,0,0,0,1-.62.7.7,0,0,1,.65-.42.56.56,0,0,1,.6.57.91.91,0,0,1-.09.37,2.37,2.37,0,0,1-2.21,1.21A2.46,2.46,0,0,1,1029.52,391.32Z" transform="translate(-451.95 -65.78)"/><path class="cls-7" d="M1035.54,389.77h-.28a.54.54,0,1,1,0-1.07h.28v-.58a.71.71,0,1,1,1.42,0v.58h.5a.54.54,0,1,1,0,1.07h-.5v2.51c0,.37.13.52.44.55h.09c.35,0,.54.18.54.52s-.41.63-1,.63h0a1.25,1.25,0,0,1-1.43-1.4Z" transform="translate(-451.95 -65.78)"/><path class="cls-7" d="M1038.45,391.31A2.59,2.59,0,1,1,1041,394,2.47,2.47,0,0,1,1038.45,391.31Zm3.73,0c0-1-.45-1.65-1.14-1.65s-1.15.61-1.15,1.65.45,1.64,1.15,1.64S1042.18,392.37,1042.18,391.32Z" transform="translate(-451.95 -65.78)"/><path class="cls-7" d="M1044.36,393.29v-4a.69.69,0,1,1,1.37,0v.34h0a1.14,1.14,0,0,1,1.08-1,.65.65,0,0,1,.45.13.6.6,0,0,1,.2.52.64.64,0,0,1-.2.52,1,1,0,0,1-.62.18c-.65,0-.88.38-.88,1v2.32a.67.67,0,0,1-.71.75A.68.68,0,0,1,1044.36,393.29Z" transform="translate(-451.95 -65.78)"/><path class="cls-7" d="M853.94,279.41V273.8a.69.69,0,0,1,.74-.77h2.15c1.62,0,2.55.86,2.55,2.25a2,2,0,0,1-1.21,2l1,1.76a.92.92,0,0,1,.16.51.68.68,0,0,1-.74.67c-.35,0-.52-.13-.76-.56l-1.17-2.12h-1.25v1.91a.74.74,0,1,1-1.48,0Zm2.75-3a1.05,1.05,0,0,0,1.17-1.12,1.08,1.08,0,0,0-1.19-1.13h-1.25v2.25Z" transform="translate(-451.95 -65.78)"/><path class="cls-7" d="M860,277.48a2.47,2.47,0,0,1,2.53-2.75,2.35,2.35,0,0,1,2.48,2.44.56.56,0,0,1-.62.62h-3v.06a1.16,1.16,0,0,0,1.2,1.28,1.48,1.48,0,0,0,1.25-.63.58.58,0,0,1,.46-.21.52.52,0,0,1,.56.53.74.74,0,0,1-.1.34,2.35,2.35,0,0,1-2.17,1A2.44,2.44,0,0,1,860,277.48Zm3.64-.57a1.07,1.07,0,0,0-1.09-1.12,1.12,1.12,0,0,0-1.13,1.12Z" transform="translate(-451.95 -65.78)"/><path class="cls-7" d="M865.54,277.46a2.47,2.47,0,0,1,2.56-2.73,2.28,2.28,0,0,1,2.21,1.25,1,1,0,0,1,.08.35.56.56,0,0,1-.61.56.62.62,0,0,1-.6-.37,1.12,1.12,0,0,0-1-.67c-.73,0-1.17.59-1.17,1.61s.44,1.61,1.16,1.61a1.11,1.11,0,0,0,1-.61.7.7,0,0,1,.65-.42.56.56,0,0,1,.6.57,1,1,0,0,1-.09.37,2.39,2.39,0,0,1-2.21,1.21A2.47,2.47,0,0,1,865.54,277.46Z" transform="translate(-451.95 -65.78)"/><path class="cls-7" d="M871,277.46a2.6,2.6,0,1,1,2.6,2.73A2.48,2.48,0,0,1,871,277.46Zm3.74,0c0-1-.45-1.64-1.14-1.64s-1.15.6-1.15,1.64.44,1.64,1.15,1.64S874.72,278.51,874.72,277.46Z" transform="translate(-451.95 -65.78)"/><path class="cls-7" d="M876.9,279.44v-4a.65.65,0,0,1,.69-.71.64.64,0,0,1,.67.71v.34h0a1.16,1.16,0,0,1,1.09-1,.69.69,0,0,1,.45.13.65.65,0,0,1,.2.53.66.66,0,0,1-.2.51,1,1,0,0,1-.62.19c-.65,0-.88.37-.88,1v2.33a.67.67,0,0,1-.71.74A.68.68,0,0,1,876.9,279.44Z" transform="translate(-451.95 -65.78)"/><path class="cls-7" d="M880.18,277.45c0-1.66.83-2.69,2.14-2.69a1.68,1.68,0,0,1,1.6,1h0v-2.07a.71.71,0,1,1,1.42,0v5.79a.66.66,0,0,1-.7.72.67.67,0,0,1-.72-.72v-.31h0a1.64,1.64,0,0,1-1.61,1C881,280.16,880.18,279.13,880.18,277.45Zm3.78,0c0-.95-.46-1.56-1.16-1.56s-1.16.6-1.16,1.56.44,1.55,1.16,1.55S884,278.42,884,277.46Z" transform="translate(-451.95 -65.78)"/><path class="cls-7" d="M675.24,553.23v-5.51A.68.68,0,0,1,676,547h2.32c1.33,0,2.16.67,2.16,1.75a1.56,1.56,0,0,1-1.33,1.53v0a1.7,1.7,0,0,1,1.66,1.7c0,1.24-.93,2-2.43,2H676A.69.69,0,0,1,675.24,553.23Zm2.53-3.35c.79,0,1.24-.34,1.24-.94s-.4-.89-1.09-.89h-1.21v1.83Zm.21,3c.85,0,1.31-.36,1.31-1s-.47-1-1.34-1h-1.24v2Z" transform="translate(-451.95 -65.78)"/><path class="cls-7" d="M683.61,553.23v-5.6a.74.74,0,1,1,1.48,0v5.15h2.5a.61.61,0,1,1,0,1.22h-3.24A.69.69,0,0,1,683.61,553.23Z" transform="translate(-451.95 -65.78)"/><path class="cls-7" d="M688.9,547.38a.76.76,0,1,1,.76.74A.74.74,0,0,1,688.9,547.38Zm0,6v-4a.72.72,0,1,1,1.43,0v4a.72.72,0,1,1-1.43,0Z" transform="translate(-451.95 -65.78)"/><path class="cls-7" d="M691.32,553.36v-4a.65.65,0,0,1,.69-.72.66.66,0,0,1,.71.72v.29h0a1.61,1.61,0,0,1,1.61-1,1.73,1.73,0,0,1,1.82,2v2.73a.67.67,0,0,1-.72.74.67.67,0,0,1-.71-.74v-2.44c0-.68-.32-1.07-1-1.07a1,1,0,0,0-1,1.15v2.36a.71.71,0,1,1-1.42,0Z" transform="translate(-451.95 -65.78)"/><path class="cls-7" d="M697.11,553.36v-5.77a.68.68,0,0,1,.72-.74.67.67,0,0,1,.71.74v3.25h0l1.89-1.9a.73.73,0,0,1,.57-.28.61.61,0,0,1,.63.62.67.67,0,0,1-.26.54l-1.34,1.26,1.46,1.86a.75.75,0,0,1,.2.52.63.63,0,0,1-.68.64c-.3,0-.47-.1-.69-.44L699,551.88l-.45.42v1.06a.67.67,0,0,1-.71.74A.67.67,0,0,1,697.11,553.36Z" transform="translate(-451.95 -65.78)"/><path class="cls-7" d="M622.05,442.17v-16a2,2,0,0,1,2.14-2.22h6.75c3.84,0,6.24,2,6.24,5.09a4.52,4.52,0,0,1-3.83,4.44v.11a5,5,0,0,1,4.81,4.94c0,3.6-2.7,5.85-7.06,5.85h-6.91A2,2,0,0,1,622.05,442.17Zm7.35-9.7c2.28,0,3.58-1,3.58-2.73s-1.15-2.58-3.14-2.58h-3.52v5.31Zm.61,8.75c2.46,0,3.79-1,3.79-3s-1.37-2.93-3.89-2.93h-3.59v5.93Z" transform="translate(-451.95 -65.78)"/><path class="cls-7" d="M1368.53,343.89v-5.51a.69.69,0,0,1,.74-.77h2c2.11,0,3.36,1.26,3.36,3.5s-1.25,3.55-3.36,3.55h-2A.69.69,0,0,1,1368.53,343.89Zm2.51-.45c1.32,0,2-.8,2-2.33s-.74-2.28-2-2.28h-1v4.61Z" transform="translate(-451.95 -65.78)"/><path class="cls-7" d="M1375.38,342.8v-2.74a.72.72,0,1,1,1.43,0v2.44c0,.7.34,1.07,1,1.07a1,1,0,0,0,1-1.15v-2.36a.68.68,0,0,1,.72-.75.67.67,0,0,1,.71.75v4a.69.69,0,1,1-1.38,0v-.33h0a1.55,1.55,0,0,1-1.56,1A1.79,1.79,0,0,1,1375.38,342.8Z" transform="translate(-451.95 -65.78)"/><path class="cls-7" d="M1381.3,345.66a.81.81,0,0,1-.1-.39.53.53,0,0,1,.58-.53.68.68,0,0,1,.49.21,1.72,1.72,0,0,0,1.23.57,1.07,1.07,0,0,0,1.24-1.08v-.83h0a1.68,1.68,0,0,1-1.61.93c-1.3,0-2.12-1-2.12-2.59s.8-2.61,2.15-2.61a1.67,1.67,0,0,1,1.59,1h0V340a.67.67,0,0,1,.72-.73.66.66,0,0,1,.71.73v4.41c0,1.36-1,2.18-2.67,2.17A2.54,2.54,0,0,1,1381.3,345.66Zm3.46-3.69c0-.94-.46-1.55-1.18-1.55s-1.14.6-1.14,1.55.44,1.51,1.14,1.51S1384.76,342.92,1384.76,342Z" transform="translate(-451.95 -65.78)"/><path class="cls-7" d="M1386.91,342a2.59,2.59,0,1,1,2.59,2.74A2.47,2.47,0,0,1,1386.91,342Zm3.73,0c0-1-.44-1.64-1.14-1.64s-1.15.6-1.15,1.64.45,1.64,1.15,1.64S1390.64,343.09,1390.64,342Z" transform="translate(-451.95 -65.78)"/><path class="cls-7" d="M1392.8,342.8v-2.74a.68.68,0,0,1,.72-.75.67.67,0,0,1,.71.75v2.44c0,.7.35,1.07,1,1.07a1,1,0,0,0,1-1.15v-2.36a.71.71,0,1,1,1.42,0v4a.69.69,0,1,1-1.38,0v-.33h0a1.54,1.54,0,0,1-1.56,1A1.79,1.79,0,0,1,1392.8,342.8Z" transform="translate(-451.95 -65.78)"/><path class="cls-7" d="M1399,340.5h-.27a.54.54,0,1,1,0-1.08h.27v-.58a.72.72,0,1,1,1.43,0v.58h.5a.54.54,0,1,1,0,1.08h-.5V343c0,.37.12.53.43.55h.09c.35,0,.54.19.54.52s-.41.64-1,.64h0a1.26,1.26,0,0,1-1.44-1.4Z" transform="translate(-451.95 -65.78)"/><path class="cls-7" d="M1333.94,391.24c-1.14,0-1.77-.57-2.17-1.93l-1.07-3.19h-7.38l-1.08,3.23c-.38,1.33-1,1.89-2.22,1.89a2,2,0,0,1-2.14-2,3.7,3.7,0,0,1,.27-1.35l5.61-15.21a3.38,3.38,0,0,1,6.48,0l5.58,15.2a4.44,4.44,0,0,1,.28,1.35A2,2,0,0,1,1333.94,391.24Zm-4.18-8.43-2.65-8.37h-.1l-2.7,8.37Z" transform="translate(-451.95 -65.78)"/><path class="cls-7" d="M525.54,755.81V750.2a.69.69,0,0,1,.74-.77h2.15c1.62,0,2.55.86,2.55,2.25a2,2,0,0,1-1.22,2l1,1.76a.94.94,0,0,1,.16.51.69.69,0,0,1-.75.67c-.35,0-.51-.13-.75-.56l-1.17-2.12H527v1.91a.74.74,0,1,1-1.48,0Zm2.75-3a1,1,0,0,0,1.17-1.12,1.08,1.08,0,0,0-1.19-1.13H527v2.25Z" transform="translate(-451.95 -65.78)"/><path class="cls-7" d="M531.59,755c0-1,.73-1.5,2-1.58l1.32-.08V753c0-.49-.34-.77-.88-.77a1.13,1.13,0,0,0-1,.55.75.75,0,0,1-.57.26.55.55,0,0,1-.6-.55.76.76,0,0,1,.08-.32,2.2,2.2,0,0,1,2.16-1c1.35,0,2.22.69,2.22,1.75v3a.65.65,0,0,1-.69.72A.63.63,0,0,1,535,756v-.27h0a1.83,1.83,0,0,1-1.61.88A1.62,1.62,0,0,1,531.59,755Zm3.36-.41v-.38l-1.1.07c-.54,0-.84.27-.84.65s.32.63.8.63A1,1,0,0,0,535,754.56Z" transform="translate(-451.95 -65.78)"/><path class="cls-7" d="M537.27,755.84v-4a.69.69,0,1,1,1.38,0v.33h0a1.53,1.53,0,0,1,1.49-1,1.39,1.39,0,0,1,1.46,1.07h0a1.74,1.74,0,0,1,3.34.68v2.94a.72.72,0,1,1-1.43,0v-2.58c0-.61-.3-.94-.85-.94a.89.89,0,0,0-.9,1v2.54a.69.69,0,1,1-1.37,0v-2.62a.8.8,0,0,0-.85-.9.91.91,0,0,0-.9,1v2.52a.68.68,0,0,1-.72.74A.67.67,0,0,1,537.27,755.84Z" transform="translate(-451.95 -65.78)"/><path class="cls-7" d="M545.9,757.6v-5.73a.67.67,0,0,1,.71-.73.66.66,0,0,1,.7.73v.29h0a1.69,1.69,0,0,1,1.62-1c1.33,0,2.14,1,2.14,2.7s-.81,2.7-2.12,2.7a1.71,1.71,0,0,1-1.62-1h0v2a.67.67,0,0,1-.71.74A.67.67,0,0,1,545.9,757.6Zm3.74-3.74c0-1-.45-1.56-1.16-1.56s-1.16.62-1.16,1.56.46,1.55,1.16,1.55S549.64,754.81,549.64,753.86Z" transform="translate(-451.95 -65.78)"/><path class="cls-7" d="M1063.78,777.38v-5.59a.88.88,0,0,1,1-1,1,1,0,0,1,1,.77l1.74,4.33h0l1.75-4.33a1,1,0,0,1,1-.77.87.87,0,0,1,.94,1v5.59a.66.66,0,1,1-1.31,0v-4.16h0l-1.74,4.27a.62.62,0,0,1-.63.44.63.63,0,0,1-.64-.44l-1.74-4.27h0v4.16a.66.66,0,1,1-1.32,0Z" transform="translate(-451.95 -65.78)"/><path class="cls-7" d="M1072,776.47c0-1,.73-1.5,2-1.58l1.32-.08v-.34c0-.49-.34-.77-.88-.77a1.13,1.13,0,0,0-1,.55.75.75,0,0,1-.57.26.55.55,0,0,1-.6-.55.76.76,0,0,1,.08-.32c.24-.62,1.08-1,2.17-1,1.34,0,2.21.7,2.21,1.75v3a.65.65,0,0,1-.69.72.62.62,0,0,1-.68-.63v-.27h0a1.83,1.83,0,0,1-1.61.88A1.62,1.62,0,0,1,1072,776.47Zm3.36-.41v-.38l-1.1.07c-.53,0-.84.28-.84.65s.32.63.8.63A1,1,0,0,0,1075.34,776.06Z" transform="translate(-451.95 -65.78)"/><path class="cls-7" d="M1077.66,777.34v-4a.65.65,0,0,1,.69-.71.64.64,0,0,1,.67.71v.35h0a1.16,1.16,0,0,1,1.09-1,.7.7,0,0,1,.44.13.64.64,0,0,1,.21.53.62.62,0,0,1-.21.51,1,1,0,0,1-.62.19c-.64,0-.87.37-.87,1v2.33a.72.72,0,1,1-1.43,0Z" transform="translate(-451.95 -65.78)"/><path class="cls-7" d="M1081.33,777.34v-5.77a.72.72,0,1,1,1.43,0v3.25h0l1.89-1.9a.73.73,0,0,1,.57-.28.61.61,0,0,1,.63.62.63.63,0,0,1-.27.53l-1.33,1.26,1.46,1.86a.77.77,0,0,1,.2.53.63.63,0,0,1-.68.64c-.3,0-.47-.11-.7-.44l-1.34-1.78-.45.42v1.06a.72.72,0,1,1-1.43,0Z" transform="translate(-451.95 -65.78)"/><path class="cls-7" d="M1086.24,775.39a2.48,2.48,0,0,1,2.53-2.76,2.35,2.35,0,0,1,2.48,2.44.56.56,0,0,1-.62.62h-3v.06a1.16,1.16,0,0,0,1.19,1.29,1.5,1.5,0,0,0,1.25-.63.57.57,0,0,1,.46-.21.51.51,0,0,1,.56.52.81.81,0,0,1-.1.35,2.37,2.37,0,0,1-2.17,1A2.44,2.44,0,0,1,1086.24,775.39Zm3.64-.58a1.07,1.07,0,0,0-1.09-1.12,1.13,1.13,0,0,0-1.13,1.12Z" transform="translate(-451.95 -65.78)"/><path class="cls-7" d="M1092.37,773.82h-.28a.54.54,0,1,1,0-1.08h.28v-.58a.71.71,0,1,1,1.42,0v.58h.51a.54.54,0,1,1,0,1.08h-.51v2.5c0,.37.13.53.44.56h.09c.35,0,.54.19.54.52s-.41.64-1,.64h0a1.26,1.26,0,0,1-1.43-1.4Z" transform="translate(-451.95 -65.78)"/><path class="cls-7" d="M836.41,767.24a1.09,1.09,0,0,1-.07-.4.6.6,0,0,1,.64-.64.69.69,0,0,1,.68.43,1.47,1.47,0,0,0,1.46.78c.79,0,1.33-.38,1.33-.9s-.34-.73-1.22-.91l-.75-.15c-1.4-.28-2.09-1-2.09-2,0-1.29,1.12-2.14,2.69-2.14a2.49,2.49,0,0,1,2.57,1.46.83.83,0,0,1,.06.32.59.59,0,0,1-.63.6.74.74,0,0,1-.71-.44,1.26,1.26,0,0,0-1.29-.75c-.73,0-1.21.34-1.21.86s.34.7,1.17.87l.74.15c1.5.3,2.14.9,2.14,2,0,1.37-1.08,2.24-2.84,2.24C837.63,768.59,836.7,768,836.41,767.24Z" transform="translate(-451.95 -65.78)"/><path class="cls-7" d="M842.73,767.84v-5.79a.67.67,0,0,1,.71-.73.66.66,0,0,1,.69.73v2.12h0a1.67,1.67,0,0,1,1.65-1,1.75,1.75,0,0,1,1.82,2v2.73a.71.71,0,1,1-1.42,0v-2.43c0-.67-.33-1.08-1-1.08a1,1,0,0,0-1.07,1.16v2.35a.72.72,0,1,1-1.43,0Z" transform="translate(-451.95 -65.78)"/><path class="cls-7" d="M848.35,765.85a2.6,2.6,0,1,1,2.59,2.74A2.48,2.48,0,0,1,848.35,765.85Zm3.74,0c0-1-.45-1.64-1.15-1.64s-1.14.6-1.14,1.64.44,1.64,1.14,1.64S852.09,766.91,852.09,765.86Z" transform="translate(-451.95 -65.78)"/><path class="cls-7" d="M854.27,769.6v-5.73a.67.67,0,0,1,.7-.74.68.68,0,0,1,.71.74v.28h0a1.7,1.7,0,0,1,1.62-1c1.32,0,2.14,1,2.14,2.7s-.81,2.7-2.12,2.7a1.7,1.7,0,0,1-1.62-1h0v2a.72.72,0,1,1-1.43,0Zm3.74-3.74c0-1-.45-1.56-1.16-1.56s-1.16.62-1.16,1.56.46,1.55,1.16,1.55S858,766.81,858,765.86Z" transform="translate(-451.95 -65.78)"/><path class="cls-7" d="M722.75,866.51c0-2.27,1.29-3.64,3.32-3.64a3,3,0,0,1,2.82,1.6,1.2,1.2,0,0,1,.15.55.61.61,0,0,1-.65.64.72.72,0,0,1-.71-.49,1.68,1.68,0,0,0-1.6-1.08c-1.11,0-1.83.93-1.83,2.42s.71,2.43,1.84,2.43a1.64,1.64,0,0,0,1.61-1.05.65.65,0,0,1,.65-.46.63.63,0,0,1,.69.65,1.29,1.29,0,0,1-.11.5,2.94,2.94,0,0,1-2.82,1.57C724,870.15,722.75,868.79,722.75,866.51Z" transform="translate(-451.95 -65.78)"/><path class="cls-7" d="M730,869.4v-5.77a.68.68,0,0,1,.72-.75.67.67,0,0,1,.71.75v5.77a.67.67,0,0,1-.71.74A.67.67,0,0,1,730,869.4Z" transform="translate(-451.95 -65.78)"/><path class="cls-7" d="M732.37,868.18v-2.74a.71.71,0,1,1,1.42,0v2.44c0,.7.35,1.07,1,1.07a1,1,0,0,0,1-1.15v-2.36a.71.71,0,1,1,1.42,0v4a.64.64,0,0,1-.68.72.65.65,0,0,1-.69-.72v-.33h0a1.56,1.56,0,0,1-1.57,1A1.78,1.78,0,0,1,732.37,868.18Z" transform="translate(-451.95 -65.78)"/><path class="cls-7" d="M738.19,869.42v-5.79a.71.71,0,1,1,1.42,0v2.08h0a1.72,1.72,0,0,1,1.62-1c1.32,0,2.13,1,2.13,2.7s-.8,2.7-2.13,2.7a1.74,1.74,0,0,1-1.64-1h0v.28a.66.66,0,0,1-.71.72A.64.64,0,0,1,738.19,869.42Zm3.74-2c0-.95-.45-1.56-1.16-1.56s-1.16.62-1.16,1.56.47,1.55,1.16,1.55S741.93,868.38,741.93,867.42Z" transform="translate(-451.95 -65.78)"/><path class="cls-7" d="M951.54,545.18v-5.5a.69.69,0,0,1,.74-.77h2c2.12,0,3.36,1.26,3.36,3.5s-1.24,3.55-3.36,3.55h-2A.7.7,0,0,1,951.54,545.18Zm2.52-.45c1.31,0,2-.8,2-2.32s-.74-2.28-2-2.28h-1v4.6Z" transform="translate(-451.95 -65.78)"/><path class="cls-7" d="M958.23,543.33a2.59,2.59,0,1,1,2.59,2.74A2.47,2.47,0,0,1,958.23,543.33Zm3.73,0c0-1-.45-1.64-1.14-1.64s-1.15.6-1.15,1.64.45,1.64,1.15,1.64S962,544.39,962,543.34Z" transform="translate(-451.95 -65.78)"/><path class="cls-7" d="M964,543.33a2.6,2.6,0,1,1,2.6,2.74A2.48,2.48,0,0,1,964,543.33Zm3.74,0c0-1-.45-1.64-1.14-1.64s-1.15.6-1.15,1.64.44,1.64,1.15,1.64S967.69,544.39,967.69,543.34Z" transform="translate(-451.95 -65.78)"/><path class="cls-7" d="M969.87,545.32v-4a.66.66,0,0,1,.69-.72.65.65,0,0,1,.67.72v.34h0a1.15,1.15,0,0,1,1.09-1,.69.69,0,0,1,.45.13.65.65,0,0,1,.2.53.66.66,0,0,1-.2.51,1,1,0,0,1-.62.19c-.65,0-.88.37-.88,1v2.33a.72.72,0,1,1-1.43,0Z" transform="translate(-451.95 -65.78)"/><path class="cls-7" d="M973.39,545a.85.85,0,0,1,0-.26.54.54,0,0,1,.57-.55.8.8,0,0,1,.62.32,1.28,1.28,0,0,0,1.15.54c.51,0,.85-.22.85-.57s-.18-.43-.69-.54l-.88-.19c-1-.22-1.54-.74-1.54-1.52,0-1,.86-1.64,2.22-1.64a2,2,0,0,1,2.05,1.08.82.82,0,0,1,0,.21.47.47,0,0,1-.54.49.69.69,0,0,1-.52-.22,1.23,1.23,0,0,0-1-.56c-.48,0-.82.23-.82.57s.21.45.73.56l.86.19c1.12.23,1.58.64,1.58,1.42,0,1-.94,1.72-2.32,1.72C974.44,546.07,973.64,545.64,973.39,545Z" transform="translate(-451.95 -65.78)"/><path class="cls-7" d="M1180.24,725.8v-5.62a.69.69,0,0,1,.74-.77h2.15c1.62,0,2.54.86,2.54,2.25a2,2,0,0,1-1.21,2l1,1.76a.94.94,0,0,1,.16.51.69.69,0,0,1-.75.67c-.35,0-.51-.12-.75-.55l-1.17-2.13h-1.26v1.92a.68.68,0,0,1-.73.76A.69.69,0,0,1,1180.24,725.8Zm2.74-3a1.05,1.05,0,0,0,1.18-1.12,1.08,1.08,0,0,0-1.19-1.12h-1.26v2.24Z" transform="translate(-451.95 -65.78)"/><path class="cls-7" d="M1186.28,723.87a2.47,2.47,0,0,1,2.53-2.76,2.35,2.35,0,0,1,2.48,2.44.56.56,0,0,1-.62.62h-3v.06a1.17,1.17,0,0,0,1.19,1.29,1.48,1.48,0,0,0,1.25-.63.57.57,0,0,1,.47-.21.51.51,0,0,1,.55.52.79.79,0,0,1-.09.35,2.37,2.37,0,0,1-2.17,1A2.43,2.43,0,0,1,1186.28,723.87Zm3.64-.57a1.08,1.08,0,0,0-1.1-1.13,1.13,1.13,0,0,0-1.12,1.13Z" transform="translate(-451.95 -65.78)"/><path class="cls-7" d="M1191.91,725.53a.7.7,0,0,1-.06-.27.54.54,0,0,1,.58-.54.81.81,0,0,1,.62.32,1.26,1.26,0,0,0,1.14.53c.52,0,.85-.21.85-.56s-.18-.43-.69-.55l-.88-.18c-1-.22-1.54-.74-1.54-1.52,0-1,.86-1.65,2.22-1.65a2,2,0,0,1,2,1.09.78.78,0,0,1,0,.21c0,.29-.18.49-.55.49a.69.69,0,0,1-.52-.22,1.22,1.22,0,0,0-1-.56c-.49,0-.82.22-.82.56s.2.45.72.57l.87.18c1.11.24,1.57.65,1.57,1.43,0,1-.93,1.71-2.31,1.71C1193,726.57,1192.15,726.14,1191.91,725.53Z" transform="translate(-451.95 -65.78)"/><path class="cls-7" d="M1197.55,722.3h-.27a.54.54,0,1,1,0-1.07h.27v-.59a.72.72,0,1,1,1.43,0v.59h.5a.54.54,0,1,1,0,1.07h-.5v2.5c0,.38.13.53.44.56h.09c.35,0,.54.18.54.51s-.41.64-1,.64h0a1.26,1.26,0,0,1-1.44-1.4Z" transform="translate(-451.95 -65.78)"/><path class="cls-7" d="M1200.47,725c0-1,.74-1.51,2-1.58l1.31-.08V723c0-.49-.34-.77-.87-.77a1.15,1.15,0,0,0-1,.55.71.71,0,0,1-.57.26.54.54,0,0,1-.59-.54.68.68,0,0,1,.07-.32c.24-.63,1.08-1,2.17-1,1.34,0,2.22.7,2.22,1.75v3a.65.65,0,0,1-.7.71.63.63,0,0,1-.68-.63v-.27h0a1.8,1.8,0,0,1-1.6.88A1.62,1.62,0,0,1,1200.47,725Zm3.36-.42v-.38l-1.1.07c-.53,0-.83.28-.83.65s.32.63.8.63A1,1,0,0,0,1203.83,724.54Z" transform="translate(-451.95 -65.78)"/><path class="cls-7" d="M1206.13,724.6v-2.73a.71.71,0,1,1,1.42,0v2.43c0,.7.35,1.07,1,1.07a1,1,0,0,0,1-1.15v-2.35a.72.72,0,1,1,1.43,0v4a.69.69,0,1,1-1.38,0v-.32h0a1.56,1.56,0,0,1-1.57,1A1.79,1.79,0,0,1,1206.13,724.6Z" transform="translate(-451.95 -65.78)"/><path class="cls-7" d="M1211.92,725.82v-4a.68.68,0,1,1,1.36,0v.34h0a1.15,1.15,0,0,1,1.09-1,.64.64,0,0,1,.44.14.76.76,0,0,1,0,1,.92.92,0,0,1-.62.19c-.65,0-.88.38-.88,1v2.32a.71.71,0,1,1-1.42,0Z" transform="translate(-451.95 -65.78)"/><path class="cls-7" d="M1215.23,725c0-1,.73-1.51,2-1.58l1.31-.08V723c0-.49-.34-.77-.87-.77a1.15,1.15,0,0,0-1,.55.71.71,0,0,1-.57.26.54.54,0,0,1-.59-.54.68.68,0,0,1,.07-.32,2.21,2.21,0,0,1,2.17-1c1.34,0,2.22.7,2.22,1.75v3a.65.65,0,0,1-.7.71.63.63,0,0,1-.68-.63v-.27h0a1.8,1.8,0,0,1-1.6.88A1.61,1.61,0,0,1,1215.23,725Zm3.35-.42v-.38l-1.1.07c-.53,0-.83.28-.83.65s.32.63.8.63A1,1,0,0,0,1218.58,724.54Z" transform="translate(-451.95 -65.78)"/><path class="cls-7" d="M1220.9,725.82v-4a.65.65,0,0,1,.69-.72.67.67,0,0,1,.72.72v.29h0a1.61,1.61,0,0,1,1.62-1,1.72,1.72,0,0,1,1.81,2v2.73a.71.71,0,1,1-1.42,0v-2.44c0-.68-.33-1.07-1-1.07a1,1,0,0,0-1.05,1.15v2.36a.67.67,0,0,1-.71.74A.67.67,0,0,1,1220.9,725.82Z" transform="translate(-451.95 -65.78)"/><path class="cls-7" d="M1227.05,722.3h-.28a.54.54,0,1,1,0-1.07h.28v-.59a.71.71,0,1,1,1.42,0v.59h.51a.54.54,0,1,1,0,1.07h-.51v2.5c0,.38.13.53.44.56h.09c.35,0,.54.18.54.51s-.41.64-1,.64h0a1.26,1.26,0,0,1-1.43-1.4Z" transform="translate(-451.95 -65.78)"/></g></svg>