<svg xmlns="http://www.w3.org/2000/svg" viewBox="0 0 948.1 892.06"><defs><style>.cls-1{fill:#003455;}.cls-2{fill:#33353b;}.cls-3{fill:#575548;}.cls-4{fill:#b0adb0;}.cls-5{fill:#656569;}.cls-6{fill:#d32027;}.cls-7{fill:#fff;}.cls-8{fill:#79c143;}</style></defs><title>Split Offence new site</title><g id="Body"><rect class="cls-1" x="637.6" y="1008.82" width="128.16" height="42" transform="translate(1511.89 125.25) rotate(90)"/><rect class="cls-1" x="589.7" y="1042.6" width="49.21" height="41.26" transform="translate(1457.93 246.03) rotate(90)"/><rect class="cls-1" x="612.44" y="1080.64" width="14.51" height="5.97" transform="translate(1483.72 261.04) rotate(90)"/><rect class="cls-1" x="572" y="1001.03" width="145.82" height="29.93" transform="translate(1441.31 168.2) rotate(90)"/><rect class="cls-1" x="604.63" y="976.02" width="89.39" height="111.3" transform="translate(1461.4 179.45) rotate(90)"/><rect class="cls-1" x="680.5" y="934.08" width="64.31" height="20.03" transform="translate(1437.16 28.55) rotate(90)"/><rect class="cls-1" x="780.75" y="864.01" width="41" height="182.83" transform="translate(1537.07 -48.72) rotate(90)"/><rect class="cls-1" x="811.33" y="856.29" width="87.71" height="74.97" transform="translate(1529.35 -164.3) rotate(90)"/><rect class="cls-1" x="960.6" y="776.86" width="49.99" height="196.11" transform="translate(1640.91 -313.57) rotate(90)"/><rect class="cls-1" x="936.37" y="724.61" width="259.99" height="34.58" transform="translate(1588.66 -527.35) rotate(90)"/><rect class="cls-1" x="1052.16" y="715.43" width="54.99" height="101.97" transform="translate(1626.47 -516.13) rotate(90)"/><rect class="cls-1" x="997.2" y="818.42" width="80.87" height="49.96" transform="translate(1661.43 -397.14) rotate(90)"/><rect class="cls-1" x="1023.45" y="775.09" width="41.36" height="30.92" transform="translate(1615.07 -456.47) rotate(90)"/><rect class="cls-1" x="983.39" y="673.17" width="129.12" height="6.59" transform="translate(1504.82 -574.37) rotate(90)"/><rect class="cls-1" x="1012.24" y="637.31" width="79.01" height="28.21" transform="translate(1483.56 -603.22) rotate(90)"/><rect class="cls-1" x="1009.48" y="642.58" width="46" height="50.7" transform="translate(1480.81 -567.45) rotate(90)"/><rect class="cls-1" x="916.65" y="642.94" width="112" height="47.99" transform="translate(1419.98 -508.61) rotate(90)"/><rect class="cls-1" x="857.11" y="653.36" width="37.1" height="64.02" transform="translate(1341.42 -393.18) rotate(90)"/><rect class="cls-1" x="784.67" y="577.91" width="135.99" height="66.07" transform="translate(1244.01 -444.62) rotate(90)"/><rect class="cls-1" x="873.67" y="549.95" width="30.97" height="16.96" transform="translate(1227.98 -533.62) rotate(90)"/><rect class="cls-1" x="907.52" y="613.71" width="33.03" height="83.43" transform="translate(1359.85 -471.5) rotate(90)"/><rect class="cls-1" x="856.42" y="544.71" width="280.45" height="32" transform="translate(1337.75 -638.83) rotate(90)"/><rect class="cls-1" x="1010.52" y="438.05" width="173.24" height="22.99" transform="translate(1327.09 -850.49) rotate(90)"/><rect class="cls-1" x="1033.52" y="421.05" width="96.01" height="139.75" transform="translate(1352.86 -793.49) rotate(90)"/><rect class="cls-1" x="1118.07" y="383.34" width="32.97" height="64.18" transform="translate(1330.38 -922.02) rotate(90)"/><rect class="cls-1" x="1078.01" y="472.04" width="137.26" height="31.99" transform="translate(1415.07 -861.49) rotate(90)"/><rect class="cls-1" x="1110.72" y="416.27" width="25.02" height="41.53" transform="translate(1340.66 -889.08) rotate(90)"/><rect class="cls-1" x="1141.68" y="557.96" width="30.99" height="18.95" transform="translate(1505.01 -792.63) rotate(90)"/><rect class="cls-1" x="973.26" y="405.3" width="64.2" height="22.6" transform="translate(1202.35 -791.65) rotate(90)"/><rect class="cls-1" x="1027.99" y="319.82" width="25" height="111.2" transform="translate(1196.31 -867.96) rotate(90)"/><rect class="cls-1" x="944.45" y="381.11" width="104.38" height="38.01" transform="translate(1177.16 -799.42) rotate(90)"/><rect class="cls-1" x="887.86" y="464.72" width="177.99" height="34.4" transform="translate(1239.18 -697.83) rotate(90)"/><rect class="cls-1" x="889.48" y="480.1" width="134.99" height="46.65" transform="translate(1240.8 -656.45) rotate(90)"/><rect class="cls-1" x="915.07" y="441.55" width="34.96" height="23.71" transform="translate(1166.36 -682.03) rotate(90)"/><rect class="cls-1" x="906.71" y="446.6" width="23.97" height="24.62" transform="translate(1158 -662.68) rotate(90)"/><rect class="cls-1" x="824.55" y="394.02" width="97.17" height="89.01" transform="translate(1092.06 -637.51) rotate(90)"/><rect class="cls-1" x="815.99" y="478.16" width="73.41" height="48.12" transform="translate(1135.31 -553.37) rotate(90)"/><rect class="cls-1" x="850.02" y="521.13" width="30.44" height="32.8" transform="translate(1183.18 -530.6) rotate(90)"/><rect class="cls-1" x="790.04" y="477.56" width="27.99" height="94.74" transform="translate(1109.37 -482) rotate(90)"/><rect class="cls-1" x="744" y="545.33" width="62.29" height="36.96" transform="translate(1119.36 -414.23) rotate(90)"/><rect class="cls-1" x="705.76" y="534.79" width="27.03" height="93.29" transform="translate(1081.12 -340.73) rotate(90)"/><rect class="cls-1" x="682.03" y="529.53" width="48.21" height="66.99" transform="translate(1049.56 -346) rotate(90)"/><rect class="cls-1" x="652.22" y="539.42" width="24.95" height="23.97" transform="translate(996.5 -316.19) rotate(90)"/><rect class="cls-1" x="551.01" y="676.55" width="225.25" height="69.98" transform="translate(1155.58 -154.99) rotate(90)"/><rect class="cls-1" x="668.02" y="589.35" width="37.28" height="20.05" transform="translate(1066.43 -290.18) rotate(90)"/><rect class="cls-1" x="653.72" y="652.01" width="95.99" height="11.86" transform="translate(1140.05 -246.68) rotate(90)"/><rect class="cls-1" x="620.56" y="759.84" width="154.65" height="11.49" transform="translate(1243.87 -135.19) rotate(90)"/><rect class="cls-1" x="558.36" y="757.23" width="135.98" height="35.38" transform="translate(1181.67 -54.32) rotate(90)"/><rect class="cls-1" x="645.41" y="790.44" width="27.64" height="77.31" transform="translate(1268.72 -33.03) rotate(90)"/><rect class="cls-1" x="576.86" y="784.67" width="32.01" height="36.53" transform="translate(1176.19 7.18) rotate(90)"/><rect class="cls-1" x="526.15" y="777.43" width="95.99" height="52.99" transform="translate(1158.47 26.89) rotate(90)"/><rect class="cls-1" x="461.16" y="763.42" width="62.98" height="48.01" transform="translate(1060.47 91.88) rotate(90)"/><rect class="cls-1" x="463.01" y="813.28" width="59.27" height="48.01" transform="translate(1110.33 141.74) rotate(90)"/><rect class="cls-1" x="447.31" y="838.4" width="28" height="29.07" transform="translate(1094.64 188.73) rotate(90)"/><rect class="cls-1" x="304.64" y="806.93" width="200" height="96" transform="translate(1039.97 247.4) rotate(90)"/><rect class="cls-1" x="488.64" y="889.92" width="42.02" height="140" transform="translate(1249.97 247.38) rotate(90)"/><rect class="cls-1" x="446.5" y="890.19" width="54.39" height="57.89" transform="translate(1173.23 242.54) rotate(90)"/><rect class="cls-1" x="633.02" y="853.54" width="34.04" height="204.79" transform="translate(1386.37 103) rotate(90)"/><rect class="cls-1" x="620.3" y="938.64" width="50.97" height="96.27" transform="translate(1412.96 138.09) rotate(90)"/><rect class="cls-1" x="965.14" y="251.43" width="55" height="120" transform="translate(1084.47 -884.1) rotate(90)"/><rect class="cls-1" x="892.32" y="253.26" width="33.99" height="95.33" transform="translate(990.64 -811.28) rotate(90)"/><rect class="cls-1" x="861.36" y="307.64" width="63.56" height="62.99" transform="translate(1012.68 -756.9) rotate(90)"/><rect class="cls-1" x="792.22" y="390.34" width="64.99" height="64.16" transform="translate(1027.54 -605.19) rotate(90)"/><rect class="cls-1" x="799.82" y="270.79" width="31.98" height="168.27" transform="translate(951.14 -663.78) rotate(90)"/><rect class="cls-1" x="788.03" y="362.39" width="33.21" height="24" transform="translate(959.42 -633.14) rotate(90)"/><rect class="cls-1" x="592.18" y="248.41" width="166.94" height="78" transform="translate(743.46 -591.13) rotate(90)"/><rect class="cls-1" x="713.63" y="331.36" width="31.78" height="47.33" transform="translate(864.94 -577.38) rotate(90)"/><rect class="cls-1" x="615.66" y="373.92" width="93.97" height="51.99" transform="translate(842.96 -465.62) rotate(90)"/><rect class="cls-1" x="533.43" y="324.11" width="37.96" height="183.51" transform="translate(748.68 -339.44) rotate(90)"/><rect class="cls-1" x="539.98" y="445.25" width="94.31" height="29.01" transform="translate(827.29 -330.28) rotate(90)"/><rect class="cls-1" x="543.22" y="460.37" width="19.97" height="73.11" transform="translate(830.53 -259.18) rotate(90)"/><rect class="cls-1" x="483.03" y="529.34" width="99.24" height="31.99" transform="translate(858.38 -190.2) rotate(90)"/><rect class="cls-1" x="442.24" y="362.35" width="76.82" height="39.99" transform="translate(643.39 -301.2) rotate(90)"/><rect class="cls-1" x="409.66" y="303.94" width="30.99" height="110.98" transform="translate(564.99 -268.62) rotate(90)"/><rect class="cls-1" x="385" y="347.31" width="28.31" height="58.97" transform="translate(556.35 -225.25) rotate(90)"/><rect class="cls-1" x="347.73" y="402.14" width="85.82" height="28" transform="translate(587.18 -177.4) rotate(90)"/><rect class="cls-1" x="343.34" y="476.24" width="139.62" height="73" transform="translate(706.29 -103.3) rotate(90)"/><rect class="cls-1" x="407.67" y="547.92" width="89.99" height="64.02" transform="translate(812.99 -75.63) rotate(90)"/><rect class="cls-1" x="476.96" y="536.7" width="53.96" height="50.43" transform="translate(846.25 -144.93) rotate(90)"/><rect class="cls-1" x="431.39" y="608.68" width="139.52" height="24.97" transform="translate(902.71 -82.88) rotate(90)"/><rect class="cls-1" x="490.16" y="593.51" width="71.06" height="45.91" transform="translate(922.55 -112.12) rotate(90)"/><rect class="cls-1" x="536.93" y="643.31" width="11.02" height="7.89" transform="translate(970.09 -98.08) rotate(90)"/><rect class="cls-1" x="545.23" y="607.3" width="32.01" height="63.27" transform="translate(980.56 -125.19) rotate(90)"/><rect class="cls-1" x="560.14" y="595.43" width="64.01" height="55" transform="translate(995.48 -172.11) rotate(90)"/><rect class="cls-1" x="596.75" y="602.26" width="32.01" height="73.35" transform="translate(1032.09 -176.71) rotate(90)"/><rect class="cls-1" x="295.81" y="472.75" width="55.02" height="205.34" transform="translate(679.15 49.21) rotate(90)"/><rect class="cls-1" x="160.11" y="444.46" width="184.07" height="62.99" transform="translate(508.5 20.91) rotate(90)"/><rect class="cls-1" x="231.14" y="479.38" width="104.98" height="32.09" transform="translate(559.45 8.9) rotate(90)"/><rect class="cls-1" x="303.54" y="391.54" width="67.98" height="170.77" transform="translate(594.85 -63.5) rotate(90)"/><rect class="cls-1" x="237.15" y="683.42" width="103.99" height="70.99" transform="translate(788.46 226.88) rotate(90)"/><rect class="cls-1" x="224.48" y="622.57" width="104.36" height="46.03" transform="translate(702.64 166.03) rotate(90)"/><rect class="cls-1" x="327.24" y="648.53" width="72.02" height="108.81" transform="translate(846.58 136.79) rotate(90)"/><rect class="cls-1" x="366.28" y="714.31" width="61.75" height="30.95" transform="translate(907.34 129.74) rotate(90)"/><rect class="cls-1" x="1015.54" y="759.03" width="17.97" height="23.73" transform="translate(1575.82 -456.53) rotate(90)"/><rect class="cls-1" x="976.14" y="739.43" width="31.99" height="63" transform="translate(1543.46 -424.1) rotate(90)"/><rect class="cls-1" x="944.63" y="786.93" width="64" height="32" transform="translate(1559.97 -376.6) rotate(90)"/><rect class="cls-1" x="866.15" y="724.44" width="32.99" height="187.99" transform="translate(1481.48 -267.1) rotate(90)"/><rect class="cls-1" x="761.55" y="768.02" width="78.18" height="23.99" transform="translate(1361.07 -223.52) rotate(90)"/><rect class="cls-1" x="701.9" y="690.74" width="31.98" height="160.38" transform="translate(1269.21 -149.85) rotate(90)"/><polygon class="cls-1" points="461.07 891 436.05 886.02 418.07 886.02 403.08 887.99 397.11 887.99 397.11 884.94 400.1 872.6 465.69 866.53 471.22 887.99 471.22 891 461.07 891"/><path class="cls-1" d="M548.64,654.94l-35,36h-8.82l6.07-50.39s32.56,3,33.17,3,14.36,5.87,14.36,5.87v5.51Z" transform="translate(-219.6 -202.89)"/><polygon class="cls-1" points="433.11 360.98 453.04 380.2 470.18 380.2 469.47 354.92 433.11 356.84 433.11 360.98"/><rect class="cls-1" x="598.93" y="265.21" width="151.34" height="64.1" transform="translate(752.26 -580.23) rotate(90)"/><polygon class="cls-1" points="469.04 191.06 487.05 170.04 487.05 168.02 464.98 167.94 466.06 190.32 469.04 193.69 469.04 191.06"/><rect class="cls-1" x="973.29" y="332.3" width="47.73" height="25.08" transform="translate(1122.4 -855.21) rotate(90)"/><polygon class="cls-1" points="758.04 177.19 747 190.03 747 202.82 759.69 198.07 765.56 186.04 764.14 176.74 758.04 177.19"/><polygon class="cls-1" points="928.1 380.04 866.05 336.04 880.7 302.53 943.03 314.94 941.11 380.04 928.1 380.04"/><path class="cls-1" d="M921.65,470.89l12,24.15,6.34.34-.54-33.5s-19,3.23-18.88,3.43S921.65,470.89,921.65,470.89Z" transform="translate(-219.6 -202.89)"/><polygon class="cls-1" points="688.03 284.21 662.04 333.61 649.13 335.5 651.42 277.12 688.97 277.79 688.03 284.21"/><path class="cls-1" d="M897.63,573.91l-11.93,23-9-.4s-1.68-28.86-1.28-28.93,17.66-1.48,17.66-1.48l4.5,4Z" transform="translate(-219.6 -202.89)"/><path class="cls-1" d="M843.65,703.92l-24-25s4.94-8.75,5.35-8.82,30.47-3.37,30.67-2.56-5.39,36.36-5.39,36.36Z" transform="translate(-219.6 -202.89)"/><polygon class="cls-1" points="777.04 520.04 808.99 488.03 804.24 480.31 761.04 486.98 768.39 520.04 777.04 520.04"/><rect class="cls-1" x="493.81" y="792.04" width="47.98" height="5.76" transform="translate(1093.12 74.22) rotate(90)"/><rect class="cls-1" x="505.9" y="768.69" width="62.98" height="37.47" transform="translate(1105.21 47.14) rotate(90)"/><rect class="cls-1" x="729.05" y="400.03" width="37.92" height="21.42"/><rect class="cls-1" x="859.3" y="409.02" width="20.73" height="140.26"/><polygon class="cls-1" points="171.05 400.04 193.05 422.03 204.47 422.03 203.81 394.25 167.61 394.96 168.93 400.04 171.05 400.04"/></g><g id="Body_merge" data-name="Body merge"><path class="cls-2" d="M1162.63,551.94v-120h4v-33h-58v-36h-93v-15h-5.95v-9h42.94v-55h-191v55h-130v.2h-17V203.94h-78v193h-136v-53h-131v47h7v52h-93v-59h-63v219h33v168h71v-32h57.05v16h-25v200h83v26h140v-8h18v14h-4v100.85h23v3.05h6l15-2h18l25,5h42v-118h170v-76h191v-106h47v-55h-31v-127h-62v33h-25v-106h73l62,44h19v-31Zm-214,87H885.7v-42l11.93-23v-31h-16v-6.43l26-49.4h10V470.89h4l12,24.15v75.88h47v32h-32v36Zm-48.71-268h24.69v-53h8v21h52v9h-7v32.15l-11,12.85h-6.94v43h-39v11h-3.05v-57h-101v-19h83.31Zm-211.3,76V394l18-21v-2h86v84h36v56h-72v57h-17v-29H652.71v25l19.92,19.21V595h4v4h-48v24h-9v-32h-55v32h-16v-116h53V434.84h35V446.9ZM428.64,391v-16h32v59.91h112v52.1h-56v48h-67v-92h-45V391Zm-52,120v37h-77v-37Zm36,228h5v-72h-118v-64h91l22,22h72v-36h4v102h25l35-36h80v52h-20v80h-8v-31h-82v15h-2v-15h-48v63h0v20h-16v-84h-40Zm474.91,111H817.7v85h-95v-23h-20v27h-200v-47h-50v-25h64v-48h31v33h53v-33h8v24h95v-56h85v48h204v-48h31v-7h5V803h-16v47H887.54Zm150.1-159h7v48h-16v23h-5v-7h-63v47h-148v-61h-24v14h-85v-49h4v-96h-9v-11h-1.93v-4h96.94v-56h55.21v4H819.63v136l24,25h64v-32h41v51h48l31.95-32Zm-21-248v-55h69v55Z" transform="translate(-219.6 -202.89)"/></g><g id="Bombsite"><polygon class="cls-3" points="216.08 321.04 216.08 308.52 216.08 293.63 216.08 239.84 130.15 239.84 97.05 239.84 81.03 239.84 81.03 261.04 97.05 261.04 97.05 308.52 157.05 308.52 157.05 321.04 216.08 321.04"/><polygon class="cls-3" points="947.07 348.61 943.2 348.61 943.2 336.71 943.2 332.7 943.2 261.95 943.2 239.8 943.2 229.32 947.15 229.32 947.15 195.87 890.07 195.87 890.07 195.04 865.67 195.04 865.67 195.87 865.67 200.33 865.67 225.61 865.67 229.32 865.67 239.8 839.07 239.8 839.07 336.71 859.67 336.71 865.62 336.71 926.55 380.03 947.07 380.03 947.07 348.61"/><rect class="cls-2" x="1098.06" y="484.29" width="30.13" height="14.16" transform="translate(1384.9 -824.65) rotate(90)"/><rect class="cls-2" x="1069.09" y="442.35" width="16" height="16" transform="translate(1307.84 -829.63) rotate(90)"/><rect class="cls-2" x="421.6" y="475.8" width="14.06" height="15.17" transform="translate(692.41 -148.14) rotate(90)"/><rect class="cls-2" x="332.61" y="495.82" width="16.04" height="15.17" transform="translate(624.43 -40.12) rotate(90)"/></g><g id="Lines"><path class="cls-4" d="M843.57,456v14h-14V456h14m1-1h-16v16h16V455Z" transform="translate(-219.6 -202.89)"/><path class="cls-4" d="M842.58,470.91v8h-13v-8h13m1-1h-15v10h15v-10Z" transform="translate(-219.6 -202.89)"/><path class="cls-4" d="M839.63,595.94v14h-20v-14h20m1-1h-22v16h22v-16Z" transform="translate(-219.6 -202.89)"/><path class="cls-4" d="M827.63,587.93V594h-8v-6.05h8m1-1h-10V595h10v-8.05Z" transform="translate(-219.6 -202.89)"/><path class="cls-4" d="M963.65,499.92v14h-15v-14h15m1-1h-17v16h17v-16Z" transform="translate(-219.6 -202.89)"/><path class="cls-4" d="M1084.65,442.91v14.95h-15V442.91h15m1-1h-17v16.95h17V441.91Z" transform="translate(-219.6 -202.89)"/><path class="cls-4" d="M1119.66,476.9v29h-13v-29h13m1-1h-15v31h15v-31Z" transform="translate(-219.6 -202.89)"/><path class="cls-4" d="M963.66,603V633.9h-15V603h15m1-1h-17V634.9h17V602Z" transform="translate(-219.6 -202.89)"/><path class="cls-4" d="M1083.68,794.92v24h-14v-24h14m1-1h-16v26h16v-26Z" transform="translate(-219.6 -202.89)"/><path class="cls-4" d="M1083.68,794.92v15h-14v-15h14m1-1h-16v17h16v-17Z" transform="translate(-219.6 -202.89)"/><path class="cls-4" d="M1083.67,836.92v35h-7v-35h7m1-1h-9v37h9v-37Z" transform="translate(-219.6 -202.89)"/><path class="cls-4" d="M1083.66,890.93v8h-14v-8h14m1-1h-16v10h16v-10Z" transform="translate(-219.6 -202.89)"/><path class="cls-4" d="M867.63,849.91v16h-30v-16h30m1-1h-32v18h32v-18Z" transform="translate(-219.6 -202.89)"/><path class="cls-4" d="M852.63,849.91v16h-15v-16h15m1-1h-17v18h17v-18Z" transform="translate(-219.6 -202.89)"/><path class="cls-4" d="M452.66,875.93v15h-16v-15h16m1-1h-18v17h18v-17Z" transform="translate(-219.6 -202.89)"/><path class="cls-4" d="M438.65,940.92v14h-20v-14h20m1-1h-22v16h22v-16Z" transform="translate(-219.6 -202.89)"/><path class="cls-4" d="M385.64,939v1.87l.9.09,31.06,3.21V955h-61V939h29m1-1h-31v18h63V943.24l-32-3.31v-2Z" transform="translate(-219.6 -202.89)"/><path class="cls-4" d="M380.68,754.91v56H356.61v-56h24.07m1-1H355.61v58h26.07v-58Z" transform="translate(-219.6 -202.89)"/><path class="cls-4" d="M387.63,802.92v8h-5.05v-8h5.05m1-1h-7.05v10h7.05v-10Z" transform="translate(-219.6 -202.89)"/><path class="cls-4" d="M792.66,569.93V576h-8v-6.11h8m1-1h-10V577h10v-8.11Z" transform="translate(-219.6 -202.89)"/><path class="cls-4" d="M792.66,577.94v16h-9v-16h9m1-1h-11v18h11v-18Z" transform="translate(-219.6 -202.89)"/><path class="cls-4" d="M706.67,655.89v14h-15v-14h15m1-1h-17v16h17v-16Z" transform="translate(-219.6 -202.89)"/><path class="cls-4" d="M703.67,740.93v13h-30v-13h30m1-1h-32v15h32v-15Z" transform="translate(-219.6 -202.89)"/><path class="cls-4" d="M623.75,827.56v15.37H609.56V827.56h14.19m1-1H608.56v17.37h16.19V826.56Z" transform="translate(-219.6 -202.89)"/><path class="cls-4" d="M628.06,837.29a2.31,2.31,0,1,1-2.31,2.31,2.31,2.31,0,0,1,2.31-2.31m0-1a3.31,3.31,0,1,0,3.3,3.31,3.31,3.31,0,0,0-3.3-3.31Z" transform="translate(-219.6 -202.89)"/><path class="cls-4" d="M599.65,755.9v14h-14v-14h14m1-1h-16v16h16v-16Z" transform="translate(-219.6 -202.89)"/><path class="cls-4" d="M476.63,755.87v82.06h-8V755.87h8m1-1h-10v84.06h10V754.87Z" transform="translate(-219.6 -202.89)"/><path class="cls-4" d="M372.63,666.9v16h-15v-16h15m1-1h-17v18h17v-18Z" transform="translate(-219.6 -202.89)"/><path class="cls-4" d="M378.4,668a3.81,3.81,0,1,1-3.8,3.81,3.81,3.81,0,0,1,3.8-3.81m0-1a4.81,4.81,0,1,0,4.8,4.81,4.8,4.8,0,0,0-4.8-4.81Z" transform="translate(-219.6 -202.89)"/><path class="cls-4" d="M290.64,767.93v3h-21v-3h21m1-1h-23v5h23v-5Z" transform="translate(-219.6 -202.89)"/><path class="cls-4" d="M268.67,755.93v15h-15v-15h15m1-1h-17v17h17v-17Z" transform="translate(-219.6 -202.89)"/><path class="cls-4" d="M256.06,751.1a1.42,1.42,0,1,1-1.41,1.41,1.41,1.41,0,0,1,1.41-1.41m0-1a2.42,2.42,0,1,0,2.42,2.41,2.41,2.41,0,0,0-2.42-2.41Z" transform="translate(-219.6 -202.89)"/><path class="cls-4" d="M267.63,651.94v15h-14v-15h14m1-1h-16v17h16v-17Z" transform="translate(-219.6 -202.89)"/><path class="cls-4" d="M252.65,587.93v15H237.71v-15h14.94m1-1H236.71v17h16.94v-17Z" transform="translate(-219.6 -202.89)"/><path class="cls-4" d="M236.65,566.93v36h-16v-36h16m1-1h-18v38h18v-38Z" transform="translate(-219.6 -202.89)"/><path class="cls-4" d="M236.65,566.93v20h-16v-20h16m1-1h-18v22h18v-22Z" transform="translate(-219.6 -202.89)"/><path class="cls-4" d="M260.62,482.92v16h-40v-16h40m1-1h-42v18h42v-18Z" transform="translate(-219.6 -202.89)"/><path class="cls-4" d="M283.65,383.9v14h-15v-14h15m1-1h-17v16h17v-16Z" transform="translate(-219.6 -202.89)"/><path class="cls-4" d="M283.65,398.9v8h-8v-8h8m1-1h-10v10h10v-10Z" transform="translate(-219.6 -202.89)"/><path class="cls-4" d="M347.65,495.94v15h-14v-15h14m1-1h-16v17h16v-17Z" transform="translate(-219.6 -202.89)"/><path class="cls-4" d="M375.65,547.89v15H360.71v-15h14.94m1-1H359.71v17h16.94v-17Z" transform="translate(-219.6 -202.89)"/><path class="cls-4" d="M435.66,476.9v13h-14v-13h14m1-1h-16v15h16v-15Z" transform="translate(-219.6 -202.89)"/><path class="cls-4" d="M475.63,419.94v14h-14v-14h14m1-1h-16v16h16v-16Z" transform="translate(-219.6 -202.89)"/><path class="cls-4" d="M548.65,578.93v14.94h-15V578.93h15m1-1h-17v16.94h17V577.93Z" transform="translate(-219.6 -202.89)"/><polygon class="cls-4" points="729.04 311.03 729.04 232.28 728.04 232.28 728.04 311.03 713.38 311.03 713.38 312.03 728.04 312.03 729.04 312.03 730.44 312.03 730.44 311.03 729.04 311.03"/><rect class="cls-4" x="895.84" y="660.74" width="1" height="23.39" transform="translate(1349.17 -426.8) rotate(90)"/><rect class="cls-4" x="779.73" y="524.29" width="28.8" height="1.01" transform="translate(1099.34 -472.23) rotate(90)"/><rect class="cls-4" x="742.36" y="580.92" width="27.58" height="1.03" transform="translate(1117.99 -377.62) rotate(90)"/><polygon class="cls-4" points="455.04 503.97 488.07 503.97 488.07 503.04 455.04 503.04 455.04 452.04 454.04 452.04 454.04 504.04 455.04 504.04 455.04 503.97"/><rect class="cls-4" x="976.28" y="770.53" width="33.71" height="1" transform="translate(1544.57 -425) rotate(90)"/><polygon class="cls-4" points="230.04 361.04 232.05 361.04 232.48 361.04 233.04 361.04 233.04 349.03 265.07 349.03 265.07 387.24 266.07 387.24 266.07 349.03 266.07 348.46 266.07 348.04 232.05 348.04 232.05 348.54 232.05 349.03 232.05 360.04 217.06 360.04 217.06 239.16 216.08 239.16 216.08 360.04 216.08 361.04 217.06 361.04 229.04 361.04 229.04 400.04 170.38 400.04 170.38 401.03 229.04 401.03 229.36 401.03 230.04 401.03 230.04 361.04"/><path class="cls-4" d="M703.66,706.93v7h-7v-7h7m1-1h-9v9h9v-9Z" transform="translate(-219.6 -202.89)"/><rect class="cls-4" x="865.04" y="408.41" width="0.99" height="127.62"/></g><g id="Outlines"><path class="cls-5" d="M714.65,203.94v135.2h17v-.2h130v-55h191v55H1009.7v9h5.95v15h93v36h58v33h-4v120h4v31h-19l-62-44h-73v106h25v-33h62v127h31v55h-47v106h-191v76h-170v118h-42l-25-5h-18l-15,2h-6v-3.05h-23V987h4V973h-18v8h-140v-26h-83v-200h25v-16H324.63v32h-71v-168h-33v-219h63v59h93V391h-7v-47h131v53h136V203.94h78m102,186h101v57h3.05v-11h39v-43h6.94l11-12.85V347.93h7v-9h-52v-21h-8v53h-108v19m-180,57V434.84h-35v72.07h-53v116h16v-32h55v32h9v-24h48v-4h-4V583.09l-19.92-19.21v-25h86.92v29h17v-57h72v-56h-36v-84h-86v2l-18,21V446.9h-52m-232-4h45v92h67v-48h56v-52.1h-112V374.93h-32v16h-24v52m612,0h69v-55h-69v55m-135,100h16v31l-11.93,23v42h62.95v-36h32v-32h-47V495l-12-24.15h-4v16.22h-10l-26,49.4v6.43m-582,5h77v-37h-77v37m397,51h1.93v11h9v96h-4v49h85v-14h24v61h148v-47h63v7h5v-23h16v-48h-16.06l-31.95,32h-48v-51h-41v32h-64l-24-25v-136h29.21v-4H793.63v56H696.69v4m-284,26-22-22h-91v64h118v72h-5v16h40v84h16v-20h0v-63h48v15h2v-15h82v31h8v-80h20v-52h-80l-35,36h-25v-102h-4v36h-72m376,210v-48h-85v56h-95v-24h-8v33h-53v-33h-31v48h-64v25h50v47h200v-27h20v23h95v-85h195V803h16V779.88h-5v7h-31v48h-204m-72.95-632H635.6v193H501.7v-53H368.62V392h7v49.87h-90.9v-59H219.6V604h33V772h73.08V740h54.95v13.9h-25V956h83v26H580.69v-8H596.6v11.92h-4v103h23v3h7.16l14.92-2h17.8l24.93,5,.1,0h43.15V977h170V901h191V795h47v-57.1h-31v-127h-64.09v33h-22.9V540h71.62l61.78,43.81.27.2h20.34v-33.1h-4V433h4V397.89h-58v-36h-93v-15h-6V340h42.94v-57.1H860.6v55h-130v.2H715.7V202.89ZM925.68,319h5.91v21h52v6.9h-7V379.7l-10.47,12.18h-7.51v43h-39v11h-.95v-57h-101V372h108V319Zm-218,53h83.88v84h36v53.92h-72v57H740.68v-29h-89v26.45l.32.31,19.6,18.91V596h4v1.86h-48v24h-6.9v-32H563.6v32H549.69V508h53V435.89h32.9V448h54.09V394.34l17.76-20.72.25-.3V372Zm-278,4H459.6v59.91h112v50h-56v48H450.69v-92h-45V392h24V376Zm588,13h66.89v52.91h-66.89V389Zm-99,83H921l11.6,23.35V572h47v29.91h-32v36H886.75V597.17l11.82-22.77.11-.23V541.89h-16v-5.12l25.57-48.61h10.43V471.94Zm-618,40H375.6v34.91H300.72V512Zm494,28h53.11v1.92H818.58V679.36l.3.31,24,25,.31.33h65.51V673H947.6v51h49.48l.31-.31L1029,692h14.57v45.9h-16v23h-2.94v-7h-65.1v47H813.69v-61H787.6v14H704.68V707h4V608.89h-9v-11h-1.93V596h96.94V540Zm-309,50h1.9V692h26.46l.31-.31L549.08,656H627.6v49.89h-20v80h-5.93v-31H467.59V820h0v17.92h-13.9v-84h-40V740h5V665.87h-118V604h89.5l21.68,21.67.31.31h73.51v-36Zm539,191h2.94v21h-16v47h-195v85H723.72v-23H701.59v27H503.69v-47h-50V868h64V820h28.9v33h55.08V820h5.93v24h97.07V788H787.6v48H993.69V788h31v-7.05Z" transform="translate(-219.6 -202.89)"/></g><g id="Callouts_copy" data-name="Callouts copy"><path class="cls-6" d="M610.07,1065.53a1.85,1.85,0,0,1,.13-.61l2.5-6.81a1.51,1.51,0,0,1,2.9,0l2.52,6.81a1.68,1.68,0,0,1,.12.61.89.89,0,0,1-1,.9c-.54,0-.83-.24-1-.84l-.48-1.45h-3.31l-.48,1.43c-.18.61-.46.86-1,.86A.87.87,0,0,1,610.07,1065.53Zm5.29-2.87-1.22-3.75h0l-1.19,3.75Z" transform="translate(-219.6 -202.89)"/><path class="cls-6" d="M619.29,1060.91h-.35a.7.7,0,1,1,0-1.4h.35v-.76a.93.93,0,1,1,1.86,0v.76h.65a.7.7,0,1,1,0,1.4h-.65v3.25c0,.48.16.69.56.72h.12c.46,0,.71.24.71.68s-.54.82-1.32.82h-.06a1.64,1.64,0,0,1-1.87-1.81Z" transform="translate(-219.6 -202.89)"/><path class="cls-6" d="M623.91,1060.91h-.35a.7.7,0,1,1,0-1.4h.35v-.76a.93.93,0,1,1,1.86,0v.76h.65a.7.7,0,1,1,0,1.4h-.65v3.25c0,.48.16.69.56.72h.12c.46,0,.71.24.71.68s-.54.82-1.32.82h-.06a1.64,1.64,0,0,1-1.87-1.81Z" transform="translate(-219.6 -202.89)"/><path class="cls-6" d="M627.71,1064.36c0-1.24.95-2,2.65-2.06l1.72-.1v-.45c0-.63-.45-1-1.15-1a1.5,1.5,0,0,0-1.32.71.92.92,0,0,1-.73.35.72.72,0,0,1-.78-.71.9.9,0,0,1,.1-.42c.32-.81,1.41-1.32,2.82-1.32,1.74,0,2.88.9,2.88,2.28v3.87a.85.85,0,0,1-.9.94.82.82,0,0,1-.89-.83v-.35h0a2.34,2.34,0,0,1-2.08,1.15A2.1,2.1,0,0,1,627.71,1064.36Zm4.37-.54v-.5l-1.44.09c-.69,0-1.08.37-1.08.85s.42.82,1,.82A1.36,1.36,0,0,0,632.08,1063.82Z" transform="translate(-219.6 -202.89)"/><path class="cls-6" d="M634.84,1062.91a3.22,3.22,0,0,1,3.34-3.55,3,3,0,0,1,2.87,1.63,1.16,1.16,0,0,1,.1.46.72.72,0,0,1-.79.72.82.82,0,0,1-.78-.48,1.45,1.45,0,0,0-1.34-.87c-.94,0-1.52.77-1.52,2.09s.58,2.1,1.51,2.1a1.47,1.47,0,0,0,1.33-.8c.25-.39.45-.55.84-.55a.74.74,0,0,1,.79.74,1.12,1.12,0,0,1-.13.49,3.08,3.08,0,0,1-2.86,1.57A3.21,3.21,0,0,1,634.84,1062.91Z" transform="translate(-219.6 -202.89)"/><path class="cls-6" d="M642.22,1065.48V1058a.93.93,0,1,1,1.85,0v4.22h0l2.46-2.47a1,1,0,0,1,.74-.37.8.8,0,0,1,.82.81.81.81,0,0,1-.35.69l-1.73,1.64,1.9,2.42a1,1,0,0,1,.26.68.82.82,0,0,1-.88.84c-.4,0-.62-.14-.91-.58l-1.75-2.31-.59.55v1.37a.93.93,0,1,1-1.85,0Z" transform="translate(-219.6 -202.89)"/><path class="cls-6" d="M648.61,1062.94c0-2.19,1.27-3.58,3.28-3.58a3.06,3.06,0,0,1,3.23,3.17.74.74,0,0,1-.81.81h-3.88v.08a1.51,1.51,0,0,0,1.55,1.67,1.92,1.92,0,0,0,1.62-.82.76.76,0,0,1,.6-.27.68.68,0,0,1,.73.68,1,1,0,0,1-.13.45,3.07,3.07,0,0,1-2.82,1.33C649.86,1066.46,648.61,1065.15,648.61,1062.94Zm4.72-.74a1.4,1.4,0,0,0-1.42-1.47,1.46,1.46,0,0,0-1.46,1.47Z" transform="translate(-219.6 -202.89)"/><path class="cls-6" d="M656.07,1065.48v-5.18a.85.85,0,0,1,.9-.93.84.84,0,0,1,.87.93v.45h0a1.5,1.5,0,0,1,1.41-1.35.89.89,0,0,1,.58.17.82.82,0,0,1,.27.69.81.81,0,0,1-.27.66,1.21,1.21,0,0,1-.8.25c-.85,0-1.15.49-1.15,1.29v3a.93.93,0,1,1-1.85,0Z" transform="translate(-219.6 -202.89)"/><path class="cls-6" d="M663.41,1064.71a1.34,1.34,0,0,1-.1-.52.8.8,0,0,1,.84-.84.92.92,0,0,1,.88.56,1.89,1.89,0,0,0,1.89,1c1,0,1.73-.49,1.73-1.16s-.43-1-1.58-1.18l-1-.2c-1.83-.36-2.72-1.23-2.72-2.6,0-1.67,1.46-2.78,3.49-2.78,1.68,0,2.94.7,3.35,1.89a1.38,1.38,0,0,1,.07.43.75.75,0,0,1-.82.77.93.93,0,0,1-.91-.57,1.67,1.67,0,0,0-1.69-1c-.94,0-1.57.45-1.57,1.12s.44.92,1.52,1.13l1,.2c1.94.39,2.78,1.17,2.78,2.56,0,1.79-1.4,2.92-3.69,2.92C665,1066.47,663.78,1065.71,663.41,1064.71Z" transform="translate(-219.6 -202.89)"/><path class="cls-6" d="M671.58,1067.77v-7.45a.86.86,0,0,1,.91-1,.87.87,0,0,1,.92,1v.37h0a2.23,2.23,0,0,1,2.11-1.3c1.73,0,2.79,1.32,2.79,3.51s-1.06,3.51-2.76,3.51a2.22,2.22,0,0,1-2.11-1.25h0v2.6a.93.93,0,1,1-1.85,0Zm4.86-4.86c0-1.23-.58-2-1.51-2s-1.51.8-1.51,2,.6,2,1.51,2S676.44,1064.15,676.44,1062.91Z" transform="translate(-219.6 -202.89)"/><path class="cls-6" d="M679,1064.36c0-1.24,1-2,2.66-2.06l1.71-.1v-.45c0-.63-.44-1-1.14-1a1.48,1.48,0,0,0-1.32.71,1,1,0,0,1-.74.35.71.71,0,0,1-.77-.71,1,1,0,0,1,.09-.42c.32-.81,1.41-1.32,2.82-1.32,1.75,0,2.88.9,2.88,2.28v3.87a.85.85,0,0,1-.9.94.82.82,0,0,1-.89-.83v-.35h0a2.34,2.34,0,0,1-2.08,1.15A2.11,2.11,0,0,1,679,1064.36Zm4.37-.54v-.5l-1.43.09c-.7,0-1.09.37-1.09.85s.42.82,1,.82A1.36,1.36,0,0,0,683.39,1063.82Z" transform="translate(-219.6 -202.89)"/><path class="cls-6" d="M687.48,1065.48l-1.37-4.75a1.9,1.9,0,0,1-.1-.57.82.82,0,0,1,.9-.79.86.86,0,0,1,.87.79l1,4.4h0l1.06-4.34a1.06,1.06,0,0,1,2.08,0l1.06,4.34h0l1-4.42a.85.85,0,0,1,.86-.77.8.8,0,0,1,.88.79,2.29,2.29,0,0,1-.1.56l-1.38,4.75a1.13,1.13,0,0,1-1.18,1,1.09,1.09,0,0,1-1.2-1l-1-4h0l-1,4a1.1,1.1,0,0,1-1.19,1A1.12,1.12,0,0,1,687.48,1065.48Z" transform="translate(-219.6 -202.89)"/><path class="cls-6" d="M696.64,1065.48v-5.18a.85.85,0,0,1,.9-.93.87.87,0,0,1,.93.94v.38h0a2.1,2.1,0,0,1,2.1-1.31,2.24,2.24,0,0,1,2.36,2.55v3.55a.93.93,0,1,1-1.85,0v-3.16c0-.89-.42-1.4-1.25-1.4a1.34,1.34,0,0,0-1.36,1.49v3.07a.93.93,0,1,1-1.86,0Z" transform="translate(-219.6 -202.89)"/><path class="cls-7" d="M301.22,709v-5.51a.69.69,0,0,1,.74-.77h2.33c1.32,0,2.15.68,2.15,1.76a1.56,1.56,0,0,1-1.32,1.53v0a1.71,1.71,0,0,1,1.66,1.7c0,1.24-.94,2-2.44,2H302A.69.69,0,0,1,301.22,709Zm2.53-3.35c.79,0,1.24-.34,1.24-.94s-.4-.89-1.08-.89H302.7v1.83Zm.21,3c.85,0,1.31-.36,1.31-1s-.47-1-1.34-1H302.7v2Z" transform="translate(-219.6 -202.89)"/><path class="cls-7" d="M309.59,709.21v-5.59a.88.88,0,0,1,1-1,1,1,0,0,1,1,.76l1.75,4.33h0l1.75-4.33a1,1,0,0,1,1-.76.87.87,0,0,1,.95,1v5.59a.66.66,0,1,1-1.32,0v-4.16h0L314,709.32a.63.63,0,0,1-.63.45.64.64,0,0,1-.64-.45L311,705.05h0v4.16a.66.66,0,1,1-1.32,0Z" transform="translate(-219.6 -202.89)"/><path class="cls-7" d="M317.79,708.31c0-1,.74-1.51,2-1.59l1.32-.07v-.35c0-.49-.34-.77-.88-.77a1.14,1.14,0,0,0-1,.55.75.75,0,0,1-.57.26.54.54,0,0,1-.59-.54.75.75,0,0,1,.07-.33c.24-.62,1.08-1,2.17-1,1.34,0,2.21.7,2.21,1.75v3a.64.64,0,0,1-.69.72.62.62,0,0,1-.68-.63V709h0a1.81,1.81,0,0,1-1.6.88A1.62,1.62,0,0,1,317.79,708.31Zm3.36-.42v-.38l-1.1.07c-.53,0-.84.28-.84.65s.33.63.8.63A1,1,0,0,0,321.15,707.89Z" transform="translate(-219.6 -202.89)"/><path class="cls-7" d="M323.45,703.19a.76.76,0,1,1,.76.74A.74.74,0,0,1,323.45,703.19Zm.05,6v-4a.71.71,0,1,1,1.42,0v4a.71.71,0,1,1-1.42,0Z" transform="translate(-219.6 -202.89)"/><path class="cls-7" d="M325.87,709.17v-4a.65.65,0,0,1,.69-.72.66.66,0,0,1,.71.72v.29h0a1.6,1.6,0,0,1,1.61-1,1.73,1.73,0,0,1,1.82,2v2.73a.67.67,0,0,1-.72.74.67.67,0,0,1-.71-.74v-2.44c0-.68-.32-1.07-1-1.07a1,1,0,0,0-1,1.15v2.36a.71.71,0,1,1-1.42,0Z" transform="translate(-219.6 -202.89)"/><path class="cls-7" d="M519.24,794.32v-5.59a.87.87,0,0,1,1-1,1,1,0,0,1,1,.76l1.74,4.33h0l1.75-4.33a1,1,0,0,1,1-.76.87.87,0,0,1,.94,1v5.59a.66.66,0,1,1-1.31,0v-4.16h0l-1.74,4.27a.63.63,0,0,1-.63.45.64.64,0,0,1-.64-.45l-1.74-4.27h0v4.16a.66.66,0,1,1-1.32,0Z" transform="translate(-219.6 -202.89)"/><path class="cls-7" d="M527.44,793.41c0-.95.73-1.5,2-1.58l1.32-.08v-.34c0-.49-.34-.77-.88-.77a1.13,1.13,0,0,0-1,.55.75.75,0,0,1-.57.26.55.55,0,0,1-.6-.55.76.76,0,0,1,.08-.32c.24-.62,1.08-1,2.17-1,1.34,0,2.21.7,2.21,1.75v3a.65.65,0,0,1-.69.72.62.62,0,0,1-.68-.63v-.27h0a1.83,1.83,0,0,1-1.61.88A1.62,1.62,0,0,1,527.44,793.41Zm3.36-.41v-.38l-1.1.07c-.53,0-.84.27-.84.65s.32.63.8.63A1,1,0,0,0,530.8,793Z" transform="translate(-219.6 -202.89)"/><path class="cls-7" d="M533.12,794.28v-4a.65.65,0,0,1,.69-.71.64.64,0,0,1,.67.71v.35h0a1.16,1.16,0,0,1,1.09-1,.59.59,0,0,1,.65.66.62.62,0,0,1-.21.51,1,1,0,0,1-.62.19c-.64,0-.87.37-.87,1v2.32a.72.72,0,1,1-1.43,0Z" transform="translate(-219.6 -202.89)"/><path class="cls-7" d="M536.79,794.28v-5.77a.72.72,0,1,1,1.43,0v3.25h0l1.89-1.9a.73.73,0,0,1,.57-.28.61.61,0,0,1,.63.62.63.63,0,0,1-.27.53L539.73,792l1.46,1.86a.77.77,0,0,1,.2.53.63.63,0,0,1-.68.64c-.3,0-.47-.11-.7-.44l-1.34-1.78-.45.42v1.06a.72.72,0,1,1-1.43,0Z" transform="translate(-219.6 -202.89)"/><path class="cls-7" d="M541.7,792.33a2.48,2.48,0,0,1,2.53-2.76,2.35,2.35,0,0,1,2.48,2.44.56.56,0,0,1-.62.62h-3v.06A1.16,1.16,0,0,0,544.3,794a1.5,1.5,0,0,0,1.25-.63.57.57,0,0,1,.46-.21.51.51,0,0,1,.56.52.81.81,0,0,1-.1.35,2.37,2.37,0,0,1-2.17,1A2.44,2.44,0,0,1,541.7,792.33Zm3.64-.58a1.07,1.07,0,0,0-1.09-1.12,1.13,1.13,0,0,0-1.13,1.12Z" transform="translate(-219.6 -202.89)"/><path class="cls-7" d="M547.83,790.76h-.28a.54.54,0,1,1,0-1.08h.28v-.58a.71.71,0,1,1,1.42,0v.58h.51a.54.54,0,1,1,0,1.08h-.51v2.5c0,.37.13.53.44.55h.09c.35,0,.54.19.54.52s-.41.64-1,.64h0a1.26,1.26,0,0,1-1.43-1.4Z" transform="translate(-219.6 -202.89)"/><path class="cls-7" d="M585.23,610.32v-5.6a.87.87,0,0,1,.95-1,1,1,0,0,1,1,.76l1.75,4.33h0l1.74-4.33a1,1,0,0,1,1-.76.87.87,0,0,1,1,1v5.6a.66.66,0,1,1-1.32,0v-4.16h0l-1.74,4.26a.63.63,0,0,1-.63.45.63.63,0,0,1-.64-.44l-1.74-4.27h0v4.16a.66.66,0,1,1-1.31,0Z" transform="translate(-219.6 -202.89)"/><path class="cls-7" d="M593.42,609.41c0-.95.74-1.5,2.05-1.58l1.31-.08v-.35c0-.48-.34-.77-.88-.77a1.13,1.13,0,0,0-1,.56.75.75,0,0,1-.57.26.55.55,0,0,1-.59-.55.74.74,0,0,1,.07-.32c.24-.63,1.08-1,2.17-1,1.34,0,2.22.69,2.22,1.75v3a.66.66,0,0,1-.7.72.63.63,0,0,1-.68-.64v-.27h0a1.81,1.81,0,0,1-1.6.89A1.63,1.63,0,0,1,593.42,609.41Zm3.36-.41v-.38l-1.1.06c-.53,0-.83.28-.83.65s.32.64.8.64A1,1,0,0,0,596.78,609Z" transform="translate(-219.6 -202.89)"/><path class="cls-7" d="M599.08,604.29a.76.76,0,0,1,1.52,0,.76.76,0,0,1-1.52,0Zm0,6v-4a.71.71,0,1,1,1.42,0v4a.71.71,0,1,1-1.42,0Z" transform="translate(-219.6 -202.89)"/><path class="cls-7" d="M601.53,610.28v-5.77a.68.68,0,0,1,.72-.75.67.67,0,0,1,.71.75v5.77a.67.67,0,0,1-.71.74A.68.68,0,0,1,601.53,610.28Z" transform="translate(-219.6 -202.89)"/><path class="cls-7" d="M501.74,565.43v-5.7a.74.74,0,1,1,1.47,0v2.19h3.18v-2.19a.74.74,0,1,1,1.47,0v5.7a.74.74,0,1,1-1.47,0v-2.3h-3.18v2.3a.74.74,0,1,1-1.47,0Z" transform="translate(-219.6 -202.89)"/><path class="cls-7" d="M508.72,563.51a2.47,2.47,0,0,1,2.53-2.76,2.35,2.35,0,0,1,2.48,2.44.56.56,0,0,1-.62.62h-3v.07a1.16,1.16,0,0,0,1.19,1.28,1.48,1.48,0,0,0,1.25-.63.57.57,0,0,1,.47-.21.51.51,0,0,1,.55.52.79.79,0,0,1-.09.35,2.37,2.37,0,0,1-2.17,1A2.43,2.43,0,0,1,508.72,563.51Zm3.64-.57a1.08,1.08,0,0,0-1.1-1.13,1.13,1.13,0,0,0-1.12,1.13Z" transform="translate(-219.6 -202.89)"/><path class="cls-7" d="M514.26,564.6c0-1,.73-1.51,2-1.58l1.32-.08v-.35c0-.49-.35-.77-.88-.77a1.15,1.15,0,0,0-1,.55.68.68,0,0,1-.56.26.55.55,0,0,1-.6-.54.71.71,0,0,1,.07-.32,2.21,2.21,0,0,1,2.17-1c1.34,0,2.22.7,2.22,1.75v3a.65.65,0,0,1-.7.71.63.63,0,0,1-.68-.63v-.27h0a1.8,1.8,0,0,1-1.6.88A1.61,1.61,0,0,1,514.26,564.6Zm3.36-.42v-.38l-1.11.07c-.53,0-.83.28-.83.65s.32.63.8.63A1,1,0,0,0,517.62,564.18Z" transform="translate(-219.6 -202.89)"/><path class="cls-7" d="M521.08,565.48l-1.36-3.66a1.12,1.12,0,0,1-.08-.42.65.65,0,0,1,.71-.64.66.66,0,0,1,.68.57l1.06,3.51h0l1.06-3.52a.66.66,0,0,1,.67-.56.65.65,0,0,1,.7.63,1.29,1.29,0,0,1-.08.4l-1.37,3.69a.94.94,0,0,1-1,.72A1,1,0,0,1,521.08,565.48Z" transform="translate(-219.6 -202.89)"/><path class="cls-7" d="M524.85,563.51a2.47,2.47,0,0,1,2.53-2.76,2.35,2.35,0,0,1,2.48,2.44.56.56,0,0,1-.62.62h-3v.07a1.17,1.17,0,0,0,1.2,1.28,1.5,1.5,0,0,0,1.25-.63.56.56,0,0,1,.46-.21.51.51,0,0,1,.56.52.81.81,0,0,1-.1.35,2.37,2.37,0,0,1-2.17,1A2.43,2.43,0,0,1,524.85,563.51Zm3.64-.57a1.08,1.08,0,0,0-1.09-1.13,1.13,1.13,0,0,0-1.13,1.13Z" transform="translate(-219.6 -202.89)"/><path class="cls-7" d="M530.6,565.46v-4a.64.64,0,0,1,.68-.72.67.67,0,0,1,.72.72v.3h0a1.59,1.59,0,0,1,1.61-1,1.72,1.72,0,0,1,1.81,2v2.73a.71.71,0,1,1-1.42,0V563c0-.69-.32-1.08-1-1.08A1,1,0,0,0,532,563.1v2.36a.71.71,0,1,1-1.42,0Z" transform="translate(-219.6 -202.89)"/><path class="cls-7" d="M688.92,569.69l-2-5.27a1.48,1.48,0,0,1-.07-.42.7.7,0,0,1,.78-.69.71.71,0,0,1,.75.58l1.65,5h0l1.65-5.06a.68.68,0,0,1,.73-.56.67.67,0,0,1,.75.67,1.09,1.09,0,0,1-.07.4l-2,5.31a1.09,1.09,0,0,1-1.13.85A1.08,1.08,0,0,1,688.92,569.69Z" transform="translate(-219.6 -202.89)"/><path class="cls-7" d="M693,567.86a2.47,2.47,0,0,1,2.53-2.76,2.35,2.35,0,0,1,2.48,2.44.56.56,0,0,1-.62.62h-3v.06a1.17,1.17,0,0,0,1.2,1.29,1.5,1.5,0,0,0,1.25-.63.56.56,0,0,1,.46-.21.51.51,0,0,1,.56.52.81.81,0,0,1-.1.35,2.37,2.37,0,0,1-2.17,1A2.44,2.44,0,0,1,693,567.86Zm3.64-.57a1.08,1.08,0,0,0-1.09-1.13,1.13,1.13,0,0,0-1.13,1.13Z" transform="translate(-219.6 -202.89)"/><path class="cls-7" d="M698.78,569.81v-4a.64.64,0,0,1,.68-.72.67.67,0,0,1,.72.72v.29h0a1.58,1.58,0,0,1,1.61-1,1.72,1.72,0,0,1,1.81,2v2.73a.71.71,0,1,1-1.42,0v-2.44c0-.68-.32-1.07-1-1.07a1,1,0,0,0-1,1.15v2.36a.71.71,0,1,1-1.42,0Z" transform="translate(-219.6 -202.89)"/><path class="cls-7" d="M704.92,566.29h-.28a.54.54,0,1,1,0-1.08h.28v-.58a.71.71,0,1,1,1.42,0v.58h.51a.54.54,0,0,1,0,1.08h-.51v2.5c0,.38.13.53.44.56h.09c.35,0,.54.18.54.51s-.41.64-1,.64h0a1.26,1.26,0,0,1-1.43-1.4Z" transform="translate(-219.6 -202.89)"/><path class="cls-7" d="M542.93,498.7a1.14,1.14,0,0,1-.08-.4.62.62,0,0,1,.65-.65.7.7,0,0,1,.68.43,1.45,1.45,0,0,0,1.46.78c.79,0,1.32-.38,1.32-.9s-.33-.72-1.21-.9l-.75-.15c-1.4-.28-2.09-1-2.09-2,0-1.29,1.12-2.15,2.69-2.15a2.5,2.5,0,0,1,2.57,1.46,1.09,1.09,0,0,1,.05.33.58.58,0,0,1-.63.59.73.73,0,0,1-.7-.43,1.27,1.27,0,0,0-1.29-.75c-.73,0-1.21.34-1.21.86s.33.7,1.17.86l.74.16c1.49.29,2.14.89,2.14,2,0,1.38-1.08,2.25-2.84,2.25C544.15,500.05,543.21,499.47,542.93,498.7Z" transform="translate(-219.6 -202.89)"/><path class="cls-7" d="M549.6,495.77h-.28a.54.54,0,1,1,0-1.07h.28v-.58a.71.71,0,1,1,1.42,0v.58h.5a.54.54,0,1,1,0,1.07H551v2.51c0,.37.13.52.44.55h.09c.35,0,.54.18.54.52s-.41.63-1,.63H551a1.25,1.25,0,0,1-1.43-1.4Z" transform="translate(-219.6 -202.89)"/><path class="cls-7" d="M552.52,498.43c0-.95.73-1.51,2-1.58l1.32-.08v-.35c0-.49-.35-.77-.88-.77a1.15,1.15,0,0,0-1,.55.72.72,0,0,1-.57.27.55.55,0,0,1-.59-.55.71.71,0,0,1,.07-.32,2.2,2.2,0,0,1,2.17-1c1.34,0,2.22.69,2.22,1.74v3a.66.66,0,0,1-.7.72.63.63,0,0,1-.68-.64v-.27h0a1.81,1.81,0,0,1-1.6.89A1.62,1.62,0,0,1,552.52,498.43Zm3.36-.42v-.38l-1.11.07c-.53,0-.83.28-.83.65s.32.64.8.64A1.06,1.06,0,0,0,555.88,498Z" transform="translate(-219.6 -202.89)"/><path class="cls-7" d="M558.17,493.31a.76.76,0,1,1,.76.74A.74.74,0,0,1,558.17,493.31Zm.05,6v-4a.67.67,0,0,1,.71-.75.68.68,0,0,1,.72.75v4a.68.68,0,0,1-.72.75A.67.67,0,0,1,558.22,499.29Z" transform="translate(-219.6 -202.89)"/><path class="cls-7" d="M560.59,499.29v-4a.65.65,0,0,1,.69-.72.64.64,0,0,1,.67.72v.34h0a1.15,1.15,0,0,1,1.09-1,.69.69,0,0,1,.45.13.63.63,0,0,1,.2.52.67.67,0,0,1-.2.52,1,1,0,0,1-.62.18c-.65,0-.88.38-.88,1v2.32a.67.67,0,0,1-.71.75A.68.68,0,0,1,560.59,499.29Z" transform="translate(-219.6 -202.89)"/><path class="cls-7" d="M564.11,499a.91.91,0,0,1-.05-.26.54.54,0,0,1,.58-.55.83.83,0,0,1,.62.32,1.25,1.25,0,0,0,1.14.53c.52,0,.85-.21.85-.56s-.18-.43-.69-.54l-.88-.19c-1-.22-1.54-.74-1.54-1.52,0-1,.86-1.64,2.22-1.64a2,2,0,0,1,2,1.08.76.76,0,0,1,0,.21.47.47,0,0,1-.54.49.69.69,0,0,1-.52-.22,1.23,1.23,0,0,0-1-.56c-.48,0-.82.23-.82.56s.21.46.73.57l.87.19c1.11.23,1.57.64,1.57,1.42,0,1-.93,1.71-2.32,1.71C565.16,500,564.36,499.62,564.11,499Z" transform="translate(-219.6 -202.89)"/><path class="cls-7" d="M443.59,617.94v-5.69a.74.74,0,1,1,1.47,0v2.18h3.17v-2.18a.74.74,0,1,1,1.48,0v5.69a.74.74,0,1,1-1.48,0v-2.29h-3.17v2.29a.74.74,0,1,1-1.47,0Z" transform="translate(-219.6 -202.89)"/><path class="cls-7" d="M450.57,616a2.47,2.47,0,0,1,2.53-2.75,2.35,2.35,0,0,1,2.48,2.44.57.57,0,0,1-.62.62h-3v.06a1.17,1.17,0,0,0,1.19,1.29,1.49,1.49,0,0,0,1.25-.63.57.57,0,0,1,.47-.21.51.51,0,0,1,.55.52.63.63,0,0,1-.1.34,2.33,2.33,0,0,1-2.16,1A2.43,2.43,0,0,1,450.57,616Zm3.64-.57a1.08,1.08,0,0,0-1.1-1.12,1.13,1.13,0,0,0-1.13,1.12Z" transform="translate(-219.6 -202.89)"/><path class="cls-7" d="M456.34,618v-5.77a.68.68,0,0,1,.72-.75.67.67,0,0,1,.71.75V618a.67.67,0,0,1-.71.74A.67.67,0,0,1,456.34,618Z" transform="translate(-219.6 -202.89)"/><path class="cls-7" d="M458.77,618v-5.77a.71.71,0,1,1,1.42,0V618a.71.71,0,1,1-1.42,0Z" transform="translate(-219.6 -202.89)"/><path class="cls-7" d="M313.93,558.81v-5.76a.67.67,0,0,1,.74-.74.85.85,0,0,1,.74.43l3,4.26h0v-4a.71.71,0,1,1,1.41,0v5.78a.65.65,0,0,1-.72.71.82.82,0,0,1-.74-.42l-3.05-4.28h-.05v4a.71.71,0,1,1-1.41,0Z" transform="translate(-219.6 -202.89)"/><path class="cls-7" d="M320.76,556.86a2.46,2.46,0,0,1,2.53-2.75,2.34,2.34,0,0,1,2.48,2.43.56.56,0,0,1-.62.62h-3v.07a1.16,1.16,0,0,0,1.19,1.28,1.48,1.48,0,0,0,1.25-.63.59.59,0,0,1,.47-.21.52.52,0,0,1,.56.52.81.81,0,0,1-.1.35,2.37,2.37,0,0,1-2.17,1A2.43,2.43,0,0,1,320.76,556.86Zm3.64-.57a1.08,1.08,0,0,0-1.09-1.13,1.13,1.13,0,0,0-1.13,1.13Z" transform="translate(-219.6 -202.89)"/><path class="cls-7" d="M327.33,558.81l-1.05-3.65a1.65,1.65,0,0,1-.08-.44.63.63,0,0,1,.69-.61.66.66,0,0,1,.67.61l.77,3.38h0l.81-3.34a.77.77,0,0,1,.81-.65.76.76,0,0,1,.8.65l.81,3.34h0l.78-3.39a.66.66,0,0,1,.66-.6.62.62,0,0,1,.68.61,1.65,1.65,0,0,1-.08.43l-1.06,3.65a.86.86,0,0,1-.91.75.83.83,0,0,1-.92-.75l-.8-3h0l-.79,3.06a.83.83,0,0,1-.91.74C327.74,559.55,327.49,559.33,327.33,558.81Z" transform="translate(-219.6 -202.89)"/><path class="cls-7" d="M336.48,558.68v-5.51a.68.68,0,0,1,.74-.76h2.33c1.32,0,2.15.67,2.15,1.75a1.55,1.55,0,0,1-1.32,1.53v0a1.71,1.71,0,0,1,1.66,1.71c0,1.24-.94,2-2.44,2h-2.38A.69.69,0,0,1,336.48,558.68Zm2.53-3.34c.79,0,1.24-.35,1.24-1s-.4-.89-1.08-.89H338v1.84Zm.21,3c.85,0,1.31-.36,1.31-1s-.47-1-1.34-1H338v2Z" transform="translate(-219.6 -202.89)"/><path class="cls-7" d="M342.56,556.83a2.6,2.6,0,1,1,2.6,2.73A2.48,2.48,0,0,1,342.56,556.83Zm3.74,0c0-1-.45-1.64-1.14-1.64s-1.15.6-1.15,1.64.44,1.65,1.15,1.65S346.3,557.88,346.3,556.83Z" transform="translate(-219.6 -202.89)"/><path class="cls-7" d="M348.23,559a.72.72,0,0,1,.19-.48l1.22-1.65-1.22-1.66a.73.73,0,0,1-.15-.44.64.64,0,0,1,.69-.63c.28,0,.43.1.62.41l1,1.47h0l1-1.46c.19-.3.34-.42.6-.42a.61.61,0,0,1,.67.61.74.74,0,0,1-.19.49l-1.19,1.6,1.21,1.68a.68.68,0,0,1,.16.43.63.63,0,0,1-.68.63.61.61,0,0,1-.58-.36l-1-1.55h0l-1,1.53c-.19.3-.33.38-.59.38A.58.58,0,0,1,348.23,559Z" transform="translate(-219.6 -202.89)"/><path class="cls-8" d="M626,244v-7.16a.89.89,0,0,1,1-1h2.54c2.75,0,4.37,1.63,4.37,4.54s-1.62,4.62-4.37,4.62h-2.54A.9.9,0,0,1,626,244Zm3.27-.58c1.72,0,2.64-1,2.64-3s-1-3-2.64-3h-1.35v6Z" transform="translate(-219.6 -202.89)"/><path class="cls-8" d="M634.65,241.65c0-2.19,1.28-3.59,3.29-3.59a3.06,3.06,0,0,1,3.23,3.17.74.74,0,0,1-.81.81h-3.88v.08a1.51,1.51,0,0,0,1.54,1.67,1.94,1.94,0,0,0,1.63-.82.76.76,0,0,1,.6-.27.68.68,0,0,1,.73.68,1,1,0,0,1-.13.45,3.06,3.06,0,0,1-2.82,1.33A3.16,3.16,0,0,1,634.65,241.65Zm4.73-.75a1.4,1.4,0,0,0-1.42-1.46,1.47,1.47,0,0,0-1.47,1.46Z" transform="translate(-219.6 -202.89)"/><path class="cls-8" d="M642.61,244.18v-4.57h-.35a.69.69,0,0,1,0-1.37h.35v-.51a1.72,1.72,0,0,1,1.95-2c1,0,1.39.31,1.39.75a.46.46,0,0,1-.37.49,1.25,1.25,0,0,1-.36.05c-.57,0-.8.25-.8.75v.43h.78a.69.69,0,0,1,0,1.37h-.73v4.57a.93.93,0,1,1-1.86,0Z" transform="translate(-219.6 -202.89)"/><path class="cls-8" d="M646.31,241.65c0-2.19,1.27-3.59,3.29-3.59a3.05,3.05,0,0,1,3.22,3.17.73.73,0,0,1-.81.81h-3.88v.08a1.51,1.51,0,0,0,1.55,1.67,1.92,1.92,0,0,0,1.62-.82.78.78,0,0,1,.61-.27.67.67,0,0,1,.72.68.89.89,0,0,1-.13.45,3.05,3.05,0,0,1-2.82,1.33A3.16,3.16,0,0,1,646.31,241.65Zm4.73-.75a1.4,1.4,0,0,0-1.43-1.46,1.45,1.45,0,0,0-1.46,1.46Z" transform="translate(-219.6 -202.89)"/><path class="cls-8" d="M653.77,244.18V239a.85.85,0,0,1,.9-.93.87.87,0,0,1,.92.94v.38h0a2.09,2.09,0,0,1,2.1-1.31,2.25,2.25,0,0,1,2.36,2.55v3.55a.93.93,0,1,1-1.86,0V241c0-.89-.41-1.4-1.25-1.4a1.34,1.34,0,0,0-1.35,1.49v3.07a.93.93,0,1,1-1.86,0Z" transform="translate(-219.6 -202.89)"/><path class="cls-8" d="M661,241.6c0-2.16,1.07-3.5,2.78-3.5a2.18,2.18,0,0,1,2.08,1.28h0v-2.69a.93.93,0,1,1,1.85,0v7.52a.86.86,0,0,1-.92.94.87.87,0,0,1-.93-.94v-.39h0a2.12,2.12,0,0,1-2.09,1.3C662.09,245.12,661,243.78,661,241.6Zm4.91,0c0-1.23-.59-2-1.51-2s-1.51.78-1.51,2,.57,2,1.51,2S665.93,242.86,665.93,241.61Z" transform="translate(-219.6 -202.89)"/><path class="cls-8" d="M668.76,241.65c0-2.19,1.28-3.59,3.29-3.59a3.05,3.05,0,0,1,3.22,3.17.73.73,0,0,1-.8.81h-3.89v.08a1.51,1.51,0,0,0,1.55,1.67,1.92,1.92,0,0,0,1.62-.82.78.78,0,0,1,.61-.27.67.67,0,0,1,.72.68,1,1,0,0,1-.12.45,3.07,3.07,0,0,1-2.82,1.33A3.16,3.16,0,0,1,668.76,241.65Zm4.73-.75a1.4,1.4,0,0,0-1.42-1.46,1.46,1.46,0,0,0-1.47,1.46Z" transform="translate(-219.6 -202.89)"/><path class="cls-8" d="M676.22,244.18V239a.85.85,0,0,1,.9-.93.84.84,0,0,1,.88.93v.45h0a1.5,1.5,0,0,1,1.42-1.35.91.91,0,0,1,.58.17.85.85,0,0,1,.26.69.87.87,0,0,1-.26.67,1.3,1.3,0,0,1-.81.24c-.84,0-1.14.49-1.14,1.29v3a.93.93,0,1,1-1.86,0Z" transform="translate(-219.6 -202.89)"/><path class="cls-8" d="M683.56,243.41a1.54,1.54,0,0,1-.1-.51.81.81,0,0,1,.84-.85.92.92,0,0,1,.89.56,1.89,1.89,0,0,0,1.89,1c1,0,1.72-.5,1.72-1.17s-.43-1-1.58-1.18l-1-.19c-1.82-.37-2.72-1.24-2.72-2.61,0-1.67,1.46-2.78,3.5-2.78,1.67,0,2.94.7,3.34,1.9a1.09,1.09,0,0,1,.07.42.75.75,0,0,1-.82.77.94.94,0,0,1-.91-.57,1.65,1.65,0,0,0-1.68-1c-.95,0-1.58.44-1.58,1.11s.44.92,1.53,1.13l1,.2c1.94.39,2.78,1.17,2.78,2.56,0,1.79-1.4,2.92-3.69,2.92C685.14,245.17,683.93,244.41,683.56,243.41Z" transform="translate(-219.6 -202.89)"/><path class="cls-8" d="M691.73,246.48V239a.92.92,0,1,1,1.83,0v.37h0a2.22,2.22,0,0,1,2.11-1.3c1.72,0,2.78,1.32,2.78,3.51s-1,3.51-2.75,3.51a2.23,2.23,0,0,1-2.12-1.25h0v2.61a.93.93,0,1,1-1.85,0Zm4.86-4.87c0-1.23-.58-2-1.51-2s-1.5.8-1.5,2,.6,2,1.5,2S696.59,242.85,696.59,241.61Z" transform="translate(-219.6 -202.89)"/><path class="cls-8" d="M699.18,243.06c0-1.24,1-1.95,2.65-2.06l1.71-.1v-.45c0-.63-.44-1-1.14-1a1.48,1.48,0,0,0-1.32.72,1,1,0,0,1-.73.34.71.71,0,0,1-.78-.71.9.9,0,0,1,.1-.42c.31-.81,1.41-1.32,2.81-1.32,1.75,0,2.89.91,2.89,2.28v3.88a.85.85,0,0,1-.91.93.81.81,0,0,1-.88-.83V244h0a2.34,2.34,0,0,1-2.08,1.15A2.1,2.1,0,0,1,699.18,243.06Zm4.36-.54V242l-1.43.08c-.69.06-1.09.37-1.09.85s.42.82,1.05.82A1.35,1.35,0,0,0,703.54,242.52Z" transform="translate(-219.6 -202.89)"/><path class="cls-8" d="M707.64,244.18l-1.37-4.74a2,2,0,0,1-.1-.58.81.81,0,0,1,.89-.79.86.86,0,0,1,.87.79l1,4.4h0l1-4.34a1.06,1.06,0,0,1,2.08,0l1.06,4.34h0l1-4.41a.85.85,0,0,1,.85-.78.8.8,0,0,1,.88.79,1.89,1.89,0,0,1-.1.56l-1.37,4.75a1.14,1.14,0,0,1-1.19,1,1.09,1.09,0,0,1-1.2-1l-1-4h0l-1,4a1.1,1.1,0,0,1-1.19,1C708.17,245.15,707.84,244.85,707.64,244.18Z" transform="translate(-219.6 -202.89)"/><path class="cls-8" d="M716.8,244.18V239a.84.84,0,0,1,.89-.93.87.87,0,0,1,.93.94v.38h0a2.09,2.09,0,0,1,2.09-1.31,2.25,2.25,0,0,1,2.36,2.55v3.55a.93.93,0,1,1-1.85,0V241c0-.89-.42-1.4-1.25-1.4a1.35,1.35,0,0,0-1.36,1.49v3.07a.93.93,0,1,1-1.85,0Z" transform="translate(-219.6 -202.89)"/><path class="cls-7" d="M980.61,677.12a1.6,1.6,0,0,1,.1-.46l1.92-5.24a1.17,1.17,0,0,1,2.24,0l1.93,5.25a1.28,1.28,0,0,1,.1.46.69.69,0,0,1-.74.7c-.42,0-.64-.19-.77-.65l-.37-1.12h-2.54l-.37,1.1c-.14.47-.36.67-.75.67A.68.68,0,0,1,980.61,677.12Zm4.07-2.21-.93-2.88h0l-.91,2.88Z" transform="translate(-219.6 -202.89)"/><path class="cls-7" d="M989.77,677.13v-5.6a.87.87,0,0,1,1-.95,1,1,0,0,1,1,.76l1.75,4.33h0l1.74-4.33a1,1,0,0,1,1-.76.87.87,0,0,1,1,.95v5.6a.66.66,0,1,1-1.32,0V673h0l-1.75,4.26a.63.63,0,0,1-.63.45.63.63,0,0,1-.64-.44L991.12,673h0v4.16a.66.66,0,1,1-1.31,0Z" transform="translate(-219.6 -202.89)"/><path class="cls-7" d="M998,676.22c0-1,.74-1.5,2-1.58l1.31-.08v-.35a.77.77,0,0,0-.87-.77,1.15,1.15,0,0,0-1,.55.72.72,0,0,1-.57.27.55.55,0,0,1-.59-.55.74.74,0,0,1,.07-.32c.24-.63,1.08-1,2.17-1,1.34,0,2.22.69,2.22,1.75v3a.66.66,0,0,1-.7.72.63.63,0,0,1-.68-.64v-.27h0a1.81,1.81,0,0,1-1.6.89A1.63,1.63,0,0,1,998,676.22Zm3.36-.41v-.39l-1.1.07c-.53,0-.83.28-.83.65s.32.64.8.64A1,1,0,0,0,1001.32,675.81Z" transform="translate(-219.6 -202.89)"/><path class="cls-7" d="M1003.62,671.1a.76.76,0,0,1,1.52,0,.76.76,0,0,1-1.52,0Zm0,6v-4a.71.71,0,1,1,1.42,0v4a.71.71,0,1,1-1.42,0Z" transform="translate(-219.6 -202.89)"/><path class="cls-7" d="M1006,677.08v-4a.65.65,0,0,1,.69-.72.67.67,0,0,1,.71.73v.29h0a1.61,1.61,0,0,1,1.61-1,1.73,1.73,0,0,1,1.82,2v2.73a.72.72,0,1,1-1.43,0v-2.43c0-.69-.32-1.08-1-1.08a1,1,0,0,0-1,1.15v2.36a.72.72,0,1,1-1.43,0Z" transform="translate(-219.6 -202.89)"/><path class="cls-7" d="M1049.65,377.24v-5.51a.69.69,0,0,1,.74-.76h3.35a.59.59,0,0,1,.67.61.6.6,0,0,1-.67.61h-2.61v1.69h2.48a.56.56,0,0,1,.62.57.55.55,0,0,1-.62.56h-2.48v1.78h2.61a.61.61,0,1,1,0,1.22h-3.35A.69.69,0,0,1,1049.65,377.24Z" transform="translate(-219.6 -202.89)"/><path class="cls-7" d="M1055.3,377.37V371.6a.71.71,0,1,1,1.42,0v5.77a.71.71,0,1,1-1.42,0Z" transform="translate(-219.6 -202.89)"/><path class="cls-7" d="M1057.72,377.39V371.6a.72.72,0,1,1,1.43,0v2.09h0a1.71,1.71,0,0,1,1.62-1c1.32,0,2.13,1,2.13,2.7s-.8,2.7-2.12,2.7a1.72,1.72,0,0,1-1.64-1h0v.28a.66.66,0,0,1-.71.72A.65.65,0,0,1,1057.72,377.39Zm3.74-2c0-.95-.44-1.55-1.15-1.55s-1.17.62-1.17,1.55.47,1.56,1.17,1.56S1061.46,376.35,1061.46,375.39Z" transform="translate(-219.6 -202.89)"/><path class="cls-7" d="M1063.47,375.39a2.59,2.59,0,1,1,2.59,2.73A2.48,2.48,0,0,1,1063.47,375.39Zm3.73,0c0-1-.45-1.64-1.14-1.64s-1.15.6-1.15,1.64.45,1.64,1.15,1.64S1067.2,376.44,1067.2,375.39Z" transform="translate(-219.6 -202.89)"/><path class="cls-7" d="M1070.19,377.37l-1-3.65a1.33,1.33,0,0,1-.08-.44.63.63,0,0,1,.69-.61.67.67,0,0,1,.67.6l.77,3.39h0l.81-3.34a.82.82,0,0,1,1.6,0l.82,3.34h0l.78-3.39a.65.65,0,0,1,.66-.6.61.61,0,0,1,.67.6,1.33,1.33,0,0,1-.08.44l-1,3.65a.87.87,0,0,1-.91.75.84.84,0,0,1-.93-.75l-.79-3.05h0l-.79,3.06a.93.93,0,0,1-1.82,0Z" transform="translate(-219.6 -202.89)"/><path class="cls-7" d="M1066.73,766.34c0-2.27,1.29-3.64,3.32-3.64a2.94,2.94,0,0,1,2.82,1.6,1.14,1.14,0,0,1,.15.55.61.61,0,0,1-.65.64.72.72,0,0,1-.71-.49,1.68,1.68,0,0,0-1.6-1.08c-1.11,0-1.83.93-1.83,2.41s.71,2.44,1.84,2.44a1.64,1.64,0,0,0,1.61-1,.65.65,0,0,1,.65-.46.63.63,0,0,1,.69.65,1.33,1.33,0,0,1-.11.5,2.94,2.94,0,0,1-2.82,1.57C1068,770,1066.73,768.62,1066.73,766.34Z" transform="translate(-219.6 -202.89)"/><path class="cls-7" d="M1073.72,768.36c0-1,.73-1.5,2-1.58l1.32-.08v-.35c0-.48-.34-.77-.88-.77a1.15,1.15,0,0,0-1,.55.69.69,0,0,1-.56.27.56.56,0,0,1-.6-.55.74.74,0,0,1,.07-.32,2.2,2.2,0,0,1,2.17-1c1.35,0,2.22.69,2.22,1.75v3a.65.65,0,0,1-.69.72.64.64,0,0,1-.69-.64v-.27h0a1.79,1.79,0,0,1-1.6.89A1.62,1.62,0,0,1,1073.72,768.36Zm3.36-.41v-.38l-1.11.06c-.53,0-.83.28-.83.65s.32.64.8.64A1.06,1.06,0,0,0,1077.08,768Z" transform="translate(-219.6 -202.89)"/><path class="cls-7" d="M1079.78,769.23v-3.52h-.28a.5.5,0,0,1-.52-.53.49.49,0,0,1,.52-.52h.28v-.4a1.31,1.31,0,0,1,1.49-1.5c.76,0,1.08.24,1.08.57a.37.37,0,0,1-.29.38l-.27,0c-.44,0-.62.19-.62.57v.34h.6a.49.49,0,0,1,.52.52.5.5,0,0,1-.52.53h-.57v3.52a.71.71,0,1,1-1.42,0Z" transform="translate(-219.6 -202.89)"/><path class="cls-7" d="M1082.62,767.27a2.47,2.47,0,0,1,2.53-2.75,2.35,2.35,0,0,1,2.48,2.44.57.57,0,0,1-.62.62h-3v.06a1.16,1.16,0,0,0,1.19,1.28,1.47,1.47,0,0,0,1.25-.63.6.6,0,0,1,.47-.21.52.52,0,0,1,.55.53.66.66,0,0,1-.1.34,2.33,2.33,0,0,1-2.16,1A2.43,2.43,0,0,1,1082.62,767.27Zm3.64-.57a1.09,1.09,0,0,0-1.1-1.13,1.12,1.12,0,0,0-1.12,1.13Z" transform="translate(-219.6 -202.89)"/><path class="cls-7" d="M978.13,313.43a1.1,1.1,0,0,1-.08-.4.61.61,0,0,1,.65-.64.7.7,0,0,1,.68.42,1.46,1.46,0,0,0,1.46.79c.79,0,1.32-.38,1.32-.9s-.33-.73-1.21-.91l-.75-.15c-1.41-.28-2.09-.95-2.09-2,0-1.29,1.12-2.14,2.69-2.14a2.49,2.49,0,0,1,2.57,1.46,1.07,1.07,0,0,1,0,.32.58.58,0,0,1-.63.6.74.74,0,0,1-.7-.44,1.27,1.27,0,0,0-1.29-.75c-.73,0-1.21.34-1.21.86s.33.7,1.17.87l.74.15c1.49.3,2.14.9,2.14,2,0,1.37-1.08,2.24-2.84,2.24C979.35,314.78,978.41,314.2,978.13,313.43Z" transform="translate(-219.6 -202.89)"/><path class="cls-7" d="M984.22,312.05a2.47,2.47,0,0,1,2.57-2.73,2.28,2.28,0,0,1,2.21,1.25,1,1,0,0,1,.08.35.57.57,0,0,1-.61.56.62.62,0,0,1-.6-.37,1.12,1.12,0,0,0-1-.67c-.73,0-1.17.59-1.17,1.6s.44,1.62,1.16,1.62a1.1,1.1,0,0,0,1-.62.71.71,0,0,1,.65-.42.57.57,0,0,1,.6.58,1,1,0,0,1-.09.37,2.39,2.39,0,0,1-2.21,1.21A2.47,2.47,0,0,1,984.22,312.05Z" transform="translate(-219.6 -202.89)"/><path class="cls-7" d="M989.86,314v-4a.69.69,0,1,1,1.37,0v.34h0a1.14,1.14,0,0,1,1.08-1,.65.65,0,0,1,.45.13.62.62,0,0,1,.2.53.63.63,0,0,1-.2.51,1,1,0,0,1-.62.19c-.65,0-.88.37-.88,1V314a.67.67,0,0,1-.71.74A.68.68,0,0,1,989.86,314Z" transform="translate(-219.6 -202.89)"/><path class="cls-7" d="M993.14,312.07a2.47,2.47,0,0,1,2.53-2.75,2.35,2.35,0,0,1,2.48,2.44.56.56,0,0,1-.62.62h-3v.06a1.16,1.16,0,0,0,1.19,1.28,1.45,1.45,0,0,0,1.25-.63.6.6,0,0,1,.47-.21.52.52,0,0,1,.55.53.72.72,0,0,1-.09.34,2.35,2.35,0,0,1-2.17,1A2.43,2.43,0,0,1,993.14,312.07Zm3.64-.57a1.09,1.09,0,0,0-1.1-1.13,1.13,1.13,0,0,0-1.12,1.13Z" transform="translate(-219.6 -202.89)"/><path class="cls-7" d="M998.69,312.07a2.47,2.47,0,0,1,2.53-2.75,2.34,2.34,0,0,1,2.48,2.44.56.56,0,0,1-.62.62h-3v.06a1.16,1.16,0,0,0,1.2,1.28,1.48,1.48,0,0,0,1.25-.63.58.58,0,0,1,.46-.21.52.52,0,0,1,.56.53.74.74,0,0,1-.1.34,2.35,2.35,0,0,1-2.17,1A2.43,2.43,0,0,1,998.69,312.07Zm3.64-.57a1.08,1.08,0,0,0-1.09-1.13,1.13,1.13,0,0,0-1.13,1.13Z" transform="translate(-219.6 -202.89)"/><path class="cls-7" d="M1004.43,314v-4a.65.65,0,0,1,.69-.72.68.68,0,0,1,.72.73v.29h0a1.59,1.59,0,0,1,1.61-1,1.73,1.73,0,0,1,1.81,2V314a.71.71,0,1,1-1.42,0v-2.44c0-.68-.33-1.07-1-1.07a1,1,0,0,0-1,1.14V314a.67.67,0,0,1-.71.74A.68.68,0,0,1,1004.43,314Z" transform="translate(-219.6 -202.89)"/><path class="cls-7" d="M1010.08,313.73a.63.63,0,0,1-.05-.26.54.54,0,0,1,.57-.55.8.8,0,0,1,.62.32,1.27,1.27,0,0,0,1.14.54c.52,0,.86-.22.86-.56s-.18-.44-.69-.55l-.88-.19c-1-.22-1.55-.74-1.55-1.52,0-1,.87-1.64,2.23-1.64a2,2,0,0,1,2,1.08.82.82,0,0,1,0,.21c0,.29-.18.49-.55.49a.67.67,0,0,1-.51-.22,1.24,1.24,0,0,0-1.05-.56c-.48,0-.82.23-.82.57s.21.45.73.56l.86.19c1.12.23,1.57.64,1.57,1.42,0,1-.93,1.72-2.31,1.72C1011.13,314.78,1010.33,314.35,1010.08,313.73Z" transform="translate(-219.6 -202.89)"/><path class="cls-7" d="M850.64,429.69V424a.74.74,0,1,1,1.48,0v2.18h3.17V424a.74.74,0,1,1,1.48,0v5.7a.74.74,0,1,1-1.48,0v-2.3h-3.17v2.3a.74.74,0,1,1-1.48,0Z" transform="translate(-219.6 -202.89)"/><path class="cls-7" d="M857.63,427.77a2.47,2.47,0,0,1,2.52-2.76,2.35,2.35,0,0,1,2.48,2.44.56.56,0,0,1-.62.62h-3v.06a1.16,1.16,0,0,0,1.19,1.29,1.5,1.5,0,0,0,1.25-.63.57.57,0,0,1,.46-.21.51.51,0,0,1,.56.52.81.81,0,0,1-.1.35,2.37,2.37,0,0,1-2.17,1A2.43,2.43,0,0,1,857.63,427.77Zm3.63-.57a1.08,1.08,0,0,0-1.09-1.13A1.13,1.13,0,0,0,859,427.2Z" transform="translate(-219.6 -202.89)"/><path class="cls-7" d="M863.16,428.86c0-1,.73-1.51,2-1.59l1.32-.07v-.35c0-.49-.34-.77-.88-.77a1.13,1.13,0,0,0-1,.55.75.75,0,0,1-.57.26.55.55,0,0,1-.6-.54.76.76,0,0,1,.08-.33c.24-.62,1.08-1,2.17-1,1.34,0,2.21.7,2.21,1.75v3a.65.65,0,0,1-.69.72.63.63,0,0,1-.69-.63v-.27h0a1.81,1.81,0,0,1-1.61.88A1.62,1.62,0,0,1,863.16,428.86Zm3.36-.42v-.38l-1.1.07c-.54,0-.84.28-.84.65s.32.63.8.63A1,1,0,0,0,866.52,428.44Z" transform="translate(-219.6 -202.89)"/><path class="cls-7" d="M870,429.73l-1.36-3.65a1.42,1.42,0,0,1-.08-.42.65.65,0,0,1,.72-.64.67.67,0,0,1,.68.57L871,429.1h0l1.06-3.53a.69.69,0,0,1,1.36.08,1.1,1.1,0,0,1-.08.4L872,429.73a1,1,0,0,1-1,.73A1,1,0,0,1,870,429.73Z" transform="translate(-219.6 -202.89)"/><path class="cls-7" d="M873.76,427.77a2.47,2.47,0,0,1,2.53-2.76,2.35,2.35,0,0,1,2.48,2.44.57.57,0,0,1-.62.62h-3v.06a1.17,1.17,0,0,0,1.19,1.29,1.5,1.5,0,0,0,1.25-.63.57.57,0,0,1,.46-.21.51.51,0,0,1,.56.52.69.69,0,0,1-.1.35,2.34,2.34,0,0,1-2.16,1A2.43,2.43,0,0,1,873.76,427.77Zm3.63-.57a1.07,1.07,0,0,0-1.09-1.13,1.13,1.13,0,0,0-1.13,1.13Z" transform="translate(-219.6 -202.89)"/><path class="cls-7" d="M879.5,429.72v-4a.65.65,0,0,1,.69-.72.66.66,0,0,1,.71.72V426h0a1.6,1.6,0,0,1,1.61-1,1.73,1.73,0,0,1,1.82,2v2.73a.67.67,0,0,1-.72.74.67.67,0,0,1-.71-.74v-2.44c0-.68-.32-1.07-1-1.07a1,1,0,0,0-1,1.15v2.36a.72.72,0,1,1-1.43,0Z" transform="translate(-219.6 -202.89)"/><path class="cls-7" d="M872.53,820.44a1.14,1.14,0,0,1-.08-.4.62.62,0,0,1,.65-.65.72.72,0,0,1,.68.43,1.45,1.45,0,0,0,1.45.78c.79,0,1.33-.38,1.33-.89s-.33-.73-1.22-.91l-.74-.15c-1.41-.28-2.1-.95-2.1-2,0-1.29,1.13-2.14,2.69-2.14a2.51,2.51,0,0,1,2.58,1.46,1,1,0,0,1,.05.32.58.58,0,0,1-.63.59.72.72,0,0,1-.7-.43,1.29,1.29,0,0,0-1.3-.75c-.72,0-1.21.34-1.21.86s.34.7,1.17.87l.75.15c1.49.3,2.14.9,2.14,2,0,1.38-1.08,2.25-2.84,2.25C873.74,821.79,872.81,821.21,872.53,820.44Z" transform="translate(-219.6 -202.89)"/><path class="cls-7" d="M878.62,819.08a2.47,2.47,0,0,1,2.53-2.75,2.34,2.34,0,0,1,2.48,2.43.56.56,0,0,1-.62.62h-3v.07a1.16,1.16,0,0,0,1.19,1.28,1.45,1.45,0,0,0,1.25-.63.62.62,0,0,1,.47-.21.51.51,0,0,1,.55.52.76.76,0,0,1-.09.35,2.35,2.35,0,0,1-2.17,1A2.43,2.43,0,0,1,878.62,819.08Zm3.64-.57a1.08,1.08,0,0,0-1.09-1.13,1.13,1.13,0,0,0-1.13,1.13Z" transform="translate(-219.6 -202.89)"/><path class="cls-7" d="M885.19,821l-1.05-3.65a1.29,1.29,0,0,1-.08-.44.63.63,0,0,1,.69-.61.67.67,0,0,1,.67.61l.77,3.38h0L887,817a.82.82,0,0,1,1.61,0l.81,3.33h0l.78-3.39a.66.66,0,0,1,.66-.6.61.61,0,0,1,.67.61,1.52,1.52,0,0,1-.07.43L890.46,821a.87.87,0,0,1-.91.76.84.84,0,0,1-.92-.76l-.8-3h0L887,821a.84.84,0,0,1-.91.75A.86.86,0,0,1,885.19,821Z" transform="translate(-219.6 -202.89)"/><path class="cls-7" d="M892,819.08a2.47,2.47,0,0,1,2.52-2.75,2.35,2.35,0,0,1,2.49,2.43.56.56,0,0,1-.62.62h-3v.07a1.16,1.16,0,0,0,1.19,1.28,1.48,1.48,0,0,0,1.25-.63.6.6,0,0,1,.46-.21.52.52,0,0,1,.56.52.78.78,0,0,1-.1.35,2.35,2.35,0,0,1-2.17,1A2.43,2.43,0,0,1,892,819.08Zm3.63-.57a1.08,1.08,0,0,0-1.09-1.13,1.13,1.13,0,0,0-1.13,1.13Z" transform="translate(-219.6 -202.89)"/><path class="cls-7" d="M897.72,821v-4a.66.66,0,0,1,.69-.72.65.65,0,0,1,.67.72v.34h0a1.15,1.15,0,0,1,1.09-1,.64.64,0,0,1,.44.13.62.62,0,0,1,.21.53.64.64,0,0,1-.21.51.9.9,0,0,1-.62.18c-.65,0-.88.38-.88,1V821a.71.71,0,1,1-1.42,0Z" transform="translate(-219.6 -202.89)"/><path class="cls-7" d="M901.24,820.74a.65.65,0,0,1-.06-.26.54.54,0,0,1,.58-.55.8.8,0,0,1,.62.32,1.27,1.27,0,0,0,1.14.54c.52,0,.86-.22.86-.57s-.18-.43-.7-.54l-.87-.19c-1-.22-1.55-.74-1.55-1.52,0-1,.87-1.64,2.22-1.64a2,2,0,0,1,2.06,1.08,1.52,1.52,0,0,1,0,.21c0,.29-.18.49-.55.49a.7.7,0,0,1-.52-.22,1.21,1.21,0,0,0-1-.56c-.48,0-.82.23-.82.56s.2.46.73.57l.86.19c1.11.23,1.57.64,1.57,1.42,0,1-.93,1.72-2.31,1.72C902.29,821.79,901.49,821.36,901.24,820.74Z" transform="translate(-219.6 -202.89)"/><path class="cls-7" d="M838.23,657.27v-5.62a.68.68,0,0,1,.74-.76h2.15c1.62,0,2.55.85,2.55,2.24a2.07,2.07,0,0,1-1.21,2l1,1.75a.94.94,0,0,1,.16.51.7.7,0,0,1-.75.68c-.35,0-.51-.13-.75-.56L841,655.36h-1.25v1.91a.74.74,0,1,1-1.48,0Zm2.75-3a1.06,1.06,0,0,0,1.17-1.13A1.08,1.08,0,0,0,841,652h-1.25v2.25Z" transform="translate(-219.6 -202.89)"/><path class="cls-7" d="M844.28,656.43c0-.95.73-1.5,2-1.58l1.32-.08v-.35c0-.49-.34-.77-.88-.77a1.13,1.13,0,0,0-1,.55.72.72,0,0,1-.57.27.56.56,0,0,1-.6-.55.76.76,0,0,1,.08-.32c.24-.63,1.08-1,2.17-1,1.34,0,2.21.69,2.21,1.74v3a.65.65,0,0,1-.69.72.62.62,0,0,1-.68-.64v-.27h0A1.82,1.82,0,0,1,846,658,1.62,1.62,0,0,1,844.28,656.43Zm3.36-.42v-.38l-1.1.07c-.54,0-.84.28-.84.65s.32.64.8.64A1.05,1.05,0,0,0,847.64,656Z" transform="translate(-219.6 -202.89)"/><path class="cls-7" d="M850,657.29v-4a.69.69,0,1,1,1.38,0v.33h0a1.54,1.54,0,0,1,1.49-1,1.39,1.39,0,0,1,1.46,1.08h0A1.66,1.66,0,0,1,856,652.6a1.64,1.64,0,0,1,1.71,1.76v2.93a.72.72,0,1,1-1.43,0v-2.57c0-.61-.3-.94-.85-.94a.89.89,0,0,0-.9,1v2.54a.65.65,0,0,1-.69.75c-.42,0-.68-.26-.68-.75v-2.62a.8.8,0,0,0-.85-.89.9.9,0,0,0-.9,1v2.52a.68.68,0,0,1-.72.75A.67.67,0,0,1,850,657.29Z" transform="translate(-219.6 -202.89)"/><path class="cls-7" d="M858.59,659.06v-5.74a.71.71,0,1,1,1.41,0v.28h0a1.7,1.7,0,0,1,1.62-1c1.33,0,2.14,1,2.14,2.7s-.81,2.7-2.12,2.7a1.7,1.7,0,0,1-1.62-1h0v2a.67.67,0,0,1-.71.74A.68.68,0,0,1,858.59,659.06Zm3.74-3.74c0-1-.45-1.56-1.16-1.56s-1.16.62-1.16,1.56.46,1.55,1.16,1.55S862.33,656.27,862.33,655.32Z" transform="translate(-219.6 -202.89)"/><path class="cls-7" d="M371.37,479.68v-16a2,2,0,0,1,2.14-2.23h6.75c3.84,0,6.24,2,6.24,5.1a4.5,4.5,0,0,1-3.83,4.43v.12a5,5,0,0,1,4.81,4.94c0,3.59-2.7,5.85-7.06,5.85h-6.91A2,2,0,0,1,371.37,479.68Zm7.35-9.7c2.28,0,3.58-1,3.58-2.73s-1.15-2.58-3.14-2.58h-3.52V470Zm.61,8.75c2.46,0,3.79-1.05,3.79-3s-1.37-2.93-3.89-2.93h-3.59v5.93Z" transform="translate(-219.6 -202.89)"/><path class="cls-7" d="M1131.49,442.18c-1.13,0-1.77-.57-2.16-1.92l-1.08-3.19h-7.38l-1.07,3.23c-.39,1.33-1,1.88-2.23,1.88a2,2,0,0,1-2.14-2,3.75,3.75,0,0,1,.27-1.36l5.61-15.21a3.39,3.39,0,0,1,6.49,0l5.58,15.19a4.5,4.5,0,0,1,.28,1.36A2,2,0,0,1,1131.49,442.18Zm-4.18-8.42-2.64-8.37h-.1l-2.71,8.37Z" transform="translate(-219.6 -202.89)"/><path class="cls-7" d="M647.59,725.61V720a.87.87,0,0,1,.95-1,1,1,0,0,1,1,.76l1.75,4.33h0l1.74-4.33a1,1,0,0,1,1-.76.87.87,0,0,1,.95,1v5.6a.66.66,0,1,1-1.32,0v-4.16h0L652,725.71a.67.67,0,0,1-1.27,0l-1.74-4.26h0v4.16a.66.66,0,1,1-1.31,0Z" transform="translate(-219.6 -202.89)"/><path class="cls-7" d="M656.07,719.58a.74.74,0,0,1,.76-.74.74.74,0,1,1,0,1.48A.74.74,0,0,1,656.07,719.58Zm0,6v-3.95a.67.67,0,0,1,.71-.75.68.68,0,0,1,.72.75v3.95a.68.68,0,0,1-.72.75A.67.67,0,0,1,656.12,725.56Z" transform="translate(-219.6 -202.89)"/><path class="cls-7" d="M658.3,723.58c0-1.66.83-2.69,2.15-2.69a1.68,1.68,0,0,1,1.59,1h0V719.8a.68.68,0,0,1,.72-.75.67.67,0,0,1,.71.75v5.78a.66.66,0,0,1-.71.73.67.67,0,0,1-.72-.73v-.3h0a1.65,1.65,0,0,1-1.61,1C659.13,726.29,658.3,725.25,658.3,723.58Zm3.78,0c0-1-.45-1.56-1.16-1.56s-1.16.6-1.16,1.56.44,1.55,1.16,1.55S662.08,724.54,662.08,723.59Z" transform="translate(-219.6 -202.89)"/></g></svg>